<svg width="284" height="32" viewBox="0 0 284 32" fill="none" xmlns="http://www.w3.org/2000/svg">
<path d="M9.66 2.53L1.12 11.49L1.19 9.67L9.73 0.71L9.66 2.53ZM2.31 1.2V9.95L1.12 11.49V1.2H2.31ZM9.73 0.71V11H8.54V2.25L9.73 0.71ZM12.4635 8.13V7.08H17.2235V8.13H12.4635ZM16.4955 4.56H17.6155V11H16.4955V4.56ZM11.8055 4.56H12.9255V11H11.8055V4.56ZM20.1255 7.78C20.1255 8.228 20.2188 8.62467 20.4055 8.97C20.6015 9.31533 20.8628 9.59067 21.1895 9.796C21.5255 9.992 21.9035 10.09 22.3235 10.09C22.6688 10.09 22.9908 10.0387 23.2895 9.936C23.5975 9.824 23.8635 9.67933 24.0875 9.502C24.3115 9.31533 24.4702 9.11933 24.5635 8.914V10.314C24.3395 10.5753 24.0175 10.7807 23.5975 10.93C23.1868 11.07 22.7622 11.14 22.3235 11.14C21.6982 11.14 21.1335 10.9953 20.6295 10.706C20.1255 10.4167 19.7242 10.02 19.4255 9.516C19.1362 9.00267 18.9915 8.424 18.9915 7.78C18.9915 7.12667 19.1362 6.548 19.4255 6.044C19.7242 5.54 20.1255 5.14333 20.6295 4.854C21.1335 4.56467 21.6982 4.42 22.3235 4.42C22.7622 4.42 23.1868 4.49467 23.5975 4.644C24.0175 4.784 24.3395 4.98467 24.5635 5.246V6.646C24.4702 6.43133 24.3115 6.23533 24.0875 6.058C23.8635 5.88067 23.5975 5.74067 23.2895 5.638C22.9908 5.526 22.6688 5.47 22.3235 5.47C21.9035 5.47 21.5255 5.568 21.1895 5.764C20.8628 5.96 20.6015 6.23533 20.4055 6.59C20.2188 6.93533 20.1255 7.332 20.1255 7.78ZM25.227 4.56H29.007V5.61H25.227V4.56ZM26.557 4.84H27.677V11H26.557V4.84ZM31.0809 14.08H29.9609V4.56H31.0809V14.08ZM36.4709 7.78C36.4709 8.47067 36.3262 9.068 36.0369 9.572C35.7475 10.076 35.3602 10.4633 34.8749 10.734C34.3989 11.0047 33.8669 11.14 33.2789 11.14C32.7469 11.14 32.2755 11.0047 31.8649 10.734C31.4635 10.4633 31.1462 10.076 30.9129 9.572C30.6889 9.068 30.5769 8.47067 30.5769 7.78C30.5769 7.08 30.6889 6.48267 30.9129 5.988C31.1462 5.484 31.4635 5.09667 31.8649 4.826C32.2755 4.55533 32.7469 4.42 33.2789 4.42C33.8669 4.42 34.3989 4.55533 34.8749 4.826C35.3602 5.09667 35.7475 5.484 36.0369 5.988C36.3262 6.48267 36.4709 7.08 36.4709 7.78ZM35.3369 7.78C35.3369 7.28533 35.2342 6.86533 35.0289 6.52C34.8329 6.17467 34.5669 5.91333 34.2309 5.736C33.9042 5.55867 33.5402 5.47 33.1389 5.47C32.8122 5.47 32.4902 5.55867 32.1729 5.736C31.8555 5.91333 31.5942 6.17467 31.3889 6.52C31.1835 6.86533 31.0809 7.28533 31.0809 7.78C31.0809 8.27467 31.1835 8.69467 31.3889 9.04C31.5942 9.38533 31.8555 9.64667 32.1729 9.824C32.4902 10.0013 32.8122 10.09 33.1389 10.09C33.5402 10.09 33.9042 10.0013 34.2309 9.824C34.5669 9.64667 34.8329 9.38533 35.0289 9.04C35.2342 8.69467 35.3369 8.27467 35.3369 7.78ZM42.8202 4.56L38.6202 14.08H37.3602L39.1242 10.09L36.6602 4.56H37.9902L40.0342 9.6L39.5722 9.544L41.5602 4.56H42.8202ZM49.8942 11L48.8442 5.89L49.4742 4.07L51.1542 11H49.8942ZM46.5342 10.034L49.4742 4.07L49.6142 6.31L46.9542 11.434L46.5342 10.034ZM46.9542 11.434L44.3362 6.31L44.4762 4.07L47.3742 10.034L46.9542 11.434ZM42.7962 11L44.4762 4.07L45.1062 5.89L44.0562 11H42.7962ZM52.3341 8.06V7.108H56.6321C56.5947 6.772 56.5014 6.478 56.3521 6.226C56.2121 5.96467 56.0114 5.764 55.7501 5.624C55.4981 5.47467 55.1854 5.4 54.8121 5.4C54.4387 5.4 54.0981 5.47933 53.7901 5.638C53.4821 5.79667 53.2347 6.02533 53.0481 6.324C52.8707 6.61333 52.7821 6.95867 52.7821 7.36L52.7541 7.78C52.7541 8.27467 52.8381 8.69467 53.0061 9.04C53.1741 9.38533 53.4121 9.64667 53.7201 9.824C54.0281 10.0013 54.3921 10.09 54.8121 10.09C55.1294 10.09 55.4094 10.0433 55.6521 9.95C55.9041 9.84733 56.1281 9.712 56.3241 9.544C56.5201 9.36667 56.6881 9.16133 56.8281 8.928L57.7381 9.502C57.5234 9.82867 57.2854 10.118 57.0241 10.37C56.7627 10.6127 56.4454 10.804 56.0721 10.944C55.6987 11.0747 55.2321 11.14 54.6721 11.14C54.0934 11.14 53.5707 10.9953 53.1041 10.706C52.6467 10.4167 52.2827 10.02 52.0121 9.516C51.7507 9.00267 51.6201 8.424 51.6201 7.78C51.6201 7.65867 51.6247 7.542 51.6341 7.43C51.6434 7.318 51.6574 7.206 51.6761 7.094C51.7694 6.562 51.9561 6.09533 52.2361 5.694C52.5161 5.29267 52.8754 4.98 53.3141 4.756C53.7621 4.532 54.2614 4.42 54.8121 4.42C55.4187 4.42 55.9507 4.55533 56.4081 4.826C56.8654 5.09667 57.2201 5.47933 57.4721 5.974C57.7241 6.45933 57.8501 7.04267 57.8501 7.724C57.8501 7.78 57.8501 7.836 57.8501 7.892C57.8501 7.948 57.8454 8.004 57.8361 8.06H52.3341ZM59.9432 8.13V7.08H64.7032V8.13H59.9432ZM63.9752 4.56H65.0952V11H63.9752V4.56ZM59.2852 4.56H60.4052V11H59.2852V4.56ZM66.1212 4.56H69.9012V5.61H66.1212V4.56ZM67.4512 4.84H68.5712V11H67.4512V4.84ZM78.5223 6.492L76.6323 10.58H75.3723L78.5223 4.07L81.6723 10.58H80.4123L78.5223 6.492ZM81.3923 11H75.7223V12.26H74.5323V9.95H82.5123V12.26H81.3923V11ZM89.7381 4.56V11H88.6181V5.61H85.3281V8.76C85.3281 9.264 85.2488 9.684 85.0901 10.02C84.9408 10.3467 84.7074 10.594 84.3901 10.762C84.0728 10.9207 83.6714 11 83.1861 11V9.978C83.4661 9.978 83.7041 9.88933 83.9001 9.712C84.1054 9.53467 84.2081 9.21733 84.2081 8.76V4.56H89.7381ZM92.7267 11H91.4947L93.8747 7.64H95.1067L92.7267 11ZM96.8147 11H95.6947V4.56H96.8147V11ZM96.1567 7.444V8.424H94.1547C93.7161 8.424 93.3147 8.35867 92.9507 8.228C92.5961 8.09733 92.3161 7.892 92.1107 7.612C91.9054 7.32267 91.8027 6.94933 91.8027 6.492C91.8027 6.02533 91.9054 5.652 92.1107 5.372C92.3161 5.092 92.5961 4.88667 92.9507 4.756C93.3147 4.62533 93.7161 4.56 94.1547 4.56H96.1567V5.54H94.1547C93.8841 5.54 93.6554 5.57733 93.4687 5.652C93.2914 5.71733 93.1561 5.82 93.0627 5.96C92.9694 6.1 92.9227 6.27733 92.9227 6.492C92.9227 6.70667 92.9694 6.884 93.0627 7.024C93.1561 7.164 93.2914 7.27133 93.4687 7.346C93.6554 7.41133 93.8841 7.444 94.1547 7.444H96.1567ZM108.686 11L107.636 5.89L108.266 4.07L109.946 11H108.686ZM105.326 10.034L108.266 4.07L108.406 6.31L105.746 11.434L105.326 10.034ZM105.746 11.434L103.128 6.31L103.268 4.07L106.166 10.034L105.746 11.434ZM101.588 11L103.268 4.07L103.898 5.89L102.848 11H101.588ZM111.475 9.11C111.475 9.334 111.536 9.52533 111.657 9.684C111.779 9.83333 111.942 9.95 112.147 10.034C112.353 10.1087 112.581 10.146 112.833 10.146C113.207 10.146 113.538 10.09 113.827 9.978C114.117 9.866 114.341 9.68867 114.499 9.446C114.667 9.20333 114.751 8.88133 114.751 8.48L114.975 9.18C114.975 9.59067 114.863 9.94533 114.639 10.244C114.425 10.5333 114.135 10.7573 113.771 10.916C113.407 11.0653 113.001 11.14 112.553 11.14C112.152 11.14 111.783 11.0653 111.447 10.916C111.111 10.7667 110.841 10.5473 110.635 10.258C110.439 9.95933 110.341 9.59067 110.341 9.152C110.341 8.69467 110.453 8.30733 110.677 7.99C110.901 7.67267 111.219 7.43 111.629 7.262C112.04 7.08467 112.525 6.996 113.085 6.996C113.496 6.996 113.846 7.052 114.135 7.164C114.434 7.26667 114.672 7.388 114.849 7.528C115.027 7.65867 115.148 7.766 115.213 7.85V8.508C114.896 8.284 114.574 8.12067 114.247 8.018C113.921 7.906 113.552 7.85 113.141 7.85C112.768 7.85 112.455 7.90133 112.203 8.004C111.961 8.10667 111.779 8.25133 111.657 8.438C111.536 8.62467 111.475 8.84867 111.475 9.11ZM111.475 6.072L110.929 5.218C111.172 5.04067 111.499 4.86333 111.909 4.686C112.32 4.50867 112.815 4.42 113.393 4.42C113.888 4.42 114.317 4.49933 114.681 4.658C115.055 4.80733 115.344 5.02667 115.549 5.316C115.764 5.60533 115.871 5.96 115.871 6.38V11H114.751V6.38C114.751 6.05333 114.611 5.81067 114.331 5.652C114.061 5.484 113.748 5.4 113.393 5.4C113.085 5.4 112.805 5.442 112.553 5.526C112.301 5.60067 112.082 5.694 111.895 5.806C111.718 5.90867 111.578 5.99733 111.475 6.072ZM118.17 7.78C118.17 8.228 118.264 8.62467 118.45 8.97C118.646 9.31533 118.908 9.59067 119.234 9.796C119.57 9.992 119.948 10.09 120.368 10.09C120.714 10.09 121.036 10.0387 121.334 9.936C121.642 9.824 121.908 9.67933 122.132 9.502C122.356 9.31533 122.515 9.11933 122.608 8.914V10.314C122.384 10.5753 122.062 10.7807 121.642 10.93C121.232 11.07 120.807 11.14 120.368 11.14C119.743 11.14 119.178 10.9953 118.674 10.706C118.17 10.4167 117.769 10.02 117.47 9.516C117.181 9.00267 117.036 8.424 117.036 7.78C117.036 7.12667 117.181 6.548 117.47 6.044C117.769 5.54 118.17 5.14333 118.674 4.854C119.178 4.56467 119.743 4.42 120.368 4.42C120.807 4.42 121.232 4.49467 121.642 4.644C122.062 4.784 122.384 4.98467 122.608 5.246V6.646C122.515 6.43133 122.356 6.23533 122.132 6.058C121.908 5.88067 121.642 5.74067 121.334 5.638C121.036 5.526 120.714 5.47 120.368 5.47C119.948 5.47 119.57 5.568 119.234 5.764C118.908 5.96 118.646 6.23533 118.45 6.59C118.264 6.93533 118.17 7.332 118.17 7.78ZM124.756 7.78C124.756 8.228 124.849 8.62467 125.036 8.97C125.232 9.31533 125.493 9.59067 125.82 9.796C126.156 9.992 126.534 10.09 126.954 10.09C127.299 10.09 127.621 10.0387 127.92 9.936C128.228 9.824 128.494 9.67933 128.718 9.502C128.942 9.31533 129.101 9.11933 129.194 8.914V10.314C128.97 10.5753 128.648 10.7807 128.228 10.93C127.817 11.07 127.393 11.14 126.954 11.14C126.329 11.14 125.764 10.9953 125.26 10.706C124.756 10.4167 124.355 10.02 124.056 9.516C123.767 9.00267 123.622 8.424 123.622 7.78C123.622 7.12667 123.767 6.548 124.056 6.044C124.355 5.54 124.756 5.14333 125.26 4.854C125.764 4.56467 126.329 4.42 126.954 4.42C127.393 4.42 127.817 4.49467 128.228 4.644C128.648 4.784 128.97 4.98467 129.194 5.246V6.646C129.101 6.43133 128.942 6.23533 128.718 6.058C128.494 5.88067 128.228 5.74067 127.92 5.638C127.621 5.526 127.299 5.47 126.954 5.47C126.534 5.47 126.156 5.568 125.82 5.764C125.493 5.96 125.232 6.23533 125.036 6.59C124.849 6.93533 124.756 7.332 124.756 7.78ZM130.278 7.78C130.278 7.12667 130.422 6.548 130.712 6.044C131.01 5.54 131.412 5.14333 131.916 4.854C132.42 4.56467 132.984 4.42 133.61 4.42C134.244 4.42 134.809 4.56467 135.304 4.854C135.808 5.14333 136.204 5.54 136.494 6.044C136.792 6.548 136.942 7.12667 136.942 7.78C136.942 8.424 136.792 9.00267 136.494 9.516C136.204 10.02 135.808 10.4167 135.304 10.706C134.809 10.9953 134.244 11.14 133.61 11.14C132.984 11.14 132.42 10.9953 131.916 10.706C131.412 10.4167 131.01 10.02 130.712 9.516C130.422 9.00267 130.278 8.424 130.278 7.78ZM131.412 7.78C131.412 8.228 131.505 8.62467 131.692 8.97C131.888 9.31533 132.149 9.59067 132.476 9.796C132.812 9.992 133.19 10.09 133.61 10.09C134.03 10.09 134.403 9.992 134.73 9.796C135.066 9.59067 135.327 9.31533 135.514 8.97C135.71 8.62467 135.808 8.228 135.808 7.78C135.808 7.332 135.71 6.93533 135.514 6.59C135.327 6.23533 135.066 5.96 134.73 5.764C134.403 5.568 134.03 5.47 133.61 5.47C133.19 5.47 132.812 5.568 132.476 5.764C132.149 5.96 131.888 6.23533 131.692 6.59C131.505 6.93533 131.412 7.332 131.412 7.78ZM139.038 7.64H140.9C141.348 7.64 141.749 7.68667 142.104 7.78C142.459 7.87333 142.739 8.03667 142.944 8.27C143.149 8.50333 143.252 8.83 143.252 9.25C143.252 9.73533 143.089 10.1507 142.762 10.496C142.445 10.832 141.917 11 141.18 11H139.038V10.02H140.9C141.32 10.02 141.628 9.93133 141.824 9.754C142.029 9.57667 142.132 9.362 142.132 9.11C142.132 8.97933 142.104 8.86267 142.048 8.76C142.001 8.65733 141.927 8.564 141.824 8.48C141.731 8.396 141.605 8.33533 141.446 8.298C141.297 8.25133 141.115 8.228 140.9 8.228H139.038V7.64ZM139.038 7.92V7.262H140.76C140.928 7.262 141.077 7.24333 141.208 7.206C141.348 7.15933 141.465 7.094 141.558 7.01C141.651 6.926 141.721 6.83267 141.768 6.73C141.824 6.618 141.852 6.50133 141.852 6.38C141.852 6.128 141.754 5.92733 141.558 5.778C141.362 5.61933 141.096 5.54 140.76 5.54H139.038V4.56H140.76C141.161 4.56 141.525 4.62067 141.852 4.742C142.188 4.854 142.459 5.04067 142.664 5.302C142.869 5.554 142.972 5.89 142.972 6.31C142.972 6.674 142.869 6.97733 142.664 7.22C142.459 7.45333 142.188 7.63067 141.852 7.752C141.525 7.864 141.161 7.92 140.76 7.92H139.038ZM138.38 4.56H139.5V11H138.38V4.56ZM144.064 7.78C144.064 7.12667 144.208 6.548 144.498 6.044C144.796 5.54 145.198 5.14333 145.702 4.854C146.206 4.56467 146.77 4.42 147.396 4.42C148.03 4.42 148.595 4.56467 149.09 4.854C149.594 5.14333 149.99 5.54 150.28 6.044C150.578 6.548 150.728 7.12667 150.728 7.78C150.728 8.424 150.578 9.00267 150.28 9.516C149.99 10.02 149.594 10.4167 149.09 10.706C148.595 10.9953 148.03 11.14 147.396 11.14C146.77 11.14 146.206 10.9953 145.702 10.706C145.198 10.4167 144.796 10.02 144.498 9.516C144.208 9.00267 144.064 8.424 144.064 7.78ZM145.198 7.78C145.198 8.228 145.291 8.62467 145.478 8.97C145.674 9.31533 145.935 9.59067 146.262 9.796C146.598 9.992 146.976 10.09 147.396 10.09C147.816 10.09 148.189 9.992 148.516 9.796C148.852 9.59067 149.113 9.31533 149.3 8.97C149.496 8.62467 149.594 8.228 149.594 7.78C149.594 7.332 149.496 6.93533 149.3 6.59C149.113 6.23533 148.852 5.96 148.516 5.764C148.189 5.568 147.816 5.47 147.396 5.47C146.976 5.47 146.598 5.568 146.262 5.764C145.935 5.96 145.674 6.23533 145.478 6.59C145.291 6.93533 145.198 7.332 145.198 7.78ZM152.236 4.56H155.666V5.61H153.356V11H152.236V4.56ZM155.922 7.78C155.922 7.12667 156.067 6.548 156.356 6.044C156.655 5.54 157.056 5.14333 157.56 4.854C158.064 4.56467 158.629 4.42 159.254 4.42C159.889 4.42 160.454 4.56467 160.948 4.854C161.452 5.14333 161.849 5.54 162.138 6.044C162.437 6.548 162.586 7.12667 162.586 7.78C162.586 8.424 162.437 9.00267 162.138 9.516C161.849 10.02 161.452 10.4167 160.948 10.706C160.454 10.9953 159.889 11.14 159.254 11.14C158.629 11.14 158.064 10.9953 157.56 10.706C157.056 10.4167 156.655 10.02 156.356 9.516C156.067 9.00267 155.922 8.424 155.922 7.78ZM157.056 7.78C157.056 8.228 157.15 8.62467 157.336 8.97C157.532 9.31533 157.794 9.59067 158.12 9.796C158.456 9.992 158.834 10.09 159.254 10.09C159.674 10.09 160.048 9.992 160.374 9.796C160.71 9.59067 160.972 9.31533 161.158 8.97C161.354 8.62467 161.452 8.228 161.452 7.78C161.452 7.332 161.354 6.93533 161.158 6.59C160.972 6.23533 160.71 5.96 160.374 5.764C160.048 5.568 159.674 5.47 159.254 5.47C158.834 5.47 158.456 5.568 158.12 5.764C157.794 5.96 157.532 6.23533 157.336 6.59C157.15 6.93533 157.056 7.332 157.056 7.78ZM167.562 7.78C167.562 7.12667 167.707 6.548 167.996 6.044C168.295 5.54 168.696 5.14333 169.2 4.854C169.704 4.56467 170.269 4.42 170.894 4.42C171.529 4.42 172.094 4.56467 172.588 4.854C173.092 5.14333 173.489 5.54 173.778 6.044C174.077 6.548 174.226 7.12667 174.226 7.78C174.226 8.424 174.077 9.00267 173.778 9.516C173.489 10.02 173.092 10.4167 172.588 10.706C172.094 10.9953 171.529 11.14 170.894 11.14C170.269 11.14 169.704 10.9953 169.2 10.706C168.696 10.4167 168.295 10.02 167.996 9.516C167.707 9.00267 167.562 8.424 167.562 7.78ZM168.696 7.78C168.696 8.228 168.79 8.62467 168.976 8.97C169.172 9.31533 169.434 9.59067 169.76 9.796C170.096 9.992 170.474 10.09 170.894 10.09C171.314 10.09 171.688 9.992 172.014 9.796C172.35 9.59067 172.612 9.31533 172.798 8.97C172.994 8.62467 173.092 8.228 173.092 7.78C173.092 7.332 172.994 6.93533 172.798 6.59C172.612 6.23533 172.35 5.96 172.014 5.764C171.688 5.568 171.314 5.47 170.894 5.47C170.474 5.47 170.096 5.568 169.76 5.764C169.434 5.96 169.172 6.23533 168.976 6.59C168.79 6.93533 168.696 7.332 168.696 7.78ZM178.89 4.56H180.15L177.952 7.682L180.29 11H179.03L177.35 8.564L175.67 11H174.41L176.748 7.682L174.55 4.56H175.81L177.35 6.8L178.89 4.56ZM181.897 7.64H183.759C184.207 7.64 184.608 7.68667 184.963 7.78C185.317 7.87333 185.597 8.03667 185.803 8.27C186.008 8.50333 186.111 8.83 186.111 9.25C186.111 9.73533 185.947 10.1507 185.621 10.496C185.303 10.832 184.776 11 184.039 11H181.897V10.02H183.759C184.179 10.02 184.487 9.93133 184.683 9.754C184.888 9.57667 184.991 9.362 184.991 9.11C184.991 8.97933 184.963 8.86267 184.907 8.76C184.86 8.65733 184.785 8.564 184.683 8.48C184.589 8.396 184.463 8.33533 184.305 8.298C184.155 8.25133 183.973 8.228 183.759 8.228H181.897V7.64ZM181.897 7.92V7.262H183.619C183.787 7.262 183.936 7.24333 184.067 7.206C184.207 7.15933 184.323 7.094 184.417 7.01C184.51 6.926 184.58 6.83267 184.627 6.73C184.683 6.618 184.711 6.50133 184.711 6.38C184.711 6.128 184.613 5.92733 184.417 5.778C184.221 5.61933 183.955 5.54 183.619 5.54H181.897V4.56H183.619C184.02 4.56 184.384 4.62067 184.711 4.742C185.047 4.854 185.317 5.04067 185.523 5.302C185.728 5.554 185.831 5.89 185.831 6.31C185.831 6.674 185.728 6.97733 185.523 7.22C185.317 7.45333 185.047 7.63067 184.711 7.752C184.384 7.864 184.02 7.92 183.619 7.92H181.897ZM181.239 4.56H182.359V11H181.239V4.56ZM187.986 9.11C187.986 9.334 188.047 9.52533 188.168 9.684C188.29 9.83333 188.453 9.95 188.658 10.034C188.864 10.1087 189.092 10.146 189.344 10.146C189.718 10.146 190.049 10.09 190.338 9.978C190.628 9.866 190.852 9.68867 191.01 9.446C191.178 9.20333 191.262 8.88133 191.262 8.48L191.486 9.18C191.486 9.59067 191.374 9.94533 191.15 10.244C190.936 10.5333 190.646 10.7573 190.282 10.916C189.918 11.0653 189.512 11.14 189.064 11.14C188.663 11.14 188.294 11.0653 187.958 10.916C187.622 10.7667 187.352 10.5473 187.146 10.258C186.95 9.95933 186.852 9.59067 186.852 9.152C186.852 8.69467 186.964 8.30733 187.188 7.99C187.412 7.67267 187.73 7.43 188.14 7.262C188.551 7.08467 189.036 6.996 189.596 6.996C190.007 6.996 190.357 7.052 190.646 7.164C190.945 7.26667 191.183 7.388 191.36 7.528C191.538 7.65867 191.659 7.766 191.724 7.85V8.508C191.407 8.284 191.085 8.12067 190.758 8.018C190.432 7.906 190.063 7.85 189.652 7.85C189.279 7.85 188.966 7.90133 188.714 8.004C188.472 8.10667 188.29 8.25133 188.168 8.438C188.047 8.62467 187.986 8.84867 187.986 9.11ZM187.986 6.072L187.44 5.218C187.683 5.04067 188.01 4.86333 188.42 4.686C188.831 4.50867 189.326 4.42 189.904 4.42C190.399 4.42 190.828 4.49933 191.192 4.658C191.566 4.80733 191.855 5.02667 192.06 5.316C192.275 5.60533 192.382 5.96 192.382 6.38V11H191.262V6.38C191.262 6.05333 191.122 5.81067 190.842 5.652C190.572 5.484 190.259 5.4 189.904 5.4C189.596 5.4 189.316 5.442 189.064 5.526C188.812 5.60067 188.593 5.694 188.406 5.806C188.229 5.90867 188.089 5.99733 187.986 6.072ZM193.197 4.56H196.977V5.61H193.197V4.56ZM194.527 4.84H195.647V11H194.527V4.84ZM198.505 9.11C198.505 9.334 198.566 9.52533 198.687 9.684C198.809 9.83333 198.972 9.95 199.177 10.034C199.383 10.1087 199.611 10.146 199.863 10.146C200.237 10.146 200.568 10.09 200.857 9.978C201.147 9.866 201.371 9.68867 201.529 9.446C201.697 9.20333 201.781 8.88133 201.781 8.48L202.005 9.18C202.005 9.59067 201.893 9.94533 201.669 10.244C201.455 10.5333 201.165 10.7573 200.801 10.916C200.437 11.0653 200.031 11.14 199.583 11.14C199.182 11.14 198.813 11.0653 198.477 10.916C198.141 10.7667 197.871 10.5473 197.665 10.258C197.469 9.95933 197.371 9.59067 197.371 9.152C197.371 8.69467 197.483 8.30733 197.707 7.99C197.931 7.67267 198.249 7.43 198.659 7.262C199.07 7.08467 199.555 6.996 200.115 6.996C200.526 6.996 200.876 7.052 201.165 7.164C201.464 7.26667 201.702 7.388 201.879 7.528C202.057 7.65867 202.178 7.766 202.243 7.85V8.508C201.926 8.284 201.604 8.12067 201.277 8.018C200.951 7.906 200.582 7.85 200.171 7.85C199.798 7.85 199.485 7.90133 199.233 8.004C198.991 8.10667 198.809 8.25133 198.687 8.438C198.566 8.62467 198.505 8.84867 198.505 9.11ZM198.505 6.072L197.959 5.218C198.202 5.04067 198.529 4.86333 198.939 4.686C199.35 4.50867 199.845 4.42 200.423 4.42C200.918 4.42 201.347 4.49933 201.711 4.658C202.085 4.80733 202.374 5.02667 202.579 5.316C202.794 5.60533 202.901 5.96 202.901 6.38V11H201.781V6.38C201.781 6.05333 201.641 5.81067 201.361 5.652C201.091 5.484 200.778 5.4 200.423 5.4C200.115 5.4 199.835 5.442 199.583 5.526C199.331 5.60067 199.112 5.694 198.925 5.806C198.748 5.90867 198.608 5.99733 198.505 6.072ZM214.043 4.56V11H212.923V5.61H209.913V11H208.793V4.56H214.043ZM215.489 7.78C215.489 7.12667 215.633 6.548 215.923 6.044C216.221 5.54 216.623 5.14333 217.127 4.854C217.631 4.56467 218.195 4.42 218.821 4.42C219.455 4.42 220.02 4.56467 220.515 4.854C221.019 5.14333 221.415 5.54 221.705 6.044C222.003 6.548 222.153 7.12667 222.153 7.78C222.153 8.424 222.003 9.00267 221.705 9.516C221.415 10.02 221.019 10.4167 220.515 10.706C220.02 10.9953 219.455 11.14 218.821 11.14C218.195 11.14 217.631 10.9953 217.127 10.706C216.623 10.4167 216.221 10.02 215.923 9.516C215.633 9.00267 215.489 8.424 215.489 7.78ZM216.623 7.78C216.623 8.228 216.716 8.62467 216.903 8.97C217.099 9.31533 217.36 9.59067 217.687 9.796C218.023 9.992 218.401 10.09 218.821 10.09C219.241 10.09 219.614 9.992 219.941 9.796C220.277 9.59067 220.538 9.31533 220.725 8.97C220.921 8.62467 221.019 8.228 221.019 7.78C221.019 7.332 220.921 6.93533 220.725 6.59C220.538 6.23533 220.277 5.96 219.941 5.764C219.614 5.568 219.241 5.47 218.821 5.47C218.401 5.47 218.023 5.568 217.687 5.764C217.36 5.96 217.099 6.23533 216.903 6.59C216.716 6.93533 216.623 7.332 216.623 7.78ZM226.394 6.492L224.504 10.58H223.244L226.394 4.07L229.544 10.58H228.284L226.394 6.492ZM229.264 11H223.594V12.26H222.404V9.95H230.384V12.26H229.264V11ZM235.398 4.56H236.658L234.46 7.682L236.798 11H235.538L233.858 8.564L232.178 11H230.918L233.256 7.682L231.058 4.56H232.318L233.858 6.8L235.398 4.56ZM236.982 7.78C236.982 7.12667 237.126 6.548 237.416 6.044C237.714 5.54 238.116 5.14333 238.62 4.854C239.124 4.56467 239.688 4.42 240.314 4.42C240.948 4.42 241.513 4.56467 242.008 4.854C242.512 5.14333 242.908 5.54 243.198 6.044C243.496 6.548 243.646 7.12667 243.646 7.78C243.646 8.424 243.496 9.00267 243.198 9.516C242.908 10.02 242.512 10.4167 242.008 10.706C241.513 10.9953 240.948 11.14 240.314 11.14C239.688 11.14 239.124 10.9953 238.62 10.706C238.116 10.4167 237.714 10.02 237.416 9.516C237.126 9.00267 236.982 8.424 236.982 7.78ZM238.116 7.78C238.116 8.228 238.209 8.62467 238.396 8.97C238.592 9.31533 238.853 9.59067 239.18 9.796C239.516 9.992 239.894 10.09 240.314 10.09C240.734 10.09 241.107 9.992 241.434 9.796C241.77 9.59067 242.031 9.31533 242.218 8.97C242.414 8.62467 242.512 8.228 242.512 7.78C242.512 7.332 242.414 6.93533 242.218 6.59C242.031 6.23533 241.77 5.96 241.434 5.764C241.107 5.568 240.734 5.47 240.314 5.47C239.894 5.47 239.516 5.568 239.18 5.764C238.853 5.96 238.592 6.23533 238.396 6.59C238.209 6.93533 238.116 7.332 238.116 7.78ZM247.887 6.492L245.997 10.58H244.737L247.887 4.07L251.037 10.58H249.777L247.887 6.492ZM250.757 11H245.087V12.26H243.897V9.95H251.877V12.26H250.757V11ZM254.385 11H253.153L255.533 7.64H256.765L254.385 11ZM258.473 11H257.353V4.56H258.473V11ZM257.815 7.444V8.424H255.813C255.374 8.424 254.973 8.35867 254.609 8.228C254.254 8.09733 253.974 7.892 253.769 7.612C253.564 7.32267 253.461 6.94933 253.461 6.492C253.461 6.02533 253.564 5.652 253.769 5.372C253.974 5.092 254.254 4.88667 254.609 4.756C254.973 4.62533 255.374 4.56 255.813 4.56H257.815V5.54H255.813C255.542 5.54 255.314 5.57733 255.127 5.652C254.95 5.71733 254.814 5.82 254.721 5.96C254.628 6.1 254.581 6.27733 254.581 6.492C254.581 6.70667 254.628 6.884 254.721 7.024C254.814 7.164 254.95 7.27133 255.127 7.346C255.314 7.41133 255.542 7.444 255.813 7.444H257.815ZM265.099 9.95H267.829V4.56H268.949V9.95H270.069V12.26H269.089V11H260.129V4.56H261.249V9.95H263.979V4.56H265.099V9.95ZM276.903 5.68L271.583 11.49L271.653 9.88L276.973 4.07L276.903 5.68ZM272.703 4.56V9.95L271.583 11.49V4.56H272.703ZM276.973 4.07V11H275.853V5.61L276.973 4.07ZM282.472 4.56H283.732L281.534 7.682L283.872 11H282.612L280.932 8.564L279.252 11H277.992L280.33 7.682L278.132 4.56H279.392L280.932 6.8L282.472 4.56ZM1.554 27.78C1.554 28.228 1.64733 28.6247 1.834 28.97C2.03 29.3153 2.29133 29.5907 2.618 29.796C2.954 29.992 3.332 30.09 3.752 30.09C4.09733 30.09 4.41933 30.0387 4.718 29.936C5.026 29.824 5.292 29.6793 5.516 29.502C5.74 29.3153 5.89867 29.1193 5.992 28.914V30.314C5.768 30.5753 5.446 30.7807 5.026 30.93C4.61533 31.07 4.19067 31.14 3.752 31.14C3.12667 31.14 2.562 30.9953 2.058 30.706C1.554 30.4167 1.15267 30.02 0.854 29.516C0.564667 29.0027 0.42 28.424 0.42 27.78C0.42 27.1267 0.564667 26.548 0.854 26.044C1.15267 25.54 1.554 25.1433 2.058 24.854C2.562 24.5647 3.12667 24.42 3.752 24.42C4.19067 24.42 4.61533 24.4947 5.026 24.644C5.446 24.784 5.768 24.9847 5.992 25.246V26.646C5.89867 26.4313 5.74 26.2353 5.516 26.058C5.292 25.8807 5.026 25.7407 4.718 25.638C4.41933 25.526 4.09733 25.47 3.752 25.47C3.332 25.47 2.954 25.568 2.618 25.764C2.29133 25.96 2.03 26.2353 1.834 26.59C1.64733 26.9353 1.554 27.332 1.554 27.78ZM7.07555 27.78C7.07555 27.1267 7.22021 26.548 7.50955 26.044C7.80821 25.54 8.20955 25.1433 8.71355 24.854C9.21755 24.5647 9.78221 24.42 10.4075 24.42C11.0422 24.42 11.6069 24.5647 12.1015 24.854C12.6055 25.1433 13.0022 25.54 13.2915 26.044C13.5902 26.548 13.7395 27.1267 13.7395 27.78C13.7395 28.424 13.5902 29.0027 13.2915 29.516C13.0022 30.02 12.6055 30.4167 12.1015 30.706C11.6069 30.9953 11.0422 31.14 10.4075 31.14C9.78221 31.14 9.21755 30.9953 8.71355 30.706C8.20955 30.4167 7.80821 30.02 7.50955 29.516C7.22021 29.0027 7.07555 28.424 7.07555 27.78ZM8.20955 27.78C8.20955 28.228 8.30288 28.6247 8.48955 28.97C8.68555 29.3153 8.94688 29.5907 9.27355 29.796C9.60955 29.992 9.98755 30.09 10.4075 30.09C10.8275 30.09 11.2009 29.992 11.5275 29.796C11.8635 29.5907 12.1249 29.3153 12.3115 28.97C12.5075 28.6247 12.6055 28.228 12.6055 27.78C12.6055 27.332 12.5075 26.9353 12.3115 26.59C12.1249 26.2353 11.8635 25.96 11.5275 25.764C11.2009 25.568 10.8275 25.47 10.4075 25.47C9.98755 25.47 9.60955 25.568 9.27355 25.764C8.94688 25.96 8.68555 26.2353 8.48955 26.59C8.30288 26.9353 8.20955 27.332 8.20955 27.78ZM20.5681 25.68L15.2481 31.49L15.3181 29.88L20.6381 24.07L20.5681 25.68ZM16.3681 24.56V29.95L15.2481 31.49V24.56H16.3681ZM20.6381 24.07V31H19.5181V25.61L20.6381 24.07ZM23.211 27.78C23.211 28.228 23.3044 28.6247 23.491 28.97C23.687 29.3153 23.9484 29.5907 24.275 29.796C24.611 29.992 24.989 30.09 25.409 30.09C25.7544 30.09 26.0764 30.0387 26.375 29.936C26.683 29.824 26.949 29.6793 27.173 29.502C27.397 29.3153 27.5557 29.1193 27.649 28.914V30.314C27.425 30.5753 27.103 30.7807 26.683 30.93C26.2724 31.07 25.8477 31.14 25.409 31.14C24.7837 31.14 24.219 30.9953 23.715 30.706C23.211 30.4167 22.8097 30.02 22.511 29.516C22.2217 29.0027 22.077 28.424 22.077 27.78C22.077 27.1267 22.2217 26.548 22.511 26.044C22.8097 25.54 23.211 25.1433 23.715 24.854C24.219 24.5647 24.7837 24.42 25.409 24.42C25.8477 24.42 26.2724 24.4947 26.683 24.644C27.103 24.784 27.425 24.9847 27.649 25.246V26.646C27.5557 26.4313 27.397 26.2353 27.173 26.058C26.949 25.8807 26.683 25.7407 26.375 25.638C26.0764 25.526 25.7544 25.47 25.409 25.47C24.989 25.47 24.611 25.568 24.275 25.764C23.9484 25.96 23.687 26.2353 23.491 26.59C23.3044 26.9353 23.211 27.332 23.211 27.78ZM29.2226 24.56H30.3426V31H29.2226V24.56ZM32.7226 24.56H34.1226L31.3226 27.22L34.4026 31H33.0026L29.9226 27.22L32.7226 24.56ZM35.8626 29.11C35.8626 29.334 35.9233 29.5253 36.0446 29.684C36.1659 29.8333 36.3293 29.95 36.5346 30.034C36.7399 30.1087 36.9686 30.146 37.2206 30.146C37.5939 30.146 37.9253 30.09 38.2146 29.978C38.5039 29.866 38.7279 29.6887 38.8866 29.446C39.0546 29.2033 39.1386 28.8813 39.1386 28.48L39.3626 29.18C39.3626 29.5907 39.2506 29.9453 39.0266 30.244C38.8119 30.5333 38.5226 30.7573 38.1586 30.916C37.7946 31.0653 37.3886 31.14 36.9406 31.14C36.5393 31.14 36.1706 31.0653 35.8346 30.916C35.4986 30.7667 35.2279 30.5473 35.0226 30.258C34.8266 29.9593 34.7286 29.5907 34.7286 29.152C34.7286 28.6947 34.8406 28.3073 35.0646 27.99C35.2886 27.6727 35.6059 27.43 36.0166 27.262C36.4273 27.0847 36.9126 26.996 37.4726 26.996C37.8833 26.996 38.2333 27.052 38.5226 27.164C38.8213 27.2667 39.0593 27.388 39.2366 27.528C39.4139 27.6587 39.5353 27.766 39.6006 27.85V28.508C39.2833 28.284 38.9613 28.1207 38.6346 28.018C38.3079 27.906 37.9393 27.85 37.5286 27.85C37.1553 27.85 36.8426 27.9013 36.5906 28.004C36.3479 28.1067 36.1659 28.2513 36.0446 28.438C35.9233 28.6247 35.8626 28.8487 35.8626 29.11ZM35.8626 26.072L35.3166 25.218C35.5593 25.0407 35.8859 24.8633 36.2966 24.686C36.7073 24.5087 37.2019 24.42 37.7806 24.42C38.2753 24.42 38.7046 24.4993 39.0686 24.658C39.4419 24.8073 39.7313 25.0267 39.9366 25.316C40.1513 25.6053 40.2586 25.96 40.2586 26.38V31H39.1386V26.38C39.1386 26.0533 38.9986 25.8107 38.7186 25.652C38.4479 25.484 38.1353 25.4 37.7806 25.4C37.4726 25.4 37.1926 25.442 36.9406 25.526C36.6886 25.6007 36.4693 25.694 36.2826 25.806C36.1053 25.9087 35.9653 25.9973 35.8626 26.072ZM41.0735 24.56H44.8535V25.61H41.0735V24.56ZM42.4035 24.84H43.5235V31H42.4035V24.84ZM45.8263 28.06V27.108H50.1243C50.0869 26.772 49.9936 26.478 49.8443 26.226C49.7043 25.9647 49.5036 25.764 49.2423 25.624C48.9903 25.4747 48.6776 25.4 48.3043 25.4C47.9309 25.4 47.5903 25.4793 47.2823 25.638C46.9743 25.7967 46.7269 26.0253 46.5403 26.324C46.3629 26.6133 46.2743 26.9587 46.2743 27.36L46.2463 27.78C46.2463 28.2747 46.3303 28.6947 46.4983 29.04C46.6663 29.3853 46.9043 29.6467 47.2123 29.824C47.5203 30.0013 47.8843 30.09 48.3043 30.09C48.6216 30.09 48.9016 30.0433 49.1443 29.95C49.3963 29.8473 49.6203 29.712 49.8163 29.544C50.0123 29.3667 50.1803 29.1613 50.3203 28.928L51.2303 29.502C51.0156 29.8287 50.7776 30.118 50.5163 30.37C50.2549 30.6127 49.9376 30.804 49.5643 30.944C49.1909 31.0747 48.7243 31.14 48.1643 31.14C47.5856 31.14 47.0629 30.9953 46.5963 30.706C46.1389 30.4167 45.7749 30.02 45.5043 29.516C45.2429 29.0027 45.1123 28.424 45.1123 27.78C45.1123 27.6587 45.1169 27.542 45.1263 27.43C45.1356 27.318 45.1496 27.206 45.1683 27.094C45.2616 26.562 45.4483 26.0953 45.7283 25.694C46.0083 25.2927 46.3676 24.98 46.8063 24.756C47.2543 24.532 47.7536 24.42 48.3043 24.42C48.9109 24.42 49.4429 24.5553 49.9003 24.826C50.3576 25.0967 50.7123 25.4793 50.9643 25.974C51.2163 26.4593 51.3423 27.0427 51.3423 27.724C51.3423 27.78 51.3423 27.836 51.3423 27.892C51.3423 27.948 51.3376 28.004 51.3283 28.06H45.8263ZM58.4193 24.56V31H57.2993V25.61H54.0093V28.76C54.0093 29.264 53.93 29.684 53.7713 30.02C53.622 30.3467 53.3887 30.594 53.0713 30.762C52.754 30.9207 52.3527 31 51.8673 31V29.978C52.1473 29.978 52.3853 29.8893 52.5813 29.712C52.7867 29.5347 52.8893 29.2173 52.8893 28.76V24.56H58.4193ZM60.638 28.06V27.108H64.936C64.8986 26.772 64.8053 26.478 64.656 26.226C64.516 25.9647 64.3153 25.764 64.054 25.624C63.802 25.4747 63.4893 25.4 63.116 25.4C62.7426 25.4 62.402 25.4793 62.094 25.638C61.786 25.7967 61.5386 26.0253 61.352 26.324C61.1746 26.6133 61.086 26.9587 61.086 27.36L61.058 27.78C61.058 28.2747 61.142 28.6947 61.31 29.04C61.478 29.3853 61.716 29.6467 62.024 29.824C62.332 30.0013 62.696 30.09 63.116 30.09C63.4333 30.09 63.7133 30.0433 63.956 29.95C64.208 29.8473 64.432 29.712 64.628 29.544C64.824 29.3667 64.992 29.1613 65.132 28.928L66.042 29.502C65.8273 29.8287 65.5893 30.118 65.328 30.37C65.0666 30.6127 64.7493 30.804 64.376 30.944C64.0026 31.0747 63.536 31.14 62.976 31.14C62.3973 31.14 61.8746 30.9953 61.408 30.706C60.9506 30.4167 60.5866 30.02 60.316 29.516C60.0546 29.0027 59.924 28.424 59.924 27.78C59.924 27.6587 59.9286 27.542 59.938 27.43C59.9473 27.318 59.9613 27.206 59.98 27.094C60.0733 26.562 60.26 26.0953 60.54 25.694C60.82 25.2927 61.1793 24.98 61.618 24.756C62.066 24.532 62.5653 24.42 63.116 24.42C63.7226 24.42 64.2546 24.5553 64.712 24.826C65.1693 25.0967 65.524 25.4793 65.776 25.974C66.028 26.4593 66.154 27.0427 66.154 27.724C66.154 27.78 66.154 27.836 66.154 27.892C66.154 27.948 66.1493 28.004 66.14 28.06H60.638ZM72.9791 25.68L67.6591 31.49L67.7291 29.88L73.0491 24.07L72.9791 25.68ZM68.7791 24.56V29.95L67.6591 31.49V24.56H68.7791ZM73.0491 24.07V31H71.9291V25.61L73.0491 24.07ZM68.1771 21.27H69.1711C69.1711 21.3913 69.2037 21.536 69.2691 21.704C69.3344 21.8627 69.4557 22.0073 69.6331 22.138C69.8104 22.2593 70.0624 22.32 70.3891 22.32C70.7157 22.32 70.9677 22.2593 71.1451 22.138C71.3224 22.0073 71.4437 21.8627 71.5091 21.704C71.5744 21.536 71.6071 21.3913 71.6071 21.27H72.6011C72.6011 21.5873 72.5171 21.9 72.3491 22.208C72.1904 22.5067 71.9477 22.754 71.6211 22.95C71.2944 23.1367 70.8837 23.23 70.3891 23.23C69.9037 23.23 69.4931 23.1367 69.1571 22.95C68.8304 22.754 68.5831 22.5067 68.4151 22.208C68.2564 21.9 68.1771 21.5873 68.1771 21.27Z" fill="#596574"/>
</svg>
