<svg width="259" height="28" viewBox="0 0 259 28" fill="none" xmlns="http://www.w3.org/2000/svg">
<path d="M1.556 12.6V8.792H9.032C10.3013 8.792 11.4307 9.05333 12.42 9.576C13.428 10.08 14.2213 10.7893 14.8 11.704C15.3973 12.6 15.696 13.6547 15.696 14.868C15.696 16.0627 15.3973 17.1267 14.8 18.06C14.2213 18.9747 13.428 19.6933 12.42 20.216C11.4307 20.7387 10.3013 21 9.032 21H1.556V17.108H7.996C8.612 17.108 9.13467 17.0333 9.564 16.884C9.99333 16.716 10.32 16.464 10.544 16.128C10.768 15.792 10.88 15.372 10.88 14.868C10.88 14.3453 10.768 13.9253 10.544 13.608C10.32 13.272 9.99333 13.02 9.564 12.852C9.13467 12.684 8.612 12.6 7.996 12.6H1.556ZM0.24 1.4H14.212V5.292H5.056V21H0.24V1.4ZM21.7405 17.164C21.7405 17.4627 21.8245 17.7147 21.9925 17.92C22.1605 18.1067 22.3845 18.256 22.6645 18.368C22.9632 18.4613 23.2712 18.508 23.5885 18.508C24.1112 18.508 24.5872 18.424 25.0165 18.256C25.4645 18.088 25.8192 17.808 26.0805 17.416C26.3418 17.024 26.4725 16.4827 26.4725 15.792L26.9205 17.36C26.9205 18.1813 26.7058 18.8907 26.2765 19.488C25.8658 20.0667 25.2965 20.5147 24.5685 20.832C23.8592 21.1307 23.0565 21.28 22.1605 21.28C21.2645 21.28 20.4618 21.1307 19.7525 20.832C19.0432 20.5147 18.4832 20.0667 18.0725 19.488C17.6805 18.8907 17.4845 18.172 17.4845 17.332C17.4845 16.4733 17.7085 15.736 18.1565 15.12C18.6232 14.504 19.2765 14.028 20.1165 13.692C20.9565 13.356 21.9365 13.188 23.0565 13.188C23.7098 13.188 24.3258 13.2627 24.9045 13.412C25.5018 13.5427 26.0152 13.72 26.4445 13.944C26.8925 14.1493 27.2098 14.3547 27.3965 14.56V16.548C26.9112 16.1933 26.4072 15.932 25.8845 15.764C25.3805 15.5773 24.7645 15.484 24.0365 15.484C23.5512 15.484 23.1312 15.5587 22.7765 15.708C22.4405 15.8387 22.1792 16.0253 21.9925 16.268C21.8245 16.5107 21.7405 16.8093 21.7405 17.164ZM20.0885 12.096L18.6605 9.24C19.3885 8.88533 20.2565 8.54933 21.2645 8.232C22.2912 7.91467 23.3832 7.756 24.5405 7.756C25.6978 7.756 26.7245 7.924 27.6205 8.26C28.5352 8.57733 29.2445 9.044 29.7485 9.66C30.2712 10.276 30.5325 11.032 30.5325 11.928V21H26.4725V12.768C26.4725 12.2267 26.2672 11.7973 25.8565 11.48C25.4645 11.144 24.9138 10.976 24.2045 10.976C23.5885 10.976 23.0005 11.0413 22.4405 11.172C21.8992 11.3027 21.4232 11.4613 21.0125 11.648C20.6018 11.816 20.2938 11.9653 20.0885 12.096ZM35.011 15.792V12.628H45.427V15.792H35.011ZM43.523 8.12H47.583V21H43.523V8.12ZM33.695 8.12H37.783V21H33.695V8.12ZM52.2375 15.792V12.628H62.6535V15.792H52.2375ZM60.7495 8.12H64.8095V21H60.7495V8.12ZM50.9215 8.12H55.0095V21H50.9215V8.12ZM69.7721 15.456V13.104H77.0521C76.9774 12.5813 76.8374 12.1427 76.6321 11.788C76.4454 11.4333 76.1748 11.1627 75.8201 10.976C75.4841 10.7707 75.0641 10.668 74.5601 10.668C73.9814 10.668 73.4774 10.7987 73.0481 11.06C72.6374 11.3027 72.3108 11.6667 72.0681 12.152C71.8254 12.6187 71.7041 13.1973 71.7041 13.888L71.6481 14.56C71.6481 15.4373 71.7788 16.1467 72.0401 16.688C72.3201 17.2293 72.6841 17.6213 73.1321 17.864C73.5988 18.1067 74.1028 18.228 74.6441 18.228C75.1668 18.228 75.6241 18.1627 76.0161 18.032C76.4268 17.9013 76.7814 17.7147 77.0801 17.472C77.3788 17.2107 77.6308 16.9027 77.8361 16.548L81.6161 17.472C81.1868 18.256 80.6734 18.9373 80.0761 19.516C79.4788 20.076 78.7414 20.5147 77.8641 20.832C77.0054 21.1307 75.9508 21.28 74.7001 21.28C73.1508 21.28 71.8254 20.9907 70.7241 20.412C69.6414 19.8333 68.8108 19.04 68.2321 18.032C67.6721 17.0053 67.3921 15.848 67.3921 14.56C67.3921 14.3173 67.4014 14.084 67.4201 13.86C67.4388 13.636 67.4668 13.412 67.5041 13.188C67.6908 12.124 68.0734 11.1907 68.6521 10.388C69.2494 9.58533 70.0428 8.96 71.0321 8.512C72.0401 8.064 73.2441 7.84 74.6441 7.84C76.1561 7.84 77.4254 8.10133 78.4521 8.624C79.4788 9.14667 80.2534 9.89333 80.7761 10.864C81.3174 11.8347 81.5881 13.0013 81.5881 14.364C81.5881 14.476 81.5881 14.6347 81.5881 14.84C81.5881 15.0267 81.5694 15.232 81.5321 15.456H69.7721ZM88.4536 27.16H84.2256V8.12H88.4536V27.16ZM98.9816 14.56C98.9816 16.0533 98.6829 17.3133 98.0856 18.34C97.5069 19.3667 96.7509 20.1413 95.8176 20.664C94.9029 21.1867 93.9136 21.448 92.8496 21.448C91.7296 21.448 90.7589 21.168 89.9376 20.608C89.1349 20.0293 88.5189 19.2267 88.0896 18.2C87.6602 17.1547 87.4456 15.9413 87.4456 14.56C87.4456 13.16 87.6602 11.9467 88.0896 10.92C88.5189 9.89333 89.1349 9.1 89.9376 8.54C90.7589 7.96133 91.7296 7.672 92.8496 7.672C93.9136 7.672 94.9029 7.93333 95.8176 8.456C96.7509 8.97867 97.5069 9.75333 98.0856 10.78C98.6829 11.788 98.9816 13.048 98.9816 14.56ZM94.5296 14.56C94.5296 13.888 94.3896 13.3187 94.1096 12.852C93.8296 12.3853 93.4562 12.0307 92.9896 11.788C92.5229 11.5453 92.0096 11.424 91.4496 11.424C90.9642 11.424 90.4882 11.5453 90.0216 11.788C89.5736 12.012 89.2002 12.3573 88.9016 12.824C88.6029 13.2907 88.4536 13.8693 88.4536 14.56C88.4536 15.2507 88.6029 15.8293 88.9016 16.296C89.2002 16.7627 89.5736 17.1173 90.0216 17.36C90.4882 17.584 90.9642 17.696 91.4496 17.696C92.0096 17.696 92.5229 17.5747 92.9896 17.332C93.4562 17.0893 93.8296 16.7347 94.1096 16.268C94.3896 15.8013 94.5296 15.232 94.5296 14.56ZM115.339 8.12H119.595V21H115.339V8.12ZM101.535 8.12H105.791V21H101.535V8.12ZM104.867 15.204V12.46H108.871C110.196 12.46 111.307 12.7867 112.203 13.44C113.117 14.0747 113.575 15.0827 113.575 16.464C113.575 17.3787 113.369 18.1813 112.959 18.872C112.548 19.5627 111.988 20.0947 111.279 20.468C110.569 20.8227 109.767 21 108.871 21H104.867V17.724H108.115C108.432 17.724 108.693 17.6773 108.899 17.584C109.123 17.4907 109.291 17.3507 109.403 17.164C109.533 16.9587 109.599 16.7253 109.599 16.464C109.599 16.0907 109.468 15.792 109.207 15.568C108.964 15.3253 108.6 15.204 108.115 15.204H104.867ZM136.745 11.004L135.569 21H130.585L133.749 0.42L142.093 12.376L150.465 0.42L153.629 21H148.645L147.469 11.004L142.093 19.18L136.745 11.004ZM159.498 16.968C159.498 17.304 159.582 17.5933 159.75 17.836C159.918 18.06 160.142 18.2373 160.422 18.368C160.702 18.48 161.01 18.536 161.346 18.536C161.832 18.536 162.28 18.4333 162.69 18.228C163.101 18.0227 163.437 17.7147 163.698 17.304C163.96 16.8933 164.09 16.3893 164.09 15.792L164.538 17.472C164.538 18.2933 164.314 18.9933 163.866 19.572C163.418 20.132 162.84 20.5613 162.13 20.86C161.421 21.14 160.656 21.28 159.834 21.28C159.013 21.28 158.248 21.1307 157.538 20.832C156.848 20.5147 156.288 20.048 155.858 19.432C155.448 18.816 155.242 18.0693 155.242 17.192C155.242 15.96 155.681 14.9893 156.558 14.28C157.436 13.552 158.677 13.188 160.282 13.188C161.066 13.188 161.766 13.2627 162.382 13.412C163.017 13.5613 163.558 13.748 164.006 13.972C164.454 14.196 164.79 14.4293 165.014 14.672V16.548C164.566 16.212 164.044 15.96 163.446 15.792C162.868 15.6053 162.252 15.512 161.598 15.512C161.094 15.512 160.693 15.568 160.394 15.68C160.096 15.792 159.872 15.96 159.722 16.184C159.573 16.3893 159.498 16.6507 159.498 16.968ZM157.622 12.068L156.194 9.24C156.922 8.88533 157.8 8.54933 158.826 8.232C159.853 7.91467 160.973 7.756 162.186 7.756C163.325 7.756 164.342 7.924 165.238 8.26C166.134 8.57733 166.844 9.044 167.366 9.66C167.889 10.276 168.15 11.032 168.15 11.928V21H164.09V12.88C164.09 12.5627 164.034 12.292 163.922 12.068C163.829 11.8253 163.68 11.62 163.474 11.452C163.269 11.284 163.008 11.1627 162.69 11.088C162.392 11.0133 162.046 10.976 161.654 10.976C161.076 10.976 160.506 11.0413 159.946 11.172C159.405 11.3027 158.929 11.4613 158.518 11.648C158.108 11.816 157.809 11.956 157.622 12.068ZM190.972 12.712V21H186.716V13.16C186.716 12.376 186.585 11.788 186.324 11.396C186.081 10.9853 185.671 10.78 185.092 10.78C184.719 10.78 184.383 10.8733 184.084 11.06C183.804 11.228 183.58 11.4893 183.412 11.844C183.263 12.1987 183.188 12.6373 183.188 13.16V21H178.932V13.16C178.932 12.376 178.801 11.788 178.54 11.396C178.297 10.9853 177.887 10.78 177.308 10.78C176.935 10.78 176.599 10.8733 176.3 11.06C176.02 11.228 175.796 11.4893 175.628 11.844C175.479 12.1987 175.404 12.6373 175.404 13.16V21H171.316V8.12H175.404V10.024C175.759 9.33333 176.244 8.792 176.86 8.4C177.495 8.008 178.251 7.812 179.128 7.812C180.136 7.812 180.939 7.99867 181.536 8.372C182.133 8.72667 182.563 9.24933 182.824 9.94C183.291 9.268 183.869 8.74533 184.56 8.372C185.251 7.99867 186.035 7.812 186.912 7.812C187.92 7.812 188.713 8.008 189.292 8.4C189.889 8.77333 190.319 9.324 190.58 10.052C190.841 10.78 190.972 11.6667 190.972 12.712ZM197.561 16.968C197.561 17.304 197.645 17.5933 197.813 17.836C197.981 18.06 198.205 18.2373 198.485 18.368C198.765 18.48 199.073 18.536 199.409 18.536C199.894 18.536 200.342 18.4333 200.753 18.228C201.163 18.0227 201.499 17.7147 201.761 17.304C202.022 16.8933 202.153 16.3893 202.153 15.792L202.601 17.472C202.601 18.2933 202.377 18.9933 201.929 19.572C201.481 20.132 200.902 20.5613 200.193 20.86C199.483 21.14 198.718 21.28 197.897 21.28C197.075 21.28 196.31 21.1307 195.601 20.832C194.91 20.5147 194.35 20.048 193.921 19.432C193.51 18.816 193.305 18.0693 193.305 17.192C193.305 15.96 193.743 14.9893 194.621 14.28C195.498 13.552 196.739 13.188 198.345 13.188C199.129 13.188 199.829 13.2627 200.445 13.412C201.079 13.5613 201.621 13.748 202.069 13.972C202.517 14.196 202.853 14.4293 203.077 14.672V16.548C202.629 16.212 202.106 15.96 201.509 15.792C200.93 15.6053 200.314 15.512 199.661 15.512C199.157 15.512 198.755 15.568 198.457 15.68C198.158 15.792 197.934 15.96 197.785 16.184C197.635 16.3893 197.561 16.6507 197.561 16.968ZM195.685 12.068L194.257 9.24C194.985 8.88533 195.862 8.54933 196.889 8.232C197.915 7.91467 199.035 7.756 200.249 7.756C201.387 7.756 202.405 7.924 203.301 8.26C204.197 8.57733 204.906 9.044 205.429 9.66C205.951 10.276 206.213 11.032 206.213 11.928V21H202.153V12.88C202.153 12.5627 202.097 12.292 201.985 12.068C201.891 11.8253 201.742 11.62 201.537 11.452C201.331 11.284 201.07 11.1627 200.753 11.088C200.454 11.0133 200.109 10.976 199.717 10.976C199.138 10.976 198.569 11.0413 198.009 11.172C197.467 11.3027 196.991 11.4613 196.581 11.648C196.17 11.816 195.871 11.956 195.685 12.068ZM209.799 1.4H214.699V21H209.799V1.4ZM221.363 1.4H226.907L218.955 10.584L227.327 21H221.587L213.327 10.724L221.363 1.4ZM233.129 8.12V21H228.957V8.12H233.129ZM236.853 12.488C236.629 12.264 236.386 12.0867 236.125 11.956C235.882 11.8253 235.574 11.76 235.201 11.76C234.79 11.76 234.426 11.872 234.109 12.096C233.791 12.32 233.549 12.6467 233.381 13.076C233.213 13.5053 233.129 14.028 233.129 14.644L232.121 13.16C232.121 12.1333 232.317 11.2187 232.709 10.416C233.119 9.61333 233.651 8.97867 234.305 8.512C234.958 8.04533 235.639 7.812 236.349 7.812C236.815 7.812 237.263 7.90533 237.693 8.092C238.122 8.27867 238.449 8.54 238.673 8.876L236.853 12.488ZM240.216 3.276C240.216 2.604 240.459 2.06267 240.944 1.652C241.43 1.22267 242.008 1.008 242.68 1.008C243.371 1.008 243.95 1.22267 244.416 1.652C244.902 2.06267 245.144 2.604 245.144 3.276C245.144 3.948 244.902 4.49867 244.416 4.928C243.95 5.35733 243.371 5.572 242.68 5.572C242.008 5.572 241.43 5.35733 240.944 4.928C240.459 4.49867 240.216 3.948 240.216 3.276ZM240.636 8.12H244.724V21H240.636V8.12ZM248.907 16.324C249.56 16.8653 250.148 17.2947 250.671 17.612C251.212 17.9107 251.688 18.1253 252.099 18.256C252.509 18.368 252.864 18.424 253.163 18.424C253.592 18.424 253.909 18.3307 254.115 18.144C254.32 17.9573 254.423 17.7147 254.423 17.416C254.423 17.136 254.339 16.9027 254.171 16.716C254.003 16.5107 253.713 16.3147 253.303 16.128C252.911 15.9413 252.369 15.7453 251.679 15.54C251.063 15.316 250.475 15.0547 249.915 14.756C249.373 14.4387 248.925 14.0187 248.571 13.496C248.216 12.9733 248.039 12.3013 248.039 11.48C248.039 10.696 248.244 10.0333 248.655 9.492C249.084 8.95067 249.653 8.54 250.363 8.26C251.091 7.98 251.921 7.84 252.855 7.84C253.601 7.84 254.292 7.924 254.927 8.092C255.58 8.26 256.187 8.484 256.747 8.764C257.325 9.044 257.867 9.37067 258.371 9.744L256.859 12.488C256.317 11.984 255.701 11.5733 255.011 11.256C254.32 10.92 253.685 10.752 253.107 10.752C252.715 10.752 252.416 10.8267 252.211 10.976C252.024 11.1253 251.931 11.3213 251.931 11.564C251.931 11.844 252.043 12.0773 252.267 12.264C252.509 12.4507 252.845 12.628 253.275 12.796C253.723 12.9453 254.264 13.1413 254.899 13.384C255.571 13.6267 256.187 13.9067 256.747 14.224C257.325 14.5413 257.783 14.9427 258.119 15.428C258.473 15.9133 258.651 16.5573 258.651 17.36C258.651 18.7413 258.221 19.7867 257.363 20.496C256.523 21.1867 255.337 21.532 253.807 21.532C252.873 21.532 252.005 21.42 251.203 21.196C250.419 20.9907 249.691 20.7107 249.019 20.356C248.347 19.9827 247.721 19.572 247.143 19.124L248.907 16.324Z" fill="black"/>
</svg>
