<svg width="189" height="46" viewBox="0 0 189 46" fill="none" xmlns="http://www.w3.org/2000/svg">
<path d="M17.94 0.799999V19H13.468V4.726H7.436V11.304C7.436 13.0027 7.18467 14.4327 6.682 15.594C6.19667 16.738 5.42533 17.596 4.368 18.168C3.31067 18.7227 1.94133 19 0.26 19V15.282C0.693333 15.282 1.07467 15.1953 1.404 15.022C1.75067 14.8487 2.03667 14.606 2.262 14.294C2.50467 13.9647 2.68667 13.566 2.808 13.098C2.92933 12.63 2.99 12.1187 2.99 11.564V0.799999H17.94ZM33.6578 10.42L21.5938 19.91L21.7238 15.62L33.7878 6.13L33.6578 10.42ZM25.3898 7.04V16.244L21.5938 19.91V7.04H25.3898ZM33.7878 6.13V19H30.0178V9.796L33.7878 6.13ZM48.9405 15.75H51.0205V21.652H47.3545V19H36.9285V7.04H40.8805V15.75H45.0145V7.04H48.9405V15.75ZM54.585 13.852V11.668H61.345C61.2756 11.1827 61.1456 10.7753 60.955 10.446C60.7816 10.1167 60.5303 9.86533 60.201 9.692C59.889 9.50133 59.499 9.406 59.031 9.406C58.4936 9.406 58.0256 9.52733 57.627 9.77C57.2456 9.99533 56.9423 10.3333 56.717 10.784C56.4916 11.2173 56.379 11.7547 56.379 12.396L56.327 13.02C56.327 13.8347 56.4483 14.4933 56.691 14.996C56.951 15.4987 57.289 15.8627 57.705 16.088C58.1383 16.3133 58.6063 16.426 59.109 16.426C59.5943 16.426 60.019 16.3653 60.383 16.244C60.7643 16.1227 61.0936 15.9493 61.371 15.724C61.6483 15.4813 61.8823 15.1953 62.073 14.866L65.583 15.724C65.1843 16.452 64.7076 17.0847 64.153 17.622C63.5983 18.142 62.9136 18.5493 62.099 18.844C61.3016 19.1213 60.3223 19.26 59.161 19.26C57.7223 19.26 56.4916 18.9913 55.469 18.454C54.4636 17.9167 53.6923 17.18 53.155 16.244C52.635 15.2907 52.375 14.216 52.375 13.02C52.375 12.7947 52.3836 12.578 52.401 12.37C52.4183 12.162 52.4443 11.954 52.479 11.746C52.6523 10.758 53.0076 9.89133 53.545 9.146C54.0996 8.40067 54.8363 7.82 55.755 7.404C56.691 6.988 57.809 6.78 59.109 6.78C60.513 6.78 61.6916 7.02267 62.645 7.508C63.5983 7.99333 64.3176 8.68667 64.803 9.588C65.3056 10.4893 65.557 11.5727 65.557 12.838C65.557 12.942 65.557 13.0893 65.557 13.28C65.557 13.4533 65.5396 13.644 65.505 13.852H54.585ZM69.254 14.164V11.226H78.926V14.164H69.254ZM77.158 7.04H80.928V19H77.158V7.04ZM68.032 7.04H71.828V19H68.032V7.04ZM89.5661 13.02V11.85C90.1208 11.85 90.5195 11.746 90.7621 11.538C91.0221 11.3127 91.1521 11.0353 91.1521 10.706C91.1521 10.3767 91.0308 10.1167 90.7881 9.926C90.5455 9.718 90.2248 9.614 89.8261 9.614C89.5315 9.614 89.2628 9.67467 89.0201 9.796C88.7948 9.91733 88.6215 10.082 88.5001 10.29C88.3788 10.498 88.3095 10.7407 88.2921 11.018H84.7301C84.7301 10.1687 84.9381 9.432 85.3541 8.808C85.7875 8.16667 86.3768 7.67267 87.1221 7.326C87.8848 6.962 88.7775 6.78 89.8001 6.78C90.7535 6.78 91.6028 6.936 92.3481 7.248C93.0935 7.54267 93.6741 7.95 94.0901 8.47C94.5235 8.97267 94.7401 9.55333 94.7401 10.212C94.7401 11.096 94.3155 11.8067 93.4661 12.344C92.6341 12.864 91.3341 13.0893 89.5661 13.02ZM89.7481 19.26C88.0495 19.26 86.7061 18.87 85.7181 18.09C84.7475 17.2927 84.1928 16.2353 84.0541 14.918H87.7721C87.9108 15.4207 88.1448 15.8107 88.4741 16.088C88.8035 16.348 89.2195 16.478 89.7221 16.478C90.1035 16.478 90.4328 16.426 90.7101 16.322C90.9875 16.2007 91.2041 16.0447 91.3601 15.854C91.5161 15.646 91.5941 15.3947 91.5941 15.1C91.5941 14.8053 91.5161 14.5627 91.3601 14.372C91.2215 14.164 90.9961 14.008 90.6841 13.904C90.3895 13.7827 90.0168 13.722 89.5661 13.722V12.24C91.3861 12.1533 92.7901 12.4133 93.7781 13.02C94.7661 13.6093 95.2601 14.4413 95.2601 15.516C95.2601 16.2613 95.0175 16.92 94.5321 17.492C94.0641 18.0467 93.4141 18.48 92.5821 18.792C91.7501 19.104 90.8055 19.26 89.7481 19.26ZM110.084 10.42L98.0196 19.91L98.1496 15.62L110.214 6.13L110.084 10.42ZM101.816 7.04V16.244L98.0196 19.91V7.04H101.816ZM110.214 6.13V19H106.444V9.796L110.214 6.13ZM112.652 13.02C112.652 11.7547 112.947 10.654 113.536 9.718C114.126 8.782 114.94 8.054 115.98 7.534C117.02 7.014 118.19 6.754 119.49 6.754C120.79 6.754 121.952 7.014 122.974 7.534C124.014 8.054 124.829 8.782 125.418 9.718C126.025 10.654 126.328 11.7547 126.328 13.02C126.328 14.268 126.025 15.36 125.418 16.296C124.829 17.232 124.014 17.96 122.974 18.48C121.952 19 120.79 19.26 119.49 19.26C118.19 19.26 117.02 19 115.98 18.48C114.94 17.96 114.126 17.232 113.536 16.296C112.947 15.36 112.652 14.268 112.652 13.02ZM116.682 13.02C116.682 13.644 116.812 14.1813 117.072 14.632C117.332 15.0653 117.67 15.4033 118.086 15.646C118.502 15.8887 118.97 16.01 119.49 16.01C119.993 16.01 120.452 15.8887 120.868 15.646C121.302 15.4033 121.64 15.0653 121.882 14.632C122.142 14.1813 122.272 13.644 122.272 13.02C122.272 12.396 122.142 11.8587 121.882 11.408C121.64 10.9573 121.302 10.6107 120.868 10.368C120.452 10.1253 119.993 10.004 119.49 10.004C118.97 10.004 118.502 10.1253 118.086 10.368C117.67 10.6107 117.332 10.9573 117.072 11.408C116.812 11.8587 116.682 12.396 116.682 13.02ZM129.912 14.164V11.226H139.584V14.164H129.912ZM137.816 7.04H141.586V19H137.816V7.04ZM128.69 7.04H132.486V19H128.69V7.04ZM145.908 14.164V11.226H155.58V14.164H145.908ZM153.812 7.04H157.582V19H153.812V7.04ZM144.686 7.04H148.482V19H144.686V7.04ZM159.98 13.02C159.98 11.7547 160.275 10.654 160.864 9.718C161.454 8.782 162.268 8.054 163.308 7.534C164.348 7.014 165.518 6.754 166.818 6.754C168.118 6.754 169.28 7.014 170.302 7.534C171.342 8.054 172.157 8.782 172.746 9.718C173.353 10.654 173.656 11.7547 173.656 13.02C173.656 14.268 173.353 15.36 172.746 16.296C172.157 17.232 171.342 17.96 170.302 18.48C169.28 19 168.118 19.26 166.818 19.26C165.518 19.26 164.348 19 163.308 18.48C162.268 17.96 161.454 17.232 160.864 16.296C160.275 15.36 159.98 14.268 159.98 13.02ZM164.01 13.02C164.01 13.644 164.14 14.1813 164.4 14.632C164.66 15.0653 164.998 15.4033 165.414 15.646C165.83 15.8887 166.298 16.01 166.818 16.01C167.321 16.01 167.78 15.8887 168.196 15.646C168.63 15.4033 168.968 15.0653 169.21 14.632C169.47 14.1813 169.6 13.644 169.6 13.02C169.6 12.396 169.47 11.8587 169.21 11.408C168.968 10.9573 168.63 10.6107 168.196 10.368C167.78 10.1253 167.321 10.004 166.818 10.004C166.298 10.004 165.83 10.1253 165.414 10.368C164.998 10.6107 164.66 10.9573 164.4 11.408C164.14 11.8587 164.01 12.396 164.01 13.02ZM177.526 13.852V11.668H184.286C184.217 11.1827 184.087 10.7753 183.896 10.446C183.723 10.1167 183.472 9.86533 183.142 9.692C182.83 9.50133 182.44 9.406 181.972 9.406C181.435 9.406 180.967 9.52733 180.568 9.77C180.187 9.99533 179.884 10.3333 179.658 10.784C179.433 11.2173 179.32 11.7547 179.32 12.396L179.268 13.02C179.268 13.8347 179.39 14.4933 179.632 14.996C179.892 15.4987 180.23 15.8627 180.646 16.088C181.08 16.3133 181.548 16.426 182.05 16.426C182.536 16.426 182.96 16.3653 183.324 16.244C183.706 16.1227 184.035 15.9493 184.312 15.724C184.59 15.4813 184.824 15.1953 185.014 14.866L188.524 15.724C188.126 16.452 187.649 17.0847 187.094 17.622C186.54 18.142 185.855 18.5493 185.04 18.844C184.243 19.1213 183.264 19.26 182.102 19.26C180.664 19.26 179.433 18.9913 178.41 18.454C177.405 17.9167 176.634 17.18 176.096 16.244C175.576 15.2907 175.316 14.216 175.316 13.02C175.316 12.7947 175.325 12.578 175.342 12.37C175.36 12.162 175.386 11.954 175.42 11.746C175.594 10.758 175.949 9.89133 176.486 9.146C177.041 8.40067 177.778 7.82 178.696 7.404C179.632 6.988 180.75 6.78 182.05 6.78C183.454 6.78 184.633 7.02267 185.586 7.508C186.54 7.99333 187.259 8.68667 187.744 9.588C188.247 10.4893 188.498 11.5727 188.498 12.838C188.498 12.942 188.498 13.0893 188.498 13.28C188.498 13.4533 188.481 13.644 188.446 13.852H177.526ZM4.836 39.02C4.836 39.6613 4.97467 40.216 5.252 40.684C5.52933 41.1347 5.91067 41.49 6.396 41.75C6.89867 42.01 7.436 42.14 8.008 42.14C8.49333 42.14 8.95267 42.0707 9.386 41.932C9.83667 41.776 10.244 41.568 10.608 41.308C10.9893 41.048 11.3013 40.7273 11.544 40.346V44.168C11.128 44.4973 10.608 44.766 9.984 44.974C9.36 45.1647 8.59733 45.26 7.696 45.26C6.37867 45.26 5.19133 45 4.134 44.48C3.094 43.96 2.27067 43.232 1.664 42.296C1.07467 41.36 0.78 40.268 0.78 39.02C0.78 37.7547 1.07467 36.6627 1.664 35.744C2.27067 34.808 3.094 34.08 4.134 33.56C5.19133 33.04 6.37867 32.78 7.696 32.78C8.59733 32.78 9.36 32.884 9.984 33.092C10.608 33.2827 11.128 33.5253 11.544 33.82V37.668C11.3013 37.2867 10.9807 36.966 10.582 36.706C10.2007 36.446 9.78467 36.2467 9.334 36.108C8.88333 35.9693 8.44133 35.9 8.008 35.9C7.436 35.9 6.89867 36.0387 6.396 36.316C5.91067 36.5933 5.52933 36.966 5.252 37.434C4.97467 37.902 4.836 38.4307 4.836 39.02ZM13.6797 39.02C13.6797 37.7547 13.9743 36.654 14.5637 35.718C15.153 34.782 15.9677 34.054 17.0077 33.534C18.0477 33.014 19.2177 32.754 20.5177 32.754C21.8177 32.754 22.979 33.014 24.0017 33.534C25.0417 34.054 25.8563 34.782 26.4457 35.718C27.0523 36.654 27.3557 37.7547 27.3557 39.02C27.3557 40.268 27.0523 41.36 26.4457 42.296C25.8563 43.232 25.0417 43.96 24.0017 44.48C22.979 45 21.8177 45.26 20.5177 45.26C19.2177 45.26 18.0477 45 17.0077 44.48C15.9677 43.96 15.153 43.232 14.5637 42.296C13.9743 41.36 13.6797 40.268 13.6797 39.02ZM17.7097 39.02C17.7097 39.644 17.8397 40.1813 18.0997 40.632C18.3597 41.0653 18.6977 41.4033 19.1137 41.646C19.5297 41.8887 19.9977 42.01 20.5177 42.01C21.0203 42.01 21.4797 41.8887 21.8957 41.646C22.329 41.4033 22.667 41.0653 22.9097 40.632C23.1697 40.1813 23.2997 39.644 23.2997 39.02C23.2997 38.396 23.1697 37.8587 22.9097 37.408C22.667 36.9573 22.329 36.6107 21.8957 36.368C21.4797 36.1253 21.0203 36.004 20.5177 36.004C19.9977 36.004 19.5297 36.1253 19.1137 36.368C18.6977 36.6107 18.3597 36.9573 18.0997 37.408C17.8397 37.8587 17.7097 38.396 17.7097 39.02ZM29.7696 33.04H37.4396V36.29H33.6436V45H29.7696V33.04ZM51.62 33.04V45H47.85V36.602H43.43V40.84C43.43 41.776 43.2566 42.556 42.91 43.18C42.5633 43.7867 41.974 44.246 41.142 44.558C40.3273 44.8527 39.2006 45 37.762 45V41.49C38.282 41.49 38.724 41.3947 39.088 41.204C39.4693 40.996 39.66 40.554 39.66 39.878V33.04H51.62ZM58.2772 41.438C58.2772 41.7153 58.3552 41.9493 58.5112 42.14C58.6672 42.3133 58.8752 42.452 59.1352 42.556C59.4125 42.6427 59.6985 42.686 59.9932 42.686C60.4785 42.686 60.9205 42.608 61.3192 42.452C61.7352 42.296 62.0645 42.036 62.3072 41.672C62.5498 41.308 62.6712 40.8053 62.6712 40.164L63.0872 41.62C63.0872 42.3827 62.8878 43.0413 62.4892 43.596C62.1078 44.1333 61.5792 44.5493 60.9032 44.844C60.2445 45.1213 59.4992 45.26 58.6672 45.26C57.8352 45.26 57.0898 45.1213 56.4312 44.844C55.7725 44.5493 55.2525 44.1333 54.8712 43.596C54.5072 43.0413 54.3252 42.374 54.3252 41.594C54.3252 40.7967 54.5332 40.112 54.9492 39.54C55.3825 38.968 55.9892 38.526 56.7692 38.214C57.5492 37.902 58.4592 37.746 59.4992 37.746C60.1058 37.746 60.6778 37.8153 61.2152 37.954C61.7698 38.0753 62.2465 38.24 62.6452 38.448C63.0612 38.6387 63.3558 38.8293 63.5292 39.02V40.866C63.0785 40.5367 62.6105 40.294 62.1252 40.138C61.6572 39.9647 61.0852 39.878 60.4092 39.878C59.9585 39.878 59.5685 39.9473 59.2392 40.086C58.9272 40.2073 58.6845 40.3807 58.5112 40.606C58.3552 40.8313 58.2772 41.1087 58.2772 41.438ZM56.7432 36.732L55.4172 34.08C56.0932 33.7507 56.8992 33.4387 57.8352 33.144C58.7885 32.8493 59.8025 32.702 60.8772 32.702C61.9518 32.702 62.9052 32.858 63.7372 33.17C64.5865 33.4647 65.2452 33.898 65.7132 34.47C66.1985 35.042 66.4412 35.744 66.4412 36.576V45H62.6712V37.356C62.6712 36.8533 62.4805 36.4547 62.0992 36.16C61.7352 35.848 61.2238 35.692 60.5652 35.692C59.9932 35.692 59.4472 35.7527 58.9272 35.874C58.4245 35.9953 57.9825 36.1427 57.6012 36.316C57.2198 36.472 56.9338 36.6107 56.7432 36.732ZM80.6098 41.75H84.2758V33.04H88.0458V45H69.3778V33.04H73.1738V41.75H76.8398V33.04H80.6098V41.75ZM92.6455 39.852V37.668H99.4055C99.3362 37.1827 99.2062 36.7753 99.0155 36.446C98.8422 36.1167 98.5908 35.8653 98.2615 35.692C97.9495 35.5013 97.5595 35.406 97.0915 35.406C96.5542 35.406 96.0862 35.5273 95.6875 35.77C95.3062 35.9953 95.0028 36.3333 94.7775 36.784C94.5522 37.2173 94.4395 37.7547 94.4395 38.396L94.3875 39.02C94.3875 39.8347 94.5088 40.4933 94.7515 40.996C95.0115 41.4987 95.3495 41.8627 95.7655 42.088C96.1988 42.3133 96.6668 42.426 97.1695 42.426C97.6548 42.426 98.0795 42.3653 98.4435 42.244C98.8248 42.1227 99.1542 41.9493 99.4315 41.724C99.7088 41.4813 99.9428 41.1953 100.134 40.866L103.644 41.724C103.245 42.452 102.768 43.0847 102.214 43.622C101.659 44.142 100.974 44.5493 100.16 44.844C99.3622 45.1213 98.3828 45.26 97.2215 45.26C95.7828 45.26 94.5522 44.9913 93.5295 44.454C92.5242 43.9167 91.7528 43.18 91.2155 42.244C90.6955 41.2907 90.4355 40.216 90.4355 39.02C90.4355 38.7947 90.4442 38.578 90.4615 38.37C90.4788 38.162 90.5048 37.954 90.5395 37.746C90.7128 36.758 91.0682 35.8913 91.6055 35.146C92.1602 34.4007 92.8968 33.82 93.8155 33.404C94.7515 32.988 95.8695 32.78 97.1695 32.78C98.5735 32.78 99.7522 33.0227 100.706 33.508C101.659 33.9933 102.378 34.6867 102.864 35.588C103.366 36.4893 103.618 37.5727 103.618 38.838C103.618 38.942 103.618 39.0893 103.618 39.28C103.618 39.4533 103.6 39.644 103.566 39.852H92.6455ZM107.315 40.164V37.226H116.987V40.164H107.315ZM115.219 33.04H118.989V45H115.219V33.04ZM106.093 33.04H109.889V45H106.093V33.04ZM134.205 36.42L122.141 45.91L122.271 41.62L134.335 32.13L134.205 36.42ZM125.937 33.04V42.244L122.141 45.91V33.04H125.937ZM134.335 32.13V45H130.565V35.796L134.335 32.13ZM138.983 39.852V37.668H145.743C145.674 37.1827 145.544 36.7753 145.353 36.446C145.18 36.1167 144.929 35.8653 144.599 35.692C144.287 35.5013 143.897 35.406 143.429 35.406C142.892 35.406 142.424 35.5273 142.025 35.77C141.644 35.9953 141.341 36.3333 141.115 36.784C140.89 37.2173 140.777 37.7547 140.777 38.396L140.725 39.02C140.725 39.8347 140.847 40.4933 141.089 40.996C141.349 41.4987 141.687 41.8627 142.103 42.088C142.537 42.3133 143.005 42.426 143.507 42.426C143.993 42.426 144.417 42.3653 144.781 42.244C145.163 42.1227 145.492 41.9493 145.769 41.724C146.047 41.4813 146.281 41.1953 146.471 40.866L149.981 41.724C149.583 42.452 149.106 43.0847 148.551 43.622C147.997 44.142 147.312 44.5493 146.497 44.844C145.7 45.1213 144.721 45.26 143.559 45.26C142.121 45.26 140.89 44.9913 139.867 44.454C138.862 43.9167 138.091 43.18 137.553 42.244C137.033 41.2907 136.773 40.216 136.773 39.02C136.773 38.7947 136.782 38.578 136.799 38.37C136.817 38.162 136.843 37.954 136.877 37.746C137.051 36.758 137.406 35.8913 137.943 35.146C138.498 34.4007 139.235 33.82 140.153 33.404C141.089 32.988 142.207 32.78 143.507 32.78C144.911 32.78 146.09 33.0227 147.043 33.508C147.997 33.9933 148.716 34.6867 149.201 35.588C149.704 36.4893 149.955 37.5727 149.955 38.838C149.955 38.942 149.955 39.0893 149.955 39.28C149.955 39.4533 149.938 39.644 149.903 39.852H138.983Z" fill="black"/>
</svg>
