<svg width="21" height="22" viewBox="0 0 21 22" fill="none" xmlns="http://www.w3.org/2000/svg">
<path d="M18.6667 0.5H2.33333C1.03833 0.5 0 1.53833 0 2.83333V7.5H2.33333V2.83333H18.6667V19.1667H2.33333V14.5H0V19.1667C0 19.7855 0.245833 20.379 0.683417 20.8166C1.121 21.2542 1.71449 21.5 2.33333 21.5H18.6667C19.2855 21.5 19.879 21.2542 20.3166 20.8166C20.7542 20.379 21 19.7855 21 19.1667V2.83333C21 1.53833 19.95 0.5 18.6667 0.5ZM8.26 15.1767L9.91667 16.8333L15.75 11L9.91667 5.16667L8.26 6.81167L11.2817 9.83333H0V12.1667H11.2817L8.26 15.1767Z" fill="#00A80E"/>
</svg>
