<svg width="170" height="26" viewBox="0 0 170 26" fill="none" xmlns="http://www.w3.org/2000/svg">
<path d="M6.604 10.718L5.512 20H0.884L3.822 0.89L11.57 11.992L19.344 0.89L22.282 20H17.654L16.562 10.718L11.57 18.31L6.604 10.718ZM23.9883 14.02C23.9883 12.7547 24.2829 11.654 24.8722 10.718C25.4616 9.782 26.2763 9.054 27.3163 8.534C28.3563 8.014 29.5263 7.754 30.8263 7.754C32.1263 7.754 33.2876 8.014 34.3103 8.534C35.3503 9.054 36.1649 9.782 36.7543 10.718C37.3609 11.654 37.6643 12.7547 37.6643 14.02C37.6643 15.268 37.3609 16.36 36.7543 17.296C36.1649 18.232 35.3503 18.96 34.3103 19.48C33.2876 20 32.1263 20.26 30.8263 20.26C29.5263 20.26 28.3563 20 27.3163 19.48C26.2763 18.96 25.4616 18.232 24.8722 17.296C24.2829 16.36 23.9883 15.268 23.9883 14.02ZM28.0183 14.02C28.0183 14.644 28.1483 15.1813 28.4083 15.632C28.6683 16.0653 29.0063 16.4033 29.4223 16.646C29.8383 16.8887 30.3063 17.01 30.8263 17.01C31.3289 17.01 31.7883 16.8887 32.2043 16.646C32.6376 16.4033 32.9756 16.0653 33.2183 15.632C33.4783 15.1813 33.6083 14.644 33.6083 14.02C33.6083 13.396 33.4783 12.8587 33.2183 12.408C32.9756 11.9573 32.6376 11.6107 32.2043 11.368C31.7883 11.1253 31.3289 11.004 30.8263 11.004C30.3063 11.004 29.8383 11.1253 29.4223 11.368C29.0063 11.6107 28.6683 11.9573 28.4083 12.408C28.1483 12.8587 28.0183 13.396 28.0183 14.02ZM52.1422 11.42L40.0782 20.91L40.2082 16.62L52.2722 7.13L52.1422 11.42ZM43.8742 8.04V17.244L40.0782 20.91V8.04H43.8742ZM52.2722 7.13V20H48.5022V10.796L52.2722 7.13ZM42.1062 1.93H44.6802C44.6802 2.22467 44.7495 2.49333 44.8882 2.736C45.0269 2.96133 45.2262 3.14333 45.4862 3.282C45.7462 3.40333 46.0409 3.464 46.3702 3.464C46.6995 3.464 46.9942 3.40333 47.2542 3.282C47.5142 3.14333 47.7135 2.96133 47.8522 2.736C47.9909 2.49333 48.0602 2.22467 48.0602 1.93H50.6342C50.6342 2.62333 50.4695 3.26467 50.1402 3.854C49.8109 4.426 49.3255 4.88533 48.6842 5.232C48.0602 5.56133 47.2889 5.726 46.3702 5.726C45.4689 5.726 44.6975 5.56133 44.0562 5.232C43.4149 4.88533 42.9295 4.426 42.6002 3.854C42.2709 3.26467 42.1062 2.62333 42.1062 1.93ZM75.0638 8.04V20H71.2938V11.446H67.0038V20H63.2078V8.04H75.0638ZM82.0629 25.72H78.1369V8.04H82.0629V25.72ZM91.8389 14.02C91.8389 15.4067 91.5616 16.5767 91.0069 17.53C90.4696 18.4833 89.7676 19.2027 88.9009 19.688C88.0516 20.1733 87.1329 20.416 86.1449 20.416C85.1049 20.416 84.2036 20.156 83.4409 19.636C82.6956 19.0987 82.1236 18.3533 81.7249 17.4C81.3262 16.4293 81.1269 15.3027 81.1269 14.02C81.1269 12.72 81.3262 11.5933 81.7249 10.64C82.1236 9.68667 82.6956 8.95 83.4409 8.43C84.2036 7.89267 85.1049 7.624 86.1449 7.624C87.1329 7.624 88.0516 7.86667 88.9009 8.352C89.7676 8.83733 90.4696 9.55667 91.0069 10.51C91.5616 11.446 91.8389 12.616 91.8389 14.02ZM87.7049 14.02C87.7049 13.396 87.5749 12.8673 87.3149 12.434C87.0549 12.0007 86.7082 11.6713 86.2749 11.446C85.8416 11.2207 85.3649 11.108 84.8449 11.108C84.3942 11.108 83.9522 11.2207 83.5189 11.446C83.1029 11.654 82.7562 11.9747 82.4789 12.408C82.2016 12.8413 82.0629 13.3787 82.0629 14.02C82.0629 14.6613 82.2016 15.1987 82.4789 15.632C82.7562 16.0653 83.1029 16.3947 83.5189 16.62C83.9522 16.828 84.3942 16.932 84.8449 16.932C85.3649 16.932 85.8416 16.8193 86.2749 16.594C86.7082 16.3687 87.0549 16.0393 87.3149 15.606C87.5749 15.1727 87.7049 14.644 87.7049 14.02ZM93.5078 14.02C93.5078 12.7547 93.8024 11.654 94.3918 10.718C94.9811 9.782 95.7958 9.054 96.8358 8.534C97.8758 8.014 99.0458 7.754 100.346 7.754C101.646 7.754 102.807 8.014 103.83 8.534C104.87 9.054 105.684 9.782 106.274 10.718C106.88 11.654 107.184 12.7547 107.184 14.02C107.184 15.268 106.88 16.36 106.274 17.296C105.684 18.232 104.87 18.96 103.83 19.48C102.807 20 101.646 20.26 100.346 20.26C99.0458 20.26 97.8758 20 96.8358 19.48C95.7958 18.96 94.9811 18.232 94.3918 17.296C93.8024 16.36 93.5078 15.268 93.5078 14.02ZM97.5378 14.02C97.5378 14.644 97.6678 15.1813 97.9278 15.632C98.1878 16.0653 98.5258 16.4033 98.9418 16.646C99.3578 16.8887 99.8258 17.01 100.346 17.01C100.848 17.01 101.308 16.8887 101.724 16.646C102.157 16.4033 102.495 16.0653 102.738 15.632C102.998 15.1813 103.128 14.644 103.128 14.02C103.128 13.396 102.998 12.8587 102.738 12.408C102.495 11.9573 102.157 11.6107 101.724 11.368C101.308 11.1253 100.848 11.004 100.346 11.004C99.8258 11.004 99.3578 11.1253 98.9418 11.368C98.5258 11.6107 98.1878 11.9573 97.9278 12.408C97.6678 12.8587 97.5378 13.396 97.5378 14.02ZM114.824 5.44H118.516V22.6H114.824V5.44ZM108.844 14.02C108.844 12.7547 109.156 11.654 109.78 10.718C110.404 9.782 111.296 9.054 112.458 8.534C113.636 8.014 115.04 7.754 116.67 7.754C118.316 7.754 119.72 8.014 120.882 8.534C122.06 9.054 122.962 9.782 123.586 10.718C124.21 11.654 124.522 12.7547 124.522 14.02C124.522 15.268 124.21 16.36 123.586 17.296C122.962 18.232 122.06 18.96 120.882 19.48C119.72 20 118.316 20.26 116.67 20.26C115.04 20.26 113.636 20 112.458 19.48C111.296 18.96 110.404 18.232 109.78 17.296C109.156 16.36 108.844 15.268 108.844 14.02ZM112.406 14.02C112.406 14.644 112.553 15.1813 112.848 15.632C113.142 16.0653 113.602 16.4033 114.226 16.646C114.85 16.8887 115.664 17.01 116.67 17.01C117.692 17.01 118.516 16.8887 119.14 16.646C119.764 16.4033 120.223 16.0653 120.518 15.632C120.812 15.1813 120.96 14.644 120.96 14.02C120.96 13.396 120.812 12.8587 120.518 12.408C120.223 11.9573 119.764 11.6107 119.14 11.368C118.516 11.1253 117.692 11.004 116.67 11.004C115.664 11.004 114.85 11.1253 114.226 11.368C113.602 11.6107 113.142 11.9573 112.848 12.408C112.553 12.8587 112.406 13.396 112.406 14.02ZM139.004 11.42L126.94 20.91L127.07 16.62L139.134 7.13L139.004 11.42ZM130.736 8.04V17.244L126.94 20.91V8.04H130.736ZM139.134 7.13V20H135.364V10.796L139.134 7.13ZM154.858 8.04V20H151.088V11.602H146.668V15.84C146.668 16.776 146.495 17.556 146.148 18.18C145.802 18.7867 145.212 19.246 144.38 19.558C143.566 19.8527 142.439 20 141 20V16.49C141.52 16.49 141.962 16.3947 142.326 16.204C142.708 15.996 142.898 15.554 142.898 14.878V8.04H154.858ZM158.655 8.04H162.581V20H158.655V8.04ZM161.723 14.618V12.07H165.441C166.672 12.07 167.703 12.3733 168.535 12.98C169.385 13.5693 169.809 14.5053 169.809 15.788C169.809 16.6373 169.619 17.3827 169.237 18.024C168.856 18.6653 168.336 19.1593 167.677 19.506C167.019 19.8353 166.273 20 165.441 20H161.723V16.958H164.739C165.034 16.958 165.277 16.9147 165.467 16.828C165.675 16.7413 165.831 16.6113 165.935 16.438C166.057 16.2473 166.117 16.0307 166.117 15.788C166.117 15.4413 165.996 15.164 165.753 14.956C165.528 14.7307 165.19 14.618 164.739 14.618H161.723Z" fill="black"/>
</svg>
