<svg width="25" height="24" viewBox="0 0 25 24" fill="none" xmlns="http://www.w3.org/2000/svg">
<path d="M11.4275 20.9882C12.082 20.5724 12.918 20.5724 13.5725 20.9882L17.3931 23.4155C18.896 24.3704 20.8035 23.033 20.4182 21.2947L19.3335 16.4004C19.1786 15.7012 19.4093 14.9724 19.9385 14.4898L23.6452 11.1097C24.9304 9.93782 24.2105 7.79733 22.4784 7.6401L17.7915 7.21468C17.0444 7.14686 16.398 6.66662 16.1175 5.97084L14.3549 1.59982C13.6817 -0.0695481 11.3183 -0.0695469 10.6451 1.59982L8.88253 5.97084C8.60196 6.66662 7.9556 7.14686 7.20846 7.21468L2.51601 7.64061C0.784754 7.79776 0.0644131 9.93651 1.34784 11.109L5.04985 14.491C5.57746 14.9731 5.80779 15.7 5.65407 16.3979L4.57385 21.3019C4.1911 23.0395 6.0977 24.3744 7.59953 23.4202L11.4275 20.9882Z" fill="#00A80E"/>
</svg>
