<svg width="21" height="29" viewBox="0 0 21 29" fill="none" xmlns="http://www.w3.org/2000/svg">
<path d="M10.5 0L5.25 5.27273H9.1875V17.1364H11.8125V5.27273H15.75M18.375 29H2.625C1.16813 29 0 27.8136 0 26.3636V10.5455C0 9.84625 0.276562 9.17568 0.768845 8.68126C1.26113 8.18685 1.92881 7.90909 2.625 7.90909H6.5625V10.5455H2.625V26.3636H18.375V10.5455H14.4375V7.90909H18.375C19.0712 7.90909 19.7389 8.18685 20.2312 8.68126C20.7234 9.17568 21 9.84625 21 10.5455V26.3636C21 27.0628 20.7234 27.7334 20.2312 28.2278C19.7389 28.7222 19.0712 29 18.375 29Z" fill="#979AA0"/>
</svg>
