<svg width="269" height="21" viewBox="0 0 269 21" fill="none" xmlns="http://www.w3.org/2000/svg">
<path d="M0.072 0.399999H4.972V20H0.072V0.399999ZM11.636 0.399999H17.18L9.228 9.584L17.6 20H11.86L3.6 9.724L11.636 0.399999ZM17.6265 13.56C17.6265 12.1973 17.9438 11.012 18.5785 10.004C19.2131 8.996 20.0905 8.212 21.2105 7.652C22.3305 7.092 23.5905 6.812 24.9905 6.812C26.3905 6.812 27.6411 7.092 28.7425 7.652C29.8625 8.212 30.7398 8.996 31.3745 10.004C32.0278 11.012 32.3545 12.1973 32.3545 13.56C32.3545 14.904 32.0278 16.08 31.3745 17.088C30.7398 18.096 29.8625 18.88 28.7425 19.44C27.6411 20 26.3905 20.28 24.9905 20.28C23.5905 20.28 22.3305 20 21.2105 19.44C20.0905 18.88 19.2131 18.096 18.5785 17.088C17.9438 16.08 17.6265 14.904 17.6265 13.56ZM21.9665 13.56C21.9665 14.232 22.1065 14.8107 22.3865 15.296C22.6665 15.7627 23.0305 16.1267 23.4785 16.388C23.9265 16.6493 24.4305 16.78 24.9905 16.78C25.5318 16.78 26.0265 16.6493 26.4745 16.388C26.9411 16.1267 27.3051 15.7627 27.5665 15.296C27.8465 14.8107 27.9865 14.232 27.9865 13.56C27.9865 12.888 27.8465 12.3093 27.5665 11.824C27.3051 11.3387 26.9411 10.9653 26.4745 10.704C26.0265 10.4427 25.5318 10.312 24.9905 10.312C24.4305 10.312 23.9265 10.4427 23.4785 10.704C23.0305 10.9653 22.6665 11.3387 22.3865 11.824C22.1065 12.3093 21.9665 12.888 21.9665 13.56ZM36.2141 14.792V11.628H46.6301V14.792H36.2141ZM44.7261 7.12H48.7861V20H44.7261V7.12ZM34.8981 7.12H38.9861V20H34.8981V7.12ZM50.6127 7.12H59.6567V10.62H50.6127V7.12ZM53.1047 7.68H57.1647V20H53.1047V7.68ZM64.7249 16.164C64.7249 16.4627 64.8089 16.7147 64.9769 16.92C65.1449 17.1067 65.3689 17.256 65.6489 17.368C65.9475 17.4613 66.2555 17.508 66.5729 17.508C67.0955 17.508 67.5715 17.424 68.0009 17.256C68.4489 17.088 68.8035 16.808 69.0649 16.416C69.3262 16.024 69.4569 15.4827 69.4569 14.792L69.9049 16.36C69.9049 17.1813 69.6902 17.8907 69.2609 18.488C68.8502 19.0667 68.2809 19.5147 67.5529 19.832C66.8435 20.1307 66.0409 20.28 65.1449 20.28C64.2489 20.28 63.4462 20.1307 62.7369 19.832C62.0275 19.5147 61.4675 19.0667 61.0569 18.488C60.6649 17.8907 60.4689 17.172 60.4689 16.332C60.4689 15.4733 60.6929 14.736 61.1409 14.12C61.6075 13.504 62.2609 13.028 63.1009 12.692C63.9409 12.356 64.9209 12.188 66.0409 12.188C66.6942 12.188 67.3102 12.2627 67.8889 12.412C68.4862 12.5427 68.9995 12.72 69.4289 12.944C69.8769 13.1493 70.1942 13.3547 70.3809 13.56V15.548C69.8955 15.1933 69.3915 14.932 68.8689 14.764C68.3649 14.5773 67.7489 14.484 67.0209 14.484C66.5355 14.484 66.1155 14.5587 65.7609 14.708C65.4249 14.8387 65.1635 15.0253 64.9769 15.268C64.8089 15.5107 64.7249 15.8093 64.7249 16.164ZM63.0729 11.096L61.6449 8.24C62.3729 7.88533 63.2409 7.54933 64.2489 7.232C65.2755 6.91467 66.3675 6.756 67.5249 6.756C68.6822 6.756 69.7089 6.924 70.6049 7.26C71.5195 7.57733 72.2289 8.044 72.7329 8.66C73.2555 9.276 73.5169 10.032 73.5169 10.928V20H69.4569V11.768C69.4569 11.2267 69.2515 10.7973 68.8409 10.48C68.4489 10.144 67.8982 9.976 67.1889 9.976C66.5729 9.976 65.9849 10.0413 65.4249 10.172C64.8835 10.3027 64.4075 10.4613 63.9969 10.648C63.5862 10.816 63.2782 10.9653 63.0729 11.096ZM76.6513 7.12H80.7113V20H76.6513V7.12ZM85.3873 7.12H90.4553L84.9393 12.44L91.0153 20H86.0313L79.8713 12.44L85.3873 7.12ZM91.3275 7.12H100.372V10.62H91.3275V7.12ZM93.8195 7.68H97.8795V20H93.8195V7.68ZM115.968 7.12H120.224V20H115.968V7.12ZM102.164 7.12H106.42V20H102.164V7.12ZM105.496 14.204V11.46H109.5C110.825 11.46 111.936 11.7867 112.832 12.44C113.746 13.0747 114.204 14.0827 114.204 15.464C114.204 16.3787 113.998 17.1813 113.588 17.872C113.177 18.5627 112.617 19.0947 111.908 19.468C111.198 19.8227 110.396 20 109.5 20H105.496V16.724H108.744C109.061 16.724 109.322 16.6773 109.528 16.584C109.752 16.4907 109.92 16.3507 110.032 16.164C110.162 15.9587 110.228 15.7253 110.228 15.464C110.228 15.0907 110.097 14.792 109.836 14.568C109.593 14.3253 109.229 14.204 108.744 14.204H105.496ZM137.878 13.56V12.3C138.475 12.3 138.904 12.188 139.166 11.964C139.446 11.7213 139.586 11.4227 139.586 11.068C139.586 10.7133 139.455 10.4333 139.194 10.228C138.932 10.004 138.587 9.892 138.158 9.892C137.84 9.892 137.551 9.95733 137.29 10.088C137.047 10.2187 136.86 10.396 136.73 10.62C136.599 10.844 136.524 11.1053 136.506 11.404H132.67C132.67 10.4893 132.894 9.696 133.342 9.024C133.808 8.33333 134.443 7.80133 135.246 7.428C136.067 7.036 137.028 6.84 138.13 6.84C139.156 6.84 140.071 7.008 140.874 7.344C141.676 7.66133 142.302 8.1 142.75 8.66C143.216 9.20133 143.45 9.82667 143.45 10.536C143.45 11.488 142.992 12.2533 142.078 12.832C141.182 13.392 139.782 13.6347 137.878 13.56ZM138.074 20.28C136.244 20.28 134.798 19.86 133.734 19.02C132.688 18.1613 132.091 17.0227 131.942 15.604H135.946C136.095 16.1453 136.347 16.5653 136.702 16.864C137.056 17.144 137.504 17.284 138.046 17.284C138.456 17.284 138.811 17.228 139.11 17.116C139.408 16.9853 139.642 16.8173 139.81 16.612C139.978 16.388 140.062 16.1173 140.062 15.8C140.062 15.4827 139.978 15.2213 139.81 15.016C139.66 14.792 139.418 14.624 139.082 14.512C138.764 14.3813 138.363 14.316 137.878 14.316V12.72C139.838 12.6267 141.35 12.9067 142.414 13.56C143.478 14.1947 144.01 15.0907 144.01 16.248C144.01 17.0507 143.748 17.76 143.226 18.376C142.722 18.9733 142.022 19.44 141.126 19.776C140.23 20.112 139.212 20.28 138.074 20.28ZM150.201 16.164C150.201 16.4627 150.285 16.7147 150.453 16.92C150.621 17.1067 150.845 17.256 151.125 17.368C151.424 17.4613 151.732 17.508 152.049 17.508C152.572 17.508 153.048 17.424 153.477 17.256C153.925 17.088 154.28 16.808 154.541 16.416C154.803 16.024 154.933 15.4827 154.933 14.792L155.381 16.36C155.381 17.1813 155.167 17.8907 154.737 18.488C154.327 19.0667 153.757 19.5147 153.029 19.832C152.32 20.1307 151.517 20.28 150.621 20.28C149.725 20.28 148.923 20.1307 148.213 19.832C147.504 19.5147 146.944 19.0667 146.533 18.488C146.141 17.8907 145.945 17.172 145.945 16.332C145.945 15.4733 146.169 14.736 146.617 14.12C147.084 13.504 147.737 13.028 148.577 12.692C149.417 12.356 150.397 12.188 151.517 12.188C152.171 12.188 152.787 12.2627 153.365 12.412C153.963 12.5427 154.476 12.72 154.905 12.944C155.353 13.1493 155.671 13.3547 155.857 13.56V15.548C155.372 15.1933 154.868 14.932 154.345 14.764C153.841 14.5773 153.225 14.484 152.497 14.484C152.012 14.484 151.592 14.5587 151.237 14.708C150.901 14.8387 150.64 15.0253 150.453 15.268C150.285 15.5107 150.201 15.8093 150.201 16.164ZM148.549 11.096L147.121 8.24C147.849 7.88533 148.717 7.54933 149.725 7.232C150.752 6.91467 151.844 6.756 153.001 6.756C154.159 6.756 155.185 6.924 156.081 7.26C156.996 7.57733 157.705 8.044 158.209 8.66C158.732 9.276 158.993 10.032 158.993 10.928V20H154.933V11.768C154.933 11.2267 154.728 10.7973 154.317 10.48C153.925 10.144 153.375 9.976 152.665 9.976C152.049 9.976 151.461 10.0413 150.901 10.172C150.36 10.3027 149.884 10.4613 149.473 10.648C149.063 10.816 148.755 10.9653 148.549 11.096ZM162.128 7.12H166.188V20H162.128V7.12ZM170.864 7.12H175.932L170.416 12.44L176.492 20H171.508L165.348 12.44L170.864 7.12ZM181.592 16.164C181.592 16.4627 181.676 16.7147 181.844 16.92C182.012 17.1067 182.236 17.256 182.516 17.368C182.815 17.4613 183.123 17.508 183.44 17.508C183.963 17.508 184.439 17.424 184.868 17.256C185.316 17.088 185.671 16.808 185.932 16.416C186.193 16.024 186.324 15.4827 186.324 14.792L186.772 16.36C186.772 17.1813 186.557 17.8907 186.128 18.488C185.717 19.0667 185.148 19.5147 184.42 19.832C183.711 20.1307 182.908 20.28 182.012 20.28C181.116 20.28 180.313 20.1307 179.604 19.832C178.895 19.5147 178.335 19.0667 177.924 18.488C177.532 17.8907 177.336 17.172 177.336 16.332C177.336 15.4733 177.56 14.736 178.008 14.12C178.475 13.504 179.128 13.028 179.968 12.692C180.808 12.356 181.788 12.188 182.908 12.188C183.561 12.188 184.177 12.2627 184.756 12.412C185.353 12.5427 185.867 12.72 186.296 12.944C186.744 13.1493 187.061 13.3547 187.248 13.56V15.548C186.763 15.1933 186.259 14.932 185.736 14.764C185.232 14.5773 184.616 14.484 183.888 14.484C183.403 14.484 182.983 14.5587 182.628 14.708C182.292 14.8387 182.031 15.0253 181.844 15.268C181.676 15.5107 181.592 15.8093 181.592 16.164ZM179.94 11.096L178.512 8.24C179.24 7.88533 180.108 7.54933 181.116 7.232C182.143 6.91467 183.235 6.756 184.392 6.756C185.549 6.756 186.576 6.924 187.472 7.26C188.387 7.57733 189.096 8.044 189.6 8.66C190.123 9.276 190.384 10.032 190.384 10.928V20H186.324V11.768C186.324 11.2267 186.119 10.7973 185.708 10.48C185.316 10.144 184.765 9.976 184.056 9.976C183.44 9.976 182.852 10.0413 182.292 10.172C181.751 10.3027 181.275 10.4613 180.864 10.648C180.453 10.816 180.145 10.9653 179.94 11.096ZM199.511 13.56V12.3C200.108 12.3 200.537 12.188 200.799 11.964C201.079 11.7213 201.219 11.4227 201.219 11.068C201.219 10.7133 201.088 10.4333 200.827 10.228C200.565 10.004 200.22 9.892 199.791 9.892C199.473 9.892 199.184 9.95733 198.923 10.088C198.68 10.2187 198.493 10.396 198.363 10.62C198.232 10.844 198.157 11.1053 198.139 11.404H194.303C194.303 10.4893 194.527 9.696 194.975 9.024C195.441 8.33333 196.076 7.80133 196.879 7.428C197.7 7.036 198.661 6.84 199.763 6.84C200.789 6.84 201.704 7.008 202.507 7.344C203.309 7.66133 203.935 8.1 204.383 8.66C204.849 9.20133 205.083 9.82667 205.083 10.536C205.083 11.488 204.625 12.2533 203.711 12.832C202.815 13.392 201.415 13.6347 199.511 13.56ZM199.707 20.28C197.877 20.28 196.431 19.86 195.367 19.02C194.321 18.1613 193.724 17.0227 193.575 15.604H197.579C197.728 16.1453 197.98 16.5653 198.335 16.864C198.689 17.144 199.137 17.284 199.679 17.284C200.089 17.284 200.444 17.228 200.743 17.116C201.041 16.9853 201.275 16.8173 201.443 16.612C201.611 16.388 201.695 16.1173 201.695 15.8C201.695 15.4827 201.611 15.2213 201.443 15.016C201.293 14.792 201.051 14.624 200.715 14.512C200.397 14.3813 199.996 14.316 199.511 14.316V12.72C201.471 12.6267 202.983 12.9067 204.047 13.56C205.111 14.1947 205.643 15.0907 205.643 16.248C205.643 17.0507 205.381 17.76 204.859 18.376C204.355 18.9733 203.655 19.44 202.759 19.776C201.863 20.112 200.845 20.28 199.707 20.28ZM213.346 16.78L214.578 13.28H217.742V16.78H213.346ZM216.146 7.12H220.374V20H216.146V7.12ZM212.534 7.12V11.152C212.534 11.6747 212.6 12.0947 212.73 12.412C212.88 12.7107 213.104 12.9347 213.402 13.084C213.701 13.2147 214.093 13.28 214.578 13.28L213.346 16.78C212.058 16.78 211.041 16.5467 210.294 16.08C209.566 15.5947 209.053 14.9133 208.754 14.036C208.456 13.14 208.306 12.0667 208.306 10.816V7.12H212.534ZM236.919 10.76L223.927 20.98L224.067 16.36L237.059 6.14L236.919 10.76ZM228.015 7.12V17.032L223.927 20.98V7.12H228.015ZM237.059 6.14V20H232.999V10.088L237.059 6.14ZM240.413 7.12H244.473V20H240.413V7.12ZM249.149 7.12H254.217L248.701 12.44L254.777 20H249.793L243.633 12.44L249.149 7.12ZM259.877 16.164C259.877 16.4627 259.961 16.7147 260.129 16.92C260.297 17.1067 260.521 17.256 260.801 17.368C261.1 17.4613 261.408 17.508 261.725 17.508C262.248 17.508 262.724 17.424 263.153 17.256C263.601 17.088 263.956 16.808 264.217 16.416C264.479 16.024 264.609 15.4827 264.609 14.792L265.057 16.36C265.057 17.1813 264.843 17.8907 264.413 18.488C264.003 19.0667 263.433 19.5147 262.705 19.832C261.996 20.1307 261.193 20.28 260.297 20.28C259.401 20.28 258.599 20.1307 257.889 19.832C257.18 19.5147 256.62 19.0667 256.209 18.488C255.817 17.8907 255.621 17.172 255.621 16.332C255.621 15.4733 255.845 14.736 256.293 14.12C256.76 13.504 257.413 13.028 258.253 12.692C259.093 12.356 260.073 12.188 261.193 12.188C261.847 12.188 262.463 12.2627 263.041 12.412C263.639 12.5427 264.152 12.72 264.581 12.944C265.029 13.1493 265.347 13.3547 265.533 13.56V15.548C265.048 15.1933 264.544 14.932 264.021 14.764C263.517 14.5773 262.901 14.484 262.173 14.484C261.688 14.484 261.268 14.5587 260.913 14.708C260.577 14.8387 260.316 15.0253 260.129 15.268C259.961 15.5107 259.877 15.8093 259.877 16.164ZM258.225 11.096L256.797 8.24C257.525 7.88533 258.393 7.54933 259.401 7.232C260.428 6.91467 261.52 6.756 262.677 6.756C263.835 6.756 264.861 6.924 265.757 7.26C266.672 7.57733 267.381 8.044 267.885 8.66C268.408 9.276 268.669 10.032 268.669 10.928V20H264.609V11.768C264.609 11.2267 264.404 10.7973 263.993 10.48C263.601 10.144 263.051 9.976 262.341 9.976C261.725 9.976 261.137 10.0413 260.577 10.172C260.036 10.3027 259.56 10.4613 259.149 10.648C258.739 10.816 258.431 10.9653 258.225 11.096Z" fill="black"/>
</svg>
