<svg width="270" height="48" viewBox="0 0 270 48" fill="none" xmlns="http://www.w3.org/2000/svg">
<path d="M12.494 4.726H5.552V19H1.08V0.799999H16.966V19H12.494V4.726ZM19.8906 13.02C19.8906 11.7547 20.1853 10.654 20.7746 9.718C21.3639 8.782 22.1786 8.054 23.2186 7.534C24.2586 7.014 25.4286 6.754 26.7286 6.754C28.0286 6.754 29.1899 7.014 30.2126 7.534C31.2526 8.054 32.0673 8.782 32.6566 9.718C33.2633 10.654 33.5666 11.7547 33.5666 13.02C33.5666 14.268 33.2633 15.36 32.6566 16.296C32.0673 17.232 31.2526 17.96 30.2126 18.48C29.1899 19 28.0286 19.26 26.7286 19.26C25.4286 19.26 24.2586 19 23.2186 18.48C22.1786 17.96 21.3639 17.232 20.7746 16.296C20.1853 15.36 19.8906 14.268 19.8906 13.02ZM23.9206 13.02C23.9206 13.644 24.0506 14.1813 24.3106 14.632C24.5706 15.0653 24.9086 15.4033 25.3246 15.646C25.7406 15.8887 26.2086 16.01 26.7286 16.01C27.2313 16.01 27.6906 15.8887 28.1066 15.646C28.5399 15.4033 28.8779 15.0653 29.1206 14.632C29.3806 14.1813 29.5106 13.644 29.5106 13.02C29.5106 12.396 29.3806 11.8587 29.1206 11.408C28.8779 10.9573 28.5399 10.6107 28.1066 10.368C27.6906 10.1253 27.2313 10.004 26.7286 10.004C26.2086 10.004 25.7406 10.1253 25.3246 10.368C24.9086 10.6107 24.5706 10.9573 24.3106 11.408C24.0506 11.8587 23.9206 12.396 23.9206 13.02ZM48.5125 7.04V19H44.7425V10.602H40.3225V14.84C40.3225 15.776 40.1492 16.556 39.8025 17.18C39.4559 17.7867 38.8665 18.246 38.0345 18.558C37.2199 18.8527 36.0932 19 34.6545 19V15.49C35.1745 15.49 35.6165 15.3947 35.9805 15.204C36.3619 14.996 36.5525 14.554 36.5525 13.878V7.04H48.5125ZM64.2438 10.42L52.1798 19.91L52.3097 15.62L64.3738 6.13L64.2438 10.42ZM55.9758 7.04V16.244L52.1798 19.91V7.04H55.9758ZM64.3738 6.13V19H60.6038V9.796L64.3738 6.13ZM66.1105 7.04H74.5085V10.29H66.1105V7.04ZM68.4245 7.56H72.1945V19H68.4245V7.56ZM88.2887 10.42L76.2247 19.91L76.3547 15.62L88.4187 6.13L88.2887 10.42ZM80.0207 7.04V16.244L76.2247 19.91V7.04H80.0207ZM88.4187 6.13V19H84.6487V9.796L88.4187 6.13ZM91.5334 7.04H95.3034V19H91.5334V7.04ZM99.6454 7.04H104.351L99.2294 11.98L104.871 19H100.243L94.5234 11.98L99.6454 7.04ZM109.607 15.438C109.607 15.7153 109.685 15.9493 109.841 16.14C109.997 16.3133 110.205 16.452 110.465 16.556C110.743 16.6427 111.029 16.686 111.323 16.686C111.809 16.686 112.251 16.608 112.649 16.452C113.065 16.296 113.395 16.036 113.637 15.672C113.88 15.308 114.001 14.8053 114.001 14.164L114.417 15.62C114.417 16.3827 114.218 17.0413 113.819 17.596C113.438 18.1333 112.909 18.5493 112.233 18.844C111.575 19.1213 110.829 19.26 109.997 19.26C109.165 19.26 108.42 19.1213 107.761 18.844C107.103 18.5493 106.583 18.1333 106.201 17.596C105.837 17.0413 105.655 16.374 105.655 15.594C105.655 14.7967 105.863 14.112 106.279 13.54C106.713 12.968 107.319 12.526 108.099 12.214C108.879 11.902 109.789 11.746 110.829 11.746C111.436 11.746 112.008 11.8153 112.545 11.954C113.1 12.0753 113.577 12.24 113.975 12.448C114.391 12.6387 114.686 12.8293 114.859 13.02V14.866C114.409 14.5367 113.941 14.294 113.455 14.138C112.987 13.9647 112.415 13.878 111.739 13.878C111.289 13.878 110.899 13.9473 110.569 14.086C110.257 14.2073 110.015 14.3807 109.841 14.606C109.685 14.8313 109.607 15.1087 109.607 15.438ZM108.073 10.732L106.747 8.08C107.423 7.75067 108.229 7.43867 109.165 7.144C110.119 6.84933 111.133 6.702 112.207 6.702C113.282 6.702 114.235 6.858 115.067 7.17C115.917 7.46467 116.575 7.898 117.043 8.47C117.529 9.042 117.771 9.744 117.771 10.576V19H114.001V11.356C114.001 10.8533 113.811 10.4547 113.429 10.16C113.065 9.848 112.554 9.692 111.895 9.692C111.323 9.692 110.777 9.75267 110.257 9.874C109.755 9.99533 109.313 10.1427 108.931 10.316C108.55 10.472 108.264 10.6107 108.073 10.732ZM0.508 33.04H4.278V45H0.508V33.04ZM8.62 33.04H13.326L8.204 37.98L13.846 45H9.218L3.498 37.98L8.62 33.04ZM14.457 39.02C14.457 37.7547 14.7517 36.654 15.341 35.718C15.9303 34.782 16.745 34.054 17.785 33.534C18.825 33.014 19.995 32.754 21.295 32.754C22.595 32.754 23.7563 33.014 24.779 33.534C25.819 34.054 26.6337 34.782 27.223 35.718C27.8297 36.654 28.133 37.7547 28.133 39.02C28.133 40.268 27.8297 41.36 27.223 42.296C26.6337 43.232 25.819 43.96 24.779 44.48C23.7563 45 22.595 45.26 21.295 45.26C19.995 45.26 18.825 45 17.785 44.48C16.745 43.96 15.9303 43.232 15.341 42.296C14.7517 41.36 14.457 40.268 14.457 39.02ZM18.487 39.02C18.487 39.644 18.617 40.1813 18.877 40.632C19.137 41.0653 19.475 41.4033 19.891 41.646C20.307 41.8887 20.775 42.01 21.295 42.01C21.7977 42.01 22.257 41.8887 22.673 41.646C23.1063 41.4033 23.4443 41.0653 23.687 40.632C23.947 40.1813 24.077 39.644 24.077 39.02C24.077 38.396 23.947 37.8587 23.687 37.408C23.4443 36.9573 23.1063 36.6107 22.673 36.368C22.257 36.1253 21.7977 36.004 21.295 36.004C20.775 36.004 20.307 36.1253 19.891 36.368C19.475 36.6107 19.137 36.9573 18.877 37.408C18.617 37.8587 18.487 38.396 18.487 39.02ZM31.7169 40.164V37.226H41.3889V40.164H31.7169ZM39.6209 33.04H43.3909V45H39.6209V33.04ZM30.4949 33.04H34.2909V45H30.4949V33.04ZM51.769 30.44H55.461V47.6H51.769V30.44ZM45.789 39.02C45.789 37.7547 46.101 36.654 46.725 35.718C47.349 34.782 48.2417 34.054 49.403 33.534C50.5817 33.014 51.9857 32.754 53.615 32.754C55.2617 32.754 56.6657 33.014 57.827 33.534C59.0057 34.054 59.907 34.782 60.531 35.718C61.155 36.654 61.467 37.7547 61.467 39.02C61.467 40.268 61.155 41.36 60.531 42.296C59.907 43.232 59.0057 43.96 57.827 44.48C56.6657 45 55.2617 45.26 53.615 45.26C51.9857 45.26 50.5817 45 49.403 44.48C48.2417 43.96 47.349 43.232 46.725 42.296C46.101 41.36 45.789 40.268 45.789 39.02ZM49.351 39.02C49.351 39.644 49.4984 40.1813 49.793 40.632C50.0877 41.0653 50.547 41.4033 51.171 41.646C51.795 41.8887 52.6097 42.01 53.615 42.01C54.6377 42.01 55.461 41.8887 56.085 41.646C56.709 41.4033 57.1684 41.0653 57.463 40.632C57.7577 40.1813 57.905 39.644 57.905 39.02C57.905 38.396 57.7577 37.8587 57.463 37.408C57.1684 36.9573 56.709 36.6107 56.085 36.368C55.461 36.1253 54.6377 36.004 53.615 36.004C52.6097 36.004 51.795 36.1253 51.171 36.368C50.547 36.6107 50.0877 36.9573 49.793 37.408C49.4984 37.8587 49.351 38.396 49.351 39.02ZM75.9488 36.42L63.8848 45.91L64.0148 41.62L76.0788 32.13L75.9488 36.42ZM67.6808 33.04V42.244L63.8848 45.91V33.04H67.6808ZM76.0788 32.13V45H72.3088V35.796L76.0788 32.13ZM86.7855 37.772L83.9255 44.22L80.1295 43.414L86.7855 32.13L93.4415 43.414L89.6455 44.22L86.7855 37.772ZM91.1535 45H82.5475V47.34H78.7255V41.906H94.8455V47.34H91.1535V45ZM99.0596 39.852V37.668H105.82C105.75 37.1827 105.62 36.7753 105.43 36.446C105.256 36.1167 105.005 35.8653 104.676 35.692C104.364 35.5013 103.974 35.406 103.506 35.406C102.968 35.406 102.5 35.5273 102.102 35.77C101.72 35.9953 101.417 36.3333 101.192 36.784C100.966 37.2173 100.854 37.7547 100.854 38.396L100.802 39.02C100.802 39.8347 100.923 40.4933 101.166 40.996C101.426 41.4987 101.764 41.8627 102.18 42.088C102.613 42.3133 103.081 42.426 103.584 42.426C104.069 42.426 104.494 42.3653 104.858 42.244C105.239 42.1227 105.568 41.9493 105.846 41.724C106.123 41.4813 106.357 41.1953 106.548 40.866L110.058 41.724C109.659 42.452 109.182 43.0847 108.628 43.622C108.073 44.142 107.388 44.5493 106.574 44.844C105.776 45.1213 104.797 45.26 103.636 45.26C102.197 45.26 100.966 44.9913 99.9436 44.454C98.9382 43.9167 98.1669 43.18 97.6296 42.244C97.1096 41.2907 96.8496 40.216 96.8496 39.02C96.8496 38.7947 96.8582 38.578 96.8756 38.37C96.8929 38.162 96.9189 37.954 96.9536 37.746C97.1269 36.758 97.4822 35.8913 98.0196 35.146C98.5742 34.4007 99.3109 33.82 100.23 33.404C101.166 32.988 102.284 32.78 103.584 32.78C104.988 32.78 106.166 33.0227 107.12 33.508C108.073 33.9933 108.792 34.6867 109.278 35.588C109.78 36.4893 110.032 37.5727 110.032 38.838C110.032 38.942 110.032 39.0893 110.032 39.28C110.032 39.4533 110.014 39.644 109.98 39.852H99.0596ZM113.729 40.164V37.226H123.401V40.164H113.729ZM121.633 33.04H125.403V45H121.633V33.04ZM112.507 33.04H116.303V45H112.507V33.04ZM140.515 41.75H142.595V47.652H138.929V45H128.503V33.04H132.455V41.75H136.589V33.04H140.515V41.75ZM156.767 36.42L144.703 45.91L144.833 41.62L156.897 32.13L156.767 36.42ZM148.499 33.04V42.244L144.703 45.91V33.04H148.499ZM156.897 32.13V45H153.127V35.796L156.897 32.13ZM163.08 41.438C163.08 41.7153 163.158 41.9493 163.314 42.14C163.47 42.3133 163.678 42.452 163.938 42.556C164.215 42.6427 164.501 42.686 164.796 42.686C165.281 42.686 165.723 42.608 166.122 42.452C166.538 42.296 166.867 42.036 167.11 41.672C167.353 41.308 167.474 40.8053 167.474 40.164L167.89 41.62C167.89 42.3827 167.691 43.0413 167.292 43.596C166.911 44.1333 166.382 44.5493 165.706 44.844C165.047 45.1213 164.302 45.26 163.47 45.26C162.638 45.26 161.893 45.1213 161.234 44.844C160.575 44.5493 160.055 44.1333 159.674 43.596C159.31 43.0413 159.128 42.374 159.128 41.594C159.128 40.7967 159.336 40.112 159.752 39.54C160.185 38.968 160.792 38.526 161.572 38.214C162.352 37.902 163.262 37.746 164.302 37.746C164.909 37.746 165.481 37.8153 166.018 37.954C166.573 38.0753 167.049 38.24 167.448 38.448C167.864 38.6387 168.159 38.8293 168.332 39.02V40.866C167.881 40.5367 167.413 40.294 166.928 40.138C166.46 39.9647 165.888 39.878 165.212 39.878C164.761 39.878 164.371 39.9473 164.042 40.086C163.73 40.2073 163.487 40.3807 163.314 40.606C163.158 40.8313 163.08 41.1087 163.08 41.438ZM161.546 36.732L160.22 34.08C160.896 33.7507 161.702 33.4387 162.638 33.144C163.591 32.8493 164.605 32.702 165.68 32.702C166.755 32.702 167.708 32.858 168.54 33.17C169.389 33.4647 170.048 33.898 170.516 34.47C171.001 35.042 171.244 35.744 171.244 36.576V45H167.474V37.356C167.474 36.8533 167.283 36.4547 166.902 36.16C166.538 35.848 166.027 35.692 165.368 35.692C164.796 35.692 164.25 35.7527 163.73 35.874C163.227 35.9953 162.785 36.1427 162.404 36.316C162.023 36.472 161.737 36.6107 161.546 36.732ZM186.764 33.04V45H182.994V36.602H178.574V40.84C178.574 41.776 178.401 42.556 178.054 43.18C177.708 43.7867 177.118 44.246 176.286 44.558C175.472 44.8527 174.345 45 172.906 45V41.49C173.426 41.49 173.868 41.3947 174.232 41.204C174.614 40.996 174.804 40.554 174.804 39.878V33.04H186.764ZM190.562 33.04H194.488V45H190.562V33.04ZM193.63 39.618V37.07H197.348C198.578 37.07 199.61 37.3733 200.442 37.98C201.291 38.5693 201.716 39.5053 201.716 40.788C201.716 41.6373 201.525 42.3827 201.144 43.024C200.762 43.6653 200.242 44.1593 199.584 44.506C198.925 44.8353 198.18 45 197.348 45H193.63V41.958H196.646C196.94 41.958 197.183 41.9147 197.374 41.828C197.582 41.7413 197.738 41.6113 197.842 41.438C197.963 41.2473 198.024 41.0307 198.024 40.788C198.024 40.4413 197.902 40.164 197.66 39.956C197.434 39.7307 197.096 39.618 196.646 39.618H193.63ZM205.77 40.164V37.226H215.442V40.164H205.77ZM213.674 33.04H217.444V45H213.674V33.04ZM204.548 33.04H208.344V45H204.548V33.04ZM219.842 39.02C219.842 37.7547 220.136 36.654 220.726 35.718C221.315 34.782 222.13 34.054 223.17 33.534C224.21 33.014 225.38 32.754 226.68 32.754C227.98 32.754 229.141 33.014 230.164 33.534C231.204 34.054 232.018 34.782 232.608 35.718C233.214 36.654 233.518 37.7547 233.518 39.02C233.518 40.268 233.214 41.36 232.608 42.296C232.018 43.232 231.204 43.96 230.164 44.48C229.141 45 227.98 45.26 226.68 45.26C225.38 45.26 224.21 45 223.17 44.48C222.13 43.96 221.315 43.232 220.726 42.296C220.136 41.36 219.842 40.268 219.842 39.02ZM223.872 39.02C223.872 39.644 224.002 40.1813 224.262 40.632C224.522 41.0653 224.86 41.4033 225.276 41.646C225.692 41.8887 226.16 42.01 226.68 42.01C227.182 42.01 227.642 41.8887 228.058 41.646C228.491 41.4033 228.829 41.0653 229.072 40.632C229.332 40.1813 229.462 39.644 229.462 39.02C229.462 38.396 229.332 37.8587 229.072 37.408C228.829 36.9573 228.491 36.6107 228.058 36.368C227.642 36.1253 227.182 36.004 226.68 36.004C226.16 36.004 225.692 36.1253 225.276 36.368C224.86 36.6107 224.522 36.9573 224.262 37.408C224.002 37.8587 223.872 38.396 223.872 39.02ZM239.182 39.02C239.182 39.6613 239.32 40.216 239.598 40.684C239.875 41.1347 240.256 41.49 240.742 41.75C241.244 42.01 241.782 42.14 242.354 42.14C242.839 42.14 243.298 42.0707 243.732 41.932C244.182 41.776 244.59 41.568 244.954 41.308C245.335 41.048 245.647 40.7273 245.89 40.346V44.168C245.474 44.4973 244.954 44.766 244.33 44.974C243.706 45.1647 242.943 45.26 242.042 45.26C240.724 45.26 239.537 45 238.48 44.48C237.44 43.96 236.616 43.232 236.01 42.296C235.42 41.36 235.126 40.268 235.126 39.02C235.126 37.7547 235.42 36.6627 236.01 35.744C236.616 34.808 237.44 34.08 238.48 33.56C239.537 33.04 240.724 32.78 242.042 32.78C242.943 32.78 243.706 32.884 244.33 33.092C244.954 33.2827 245.474 33.5253 245.89 33.82V37.668C245.647 37.2867 245.326 36.966 244.928 36.706C244.546 36.446 244.13 36.2467 243.68 36.108C243.229 35.9693 242.787 35.9 242.354 35.9C241.782 35.9 241.244 36.0387 240.742 36.316C240.256 36.5933 239.875 36.966 239.598 37.434C239.32 37.902 239.182 38.4307 239.182 39.02ZM247.323 33.04H255.721V36.29H247.323V33.04ZM249.637 33.56H253.407V45H249.637V33.56ZM269.502 36.42L257.438 45.91L257.568 41.62L269.632 32.13L269.502 36.42ZM261.234 33.04V42.244L257.438 45.91V33.04H261.234ZM269.632 32.13V45H265.862V35.796L269.632 32.13Z" fill="black"/>
</svg>
