<svg width="247" height="27" viewBox="0 0 247 27" fill="none" xmlns="http://www.w3.org/2000/svg">
<path d="M3.6 10.256V8.184H6.764C7.30533 8.184 7.76267 8.1 8.136 7.932C8.528 7.764 8.82667 7.53067 9.032 7.232C9.23733 6.91467 9.34 6.532 9.34 6.084C9.34 5.412 9.116 4.908 8.668 4.572C8.22 4.236 7.58533 4.068 6.764 4.068H4.804V16.332H7.212C7.828 16.332 8.37867 16.2573 8.864 16.108C9.34933 15.94 9.732 15.6787 10.012 15.324C10.3107 14.9507 10.46 14.4467 10.46 13.812C10.46 13.4013 10.376 13.0467 10.208 12.748C10.04 12.4493 9.80667 12.2067 9.508 12.02C9.20933 11.8333 8.864 11.7027 8.472 11.628C8.09867 11.5347 7.67867 11.488 7.212 11.488H3.6V8.912H7.744C8.696 8.912 9.62 9.01467 10.516 9.22C11.412 9.42533 12.224 9.76133 12.952 10.228C13.68 10.676 14.2587 11.2547 14.688 11.964C15.136 12.6547 15.36 13.4947 15.36 14.484C15.36 15.7907 15.0427 16.8453 14.408 17.648C13.792 18.4507 12.9147 19.048 11.776 19.44C10.6373 19.8133 9.29333 20 7.744 20H0.072V0.399999H7.268C8.63067 0.399999 9.82533 0.586666 10.852 0.96C11.8973 1.31467 12.7187 1.86533 13.316 2.612C13.932 3.34 14.24 4.264 14.24 5.384C14.24 6.41067 13.932 7.288 13.316 8.016C12.7187 8.744 11.8973 9.304 10.852 9.696C9.82533 10.0693 8.63067 10.256 7.268 10.256H3.6ZM17.4898 13.56C17.4898 12.1973 17.8071 11.012 18.4417 10.004C19.0764 8.996 19.9538 8.212 21.0738 7.652C22.1938 7.092 23.4538 6.812 24.8538 6.812C26.2538 6.812 27.5044 7.092 28.6058 7.652C29.7258 8.212 30.6031 8.996 31.2378 10.004C31.8911 11.012 32.2178 12.1973 32.2178 13.56C32.2178 14.904 31.8911 16.08 31.2378 17.088C30.6031 18.096 29.7258 18.88 28.6058 19.44C27.5044 20 26.2538 20.28 24.8538 20.28C23.4538 20.28 22.1938 20 21.0738 19.44C19.9538 18.88 19.0764 18.096 18.4417 17.088C17.8071 16.08 17.4898 14.904 17.4898 13.56ZM21.8298 13.56C21.8298 14.232 21.9698 14.8107 22.2498 15.296C22.5298 15.7627 22.8938 16.1267 23.3418 16.388C23.7898 16.6493 24.2938 16.78 24.8538 16.78C25.3951 16.78 25.8898 16.6493 26.3378 16.388C26.8044 16.1267 27.1684 15.7627 27.4298 15.296C27.7098 14.8107 27.8498 14.232 27.8498 13.56C27.8498 12.888 27.7098 12.3093 27.4298 11.824C27.1684 11.3387 26.8044 10.9653 26.3378 10.704C25.8898 10.4427 25.3951 10.312 24.8538 10.312C24.2938 10.312 23.7898 10.4427 23.3418 10.704C22.8938 10.9653 22.5298 11.3387 22.2498 11.824C21.9698 12.3093 21.8298 12.888 21.8298 13.56ZM47.8094 10.76L34.8174 20.98L34.9574 16.36L47.9494 6.14L47.8094 10.76ZM38.9054 7.12V17.032L34.8174 20.98V7.12H38.9054ZM47.9494 6.14V20H43.8894V10.088L47.9494 6.14ZM37.0014 0.539999H39.7734C39.7734 0.857332 39.848 1.14667 39.9974 1.408C40.1467 1.65067 40.3614 1.84667 40.6414 1.996C40.9214 2.12667 41.2387 2.192 41.5934 2.192C41.948 2.192 42.2654 2.12667 42.5454 1.996C42.8254 1.84667 43.04 1.65067 43.1894 1.408C43.3387 1.14667 43.4134 0.857332 43.4134 0.539999H46.1854C46.1854 1.28667 46.008 1.97733 45.6534 2.612C45.2987 3.228 44.776 3.72267 44.0854 4.096C43.4134 4.45067 42.5827 4.628 41.5934 4.628C40.6227 4.628 39.792 4.45067 39.1014 4.096C38.4107 3.72267 37.888 3.228 37.5334 2.612C37.1787 1.97733 37.0014 1.28667 37.0014 0.539999ZM59.4797 12.216L56.3997 19.16L52.3117 18.292L59.4797 6.14L66.6477 18.292L62.5597 19.16L59.4797 12.216ZM64.1837 20H54.9157V22.52H50.7997V16.668H68.1597V22.52H64.1837V20ZM84.1219 10.76L71.1299 20.98L71.2699 16.36L84.2619 6.14L84.1219 10.76ZM75.2179 7.12V17.032L71.1299 20.98V7.12H75.2179ZM84.2619 6.14V20H80.2019V10.088L84.2619 6.14ZM86.1322 7.12H95.1762V10.62H86.1322V7.12ZM88.6242 7.68H92.6842V20H88.6242V7.68ZM98.1823 14.456V12.104H105.462C105.388 11.5813 105.248 11.1427 105.042 10.788C104.856 10.4333 104.585 10.1627 104.23 9.976C103.894 9.77067 103.474 9.668 102.97 9.668C102.392 9.668 101.888 9.79867 101.458 10.06C101.048 10.3027 100.721 10.6667 100.478 11.152C100.236 11.6187 100.114 12.1973 100.114 12.888L100.058 13.56C100.058 14.4373 100.189 15.1467 100.45 15.688C100.73 16.2293 101.094 16.6213 101.542 16.864C102.009 17.1067 102.513 17.228 103.054 17.228C103.577 17.228 104.034 17.1627 104.426 17.032C104.837 16.9013 105.192 16.7147 105.49 16.472C105.789 16.2107 106.041 15.9027 106.246 15.548L110.026 16.472C109.597 17.256 109.084 17.9373 108.486 18.516C107.889 19.076 107.152 19.5147 106.274 19.832C105.416 20.1307 104.361 20.28 103.11 20.28C101.561 20.28 100.236 19.9907 99.1343 19.412C98.0516 18.8333 97.2209 18.04 96.6423 17.032C96.0823 16.0053 95.8023 14.848 95.8023 13.56C95.8023 13.3173 95.8116 13.084 95.8302 12.86C95.8489 12.636 95.8769 12.412 95.9143 12.188C96.1009 11.124 96.4836 10.1907 97.0623 9.388C97.6596 8.58533 98.4529 7.96 99.4423 7.512C100.45 7.064 101.654 6.84 103.054 6.84C104.566 6.84 105.836 7.10133 106.862 7.624C107.889 8.14667 108.664 8.89333 109.186 9.864C109.728 10.8347 109.998 12.0013 109.998 13.364C109.998 13.476 109.998 13.6347 109.998 13.84C109.998 14.0267 109.98 14.232 109.942 14.456H98.1823ZM123.942 13.28H128.534C129.43 13.28 130.233 13.3733 130.942 13.56C131.652 13.7467 132.212 14.0733 132.622 14.54C133.033 15.0067 133.238 15.66 133.238 16.5C133.238 17.4707 132.912 18.3013 132.258 18.992C131.624 19.664 130.569 20 129.094 20H123.942V17.34H127.666C128.264 17.34 128.674 17.2093 128.898 16.948C129.141 16.668 129.262 16.3693 129.262 16.052C129.262 15.884 129.234 15.7253 129.178 15.576C129.122 15.4267 129.029 15.296 128.898 15.184C128.786 15.072 128.628 14.9787 128.422 14.904C128.217 14.8293 127.965 14.792 127.666 14.792H123.942V13.28ZM123.942 13.84V12.188H127.386C127.61 12.188 127.797 12.16 127.946 12.104C128.114 12.0293 128.254 11.936 128.366 11.824C128.478 11.712 128.562 11.5813 128.618 11.432C128.674 11.2827 128.702 11.1333 128.702 10.984C128.702 10.648 128.59 10.368 128.366 10.144C128.142 9.90133 127.816 9.78 127.386 9.78H123.942V7.12H128.254C129.057 7.12 129.785 7.24133 130.438 7.484C131.11 7.708 131.652 8.08133 132.062 8.604C132.473 9.108 132.678 9.78 132.678 10.62C132.678 11.348 132.473 11.9547 132.062 12.44C131.652 12.9067 131.11 13.2613 130.438 13.504C129.785 13.728 129.057 13.84 128.254 13.84H123.942ZM121.506 7.12H125.566V20H121.506V7.12ZM147.412 16.164C147.412 16.4627 147.496 16.7147 147.664 16.92C147.832 17.1067 148.056 17.256 148.336 17.368C148.635 17.4613 148.943 17.508 149.26 17.508C149.783 17.508 150.259 17.424 150.688 17.256C151.136 17.088 151.491 16.808 151.752 16.416C152.014 16.024 152.144 15.4827 152.144 14.792L152.592 16.36C152.592 17.1813 152.378 17.8907 151.948 18.488C151.538 19.0667 150.968 19.5147 150.24 19.832C149.531 20.1307 148.728 20.28 147.832 20.28C146.936 20.28 146.134 20.1307 145.424 19.832C144.715 19.5147 144.155 19.0667 143.744 18.488C143.352 17.8907 143.156 17.172 143.156 16.332C143.156 15.4733 143.38 14.736 143.828 14.12C144.295 13.504 144.948 13.028 145.788 12.692C146.628 12.356 147.608 12.188 148.728 12.188C149.382 12.188 149.998 12.2627 150.576 12.412C151.174 12.5427 151.687 12.72 152.116 12.944C152.564 13.1493 152.882 13.3547 153.068 13.56V15.548C152.583 15.1933 152.079 14.932 151.556 14.764C151.052 14.5773 150.436 14.484 149.708 14.484C149.223 14.484 148.803 14.5587 148.448 14.708C148.112 14.8387 147.851 15.0253 147.664 15.268C147.496 15.5107 147.412 15.8093 147.412 16.164ZM145.76 11.096L144.332 8.24C145.06 7.88533 145.928 7.54933 146.936 7.232C147.963 6.91467 149.055 6.756 150.212 6.756C151.37 6.756 152.396 6.924 153.292 7.26C154.207 7.57733 154.916 8.044 155.42 8.66C155.943 9.276 156.204 10.032 156.204 10.928V20H152.144V11.768C152.144 11.2267 151.939 10.7973 151.528 10.48C151.136 10.144 150.586 9.976 149.876 9.976C149.26 9.976 148.672 10.0413 148.112 10.172C147.571 10.3027 147.095 10.4613 146.684 10.648C146.274 10.816 145.966 10.9653 145.76 11.096ZM159.339 7.12H163.399V20H159.339V7.12ZM168.075 7.12H173.143L167.627 12.44L173.703 20H168.719L162.559 12.44L168.075 7.12ZM175.499 7.12H179.559V20H175.499V7.12ZM184.235 7.12H189.303L183.787 12.44L189.863 20H184.879L178.719 12.44L184.235 7.12ZM194.963 16.164C194.963 16.4627 195.047 16.7147 195.215 16.92C195.383 17.1067 195.607 17.256 195.887 17.368C196.186 17.4613 196.494 17.508 196.811 17.508C197.334 17.508 197.81 17.424 198.239 17.256C198.687 17.088 199.042 16.808 199.303 16.416C199.564 16.024 199.695 15.4827 199.695 14.792L200.143 16.36C200.143 17.1813 199.928 17.8907 199.499 18.488C199.088 19.0667 198.519 19.5147 197.791 19.832C197.082 20.1307 196.279 20.28 195.383 20.28C194.487 20.28 193.684 20.1307 192.975 19.832C192.266 19.5147 191.706 19.0667 191.295 18.488C190.903 17.8907 190.707 17.172 190.707 16.332C190.707 15.4733 190.931 14.736 191.379 14.12C191.846 13.504 192.499 13.028 193.339 12.692C194.179 12.356 195.159 12.188 196.279 12.188C196.932 12.188 197.548 12.2627 198.127 12.412C198.724 12.5427 199.238 12.72 199.667 12.944C200.115 13.1493 200.432 13.3547 200.619 13.56V15.548C200.134 15.1933 199.63 14.932 199.107 14.764C198.603 14.5773 197.987 14.484 197.259 14.484C196.774 14.484 196.354 14.5587 195.999 14.708C195.663 14.8387 195.402 15.0253 195.215 15.268C195.047 15.5107 194.963 15.8093 194.963 16.164ZM193.311 11.096L191.883 8.24C192.611 7.88533 193.479 7.54933 194.487 7.232C195.514 6.91467 196.606 6.756 197.763 6.756C198.92 6.756 199.947 6.924 200.843 7.26C201.758 7.57733 202.467 8.044 202.971 8.66C203.494 9.276 203.755 10.032 203.755 10.928V20H199.695V11.768C199.695 11.2267 199.49 10.7973 199.079 10.48C198.687 10.144 198.136 9.976 197.427 9.976C196.811 9.976 196.223 10.0413 195.663 10.172C195.122 10.3027 194.646 10.4613 194.235 10.648C193.824 10.816 193.516 10.9653 193.311 11.096ZM219.969 7.12L211.569 26.16H207.313L210.449 18.964L204.877 7.12H209.525L213.697 17.452L211.513 17.424L215.629 7.12H219.969ZM222.698 14.792V11.628H233.114V14.792H222.698ZM231.21 7.12H235.27V20H231.21V7.12ZM221.382 7.12H225.47V20H221.382V7.12ZM237.097 7.12H246.141V10.62H237.097V7.12ZM239.589 7.68H243.649V20H239.589V7.68Z" fill="black"/>
</svg>
