<svg width="20" height="20" viewBox="0 0 20 20" fill="none" xmlns="http://www.w3.org/2000/svg">
<path fill-rule="evenodd" clip-rule="evenodd" d="M2.57963 0.101463C1.82459 0.283116 1.37614 0.551237 0.845135 1.13829C-0.0128482 2.08664 3.49172e-05 1.95137 3.49172e-05 10.0124C3.49172e-05 18.2967 -0.0222437 18.1052 1.05869 19.1003C2.05708 20.0194 1.86406 20 10 20C18.1359 20 17.9429 20.0194 18.9413 19.1003C20.0222 18.1052 20 18.2967 20 10.0124C20 4.16672 19.9632 2.6021 19.8159 2.18584C19.5656 1.478 18.784 0.643873 18.0537 0.305101C17.4668 0.0328238 17.2452 0.0242446 10.2685 0.00212459C6.31746 -0.0104771 2.85895 0.0342988 2.57963 0.101463ZM1.60942 3.07868C1.71452 2.50504 2.27036 1.86584 2.7964 1.71368C3.03023 1.64611 6.30203 1.58538 10.0671 1.57895C17.6197 1.56581 17.477 1.55093 18.1112 2.41415C18.3829 2.78402 18.39 2.95173 18.4251 9.85452C18.4582 16.385 18.4431 16.9512 18.2237 17.3763C18.0933 17.6291 17.8161 17.9609 17.6078 18.1136C17.2374 18.3849 17.0695 18.392 10.1581 18.427C3.61948 18.4601 3.05264 18.445 2.627 18.2259C2.37385 18.0956 2.04164 17.8188 1.88875 17.6107C1.61748 17.2414 1.60983 17.0671 1.5705 10.3715C1.54849 6.59791 1.56593 3.31624 1.60942 3.07868Z" fill="#E7E7E7"/>
<path fill-rule="evenodd" clip-rule="evenodd" d="M2.7964 1.71368C2.27036 1.86584 1.71452 2.50504 1.60942 3.07868C1.56593 3.31624 1.54849 6.59791 1.5705 10.3715C1.60983 17.0671 1.61748 17.2414 1.88875 17.6107C2.04164 17.8188 2.37385 18.0956 2.627 18.2259C3.05264 18.445 3.61948 18.4601 10.1581 18.427C17.0695 18.392 17.2374 18.3849 17.6078 18.1136C17.8161 17.9609 18.0933 17.6291 18.2237 17.3763C18.4431 16.9512 18.4582 16.385 18.4251 9.85452C18.39 2.95173 18.3829 2.78402 18.1112 2.41415C17.477 1.55093 17.6197 1.56581 10.0671 1.57895C6.30203 1.58538 3.03023 1.64611 2.7964 1.71368ZM11.5219 8.89571C13.1271 6.42337 14.5135 4.3709 14.6028 4.33483C15.1153 4.12704 15.7718 4.51997 15.7718 5.0345C15.7718 5.3356 9.35933 15.2245 9.03396 15.4251C8.88336 15.518 8.69678 15.5219 8.48403 15.4368C8.06041 15.2672 4.22821 11.0889 4.22821 10.7966C4.22821 10.3916 4.39291 10.1283 4.72512 10.0021C4.82552 9.964 4.90413 9.93112 4.9851 9.92361C5.32553 9.89203 5.70757 10.3089 7.92578 12.6698L8.60323 13.3908L11.5219 8.89571Z" fill="#E7E7E7"/>
<path d="M14.6028 4.33483C14.5135 4.3709 13.1271 6.42337 11.5219 8.89571L8.60323 13.3908L7.92578 12.6698C5.70757 10.3089 5.32553 9.89203 4.9851 9.92361C4.90413 9.93112 4.82552 9.964 4.72512 10.0021C4.39291 10.1283 4.22821 10.3916 4.22821 10.7966C4.22821 11.0889 8.06041 15.2672 8.48403 15.4368C8.69678 15.5219 8.88336 15.518 9.03396 15.4251C9.35933 15.2245 15.7718 5.3356 15.7718 5.0345C15.7718 4.51997 15.1153 4.12704 14.6028 4.33483Z" fill="#E7E7E7"/>
</svg>
