<svg width="216" height="55" viewBox="0 0 216 55" fill="none" xmlns="http://www.w3.org/2000/svg">
<path d="M0.072 0.399999H4.804V20H0.072V0.399999ZM3.04 4.292V0.399999H6.876C8.53733 0.399999 9.928 0.661332 11.048 1.184C12.1867 1.688 13.0453 2.416 13.624 3.368C14.2027 4.32 14.492 5.468 14.492 6.812C14.492 8.11867 14.2027 9.25733 13.624 10.228C13.0453 11.18 12.1867 11.9173 11.048 12.44C9.928 12.944 8.53733 13.196 6.876 13.196H3.04V9.304H6.876C7.828 9.304 8.57467 9.08933 9.116 8.66C9.65733 8.23067 9.928 7.61467 9.928 6.812C9.928 5.99067 9.65733 5.36533 9.116 4.936C8.57467 4.50667 7.828 4.292 6.876 4.292H3.04ZM17.8737 14.456V12.104H25.1537C25.079 11.5813 24.939 11.1427 24.7337 10.788C24.547 10.4333 24.2763 10.1627 23.9217 9.976C23.5857 9.77067 23.1657 9.668 22.6617 9.668C22.083 9.668 21.579 9.79867 21.1497 10.06C20.739 10.3027 20.4123 10.6667 20.1697 11.152C19.927 11.6187 19.8057 12.1973 19.8057 12.888L19.7497 13.56C19.7497 14.4373 19.8803 15.1467 20.1417 15.688C20.4217 16.2293 20.7857 16.6213 21.2337 16.864C21.7003 17.1067 22.2043 17.228 22.7457 17.228C23.2683 17.228 23.7257 17.1627 24.1177 17.032C24.5283 16.9013 24.883 16.7147 25.1817 16.472C25.4803 16.2107 25.7323 15.9027 25.9377 15.548L29.7177 16.472C29.2883 17.256 28.775 17.9373 28.1777 18.516C27.5803 19.076 26.843 19.5147 25.9657 19.832C25.107 20.1307 24.0523 20.28 22.8017 20.28C21.2523 20.28 19.927 19.9907 18.8257 19.412C17.743 18.8333 16.9123 18.04 16.3337 17.032C15.7737 16.0053 15.4937 14.848 15.4937 13.56C15.4937 13.3173 15.503 13.084 15.5217 12.86C15.5403 12.636 15.5683 12.412 15.6057 12.188C15.7923 11.124 16.175 10.1907 16.7537 9.388C17.351 8.58533 18.1443 7.96 19.1337 7.512C20.1417 7.064 21.3457 6.84 22.7457 6.84C24.2577 6.84 25.527 7.10133 26.5537 7.624C27.5803 8.14667 28.355 8.89333 28.8777 9.864C29.419 10.8347 29.6897 12.0013 29.6897 13.364C29.6897 13.476 29.6897 13.6347 29.6897 13.84C29.6897 14.0267 29.671 14.232 29.6337 14.456H17.8737ZM32.4111 7.12H40.6711V10.62H36.5831V20H32.4111V7.12ZM55.4383 10.76L42.4463 20.98L42.5863 16.36L55.5783 6.14L55.4383 10.76ZM46.5343 7.12V17.032L42.4463 20.98V7.12H46.5343ZM55.5783 6.14V20H51.5183V10.088L55.5783 6.14ZM62.5166 13.56C62.5166 14.2507 62.6659 14.848 62.9646 15.352C63.2633 15.8373 63.6739 16.22 64.1966 16.5C64.7379 16.78 65.3166 16.92 65.9326 16.92C66.4553 16.92 66.9499 16.8453 67.4166 16.696C67.9019 16.528 68.3406 16.304 68.7326 16.024C69.1433 15.744 69.4793 15.3987 69.7406 14.988V19.104C69.2926 19.4587 68.7326 19.748 68.0606 19.972C67.3886 20.1773 66.5673 20.28 65.5966 20.28C64.1779 20.28 62.8993 20 61.7606 19.44C60.6406 18.88 59.7539 18.096 59.1006 17.088C58.4659 16.08 58.1486 14.904 58.1486 13.56C58.1486 12.1973 58.4659 11.0213 59.1006 10.032C59.7539 9.024 60.6406 8.24 61.7606 7.68C62.8993 7.12 64.1779 6.84 65.5966 6.84C66.5673 6.84 67.3886 6.952 68.0606 7.176C68.7326 7.38133 69.2926 7.64267 69.7406 7.96V12.104C69.4793 11.6933 69.1339 11.348 68.7046 11.068C68.2939 10.788 67.8459 10.5733 67.3606 10.424C66.8753 10.2747 66.3993 10.2 65.9326 10.2C65.3166 10.2 64.7379 10.3493 64.1966 10.648C63.6739 10.9467 63.2633 11.348 62.9646 11.852C62.6659 12.356 62.5166 12.9253 62.5166 13.56ZM71.2845 7.12H80.3285V10.62H71.2845V7.12ZM73.7765 7.68H77.8365V20H73.7765V7.68ZM86.3208 26.16H82.0928V7.12H86.3208V26.16ZM96.8488 13.56C96.8488 15.0533 96.5501 16.3133 95.9528 17.34C95.3741 18.3667 94.6181 19.1413 93.6848 19.664C92.7701 20.1867 91.7808 20.448 90.7168 20.448C89.5968 20.448 88.6261 20.168 87.8048 19.608C87.0021 19.0293 86.3861 18.2267 85.9568 17.2C85.5274 16.1547 85.3128 14.9413 85.3128 13.56C85.3128 12.16 85.5274 10.9467 85.9568 9.92C86.3861 8.89333 87.0021 8.1 87.8048 7.54C88.6261 6.96133 89.5968 6.672 90.7168 6.672C91.7808 6.672 92.7701 6.93333 93.6848 7.456C94.6181 7.97867 95.3741 8.75333 95.9528 9.78C96.5501 10.788 96.8488 12.048 96.8488 13.56ZM92.3968 13.56C92.3968 12.888 92.2568 12.3187 91.9768 11.852C91.6968 11.3853 91.3234 11.0307 90.8568 10.788C90.3901 10.5453 89.8768 10.424 89.3168 10.424C88.8314 10.424 88.3554 10.5453 87.8888 10.788C87.4408 11.012 87.0674 11.3573 86.7688 11.824C86.4701 12.2907 86.3208 12.8693 86.3208 13.56C86.3208 14.2507 86.4701 14.8293 86.7688 15.296C87.0674 15.7627 87.4408 16.1173 87.8888 16.36C88.3554 16.584 88.8314 16.696 89.3168 16.696C89.8768 16.696 90.3901 16.5747 90.8568 16.332C91.3234 16.0893 91.6968 15.7347 91.9768 15.268C92.2568 14.8013 92.3968 14.232 92.3968 13.56ZM112.45 10.76L99.458 20.98L99.598 16.36L112.59 6.14L112.45 10.76ZM103.546 7.12V17.032L99.458 20.98V7.12H103.546ZM112.59 6.14V20H108.53V10.088L112.59 6.14ZM120.172 26.16H115.944V7.12H120.172V26.16ZM130.7 13.56C130.7 15.0533 130.402 16.3133 129.804 17.34C129.226 18.3667 128.47 19.1413 127.536 19.664C126.622 20.1867 125.632 20.448 124.568 20.448C123.448 20.448 122.478 20.168 121.656 19.608C120.854 19.0293 120.238 18.2267 119.808 17.2C119.379 16.1547 119.164 14.9413 119.164 13.56C119.164 12.16 119.379 10.9467 119.808 9.92C120.238 8.89333 120.854 8.1 121.656 7.54C122.478 6.96133 123.448 6.672 124.568 6.672C125.632 6.672 126.622 6.93333 127.536 7.456C128.47 7.97867 129.226 8.75333 129.804 9.78C130.402 10.788 130.7 12.048 130.7 13.56ZM126.248 13.56C126.248 12.888 126.108 12.3187 125.828 11.852C125.548 11.3853 125.175 11.0307 124.708 10.788C124.242 10.5453 123.728 10.424 123.168 10.424C122.683 10.424 122.207 10.5453 121.74 10.788C121.292 11.012 120.919 11.3573 120.62 11.824C120.322 12.2907 120.172 12.8693 120.172 13.56C120.172 14.2507 120.322 14.8293 120.62 15.296C120.919 15.7627 121.292 16.1173 121.74 16.36C122.207 16.584 122.683 16.696 123.168 16.696C123.728 16.696 124.242 16.5747 124.708 16.332C125.175 16.0893 125.548 15.7347 125.828 15.268C126.108 14.8013 126.248 14.232 126.248 13.56ZM146.031 7.12L137.631 26.16H133.375L136.511 18.964L130.939 7.12H135.587L139.759 17.452L137.575 17.424L141.691 7.12H146.031ZM160.493 10.76L147.501 20.98L147.641 16.36L160.633 6.14L160.493 10.76ZM151.589 7.12V17.032L147.501 20.98V7.12H151.589ZM160.633 6.14V20H156.573V10.088L160.633 6.14ZM149.685 0.539999H152.457C152.457 0.857332 152.532 1.14667 152.681 1.408C152.83 1.65067 153.045 1.84667 153.325 1.996C153.605 2.12667 153.922 2.192 154.277 2.192C154.632 2.192 154.949 2.12667 155.229 1.996C155.509 1.84667 155.724 1.65067 155.873 1.408C156.022 1.14667 156.097 0.857332 156.097 0.539999H158.869C158.869 1.28667 158.692 1.97733 158.337 2.612C157.982 3.228 157.46 3.72267 156.769 4.096C156.097 4.45067 155.266 4.628 154.277 4.628C153.306 4.628 152.476 4.45067 151.785 4.096C151.094 3.72267 150.572 3.228 150.217 2.612C149.862 1.97733 149.685 1.28667 149.685 0.539999ZM162.503 7.12H171.547V10.62H162.503V7.12ZM164.995 7.68H169.055V20H164.995V7.68ZM174.553 14.456V12.104H181.833C181.759 11.5813 181.619 11.1427 181.413 10.788C181.227 10.4333 180.956 10.1627 180.601 9.976C180.265 9.77067 179.845 9.668 179.341 9.668C178.763 9.668 178.259 9.79867 177.829 10.06C177.419 10.3027 177.092 10.6667 176.849 11.152C176.607 11.6187 176.485 12.1973 176.485 12.888L176.429 13.56C176.429 14.4373 176.56 15.1467 176.821 15.688C177.101 16.2293 177.465 16.6213 177.913 16.864C178.38 17.1067 178.884 17.228 179.425 17.228C179.948 17.228 180.405 17.1627 180.797 17.032C181.208 16.9013 181.563 16.7147 181.861 16.472C182.16 16.2107 182.412 15.9027 182.617 15.548L186.397 16.472C185.968 17.256 185.455 17.9373 184.857 18.516C184.26 19.076 183.523 19.5147 182.645 19.832C181.787 20.1307 180.732 20.28 179.481 20.28C177.932 20.28 176.607 19.9907 175.505 19.412C174.423 18.8333 173.592 18.04 173.013 17.032C172.453 16.0053 172.173 14.848 172.173 13.56C172.173 13.3173 172.183 13.084 172.201 12.86C172.22 12.636 172.248 12.412 172.285 12.188C172.472 11.124 172.855 10.1907 173.433 9.388C174.031 8.58533 174.824 7.96 175.813 7.512C176.821 7.064 178.025 6.84 179.425 6.84C180.937 6.84 182.207 7.10133 183.233 7.624C184.26 8.14667 185.035 8.89333 185.557 9.864C186.099 10.8347 186.369 12.0013 186.369 13.364C186.369 13.476 186.369 13.6347 186.369 13.84C186.369 14.0267 186.351 14.232 186.313 14.456H174.553ZM192.591 13.56C192.591 14.2507 192.74 14.848 193.039 15.352C193.337 15.8373 193.748 16.22 194.271 16.5C194.812 16.78 195.391 16.92 196.007 16.92C196.529 16.92 197.024 16.8453 197.491 16.696C197.976 16.528 198.415 16.304 198.807 16.024C199.217 15.744 199.553 15.3987 199.815 14.988V19.104C199.367 19.4587 198.807 19.748 198.135 19.972C197.463 20.1773 196.641 20.28 195.671 20.28C194.252 20.28 192.973 20 191.835 19.44C190.715 18.88 189.828 18.096 189.175 17.088C188.54 16.08 188.223 14.904 188.223 13.56C188.223 12.1973 188.54 11.0213 189.175 10.032C189.828 9.024 190.715 8.24 191.835 7.68C192.973 7.12 194.252 6.84 195.671 6.84C196.641 6.84 197.463 6.952 198.135 7.176C198.807 7.38133 199.367 7.64267 199.815 7.96V12.104C199.553 11.6933 199.208 11.348 198.779 11.068C198.368 10.788 197.92 10.5733 197.435 10.424C196.949 10.2747 196.473 10.2 196.007 10.2C195.391 10.2 194.812 10.3493 194.271 10.648C193.748 10.9467 193.337 11.348 193.039 11.852C192.74 12.356 192.591 12.9253 192.591 13.56ZM203.067 7.12H207.295V20H203.067V7.12ZM206.371 14.204V11.46H210.375C211.7 11.46 212.811 11.7867 213.707 12.44C214.621 13.0747 215.079 14.0827 215.079 15.464C215.079 16.3787 214.873 17.1813 214.463 17.872C214.052 18.5627 213.492 19.0947 212.783 19.468C212.073 19.8227 211.271 20 210.375 20H206.371V16.724H209.619C209.936 16.724 210.197 16.6773 210.403 16.584C210.627 16.4907 210.795 16.3507 210.907 16.164C211.037 15.9587 211.103 15.7253 211.103 15.464C211.103 15.0907 210.972 14.792 210.711 14.568C210.468 14.3253 210.104 14.204 209.619 14.204H206.371ZM2.536 41.28H7.128C8.024 41.28 8.82667 41.3733 9.536 41.56C10.2453 41.7467 10.8053 42.0733 11.216 42.54C11.6267 43.0067 11.832 43.66 11.832 44.5C11.832 45.4707 11.5053 46.3013 10.852 46.992C10.2173 47.664 9.16267 48 7.688 48H2.536V45.34H6.26C6.85733 45.34 7.268 45.2093 7.492 44.948C7.73467 44.668 7.856 44.3693 7.856 44.052C7.856 43.884 7.828 43.7253 7.772 43.576C7.716 43.4267 7.62267 43.296 7.492 43.184C7.38 43.072 7.22133 42.9787 7.016 42.904C6.81067 42.8293 6.55867 42.792 6.26 42.792H2.536V41.28ZM2.536 41.84V40.188H5.98C6.204 40.188 6.39067 40.16 6.54 40.104C6.708 40.0293 6.848 39.936 6.96 39.824C7.072 39.712 7.156 39.5813 7.212 39.432C7.268 39.2827 7.296 39.1333 7.296 38.984C7.296 38.648 7.184 38.368 6.96 38.144C6.736 37.9013 6.40933 37.78 5.98 37.78H2.536V35.12H6.848C7.65067 35.12 8.37867 35.2413 9.032 35.484C9.704 35.708 10.2453 36.0813 10.656 36.604C11.0667 37.108 11.272 37.78 11.272 38.62C11.272 39.348 11.0667 39.9547 10.656 40.44C10.2453 40.9067 9.704 41.2613 9.032 41.504C8.37867 41.728 7.65067 41.84 6.848 41.84H2.536ZM0.1 35.12H4.16V48H0.1V35.12ZM35.4981 35.12V48H31.4381V38.788H26.8181V48H22.7301V35.12H35.4981ZM42.1116 44.164C42.1116 44.4627 42.1956 44.7147 42.3636 44.92C42.5316 45.1067 42.7556 45.256 43.0356 45.368C43.3343 45.4613 43.6423 45.508 43.9596 45.508C44.4823 45.508 44.9583 45.424 45.3876 45.256C45.8356 45.088 46.1903 44.808 46.4516 44.416C46.7129 44.024 46.8436 43.4827 46.8436 42.792L47.2916 44.36C47.2916 45.1813 47.0769 45.8907 46.6476 46.488C46.2369 47.0667 45.6676 47.5147 44.9396 47.832C44.2303 48.1307 43.4276 48.28 42.5316 48.28C41.6356 48.28 40.8329 48.1307 40.1236 47.832C39.4143 47.5147 38.8543 47.0667 38.4436 46.488C38.0516 45.8907 37.8556 45.172 37.8556 44.332C37.8556 43.4733 38.0796 42.736 38.5276 42.12C38.9943 41.504 39.6476 41.028 40.4876 40.692C41.3276 40.356 42.3076 40.188 43.4276 40.188C44.0809 40.188 44.6969 40.2627 45.2756 40.412C45.8729 40.5427 46.3863 40.72 46.8156 40.944C47.2636 41.1493 47.5809 41.3547 47.7676 41.56V43.548C47.2823 43.1933 46.7783 42.932 46.2556 42.764C45.7516 42.5773 45.1356 42.484 44.4076 42.484C43.9223 42.484 43.5023 42.5587 43.1476 42.708C42.8116 42.8387 42.5503 43.0253 42.3636 43.268C42.1956 43.5107 42.1116 43.8093 42.1116 44.164ZM40.4596 39.096L39.0316 36.24C39.7596 35.8853 40.6276 35.5493 41.6356 35.232C42.6623 34.9147 43.7543 34.756 44.9116 34.756C46.0689 34.756 47.0956 34.924 47.9916 35.26C48.9063 35.5773 49.6156 36.044 50.1196 36.66C50.6423 37.276 50.9036 38.032 50.9036 38.928V48H46.8436V39.768C46.8436 39.2267 46.6383 38.7973 46.2276 38.48C45.8356 38.144 45.2849 37.976 44.5756 37.976C43.9596 37.976 43.3716 38.0413 42.8116 38.172C42.2703 38.3027 41.7943 38.4613 41.3836 38.648C40.9729 38.816 40.6649 38.9653 40.4596 39.096ZM58.2661 54.16H54.0381V35.12H58.2661V54.16ZM68.7941 41.56C68.7941 43.0533 68.4954 44.3133 67.8981 45.34C67.3194 46.3667 66.5634 47.1413 65.6301 47.664C64.7154 48.1867 63.7261 48.448 62.6621 48.448C61.5421 48.448 60.5714 48.168 59.7501 47.608C58.9474 47.0293 58.3314 46.2267 57.9021 45.2C57.4727 44.1547 57.2581 42.9413 57.2581 41.56C57.2581 40.16 57.4727 38.9467 57.9021 37.92C58.3314 36.8933 58.9474 36.1 59.7501 35.54C60.5714 34.9613 61.5421 34.672 62.6621 34.672C63.7261 34.672 64.7154 34.9333 65.6301 35.456C66.5634 35.9787 67.3194 36.7533 67.8981 37.78C68.4954 38.788 68.7941 40.048 68.7941 41.56ZM64.3421 41.56C64.3421 40.888 64.2021 40.3187 63.9221 39.852C63.6421 39.3853 63.2687 39.0307 62.8021 38.788C62.3354 38.5453 61.8221 38.424 61.2621 38.424C60.7767 38.424 60.3007 38.5453 59.8341 38.788C59.3861 39.012 59.0127 39.3573 58.7141 39.824C58.4154 40.2907 58.2661 40.8693 58.2661 41.56C58.2661 42.2507 58.4154 42.8293 58.7141 43.296C59.0127 43.7627 59.3861 44.1173 59.8341 44.36C60.3007 44.584 60.7767 44.696 61.2621 44.696C61.8221 44.696 62.3354 44.5747 62.8021 44.332C63.2687 44.0893 63.6421 43.7347 63.9221 43.268C64.2021 42.8013 64.3421 42.232 64.3421 41.56ZM84.1252 35.12L75.7252 54.16H71.4692L74.6052 46.964L69.0332 35.12H73.6812L77.8532 45.452L75.6692 45.424L79.7852 35.12H84.1252ZM93.9053 35.12H97.9653V48H93.9053V35.12ZM102.641 35.12H107.709L102.193 40.44L108.269 48H103.285L97.1253 40.44L102.641 35.12ZM123.645 35.12V48H119.585V38.956H114.825V43.52C114.825 44.528 114.639 45.368 114.265 46.04C113.892 46.6933 113.257 47.188 112.361 47.524C111.484 47.8413 110.271 48 108.721 48V44.22C109.281 44.22 109.757 44.1173 110.149 43.912C110.56 43.688 110.765 43.212 110.765 42.484V35.12H123.645ZM140.587 38.76L127.595 48.98L127.735 44.36L140.727 34.14L140.587 38.76ZM131.683 35.12V45.032L127.595 48.98V35.12H131.683ZM140.727 34.14V48H136.667V38.088L140.727 34.14ZM144.081 35.12H148.141V48H144.081V35.12ZM152.817 35.12H157.885L152.369 40.44L158.445 48H153.461L147.301 40.44L152.817 35.12ZM159.103 41.56C159.103 40.1973 159.42 39.012 160.055 38.004C160.69 36.996 161.567 36.212 162.687 35.652C163.807 35.092 165.067 34.812 166.467 34.812C167.867 34.812 169.118 35.092 170.219 35.652C171.339 36.212 172.216 36.996 172.851 38.004C173.504 39.012 173.831 40.1973 173.831 41.56C173.831 42.904 173.504 44.08 172.851 45.088C172.216 46.096 171.339 46.88 170.219 47.44C169.118 48 167.867 48.28 166.467 48.28C165.067 48.28 163.807 48 162.687 47.44C161.567 46.88 160.69 46.096 160.055 45.088C159.42 44.08 159.103 42.904 159.103 41.56ZM163.443 41.56C163.443 42.232 163.583 42.8107 163.863 43.296C164.143 43.7627 164.507 44.1267 164.955 44.388C165.403 44.6493 165.907 44.78 166.467 44.78C167.008 44.78 167.503 44.6493 167.951 44.388C168.418 44.1267 168.782 43.7627 169.043 43.296C169.323 42.8107 169.463 42.232 169.463 41.56C169.463 40.888 169.323 40.3093 169.043 39.824C168.782 39.3387 168.418 38.9653 167.951 38.704C167.503 38.4427 167.008 38.312 166.467 38.312C165.907 38.312 165.403 38.4427 164.955 38.704C164.507 38.9653 164.143 39.3387 163.863 39.824C163.583 40.3093 163.443 40.888 163.443 41.56ZM179.259 41.28H183.851C184.747 41.28 185.549 41.3733 186.259 41.56C186.968 41.7467 187.528 42.0733 187.939 42.54C188.349 43.0067 188.555 43.66 188.555 44.5C188.555 45.4707 188.228 46.3013 187.575 46.992C186.94 47.664 185.885 48 184.411 48H179.259V45.34H182.983C183.58 45.34 183.991 45.2093 184.215 44.948C184.457 44.668 184.579 44.3693 184.579 44.052C184.579 43.884 184.551 43.7253 184.495 43.576C184.439 43.4267 184.345 43.296 184.215 43.184C184.103 43.072 183.944 42.9787 183.739 42.904C183.533 42.8293 183.281 42.792 182.983 42.792H179.259V41.28ZM179.259 41.84V40.188H182.703C182.927 40.188 183.113 40.16 183.263 40.104C183.431 40.0293 183.571 39.936 183.683 39.824C183.795 39.712 183.879 39.5813 183.935 39.432C183.991 39.2827 184.019 39.1333 184.019 38.984C184.019 38.648 183.907 38.368 183.683 38.144C183.459 37.9013 183.132 37.78 182.703 37.78H179.259V35.12H183.571C184.373 35.12 185.101 35.2413 185.755 35.484C186.427 35.708 186.968 36.0813 187.379 36.604C187.789 37.108 187.995 37.78 187.995 38.62C187.995 39.348 187.789 39.9547 187.379 40.44C186.968 40.9067 186.427 41.2613 185.755 41.504C185.101 41.728 184.373 41.84 183.571 41.84H179.259ZM176.823 35.12H180.883V48H176.823V35.12ZM191.59 28.4H196.826L195.93 41.532H192.514L191.59 28.4ZM191.59 46.264C191.59 45.5547 191.833 44.976 192.318 44.528C192.822 44.08 193.457 43.856 194.222 43.856C194.988 43.856 195.613 44.08 196.098 44.528C196.602 44.976 196.854 45.5547 196.854 46.264C196.854 46.9733 196.602 47.552 196.098 48C195.613 48.448 194.988 48.672 194.222 48.672C193.457 48.672 192.822 48.448 192.318 48C191.833 47.552 191.59 46.9733 191.59 46.264Z" fill="black"/>
</svg>
