<svg width="402" height="110" viewBox="0 0 402 110" fill="none" xmlns="http://www.w3.org/2000/svg">
<g filter="url(#filter0_d_155_478)">
<rect x="19" y="15" width="364" height="72" rx="15" fill="white" shape-rendering="crispEdges"/>
<path d="M46.294 48.61V47.44H48.328C48.7 47.44 49.024 47.38 49.3 47.26C49.576 47.14 49.786 46.966 49.93 46.738C50.086 46.51 50.164 46.24 50.164 45.928C50.164 45.448 49.996 45.082 49.66 44.83C49.336 44.578 48.892 44.452 48.328 44.452H46.942V52.948H48.598C49.03 52.948 49.42 52.888 49.768 52.768C50.116 52.636 50.386 52.432 50.578 52.156C50.782 51.88 50.884 51.526 50.884 51.094C50.884 50.782 50.824 50.518 50.704 50.302C50.596 50.074 50.434 49.888 50.218 49.744C50.014 49.588 49.774 49.48 49.498 49.42C49.222 49.348 48.922 49.312 48.598 49.312H46.294V47.908H48.832C49.444 47.908 50.026 47.974 50.578 48.106C51.142 48.238 51.646 48.448 52.09 48.736C52.534 49.012 52.882 49.372 53.134 49.816C53.398 50.26 53.53 50.794 53.53 51.418C53.53 52.246 53.332 52.924 52.936 53.452C52.552 53.98 52.006 54.37 51.298 54.622C50.59 54.874 49.768 55 48.832 55H44.368V42.4H48.562C49.402 42.4 50.14 42.52 50.776 42.76C51.412 42.988 51.91 43.336 52.27 43.804C52.63 44.272 52.81 44.866 52.81 45.586C52.81 46.222 52.63 46.768 52.27 47.224C51.91 47.68 51.412 48.028 50.776 48.268C50.14 48.496 49.402 48.61 48.562 48.61H46.294ZM54.7695 50.86C54.7695 49.996 54.9675 49.24 55.3635 48.592C55.7715 47.944 56.3175 47.44 57.0015 47.08C57.6975 46.72 58.4835 46.54 59.3595 46.54C60.2355 46.54 61.0155 46.72 61.6995 47.08C62.3955 47.44 62.9415 47.944 63.3375 48.592C63.7455 49.24 63.9495 49.996 63.9495 50.86C63.9495 51.712 63.7455 52.468 63.3375 53.128C62.9415 53.776 62.3955 54.28 61.6995 54.64C61.0155 55 60.2355 55.18 59.3595 55.18C58.4835 55.18 57.6975 55 57.0015 54.64C56.3175 54.28 55.7715 53.776 55.3635 53.128C54.9675 52.468 54.7695 51.712 54.7695 50.86ZM57.1455 50.86C57.1455 51.328 57.2415 51.742 57.4335 52.102C57.6375 52.45 57.9075 52.726 58.2435 52.93C58.5795 53.122 58.9515 53.218 59.3595 53.218C59.7675 53.218 60.1395 53.122 60.4755 52.93C60.8115 52.726 61.0755 52.45 61.2675 52.102C61.4715 51.742 61.5735 51.328 61.5735 50.86C61.5735 50.392 61.4715 49.978 61.2675 49.618C61.0755 49.258 60.8115 48.982 60.4755 48.79C60.1395 48.598 59.7675 48.502 59.3595 48.502C58.9515 48.502 58.5795 48.598 58.2435 48.79C57.9075 48.982 57.6375 49.258 57.4335 49.618C57.2415 49.978 57.1455 50.392 57.1455 50.86ZM73.4566 48.772L65.5726 55.63L65.6626 52.948L73.5466 46.09L73.4566 48.772ZM67.8226 46.72V53.272L65.5726 55.63V46.72H67.8226ZM73.5466 46.09V55H71.2966V48.448L73.5466 46.09ZM66.7426 42.49H68.3626C68.3626 42.682 68.4106 42.868 68.5066 43.048C68.6026 43.216 68.7466 43.36 68.9386 43.48C69.1306 43.588 69.3706 43.642 69.6586 43.642C69.9586 43.642 70.2046 43.588 70.3966 43.48C70.5886 43.36 70.7266 43.216 70.8106 43.048C70.9066 42.868 70.9546 42.682 70.9546 42.49H72.5926C72.5926 42.946 72.4786 43.378 72.2506 43.786C72.0226 44.182 71.6926 44.5 71.2606 44.74C70.8286 44.968 70.2946 45.082 69.6586 45.082C69.0346 45.082 68.5006 44.968 68.0566 44.74C67.6246 44.5 67.2946 44.182 67.0666 43.786C66.8506 43.378 66.7426 42.946 66.7426 42.49ZM74.6652 46.72H80.1732V48.682H74.6652V46.72ZM76.3032 47.08H78.5532V55H76.3032V47.08ZM89.1805 48.772L81.2965 55.63L81.3865 52.948L89.2705 46.09L89.1805 48.772ZM83.5465 46.72V53.272L81.2965 55.63V46.72H83.5465ZM89.2705 46.09V55H87.0205V48.448L89.2705 46.09ZM98.2157 50.68H100.988C101.564 50.68 102.08 50.74 102.536 50.86C102.992 50.98 103.352 51.19 103.616 51.49C103.88 51.79 104.012 52.21 104.012 52.75C104.012 53.374 103.802 53.908 103.382 54.352C102.974 54.784 102.296 55 101.348 55H98.2157V53.434H100.61C101.03 53.434 101.33 53.338 101.51 53.146C101.702 52.954 101.798 52.738 101.798 52.498C101.798 52.366 101.774 52.252 101.726 52.156C101.678 52.048 101.606 51.952 101.51 51.868C101.426 51.772 101.306 51.706 101.15 51.67C101.006 51.622 100.826 51.598 100.61 51.598H98.2157V50.68ZM98.2157 51.04V50.032H100.43C100.586 50.032 100.724 50.014 100.844 49.978C100.976 49.93 101.084 49.864 101.168 49.78C101.252 49.696 101.318 49.6 101.366 49.492C101.414 49.384 101.438 49.27 101.438 49.15C101.438 48.91 101.348 48.706 101.168 48.538C100.988 48.37 100.742 48.286 100.43 48.286H98.2157V46.72H100.808C101.324 46.72 101.792 46.798 102.212 46.954C102.644 47.098 102.992 47.338 103.256 47.674C103.52 47.998 103.652 48.43 103.652 48.97C103.652 49.438 103.52 49.828 103.256 50.14C102.992 50.44 102.644 50.668 102.212 50.824C101.792 50.968 101.324 51.04 100.808 51.04H98.2157ZM96.8657 46.72H99.1157V55H96.8657V46.72ZM112.395 52.534C112.395 52.762 112.455 52.954 112.575 53.11C112.695 53.254 112.857 53.368 113.061 53.452C113.277 53.524 113.511 53.56 113.763 53.56C114.135 53.56 114.477 53.5 114.789 53.38C115.101 53.26 115.347 53.062 115.527 52.786C115.707 52.51 115.797 52.144 115.797 51.688L116.085 52.66C116.085 53.188 115.947 53.644 115.671 54.028C115.395 54.4 115.023 54.688 114.555 54.892C114.099 55.084 113.583 55.18 113.007 55.18C112.443 55.18 111.939 55.084 111.495 54.892C111.051 54.7 110.697 54.418 110.433 54.046C110.181 53.662 110.055 53.194 110.055 52.642C110.055 52.078 110.199 51.598 110.487 51.202C110.787 50.794 111.201 50.482 111.729 50.266C112.269 50.05 112.899 49.942 113.619 49.942C114.063 49.942 114.477 49.996 114.861 50.104C115.245 50.212 115.569 50.338 115.833 50.482C116.097 50.626 116.283 50.764 116.391 50.896V52.03C116.055 51.778 115.707 51.592 115.347 51.472C114.987 51.352 114.561 51.292 114.069 51.292C113.709 51.292 113.403 51.346 113.151 51.454C112.899 51.562 112.707 51.706 112.575 51.886C112.455 52.066 112.395 52.282 112.395 52.534ZM111.657 49.078L110.811 47.476C111.231 47.248 111.747 47.032 112.359 46.828C112.971 46.612 113.649 46.504 114.393 46.504C115.113 46.504 115.743 46.606 116.283 46.81C116.835 47.014 117.267 47.314 117.579 47.71C117.891 48.094 118.047 48.568 118.047 49.132V55H115.797V49.51C115.797 49.138 115.653 48.85 115.365 48.646C115.077 48.43 114.705 48.322 114.249 48.322C113.853 48.322 113.481 48.37 113.133 48.466C112.797 48.55 112.497 48.652 112.233 48.772C111.981 48.892 111.789 48.994 111.657 49.078ZM119.98 46.72H122.23V55H119.98V46.72ZM125.272 46.72H128.062L124.498 50.14L128.422 55H125.65L121.708 50.14L125.272 46.72ZM129.415 46.72H131.665V55H129.415V46.72ZM134.707 46.72H137.497L133.933 50.14L137.857 55H135.085L131.143 50.14L134.707 46.72ZM140.56 52.534C140.56 52.762 140.62 52.954 140.74 53.11C140.86 53.254 141.022 53.368 141.226 53.452C141.442 53.524 141.676 53.56 141.928 53.56C142.3 53.56 142.642 53.5 142.954 53.38C143.266 53.26 143.512 53.062 143.692 52.786C143.872 52.51 143.962 52.144 143.962 51.688L144.25 52.66C144.25 53.188 144.112 53.644 143.836 54.028C143.56 54.4 143.188 54.688 142.72 54.892C142.264 55.084 141.748 55.18 141.172 55.18C140.608 55.18 140.104 55.084 139.66 54.892C139.216 54.7 138.862 54.418 138.598 54.046C138.346 53.662 138.22 53.194 138.22 52.642C138.22 52.078 138.364 51.598 138.652 51.202C138.952 50.794 139.366 50.482 139.894 50.266C140.434 50.05 141.064 49.942 141.784 49.942C142.228 49.942 142.642 49.996 143.026 50.104C143.41 50.212 143.734 50.338 143.998 50.482C144.262 50.626 144.448 50.764 144.556 50.896V52.03C144.22 51.778 143.872 51.592 143.512 51.472C143.152 51.352 142.726 51.292 142.234 51.292C141.874 51.292 141.568 51.346 141.316 51.454C141.064 51.562 140.872 51.706 140.74 51.886C140.62 52.066 140.56 52.282 140.56 52.534ZM139.822 49.078L138.976 47.476C139.396 47.248 139.912 47.032 140.524 46.828C141.136 46.612 141.814 46.504 142.558 46.504C143.278 46.504 143.908 46.606 144.448 46.81C145 47.014 145.432 47.314 145.744 47.71C146.056 48.094 146.212 48.568 146.212 49.132V55H143.962V49.51C143.962 49.138 143.818 48.85 143.53 48.646C143.242 48.43 142.87 48.322 142.414 48.322C142.018 48.322 141.646 48.37 141.298 48.466C140.962 48.55 140.662 48.652 140.398 48.772C140.146 48.892 139.954 48.994 139.822 49.078ZM155.995 46.72L150.595 58.96H148.201L150.289 54.172L146.851 46.72H149.443L152.107 53.308L150.955 53.272L153.565 46.72H155.995ZM157.707 51.544V49.726H164.223V51.544H157.707ZM163.089 46.72H165.339V55H163.089V46.72ZM156.861 46.72H159.111V55H156.861V46.72ZM166.394 46.72H171.902V48.682H166.394V46.72ZM168.032 47.08H170.282V55H168.032V47.08Z" fill="black"/>
<path d="M344.333 55L348.333 51M348.333 51L344.333 47M348.333 51H337.667M355 51C355 44.3726 349.627 39 343 39C336.373 39 331 44.3726 331 51C331 57.6274 336.373 63 343 63C349.627 63 355 57.6274 355 51Z" stroke="#00D607" stroke-width="2.5" stroke-linecap="round" stroke-linejoin="round"/>
</g>
<defs>
<filter id="filter0_d_155_478" x="0" y="0" width="402" height="110" filterUnits="userSpaceOnUse" color-interpolation-filters="sRGB">
<feFlood flood-opacity="0" result="BackgroundImageFix"/>
<feColorMatrix in="SourceAlpha" type="matrix" values="0 0 0 0 0 0 0 0 0 0 0 0 0 0 0 0 0 0 127 0" result="hardAlpha"/>
<feOffset dy="4"/>
<feGaussianBlur stdDeviation="9.5"/>
<feComposite in2="hardAlpha" operator="out"/>
<feColorMatrix type="matrix" values="0 0 0 0 0.904167 0 0 0 0 0.904167 0 0 0 0 0.904167 0 0 0 0.47 0"/>
<feBlend mode="normal" in2="BackgroundImageFix" result="effect1_dropShadow_155_478"/>
<feBlend mode="normal" in="SourceGraphic" in2="effect1_dropShadow_155_478" result="shape"/>
</filter>
</defs>
</svg>
