<svg width="599" height="641" viewBox="0 0 599 641" fill="none" xmlns="http://www.w3.org/2000/svg">
<path d="M291.447 363.335C291.447 363.335 365.965 483.185 548.05 406.244C630.26 373.322 601.057 276.408 534.602 283.801C534.602 283.801 566.483 248.287 551.511 208.341C536.525 168.396 509.259 176.531 493.504 149.151C477.748 121.77 462.007 18.5738 384.028 8.2171C384.028 8.2171 306.433 -22.853 282.23 46.3243C282.23 46.3243 256.488 41.5094 246.887 61.1254C246.887 61.1254 186.957 77.7647 201.173 148.053C215.39 218.342 246.502 194.295 223.453 261.25C200.404 328.205 270.705 325.612 270.705 325.612C270.705 325.612 295.293 325.612 291.447 363.349V363.335Z" fill="url(#paint0_linear_7795_3242)"/>
<path d="M209.125 402.471C209.125 402.471 221.661 387.931 229.154 381.36C236.647 374.79 246.149 361.566 304.925 359.906C363.702 358.246 437.266 342.334 437.266 342.334L458.776 356.394C458.776 356.394 495.073 348.63 520.145 367.025C545.217 385.434 542.625 402.266 562.283 473.418L482.025 505.641L487.452 527.561C487.452 527.561 487.879 548.741 467.423 570.936L300.139 586.793L209.125 588.234V402.471Z" fill="url(#paint1_radial_7795_3242)"/>
<path d="M459.445 390.976C459.445 390.976 460.5 397.45 458.576 406.326C456.653 415.201 454.93 434.254 463.961 461.991C472.993 489.728 477.979 506.559 477.979 506.559L482.01 505.64C482.01 505.64 488.178 519.467 488.15 533.377C488.122 546.532 460.685 585.901 460.685 585.901L297.418 586.916C297.418 586.916 331.037 572.403 373.289 569.618C415.541 566.834 444.545 554.447 444.929 512.101C445.314 469.755 436.952 430.07 436.952 430.07C436.952 430.07 425.427 395.118 459.431 390.948L459.445 390.976Z" fill="url(#paint2_linear_7795_3242)"/>
<path d="M482.052 505.654L478.121 507.506C478.121 507.506 456.14 449.302 457.294 429.151C457.294 429.151 461.795 453.87 482.052 505.654Z" fill="url(#paint3_linear_7795_3242)"/>
<path d="M482.051 483.294C482.051 483.294 506.453 493.856 545.144 453.321C545.144 453.321 513.063 499.206 482.051 483.294Z" fill="url(#paint4_linear_7795_3242)" fill-opacity="0.61"/>
<path d="M458.558 359.823C458.558 359.823 492.918 351.359 518.118 369.123C543.332 386.874 547.563 416.915 550.17 426.353C541.979 393.019 538.389 380.44 520.127 367.038C516.437 364.322 512.491 362.196 508.46 360.509C508.046 360.344 507.633 360.166 507.22 360.001C506.75 359.809 506.28 359.644 505.81 359.466C505.525 359.37 505.254 359.26 504.969 359.164C482.59 351.304 458.757 356.407 458.757 356.407L437.247 342.347C437.247 342.347 435.352 344.212 437.389 345.584L458.544 359.823H458.558Z" fill="#D4E8E1" fill-opacity="0.48"/>
<path d="M459.445 390.976C459.445 390.976 460.998 399.343 458.96 409.659C457.237 418.369 456.525 438.918 462.864 457.231C469.203 475.544 479.431 506.888 479.431 506.888L476.454 508.301L460.414 457.643C460.414 457.643 454.16 429.22 457.607 412.416C460.884 396.517 459.445 390.976 459.445 390.976Z" fill="url(#paint5_linear_7795_3242)"/>
<path d="M457.237 360.646C457.237 360.646 448.932 396.71 396.893 435.832C344.855 474.954 327.974 493.267 330.467 511.566C332.96 529.865 343.473 544.584 378.075 542.636C412.677 540.688 433.433 524.598 437.308 504.076L457.237 360.646Z" fill="url(#paint6_linear_7795_3242)"/>
<path d="M457.377 360.688C455.468 367.615 452.319 374.09 448.815 380.318C447.077 383.445 445.111 386.436 443.174 389.44C441.094 392.348 439.085 395.311 436.835 398.095C428.031 409.385 417.903 419.604 406.934 428.781L398.557 435.476C395.751 437.698 392.902 439.824 390.081 442.005C384.44 446.354 378.842 450.771 373.314 455.27C370.536 457.506 367.844 459.824 365.109 462.101C362.445 464.447 359.71 466.738 357.117 469.166C351.846 473.926 346.818 478.974 342.288 484.378L340.607 486.422L339.068 488.562C338.556 489.276 338.028 489.975 337.544 490.702L336.191 492.938C335.222 494.392 334.581 496.011 333.812 497.561C333.427 498.343 333.228 499.18 332.929 499.975C332.644 500.785 332.345 501.594 332.216 502.431C331.305 505.75 331.461 509.166 331.96 512.568C332.487 516.011 333.399 519.385 334.78 522.527C336.162 525.654 337.914 528.631 340.322 531.032C342.701 533.432 345.479 535.449 348.57 536.93C354.738 539.921 361.776 541.018 368.756 541.333C382.759 541.868 397.133 539.989 410.039 534.379C416.492 531.608 422.447 527.616 427.276 522.499C432.219 517.479 435.61 510.99 437.191 504.049C437.205 503.981 437.276 503.926 437.348 503.94C437.419 503.953 437.461 504.022 437.461 504.104C436.194 511.155 433.045 517.945 428.202 523.336C423.401 528.768 417.375 533.048 410.837 536.107C404.298 539.235 397.289 541.21 390.195 542.486C383.087 543.734 375.879 544.242 368.642 544.063C367.73 544.022 366.833 544.022 365.921 543.954L363.214 543.665C362.317 543.556 361.405 543.501 360.508 543.35L357.815 542.842C356.006 542.582 354.254 541.978 352.488 541.498C351.59 541.292 350.75 540.867 349.895 540.552C349.04 540.181 348.157 539.934 347.345 539.468C343.983 537.877 340.934 535.613 338.328 532.938C335.692 530.263 333.769 526.958 332.302 523.569C330.849 520.154 329.937 516.56 329.424 512.938C328.911 509.317 328.797 505.421 329.837 501.827C329.994 500.894 330.322 500.03 330.635 499.166C330.963 498.302 331.205 497.396 331.618 496.573C332.444 494.941 333.171 493.226 334.196 491.717L335.635 489.385C336.148 488.631 336.704 487.918 337.245 487.191L338.869 485.009L340.621 482.938C345.308 477.451 350.436 472.403 355.792 467.657C358.442 465.243 361.191 462.965 363.898 460.62C366.676 458.37 369.397 456.052 372.203 453.843C377.787 449.385 383.443 445.023 389.127 440.716C391.976 438.562 394.853 436.45 397.66 434.268L406.065 427.684C417.091 418.685 427.29 408.658 436.194 397.547C438.473 394.817 440.51 391.895 442.618 389.015C444.598 386.052 446.593 383.102 448.359 380.002C451.921 373.857 455.154 367.423 457.134 360.578C457.149 360.496 457.234 360.455 457.305 360.468C457.377 360.496 457.419 360.564 457.405 360.633L457.377 360.688Z" fill="url(#paint7_linear_7795_3242)" fill-opacity="0.56"/>
<path d="M336.96 312.937L412.446 267.711C412.446 267.711 410.139 318.205 437.219 342.334C437.219 342.334 437.504 388.672 390.551 419.454C390.551 419.454 325.15 434.708 312.899 440.675C312.899 440.675 285.092 422.499 272.129 416.957C272.129 416.957 282.984 374.968 304.295 361.47C304.295 361.47 328.883 354.255 333.199 342.883C337.515 331.511 336.946 312.924 336.946 312.924L336.96 312.937Z" fill="url(#paint8_linear_7795_3242)"/>
<path d="M312.93 440.688C312.93 440.688 316.719 423.829 329.839 419.673L327.018 435.791C318.457 438.205 312.93 440.688 312.93 440.688Z" fill="url(#paint9_linear_7795_3242)"/>
<path d="M308.656 363.293C315.223 369.027 325.323 368.835 331.791 374.925C333.942 376.818 335.837 379.534 335.594 382.443C335.238 379.603 333.244 377.422 331.064 375.735C324.469 370.289 314.098 370.193 308.656 363.293Z" fill="#D2773F"/>
<path d="M374.913 380.345C384.543 372.087 399.13 371.319 411.409 372.155C413.219 372.389 415.028 372.581 416.823 372.855C414.999 372.882 413.19 372.841 411.367 372.828C399.002 373.061 385.526 373.623 374.898 380.345H374.913Z" fill="#D2773F"/>
<path opacity="0.8" d="M331.875 345.338C386.877 323.952 406.663 299.795 413.473 287.765C412.063 276.105 412.447 267.614 412.447 267.614L336.961 312.841C336.961 312.841 337.53 331.428 333.214 342.8C332.886 343.664 332.416 344.514 331.875 345.338Z" fill="#B74E18"/>
<path d="M306.16 101.989C306.16 101.989 275.234 82.0166 240.475 111.976C240.475 111.976 228.466 162.278 253.253 199.178C253.253 199.178 247.498 226.64 258.438 244.404C269.379 262.168 307.414 312.374 339.979 312.374C372.544 312.374 426.406 267.71 433.899 221.372C433.899 221.372 462.134 218.039 458.672 176.708C458.672 176.708 412.574 168.107 386.647 118.45C374.838 98.4775 375.692 73.5117 343.426 73.5117C311.161 73.5117 306.16 101.989 306.16 101.989Z" fill="url(#paint10_radial_7795_3242)"/>
<path d="M281.903 95.4874C270.393 95.2679 255.806 98.7658 240.463 111.976C240.463 111.976 234.11 138.67 240.221 167.436C240.748 117.435 275.749 98.4366 281.903 95.4736V95.4874Z" fill="url(#paint11_linear_7795_3242)"/>
<path d="M243.983 174.582C243.769 173.965 243.769 173.32 243.997 172.703C245.621 168.491 252.929 151.742 267.089 151.742C281.249 151.742 287.346 158.903 289.198 161.317C289.568 161.797 289.753 162.373 289.753 162.963V163.402C289.753 165.72 286.975 167.037 285.081 165.611C281.078 162.579 274.71 159.054 266.704 159.054C252.687 159.054 244.424 175.789 244.424 175.789L243.983 174.582Z" fill="url(#paint12_linear_7795_3242)"/>
<path d="M338.143 156.091C338.143 156.091 337.089 149.891 341.69 146.846C346.306 143.801 371.363 122.621 395.282 149.534C395.282 149.534 374.398 138.986 359.127 146.901C343.856 154.816 339.482 161.139 338.143 156.105V156.091Z" fill="url(#paint13_linear_7795_3242)"/>
<path d="M303.871 268.3C303.871 268.3 346.265 273.965 362.064 258.876C362.064 258.876 345.753 280.824 332.333 280.275C318.929 279.727 303.871 268.3 303.871 268.3Z" fill="url(#paint14_linear_7795_3242)"/>
<path d="M292.09 262.073C292.09 262.073 302.66 267.436 307.746 266.6C312.831 265.763 318.857 260.838 323.43 263.376C323.43 263.376 326.749 260.495 342.219 260.591C357.676 260.687 367.477 253.376 367.477 253.376C367.477 253.376 356.095 270.578 327.718 271.414C299.341 272.251 292.09 262.073 292.09 262.073Z" fill="url(#paint15_radial_7795_3242)"/>
<path d="M367.493 253.376C367.493 253.376 360 261.524 354.672 271.456C349.344 281.401 345.17 287.505 335.227 288.328C325.284 289.165 323.93 283.705 314.201 276.394C303.972 268.712 300.098 267.395 300.098 267.395C300.098 267.395 305.482 268.451 313.346 270.893C316.337 271.812 321.779 277.56 330.412 277.766C339.942 277.999 352.008 269.933 367.507 253.376H367.493Z" fill="url(#paint16_radial_7795_3242)"/>
<path d="M306.504 240.796C306.504 240.796 313.199 248.382 323.029 241.455C331.035 245.543 339.582 239.795 339.582 239.795C339.582 239.795 333.399 251.359 323.029 251.359C312.658 251.359 306.504 240.81 306.504 240.81V240.796Z" fill="url(#paint17_linear_7795_3242)"/>
<path d="M316.749 241.181C312.846 245.625 306.663 236.105 311.549 223.142C316.436 210.179 308.914 196.832 308.914 196.832L315.296 197.161C315.296 197.161 325.695 231.016 316.749 241.181Z" fill="url(#paint18_linear_7795_3242)"/>
<path d="M246.23 62.963C246.23 62.963 251.031 36.9821 292.428 48.4499L299.437 93.6765L246.23 62.9767V62.963Z" fill="url(#paint19_linear_7795_3242)"/>
<path d="M306.164 101.756C306.164 101.756 339.684 83.5393 361.294 109.342C382.904 135.144 397.591 150.632 397.591 150.632C397.591 150.632 384.542 121.358 376.479 103.334C368.417 85.3089 333.643 71.7011 306.178 101.756H306.164Z" fill="url(#paint20_linear_7795_3242)"/>
<path d="M378.957 8.0387C378.957 8.0387 357.133 -7.48949 322.516 4.62305C287.914 16.7356 265.99 45.7755 293.043 95.7071C293.043 95.7071 287.43 20.2473 378.957 8.0387Z" fill="url(#paint21_linear_7795_3242)"/>
<path d="M308.914 196.832C308.914 196.832 313.815 205.57 310.937 217.916C308.059 230.262 302.432 239.274 308.914 243.581C314.983 247.614 319.043 246.284 321.179 243.129C321.45 242.744 321.949 242.58 322.419 242.69C325.439 243.43 335.724 245.543 339.157 240.947C343.189 235.543 333.544 226.379 333.544 226.379C333.544 226.379 343.189 239.631 332.96 239.205C322.732 238.794 323.758 236.668 320.951 237.257C318.145 237.847 316.849 242.95 312.319 239.781C307.789 236.613 319.285 208.341 308.914 196.832Z" fill="url(#paint22_linear_7795_3242)"/>
<path d="M297.314 98.1766C297.314 98.1766 278.012 57.4219 246.886 61.1257C215.759 64.8294 183.565 98.9173 196.044 146.983C208.523 195.036 235.375 213.925 221.6 246.106C201.813 292.334 213.395 350.77 320.364 319.892C320.364 319.892 298.853 321.003 286.559 310.825C286.559 310.825 298.098 315.27 303.853 312.403C303.853 312.403 275.804 306.765 266.003 295.475C256.202 284.199 259.222 266.339 253.196 244.432C247.171 222.512 244.293 209.206 226.144 183.403C207.996 157.601 210.574 136.407 245.304 99.4797C262.727 87.5867 297.286 98.204 297.286 98.204L297.314 98.1766Z" fill="url(#paint23_linear_7795_3242)"/>
<path d="M297.318 98.1757C297.318 98.1757 236.547 85.5831 215.25 150.028C215.25 150.028 219.367 72.5514 297.318 98.1757Z" fill="url(#paint24_linear_7795_3242)"/>
<path d="M345.406 198.958C345.406 198.958 345.876 174.596 365.891 170.7C385.906 166.805 393.399 180.824 398.599 182.497C398.599 182.497 390.037 206.119 345.406 198.958Z" fill="url(#paint25_linear_7795_3242)"/>
<path d="M398.799 182.497C398.799 182.497 393.457 194.061 378.67 197.998C378.67 197.998 368.299 194.281 368.499 184.445C368.698 174.61 377.16 171.016 377.16 171.016C377.16 171.016 384.482 170.659 398.813 182.497H398.799Z" fill="url(#paint26_linear_7795_3242)"/>
<path d="M349.327 194.336C349.327 194.336 364.584 203.444 379.741 197.504C394.898 191.565 398.516 182.689 398.516 182.689C398.516 182.689 400.681 187.381 391.265 194.034C381.849 200.687 357.76 201.592 354.669 200.316C351.578 199.041 349.312 194.322 349.312 194.322L349.327 194.336Z" fill="#2E1308"/>
<path d="M348.8 194.13C348.8 194.13 345.794 176.53 364.684 171.661C381.208 167.394 394.001 178.917 394.001 178.917C394.001 178.917 399.343 179.877 400.397 177.655C400.397 177.655 398.288 178.121 395.397 176.736C392.505 175.351 383.317 163.622 363.629 169.178C343.942 174.72 348.8 194.144 348.8 194.144V194.13Z" fill="#2E1308"/>
<path d="M343.93 189.397C346.423 173.567 357.406 157.038 376.295 163.046C382.321 165.008 387.72 168.423 392.478 172.333C389.016 170.083 385.484 167.971 381.737 166.229C360.754 156.462 348.916 171.016 343.93 189.397Z" fill="#75291F"/>
<path d="M382.447 195.295C387.986 195.295 392.476 190.597 392.476 184.801C392.476 179.006 387.986 174.308 382.447 174.308C376.908 174.308 372.418 179.006 372.418 184.801C372.418 190.597 376.908 195.295 382.447 195.295Z" fill="#76CEA0"/>
<path d="M384.054 193.636C389.294 193.636 393.541 189.196 393.541 183.719C393.541 178.241 389.294 173.801 384.054 173.801C378.814 173.801 374.566 178.241 374.566 183.719C374.566 189.196 378.814 193.636 384.054 193.636Z" fill="#050706"/>
<path d="M379.355 181.139C380.228 181.139 380.936 180.279 380.936 179.218C380.936 178.158 380.228 177.298 379.355 177.298C378.481 177.298 377.773 178.158 377.773 179.218C377.773 180.279 378.481 181.139 379.355 181.139Z" fill="#76CEA0"/>
<path d="M382.446 180.481C383.021 180.481 383.486 179.916 383.486 179.219C383.486 178.522 383.021 177.957 382.446 177.957C381.872 177.957 381.406 178.522 381.406 179.219C381.406 179.916 381.872 180.481 382.446 180.481Z" fill="#76CEA0"/>
<path d="M345.41 198.958C345.41 198.958 344.797 190.893 348.729 184.13C348.729 184.13 345.694 194.034 354.669 200.317L345.395 198.958H345.41Z" fill="#F4ECE9"/>
<path d="M258.655 196.421C258.655 196.421 264.994 175.954 286.319 180.604C305.921 185.049 305.479 206.887 305.479 206.887C305.479 206.887 289.852 212.923 275.735 211.537C261.618 210.152 257.657 201.77 258.669 196.421H258.655Z" fill="url(#paint27_linear_7795_3242)"/>
<path d="M305.467 206.887C305.467 206.887 305.467 187.628 290.737 182.031C290.737 182.031 274.967 183.348 276.392 197.614C277.816 211.88 287.817 213.239 305.467 206.887Z" fill="url(#paint28_linear_7795_3242)"/>
<path d="M289.708 207.573C295.247 207.573 299.737 202.874 299.737 197.079C299.737 191.283 295.247 186.585 289.708 186.585C284.17 186.585 279.68 191.283 279.68 197.079C279.68 202.874 284.17 207.573 289.708 207.573Z" fill="#76CEA0"/>
<path d="M291.319 205.913C296.559 205.913 300.807 201.472 300.807 195.995C300.807 190.517 296.559 186.077 291.319 186.077C286.08 186.077 281.832 190.517 281.832 195.995C281.832 201.472 286.08 205.913 291.319 205.913Z" fill="#050706"/>
<path d="M286.616 193.416C287.49 193.416 288.198 192.556 288.198 191.496C288.198 190.435 287.49 189.575 286.616 189.575C285.743 189.575 285.035 190.435 285.035 191.496C285.035 192.556 285.743 193.416 286.616 193.416Z" fill="#76CEA0"/>
<path d="M289.708 192.757C290.282 192.757 290.748 192.192 290.748 191.495C290.748 190.798 290.282 190.233 289.708 190.233C289.134 190.233 288.668 190.798 288.668 191.495C288.668 192.192 289.134 192.757 289.708 192.757Z" fill="#76CEA0"/>
<path d="M305.465 206.887C305.465 206.887 305.935 178.547 267.828 185.858C267.828 185.858 275.335 175.611 292.914 182.676C305.479 188.259 305.479 206.873 305.479 206.873L305.465 206.887Z" fill="url(#paint29_linear_7795_3242)"/>
<path d="M252.031 197.326C252.031 197.326 255.023 199.329 255.621 197.944C255.621 197.944 261.69 173.348 287.317 179.974C305.907 185.132 305.466 205.982 305.466 205.982C305.466 205.982 304.583 185.406 288.542 181.496C272.502 177.587 264.767 186.778 258.285 199.384C258.285 199.384 255.564 203.499 252.031 197.313V197.326Z" fill="#2E1308"/>
<path d="M305.462 206.887C305.462 206.887 269.378 218.89 261.088 203.074C261.088 203.074 259.592 201.277 259.877 196.421C259.877 196.421 258.11 199.837 256.828 200.262C256.828 200.262 261.358 213.06 280.305 212.223C296.146 211.524 305.462 206.887 305.462 206.887Z" fill="#2E1308"/>
<path opacity="0.4" d="M230.891 254.021C230.891 254.021 215.719 278.808 224.551 298.41C233.384 318.013 254.894 320.056 254.894 320.056C254.894 320.056 215.705 315.982 230.891 254.034V254.021Z" fill="#F28760"/>
<path opacity="0.4" d="M241.845 258.876C241.845 258.876 225.961 314.61 277.928 307.107C277.928 307.107 239.152 315.529 241.845 258.876Z" fill="#F28760"/>
<path d="M439.641 173.019L440.125 204.555C440.125 204.555 452.419 197.71 450.781 177.463L439.641 173.019Z" fill="url(#paint30_linear_7795_3242)"/>
<path d="M440.115 205.241C440.001 205.241 439.872 205.214 439.758 205.159C439.545 205.035 439.402 204.816 439.402 204.569L438.918 173.033C438.918 172.799 439.032 172.58 439.231 172.456C439.431 172.319 439.687 172.306 439.901 172.388L451.041 176.832C451.283 176.928 451.454 177.162 451.482 177.408C453.135 197.847 440.984 204.857 440.471 205.145C440.357 205.2 440.243 205.241 440.115 205.241ZM440.357 174.048L440.798 203.225C443.647 201.03 451.212 193.664 450.086 177.93L440.357 174.048Z" fill="url(#paint31_linear_7795_3242)"/>
<path d="M306.249 102.058L297.317 98.1756C297.317 98.1756 256.404 48.148 337.461 14.4853C418.517 -19.1774 458.49 52.6473 472.308 87.0782C486.126 121.509 478.448 138.848 512.252 161.784C546.057 184.719 558.336 200.92 549.119 239.397C549.119 239.397 542.21 201.66 491.881 187.984C441.552 174.294 395.753 159.218 381.251 108.82C362.761 44.554 307.303 82.7435 306.249 102.071V102.058Z" fill="#A12B16"/>
<path d="M306.148 101.783C306.148 101.783 307.957 53.8269 356.89 62.4552C405.823 71.0835 409.213 116.337 409.213 116.337L421.963 94.0054C421.963 94.0054 392.774 22.2492 329.382 51.8378C297.501 68.8475 306.148 101.769 306.148 101.769V101.783Z" fill="url(#paint32_linear_7795_3242)"/>
<path d="M306.148 101.783C306.148 101.783 316.804 68.4911 352.247 77.092C387.689 85.6929 369.825 144.966 428.602 175.68C428.602 175.68 431.964 169.109 427.064 164.39C427.064 164.39 446.922 175.542 464.486 179.987C464.486 179.987 462.592 173.924 443.289 159.767C423.987 145.625 413.032 134.239 407.277 108.999C401.522 83.7587 382.789 58.2305 348.5 58.2305C314.211 58.2305 307.587 83.7587 306.148 101.783Z" fill="url(#paint33_linear_7795_3242)"/>
<path d="M320.723 66.9828C320.723 66.9828 355.026 45.8305 390.112 75.7072C390.112 75.7072 359.171 38.9306 320.723 66.9828Z" fill="url(#paint34_radial_7795_3242)"/>
<path d="M228.098 113.265C228.098 113.265 252.514 81.8657 296.248 97.9838C296.248 97.9838 253.882 73.9919 228.098 113.265Z" fill="url(#paint35_radial_7795_3242)"/>
<path d="M208.738 83.3611C208.738 83.3611 232.428 52.8809 274.481 69.6025C274.481 69.6025 243.739 43.2786 208.738 83.3611Z" fill="url(#paint36_radial_7795_3242)"/>
<path d="M357.789 66.8457C357.789 66.8457 387.32 75.7621 386.38 110.028C386.38 110.028 393.531 74.7195 357.789 66.8457Z" fill="url(#paint37_radial_7795_3242)"/>
<path d="M396.15 104.802C396.15 104.802 391.107 125.79 413.629 137.765C413.629 137.765 388.158 129.137 396.15 104.802Z" fill="url(#paint38_radial_7795_3242)"/>
<path d="M372.547 46.79C372.547 46.79 391.792 49.0123 403.189 61.3443C414.571 73.6763 433.446 86.9137 433.446 86.9137C433.446 86.9137 419.685 83.7449 403.018 65.6653C386.351 47.5857 372.561 46.8038 372.561 46.8038L372.547 46.79Z" fill="url(#paint39_radial_7795_3242)"/>
<path d="M448.889 90.9199C448.889 90.9199 461.183 120.947 484.631 127.998L487.395 135.255C487.395 135.255 474.232 132.827 464.246 121.126C454.26 109.425 448.875 90.9199 448.875 90.9199H448.889Z" fill="url(#paint40_radial_7795_3242)"/>
<path d="M297.972 58.0244C297.787 58.4908 306.177 28.7513 357.176 20.1504C357.176 20.1504 308.342 32.551 297.972 58.0244Z" fill="url(#paint41_radial_7795_3242)"/>
<path d="M309.227 359.81L291.691 360.523C291.691 360.523 263.542 382.951 252.16 408.054C252.16 408.054 261.804 406.051 271.42 420.674C271.42 420.674 282.09 370.29 309.227 359.796V359.81Z" fill="url(#paint42_linear_7795_3242)"/>
<path d="M291.691 360.522C291.691 360.522 262.574 389.357 252.787 405.447C252.787 405.447 250.836 403.156 248.613 403.719C248.613 403.719 269.611 376.846 291.691 360.522Z" fill="url(#paint43_linear_7795_3242)"/>
<path d="M306.148 101.783C306.148 101.783 345.466 58.6146 377.774 107.394C377.774 107.394 374.683 77.2566 343.999 74.6229C313.314 71.9891 306.148 101.783 306.148 101.783Z" fill="#5D150B"/>
<path d="M299.439 69.5894C299.396 69.8912 300.066 51.304 328.785 39.4795C328.785 39.4795 301.875 53.2518 299.439 69.5894Z" fill="url(#paint44_radial_7795_3242)"/>
<path d="M302.896 592.883L414.238 591.813V581.045L296.984 586.957C296.984 586.957 297.654 590.373 302.896 592.869V592.883Z" fill="url(#paint45_linear_7795_3242)"/>
<path d="M291.746 613.13C291.746 613.13 302.06 609.386 302.9 592.883L414.243 591.813L413.231 610.071L291.746 613.117V613.13Z" fill="url(#paint46_linear_7795_3242)"/>
<path d="M67.5087 570.496C67.5087 570.496 61.3974 569.755 60.7848 565.681L38.8896 418.822C38.8896 418.822 32.6501 394.295 69.617 396.627C98.9768 398.479 238.069 404.213 238.069 404.213C238.069 404.213 256.118 404.391 260.548 429.741C264.979 455.091 292.244 573.637 292.244 573.637C292.244 573.637 295.122 588.247 303.199 592.869L67.5229 570.496H67.5087Z" fill="url(#paint47_linear_7795_3242)"/>
<path d="M69.632 396.641C99.0204 397.93 238.084 404.226 238.084 404.226C238.084 404.226 256.133 404.405 260.564 429.755C264.98 455.091 292.26 573.651 292.26 573.651C292.26 573.651 268.612 451.812 264.196 426.476C259.78 401.14 241.717 400.948 241.717 400.948C241.717 400.948 102.653 394.665 73.2646 393.362C60.3583 392.8 50.6144 395.763 46.2695 400.673C54.019 396.682 59.76 396.215 69.632 396.654V396.641Z" fill="url(#paint48_linear_7795_3242)"/>
<path d="M67.5084 570.496V585.105C67.5084 585.105 64.9157 595.229 91.9963 598C119.077 600.771 292.173 613.116 292.173 613.116C292.173 613.116 303.17 607.149 303.17 592.869C303.17 592.869 263.184 583.802 177.711 577.149C92.2384 570.496 67.4941 570.496 67.4941 570.496H67.5084Z" fill="url(#paint49_radial_7795_3242)"/>
<path d="M301.503 601.978C302.628 599.728 303.34 594.323 303.34 592.883C303.34 592.883 263.353 583.816 177.881 577.163C92.4084 570.51 67.6641 570.51 67.6641 570.51V579.577C67.6641 579.577 91.8386 579.591 177.325 586.257C258.467 592.581 297.642 601.155 301.503 601.991V601.978Z" fill="url(#paint50_linear_7795_3242)"/>
<path d="M272.201 416.559C272.201 416.559 267.585 432.101 276.816 449.439C286.033 466.778 296.703 485.928 298.996 496.051C298.996 496.051 318.014 471.634 334.14 459.714C350.28 447.78 390.537 419.48 390.537 419.48C390.537 419.48 325.137 432.937 312.886 440.701C312.886 440.701 282.7 420.866 272.187 416.559H272.201Z" fill="url(#paint51_linear_7795_3242)"/>
<path d="M298.995 496.039C328.455 463.021 360.179 440.977 360.179 440.977C324.794 454.077 297.756 479.358 297.756 479.358C294.878 465.86 274.422 444.255 274.422 444.255C279.935 455.174 299.009 496.052 299.009 496.052L298.995 496.039Z" fill="url(#paint52_linear_7795_3242)"/>
<path d="M401.908 212.484C402.919 218.478 395.155 224.679 384.571 226.325C373.987 227.971 364.599 224.432 363.602 218.437L362.946 214.486C362.448 211.537 365.154 209.027 368.203 209.617C371.721 210.303 376.479 210.728 381.821 209.891C386.693 209.137 390.711 207.408 393.731 205.694C396.751 203.979 400.768 205.721 401.338 209.137L401.893 212.484H401.908Z" fill="url(#paint53_radial_7795_3242)"/>
<path d="M303.001 227.038C304.013 233.033 296.249 239.233 285.665 240.879C275.08 242.525 265.693 238.986 264.695 232.992L264.04 229.041C263.541 226.092 266.248 223.582 269.297 224.171C272.815 224.857 277.573 225.283 282.915 224.446C287.787 223.691 291.804 221.963 294.824 220.248C297.844 218.534 301.862 220.276 302.431 223.691L302.987 227.038H303.001Z" fill="url(#paint54_radial_7795_3242)"/>
<path d="M484.642 504.57C484.642 504.57 535.911 478.905 558.761 474.845C558.761 474.845 572.707 508.549 576.739 544.612C580.77 580.675 578.177 613.419 578.177 613.419C578.177 613.419 576.739 623.679 570.399 629.235C564.06 634.777 555.413 639.496 541.296 640.607C527.179 641.718 490.013 632.555 452.561 622.856C415.11 613.144 385.722 604.448 385.722 604.448C385.722 604.448 369.582 600.936 355.764 588.906C341.931 576.889 319.167 570.853 295.933 584.255C295.933 584.255 294.052 582.582 292.557 574.955L288.383 553.624C288.383 553.624 305.449 538.782 337.914 545.257C370.379 551.731 374.981 568.192 390.352 573.364C405.722 578.535 436.834 569.111 502.135 567.822C502.135 567.822 496.95 533.24 484.656 504.57H484.642Z" fill="url(#paint55_linear_7795_3242)"/>
<path opacity="0.8" d="M565.445 493.747C561.627 481.69 558.763 474.831 558.763 474.831C535.914 478.905 484.645 504.557 484.645 504.557C485.4 506.326 486.14 508.123 486.838 509.934C488.719 509.523 502.565 510.359 523.349 501.361C544.133 492.376 559.846 493.514 565.43 493.734L565.445 493.747Z" fill="#B74E18"/>
<path opacity="0.8" d="M484.643 504.57L502.122 567.877C502.122 567.877 525.656 567.877 554.075 583.967C554.075 583.967 540.058 570.277 504.516 564.365L486.438 503.638L484.629 504.57H484.643Z" fill="#CB6F1E"/>
<path opacity="0.8" d="M401.648 607.136C365.051 599.083 354.98 586.326 354.98 586.326C354.98 586.326 354.082 586.45 353.156 586.806C354.011 587.478 354.866 588.192 355.692 588.905C369.524 600.922 385.65 604.447 385.65 604.447C385.65 604.447 415.038 613.144 452.49 622.856C489.941 632.568 527.107 641.717 541.224 640.606C552.022 639.756 559.615 636.793 565.427 632.966V632.938C554.487 629.605 539.073 628.219 513.289 628.219C487.505 628.219 438.23 615.174 401.648 607.136Z" fill="url(#paint56_linear_7795_3242)"/>
<path d="M291.164 565.888C303.216 558.81 318.017 557.37 331.863 557.932C333.858 558.097 335.852 558.261 337.832 558.495C322.048 558.728 305.766 559.661 291.164 565.888Z" fill="#B94313"/>
<path d="M289.707 558.247C298.197 550.894 310.705 549.563 321.688 550.14C320.292 550.345 318.896 550.469 317.514 550.633C307.998 551.882 297.984 553.267 289.707 558.26V558.247Z" fill="#B94313"/>
<path d="M293.613 575.091C304.084 566.531 318.785 564.748 332.076 565.187C333.999 565.352 335.922 565.503 337.845 565.722C335.908 565.818 333.999 565.804 332.076 565.859C318.899 566.463 304.967 568.082 293.628 575.091H293.613Z" fill="#B94313"/>
<path d="M426.934 164.39C426.934 164.39 451.194 183.663 458.33 191.756C458.33 191.756 459.413 183.43 458.729 178.121L426.934 164.39Z" fill="url(#paint57_linear_7795_3242)"/>
<path d="M272.203 416.559C272.203 416.559 281.648 371.607 309.227 359.823C309.227 359.823 288.543 366.216 272.203 416.559Z" fill="url(#paint58_linear_7795_3242)"/>
<path d="M437.219 342.347C437.219 342.347 448.145 378.41 390.551 419.466C390.551 419.466 437.219 386.448 437.219 342.347Z" fill="url(#paint59_linear_7795_3242)"/>
<path d="M396.434 574.626C396.434 574.626 523.289 600.881 554.073 583.981C554.073 583.981 530.868 569.427 502.12 567.891C502.12 567.891 448.13 569.852 396.434 574.626Z" fill="url(#paint60_linear_7795_3242)"/>
<path d="M476.324 188.917C476.324 188.917 487.279 221.098 476.324 250.508C465.369 279.919 461.637 305.996 487.848 314.034C514.06 322.086 543.747 306.27 556.412 334.569C569.076 362.868 557.85 382.292 557.85 382.292C557.85 382.292 585.8 373.966 584.646 351.222C583.492 328.479 571.398 303.225 533.363 296.572C495.327 289.919 492.165 265.776 498.219 241.921C504.273 218.067 498.504 200.865 476.324 188.931V188.917Z" fill="url(#paint61_radial_7795_3242)"/>
<path d="M452.562 317.203C452.562 317.203 450.339 303.115 441.123 293.445C431.906 283.774 425.78 274.295 433.288 267.176C440.781 260.056 453.901 261.62 453.003 248.767C452.092 235.913 444.641 230.138 444.641 230.138C444.641 230.138 455.767 229.068 459.599 238.026C463.431 246.983 463.958 258.575 452.149 266.956C440.339 275.338 443.73 285.146 450.24 293.417C456.75 301.689 457.961 309.206 452.562 317.203Z" fill="url(#paint62_radial_7795_3242)"/>
<path d="M510.684 208.903C510.684 208.903 525.67 235.817 506.938 266.338C506.938 266.338 534.018 246.091 510.684 208.903Z" fill="url(#paint63_radial_7795_3242)"/>
<path d="M518.848 326.613C518.848 326.613 548.877 339.069 543.378 375.708C543.378 375.708 563.265 342.155 518.848 326.613Z" fill="url(#paint64_radial_7795_3242)"/>
<defs>
<linearGradient id="paint0_linear_7795_3242" x1="398.601" y1="432.019" x2="398.601" y2="1.26233" gradientUnits="userSpaceOnUse">
<stop offset="0.17" stop-color="#560A05"/>
<stop offset="1" stop-color="#250401"/>
</linearGradient>
<radialGradient id="paint1_radial_7795_3242" cx="0" cy="0" r="1" gradientUnits="userSpaceOnUse" gradientTransform="translate(388.192 460.666) rotate(-86.0853) scale(148.435 194.16)">
<stop stop-color="#05AF12"/>
<stop offset="1" stop-color="#00910B"/>
</radialGradient>
<linearGradient id="paint2_linear_7795_3242" x1="392.791" y1="586.944" x2="392.791" y2="390.976" gradientUnits="userSpaceOnUse">
<stop stop-color="#005506"/>
<stop offset="1" stop-color="#005506" stop-opacity="0"/>
</linearGradient>
<linearGradient id="paint3_linear_7795_3242" x1="480.258" y1="504.021" x2="455.781" y2="429.274" gradientUnits="userSpaceOnUse">
<stop stop-color="#DFF1F1" stop-opacity="0.7"/>
<stop offset="1" stop-color="#DFF1F1" stop-opacity="0"/>
</linearGradient>
<linearGradient id="paint4_linear_7795_3242" x1="489.843" y1="486.45" x2="543.765" y2="458.375" gradientUnits="userSpaceOnUse">
<stop stop-color="#007709"/>
<stop offset="1" stop-color="#006C08"/>
</linearGradient>
<linearGradient id="paint5_linear_7795_3242" x1="468.006" y1="508.315" x2="468.006" y2="390.976" gradientUnits="userSpaceOnUse">
<stop offset="0.57" stop-color="#005506"/>
<stop offset="1" stop-color="#005506" stop-opacity="0.15"/>
</linearGradient>
<linearGradient id="paint6_linear_7795_3242" x1="431.025" y1="499.193" x2="400.878" y2="447.307" gradientUnits="userSpaceOnUse">
<stop stop-color="#1AD028" stop-opacity="0.5"/>
<stop offset="1" stop-color="#25D033" stop-opacity="0"/>
</linearGradient>
<linearGradient id="paint7_linear_7795_3242" x1="393.201" y1="544.118" x2="393.201" y2="359.206" gradientUnits="userSpaceOnUse">
<stop stop-color="#184237" stop-opacity="0.5"/>
<stop offset="1" stop-color="#498E76" stop-opacity="0.6"/>
</linearGradient>
<linearGradient id="paint8_linear_7795_3242" x1="354.681" y1="440.688" x2="354.681" y2="267.711" gradientUnits="userSpaceOnUse">
<stop stop-color="#E47535"/>
<stop offset="1" stop-color="#FEC989"/>
</linearGradient>
<linearGradient id="paint9_linear_7795_3242" x1="312.93" y1="430.18" x2="329.825" y2="430.18" gradientUnits="userSpaceOnUse">
<stop stop-color="#D9530B"/>
<stop offset="1" stop-color="#D9530B" stop-opacity="0"/>
</linearGradient>
<radialGradient id="paint10_radial_7795_3242" cx="0" cy="0" r="1" gradientUnits="userSpaceOnUse" gradientTransform="translate(348.27 192.95) scale(117.553 113.197)">
<stop stop-color="#FFD79C"/>
<stop offset="1" stop-color="#FCAD6B"/>
</radialGradient>
<linearGradient id="paint11_linear_7795_3242" x1="239.11" y1="117.833" x2="253.87" y2="127.724" gradientUnits="userSpaceOnUse">
<stop stop-color="#57110B"/>
<stop offset="1" stop-color="#57110B" stop-opacity="0.1"/>
</linearGradient>
<linearGradient id="paint12_linear_7795_3242" x1="243.812" y1="163.772" x2="289.739" y2="163.772" gradientUnits="userSpaceOnUse">
<stop stop-color="#75291F"/>
<stop offset="0.51" stop-color="#2F0E09"/>
<stop offset="1" stop-color="#3F1607"/>
</linearGradient>
<linearGradient id="paint13_linear_7795_3242" x1="366.663" y1="136.05" x2="366.663" y2="157.888" gradientUnits="userSpaceOnUse">
<stop stop-color="#2F0E09"/>
<stop offset="1" stop-color="#75291F"/>
</linearGradient>
<linearGradient id="paint14_linear_7795_3242" x1="334.271" y1="268.423" x2="337.23" y2="280.275" gradientUnits="userSpaceOnUse">
<stop stop-color="#D6B585"/>
<stop offset="0.37" stop-color="#F9DEB1"/>
</linearGradient>
<radialGradient id="paint15_radial_7795_3242" cx="0" cy="0" r="1" gradientUnits="userSpaceOnUse" gradientTransform="translate(334.541 264.364) scale(31.2687 30.1099)">
<stop stop-color="#D95E33"/>
<stop offset="1" stop-color="#D33520"/>
</radialGradient>
<radialGradient id="paint16_radial_7795_3242" cx="0" cy="0" r="1" gradientUnits="userSpaceOnUse" gradientTransform="translate(336.566 276.764) scale(35.984 34.6504)">
<stop stop-color="#D33520"/>
<stop offset="0.33" stop-color="#D43C23"/>
<stop offset="0.72" stop-color="#D7522D"/>
<stop offset="1" stop-color="#D95E33"/>
</radialGradient>
<linearGradient id="paint17_linear_7795_3242" x1="323.057" y1="239.617" x2="322.872" y2="251.373" gradientUnits="userSpaceOnUse">
<stop stop-color="#E56D29"/>
<stop offset="1" stop-color="#FEC688"/>
</linearGradient>
<linearGradient id="paint18_linear_7795_3242" x1="315.353" y1="240.797" x2="314.283" y2="197.022" gradientUnits="userSpaceOnUse">
<stop stop-color="white" stop-opacity="0.3"/>
<stop offset="0.99" stop-color="white" stop-opacity="0"/>
</linearGradient>
<linearGradient id="paint19_linear_7795_3242" x1="246.23" y1="69.6023" x2="299.437" y2="69.6023" gradientUnits="userSpaceOnUse">
<stop stop-color="#631601"/>
<stop offset="1" stop-color="#631601" stop-opacity="0"/>
</linearGradient>
<linearGradient id="paint20_linear_7795_3242" x1="306.164" y1="117.367" x2="397.591" y2="117.367" gradientUnits="userSpaceOnUse">
<stop stop-color="#8E3017"/>
<stop offset="1" stop-color="#9B4B24" stop-opacity="0.1"/>
</linearGradient>
<linearGradient id="paint21_linear_7795_3242" x1="280.934" y1="47.8468" x2="378.957" y2="47.8468" gradientUnits="userSpaceOnUse">
<stop stop-color="#5C110B"/>
<stop offset="1" stop-color="#670F0B"/>
</linearGradient>
<linearGradient id="paint22_linear_7795_3242" x1="318.273" y1="197.998" x2="323.655" y2="246.631" gradientUnits="userSpaceOnUse">
<stop stop-color="#FFBA81"/>
<stop offset="0.49" stop-color="#FFBA81"/>
<stop offset="0.8" stop-color="#FFBA81"/>
<stop offset="0.99" stop-color="#CE571B"/>
</linearGradient>
<linearGradient id="paint23_linear_7795_3242" x1="256.829" y1="328.507" x2="256.829" y2="60.8787" gradientUnits="userSpaceOnUse">
<stop stop-color="#952A18"/>
<stop offset="0.59" stop-color="#6B1711"/>
<stop offset="1" stop-color="#A42A1C"/>
</linearGradient>
<linearGradient id="paint24_linear_7795_3242" x1="209.196" y1="142.181" x2="283.438" y2="84.9147" gradientUnits="userSpaceOnUse">
<stop stop-color="#741A13"/>
<stop offset="1" stop-color="#E05B2A"/>
</linearGradient>
<linearGradient id="paint25_linear_7795_3242" x1="372.002" y1="200.316" x2="372.002" y2="170.028" gradientUnits="userSpaceOnUse">
<stop stop-color="#E3CCBB"/>
<stop offset="0.99" stop-color="#FCFAEC"/>
</linearGradient>
<linearGradient id="paint26_linear_7795_3242" x1="368.502" y1="184.429" x2="398.813" y2="184.429" gradientUnits="userSpaceOnUse">
<stop stop-color="#317B32"/>
<stop offset="1" stop-color="#204A0A"/>
</linearGradient>
<linearGradient id="paint27_linear_7795_3242" x1="258.498" y1="195.831" x2="305.465" y2="195.831" gradientUnits="userSpaceOnUse">
<stop stop-color="#FCFAEC"/>
<stop offset="1" stop-color="#E3CCBB"/>
</linearGradient>
<linearGradient id="paint28_linear_7795_3242" x1="276.306" y1="196.188" x2="305.467" y2="196.188" gradientUnits="userSpaceOnUse">
<stop stop-color="#317B32"/>
<stop offset="1" stop-color="#204A0A"/>
</linearGradient>
<linearGradient id="paint29_linear_7795_3242" x1="267.828" y1="193.54" x2="305.465" y2="193.54" gradientUnits="userSpaceOnUse">
<stop stop-color="#E1824C" stop-opacity="0.7"/>
<stop offset="1" stop-color="#A84E1C"/>
</linearGradient>
<linearGradient id="paint30_linear_7795_3242" x1="445.282" y1="204.555" x2="445.282" y2="173.019" gradientUnits="userSpaceOnUse">
<stop stop-color="#FCB473"/>
<stop offset="1" stop-color="#B23A0F" stop-opacity="0.8"/>
</linearGradient>
<linearGradient id="paint31_linear_7795_3242" x1="445.286" y1="205.241" x2="445.286" y2="172.333" gradientUnits="userSpaceOnUse">
<stop stop-color="#FDB473"/>
<stop offset="1" stop-color="#B23A0F"/>
</linearGradient>
<linearGradient id="paint32_linear_7795_3242" x1="305.079" y1="80.5074" x2="421.963" y2="80.5074" gradientUnits="userSpaceOnUse">
<stop stop-color="#631601"/>
<stop offset="1" stop-color="#631601" stop-opacity="0"/>
</linearGradient>
<linearGradient id="paint33_linear_7795_3242" x1="328.913" y1="74.8561" x2="454.553" y2="167.011" gradientUnits="userSpaceOnUse">
<stop stop-color="#E05B2A"/>
<stop offset="1" stop-color="#E05B2A" stop-opacity="0.2"/>
</linearGradient>
<radialGradient id="paint34_radial_7795_3242" cx="0" cy="0" r="1" gradientUnits="userSpaceOnUse" gradientTransform="translate(355.425 66.0638) scale(25.5278 24.5817)">
<stop stop-color="#F9CDA6"/>
<stop offset="1" stop-color="#E05B2A" stop-opacity="0.7"/>
</radialGradient>
<radialGradient id="paint35_radial_7795_3242" cx="0" cy="0" r="1" gradientUnits="userSpaceOnUse" gradientTransform="translate(260.253 100.672) rotate(-19.8392) scale(25.4132 24.6925)">
<stop stop-color="#F9CDA6"/>
<stop offset="1" stop-color="#E05B2A" stop-opacity="0.7"/>
</radialGradient>
<radialGradient id="paint36_radial_7795_3242" cx="0" cy="0" r="1" gradientUnits="userSpaceOnUse" gradientTransform="translate(239.043 72.3618) rotate(-19.8392) scale(24.3581 24.913)">
<stop stop-color="#F9CDA6"/>
<stop offset="1" stop-color="#E05B2A" stop-opacity="0.7"/>
</radialGradient>
<radialGradient id="paint37_radial_7795_3242" cx="0" cy="0" r="1" gradientUnits="userSpaceOnUse" gradientTransform="translate(375.318 85.779) rotate(48.9715) scale(18.9831 19.0957)">
<stop stop-color="#F9CDA6"/>
<stop offset="1" stop-color="#E05B2A" stop-opacity="0.7"/>
</radialGradient>
<radialGradient id="paint38_radial_7795_3242" cx="0" cy="0" r="1" gradientUnits="userSpaceOnUse" gradientTransform="translate(402.266 122.356) rotate(69.6856) scale(13.5576 13.9559)">
<stop stop-color="#F9CDA6"/>
<stop offset="1" stop-color="#E05B2A" stop-opacity="0.7"/>
</radialGradient>
<radialGradient id="paint39_radial_7795_3242" cx="0" cy="0" r="1" gradientUnits="userSpaceOnUse" gradientTransform="translate(402.984 66.8242) rotate(0.597024) scale(26.0833 25.1168)">
<stop stop-color="#F9CDA6" stop-opacity="0.7"/>
<stop offset="1" stop-color="#F9CDA6" stop-opacity="0.2"/>
</radialGradient>
<radialGradient id="paint40_radial_7795_3242" cx="0" cy="0" r="1" gradientUnits="userSpaceOnUse" gradientTransform="translate(468.149 113.087) scale(21.2257 20.4391)">
<stop stop-color="#F9CDA6" stop-opacity="0.7"/>
<stop offset="1" stop-color="#F9CDA6" stop-opacity="0.2"/>
</radialGradient>
<radialGradient id="paint41_radial_7795_3242" cx="0" cy="0" r="1" gradientUnits="userSpaceOnUse" gradientTransform="translate(327.574 39.0942) scale(25.1289 24.1976)">
<stop stop-color="#F9CDA6" stop-opacity="0.7"/>
<stop offset="1" stop-color="#F9CDA6" stop-opacity="0.2"/>
</radialGradient>
<linearGradient id="paint42_linear_7795_3242" x1="263.613" y1="412.869" x2="293.511" y2="357.502" gradientUnits="userSpaceOnUse">
<stop stop-color="#459B87" stop-opacity="0"/>
<stop offset="1" stop-color="#459B87"/>
</linearGradient>
<linearGradient id="paint43_linear_7795_3242" x1="256.733" y1="405.173" x2="281.172" y2="359.9" gradientUnits="userSpaceOnUse">
<stop stop-color="#007709"/>
<stop offset="1" stop-color="#006C08"/>
</linearGradient>
<radialGradient id="paint44_radial_7795_3242" cx="0" cy="0" r="1" gradientUnits="userSpaceOnUse" gradientTransform="translate(314.12 54.5355) rotate(-12.7464) scale(15.1425 14.637)">
<stop stop-color="#F9CDA6" stop-opacity="0.7"/>
<stop offset="1" stop-color="#F9CDA6" stop-opacity="0.2"/>
</radialGradient>
<linearGradient id="paint45_linear_7795_3242" x1="299.791" y1="586.957" x2="349.308" y2="586.957" gradientUnits="userSpaceOnUse">
<stop stop-color="#C5DCB6"/>
<stop offset="1" stop-color="#5D795B"/>
</linearGradient>
<linearGradient id="paint46_linear_7795_3242" x1="352.987" y1="612.623" x2="352.987" y2="594.845" gradientUnits="userSpaceOnUse">
<stop stop-color="#455C40"/>
<stop offset="1" stop-color="#273422"/>
</linearGradient>
<linearGradient id="paint47_linear_7795_3242" x1="70.9988" y1="450.88" x2="309.816" y2="564.602" gradientUnits="userSpaceOnUse">
<stop stop-color="#7A855A"/>
<stop offset="0.81" stop-color="#D5E9B5"/>
</linearGradient>
<linearGradient id="paint48_linear_7795_3242" x1="52.1386" y1="404.844" x2="278.297" y2="497.94" gradientUnits="userSpaceOnUse">
<stop stop-color="#D3D3D3"/>
<stop offset="1" stop-color="#EDF1F2"/>
</linearGradient>
<radialGradient id="paint49_radial_7795_3242" cx="0" cy="0" r="1" gradientUnits="userSpaceOnUse" gradientTransform="translate(185.318 591.813) scale(84.803 81.6601)">
<stop stop-color="#99AA79"/>
<stop offset="1" stop-color="#76855B"/>
</radialGradient>
<linearGradient id="paint50_linear_7795_3242" x1="185.16" y1="585.722" x2="185.676" y2="579.587" gradientUnits="userSpaceOnUse">
<stop stop-color="#61575A" stop-opacity="0"/>
<stop offset="0.59" stop-color="#625A5B" stop-opacity="0.7"/>
</linearGradient>
<linearGradient id="paint51_linear_7795_3242" x1="319.951" y1="498.013" x2="329.686" y2="423.881" gradientUnits="userSpaceOnUse">
<stop stop-color="#EBF8CB"/>
<stop offset="1" stop-color="#F5FEE2"/>
</linearGradient>
<linearGradient id="paint52_linear_7795_3242" x1="309.608" y1="496.889" x2="316.539" y2="444.075" gradientUnits="userSpaceOnUse">
<stop stop-color="#CED7A5"/>
<stop offset="1" stop-color="#DFEFBD"/>
</linearGradient>
<radialGradient id="paint53_radial_7795_3242" cx="0" cy="0" r="1" gradientUnits="userSpaceOnUse" gradientTransform="translate(382.96 216.799) rotate(-8.82597) scale(15.4278 14.8835)">
<stop stop-color="#EAE7E8" stop-opacity="0.5"/>
<stop offset="1" stop-color="#FCFDF9" stop-opacity="0"/>
</radialGradient>
<radialGradient id="paint54_radial_7795_3242" cx="0" cy="0" r="1" gradientUnits="userSpaceOnUse" gradientTransform="translate(284.045 231.352) rotate(-8.82598) scale(15.4278 14.8835)">
<stop stop-color="#EAE7E8" stop-opacity="0.5"/>
<stop offset="1" stop-color="#FCFDF9" stop-opacity="0"/>
</radialGradient>
<linearGradient id="paint55_linear_7795_3242" x1="433.686" y1="484.762" x2="433.686" y2="635.641" gradientUnits="userSpaceOnUse">
<stop stop-color="#E47535"/>
<stop offset="1" stop-color="#F4A671"/>
</linearGradient>
<linearGradient id="paint56_linear_7795_3242" x1="456.279" y1="639.138" x2="458.447" y2="616.461" gradientUnits="userSpaceOnUse">
<stop stop-color="#B74E18"/>
<stop offset="1" stop-color="#B74E18" stop-opacity="0.1"/>
</linearGradient>
<linearGradient id="paint57_linear_7795_3242" x1="445.353" y1="173.471" x2="443.242" y2="177.325" gradientUnits="userSpaceOnUse">
<stop stop-color="#57110B"/>
<stop offset="1" stop-color="#57110B" stop-opacity="0.1"/>
</linearGradient>
<linearGradient id="paint58_linear_7795_3242" x1="272.801" y1="413.486" x2="301.018" y2="361.205" gradientUnits="userSpaceOnUse">
<stop stop-color="#16372B"/>
<stop offset="1" stop-color="#D2773F"/>
</linearGradient>
<linearGradient id="paint59_linear_7795_3242" x1="408.301" y1="402.896" x2="432.256" y2="350.861" gradientUnits="userSpaceOnUse">
<stop stop-color="#E88242"/>
<stop offset="1" stop-color="#AD5A2B"/>
</linearGradient>
<linearGradient id="paint60_linear_7795_3242" x1="475.254" y1="589.647" x2="475.254" y2="567.877" gradientUnits="userSpaceOnUse">
<stop stop-color="#EF975F"/>
<stop offset="1" stop-color="#FFB48A"/>
</linearGradient>
<radialGradient id="paint61_radial_7795_3242" cx="0" cy="0" r="1" gradientUnits="userSpaceOnUse" gradientTransform="translate(502.721 268.959) scale(82.1106 79.0676)">
<stop stop-color="#A02916" stop-opacity="0.9"/>
<stop offset="1" stop-color="#A02916" stop-opacity="0.1"/>
</radialGradient>
<radialGradient id="paint62_radial_7795_3242" cx="0" cy="0" r="1" gradientUnits="userSpaceOnUse" gradientTransform="translate(446.074 282.539) rotate(-24.0448) scale(30.8744 33.8398)">
<stop stop-color="#A02916" stop-opacity="0.7"/>
<stop offset="1" stop-color="#A02916" stop-opacity="0.1"/>
</radialGradient>
<radialGradient id="paint63_radial_7795_3242" cx="0" cy="0" r="1" gradientUnits="userSpaceOnUse" gradientTransform="translate(513.547 237.614) scale(21.5961 20.7957)">
<stop stop-color="#A02916" stop-opacity="0.7"/>
<stop offset="1" stop-color="#A02916" stop-opacity="0.1"/>
</radialGradient>
<radialGradient id="paint64_radial_7795_3242" cx="0" cy="0" r="1" gradientUnits="userSpaceOnUse" gradientTransform="translate(534.655 345.356) rotate(-29.6411) scale(27.5299 19.7234)">
<stop stop-color="#A02916" stop-opacity="0.7"/>
<stop offset="1" stop-color="#A02916" stop-opacity="0.1"/>
</radialGradient>
</defs>
</svg>
