<svg width="100%" height="100%" viewBox="0 0 402 110" fill="none" xmlns="http://www.w3.org/2000/svg">
<g filter="url(#filter0_d_155_477)">
<rect x="19" y="15" width="364" height="72" rx="15" fill="#00D607" shape-rendering="crispEdges"/>
<path d="M52.522 44.722H47.05V55H44.44V42.4H55.132V55H52.522V44.722ZM59.8283 58.96H57.4883V46.72H59.8283V58.96ZM66.6323 50.86C66.6323 51.796 66.4463 52.594 66.0743 53.254C65.7023 53.914 65.2103 54.412 64.5983 54.748C63.9983 55.084 63.3503 55.252 62.6543 55.252C61.9463 55.252 61.3283 55.072 60.8003 54.712C60.2843 54.352 59.8823 53.842 59.5943 53.182C59.3183 52.522 59.1803 51.748 59.1803 50.86C59.1803 49.96 59.3183 49.186 59.5943 48.538C59.8823 47.878 60.2843 47.368 60.8003 47.008C61.3283 46.648 61.9463 46.468 62.6543 46.468C63.3503 46.468 63.9983 46.636 64.5983 46.972C65.2103 47.308 65.7023 47.806 66.0743 48.466C66.4463 49.114 66.6323 49.912 66.6323 50.86ZM64.2203 50.86C64.2203 50.368 64.1183 49.948 63.9143 49.6C63.7103 49.252 63.4343 48.988 63.0863 48.808C62.7503 48.628 62.3783 48.538 61.9703 48.538C61.6223 48.538 61.2803 48.628 60.9443 48.808C60.6203 48.976 60.3503 49.234 60.1343 49.582C59.9303 49.93 59.8283 50.356 59.8283 50.86C59.8283 51.364 59.9303 51.79 60.1343 52.138C60.3503 52.486 60.6203 52.75 60.9443 52.93C61.2803 53.098 61.6223 53.182 61.9703 53.182C62.3783 53.182 62.7503 53.092 63.0863 52.912C63.4343 52.732 63.7103 52.468 63.9143 52.12C64.1183 51.772 64.2203 51.352 64.2203 50.86ZM67.6324 50.86C67.6324 49.996 67.8304 49.24 68.2264 48.592C68.6344 47.944 69.1804 47.44 69.8644 47.08C70.5604 46.72 71.3464 46.54 72.2224 46.54C73.0984 46.54 73.8784 46.72 74.5624 47.08C75.2584 47.44 75.8044 47.944 76.2004 48.592C76.6084 49.24 76.8124 49.996 76.8124 50.86C76.8124 51.712 76.6084 52.468 76.2004 53.128C75.8044 53.776 75.2584 54.28 74.5624 54.64C73.8784 55 73.0984 55.18 72.2224 55.18C71.3464 55.18 70.5604 55 69.8644 54.64C69.1804 54.28 68.6344 53.776 68.2264 53.128C67.8304 52.468 67.6324 51.712 67.6324 50.86ZM70.0084 50.86C70.0084 51.328 70.1044 51.742 70.2964 52.102C70.5004 52.45 70.7704 52.726 71.1064 52.93C71.4424 53.122 71.8144 53.218 72.2224 53.218C72.6304 53.218 73.0024 53.122 73.3384 52.93C73.6744 52.726 73.9384 52.45 74.1304 52.102C74.3344 51.742 74.4364 51.328 74.4364 50.86C74.4364 50.392 74.3344 49.978 74.1304 49.618C73.9384 49.258 73.6744 48.982 73.3384 48.79C73.0024 48.598 72.6304 48.502 72.2224 48.502C71.8144 48.502 71.4424 48.598 71.1064 48.79C70.7704 48.982 70.5004 49.258 70.2964 49.618C70.1044 49.978 70.0084 50.392 70.0084 50.86ZM86.3195 48.772L78.4355 55.63L78.5255 52.948L86.4095 46.09L86.3195 48.772ZM80.6855 46.72V53.272L78.4355 55.63V46.72H80.6855ZM86.4095 46.09V55H84.1595V48.448L86.4095 46.09ZM79.6055 42.49H81.2255C81.2255 42.682 81.2735 42.868 81.3695 43.048C81.4655 43.216 81.6095 43.36 81.8015 43.48C81.9935 43.588 82.2335 43.642 82.5215 43.642C82.8215 43.642 83.0675 43.588 83.2595 43.48C83.4515 43.36 83.5895 43.216 83.6735 43.048C83.7695 42.868 83.8175 42.682 83.8175 42.49H85.4555C85.4555 42.946 85.3415 43.378 85.1135 43.786C84.8855 44.182 84.5555 44.5 84.1235 44.74C83.6915 44.968 83.1575 45.082 82.5215 45.082C81.8975 45.082 81.3635 44.968 80.9195 44.74C80.4875 44.5 80.1575 44.182 79.9295 43.786C79.7135 43.378 79.6055 42.946 79.6055 42.49ZM87.5282 46.72H93.0362V48.682H87.5282V46.72ZM89.1662 47.08H91.4162V55H89.1662V47.08ZM102.044 48.772L94.1595 55.63L94.2495 52.948L102.134 46.09L102.044 48.772ZM96.4095 46.72V53.272L94.1595 55.63V46.72H96.4095ZM102.134 46.09V55H99.8835V48.448L102.134 46.09ZM111.817 58.96H109.477V46.72H111.817V58.96ZM118.621 50.86C118.621 51.796 118.435 52.594 118.063 53.254C117.691 53.914 117.199 54.412 116.587 54.748C115.987 55.084 115.339 55.252 114.643 55.252C113.935 55.252 113.317 55.072 112.789 54.712C112.273 54.352 111.871 53.842 111.583 53.182C111.307 52.522 111.169 51.748 111.169 50.86C111.169 49.96 111.307 49.186 111.583 48.538C111.871 47.878 112.273 47.368 112.789 47.008C113.317 46.648 113.935 46.468 114.643 46.468C115.339 46.468 115.987 46.636 116.587 46.972C117.199 47.308 117.691 47.806 118.063 48.466C118.435 49.114 118.621 49.912 118.621 50.86ZM116.209 50.86C116.209 50.368 116.107 49.948 115.903 49.6C115.699 49.252 115.423 48.988 115.075 48.808C114.739 48.628 114.367 48.538 113.959 48.538C113.611 48.538 113.269 48.628 112.933 48.808C112.609 48.976 112.339 49.234 112.123 49.582C111.919 49.93 111.817 50.356 111.817 50.86C111.817 51.364 111.919 51.79 112.123 52.138C112.339 52.486 112.609 52.75 112.933 52.93C113.269 53.098 113.611 53.182 113.959 53.182C114.367 53.182 114.739 53.092 115.075 52.912C115.423 52.732 115.699 52.468 115.903 52.12C116.107 51.772 116.209 51.352 116.209 50.86ZM120.953 51.382V49.942H125.903C125.855 49.582 125.759 49.27 125.615 49.006C125.471 48.742 125.273 48.538 125.021 48.394C124.769 48.25 124.451 48.178 124.067 48.178C123.671 48.178 123.317 48.268 123.005 48.448C122.693 48.616 122.447 48.868 122.267 49.204C122.087 49.54 121.997 49.936 121.997 50.392L121.961 50.86C121.961 51.448 122.051 51.934 122.231 52.318C122.423 52.69 122.681 52.966 123.005 53.146C123.329 53.314 123.695 53.398 124.103 53.398C124.463 53.398 124.781 53.35 125.057 53.254C125.333 53.158 125.579 53.02 125.795 52.84C126.011 52.66 126.191 52.45 126.335 52.21L128.369 52.84C128.093 53.308 127.769 53.722 127.397 54.082C127.025 54.43 126.569 54.7 126.029 54.892C125.501 55.084 124.853 55.18 124.085 55.18C123.161 55.18 122.363 54.994 121.691 54.622C121.019 54.25 120.503 53.74 120.143 53.092C119.795 52.432 119.621 51.688 119.621 50.86C119.621 50.704 119.627 50.554 119.639 50.41C119.651 50.266 119.669 50.122 119.693 49.978C119.813 49.294 120.059 48.694 120.431 48.178C120.803 47.662 121.301 47.26 121.925 46.972C122.549 46.684 123.275 46.54 124.103 46.54C125.015 46.54 125.789 46.714 126.425 47.062C127.073 47.398 127.565 47.878 127.901 48.502C128.237 49.126 128.405 49.876 128.405 50.752C128.405 50.824 128.405 50.914 128.405 51.022C128.405 51.13 128.393 51.25 128.369 51.382H120.953ZM130.072 46.72H135.094V48.682H132.358V55H130.072V46.72ZM144.052 48.772L136.168 55.63L136.258 52.948L144.142 46.09L144.052 48.772ZM138.418 46.72V53.272L136.168 55.63V46.72H138.418ZM144.142 46.09V55H141.892V48.448L144.142 46.09ZM148.086 50.86C148.086 51.34 148.194 51.76 148.41 52.12C148.626 52.48 148.914 52.762 149.274 52.966C149.646 53.17 150.054 53.272 150.498 53.272C150.858 53.272 151.206 53.218 151.542 53.11C151.878 52.99 152.178 52.834 152.442 52.642C152.718 52.438 152.928 52.204 153.072 51.94V54.334C152.784 54.598 152.406 54.808 151.938 54.964C151.482 55.108 150.948 55.18 150.336 55.18C149.46 55.18 148.668 55 147.96 54.64C147.264 54.28 146.712 53.776 146.304 53.128C145.908 52.468 145.71 51.712 145.71 50.86C145.71 49.996 145.908 49.24 146.304 48.592C146.712 47.944 147.264 47.44 147.96 47.08C148.668 46.72 149.46 46.54 150.336 46.54C150.948 46.54 151.482 46.618 151.938 46.774C152.406 46.918 152.784 47.116 153.072 47.368V49.762C152.928 49.498 152.712 49.27 152.424 49.078C152.148 48.874 151.842 48.718 151.506 48.61C151.17 48.502 150.834 48.448 150.498 48.448C150.054 48.448 149.646 48.556 149.274 48.772C148.914 48.976 148.626 49.258 148.41 49.618C148.194 49.978 148.086 50.392 148.086 50.86ZM153.887 46.72H159.395V48.682H153.887V46.72ZM155.525 47.08H157.775V55H155.525V47.08ZM162.75 58.96H160.41V46.72H162.75V58.96ZM169.554 50.86C169.554 51.796 169.368 52.594 168.996 53.254C168.624 53.914 168.132 54.412 167.52 54.748C166.92 55.084 166.272 55.252 165.576 55.252C164.868 55.252 164.25 55.072 163.722 54.712C163.206 54.352 162.804 53.842 162.516 53.182C162.24 52.522 162.102 51.748 162.102 50.86C162.102 49.96 162.24 49.186 162.516 48.538C162.804 47.878 163.206 47.368 163.722 47.008C164.25 46.648 164.868 46.468 165.576 46.468C166.272 46.468 166.92 46.636 167.52 46.972C168.132 47.308 168.624 47.806 168.996 48.466C169.368 49.114 169.554 49.912 169.554 50.86ZM167.142 50.86C167.142 50.368 167.04 49.948 166.836 49.6C166.632 49.252 166.356 48.988 166.008 48.808C165.672 48.628 165.3 48.538 164.892 48.538C164.544 48.538 164.202 48.628 163.866 48.808C163.542 48.976 163.272 49.234 163.056 49.582C162.852 49.93 162.75 50.356 162.75 50.86C162.75 51.364 162.852 51.79 163.056 52.138C163.272 52.486 163.542 52.75 163.866 52.93C164.202 53.098 164.544 53.182 164.892 53.182C165.3 53.182 165.672 53.092 166.008 52.912C166.356 52.732 166.632 52.468 166.836 52.12C167.04 51.772 167.142 51.352 167.142 50.86ZM172.768 52.534C172.768 52.762 172.828 52.954 172.948 53.11C173.068 53.254 173.23 53.368 173.434 53.452C173.65 53.524 173.884 53.56 174.136 53.56C174.508 53.56 174.85 53.5 175.162 53.38C175.474 53.26 175.72 53.062 175.9 52.786C176.08 52.51 176.17 52.144 176.17 51.688L176.458 52.66C176.458 53.188 176.32 53.644 176.044 54.028C175.768 54.4 175.396 54.688 174.928 54.892C174.472 55.084 173.956 55.18 173.38 55.18C172.816 55.18 172.312 55.084 171.868 54.892C171.424 54.7 171.07 54.418 170.806 54.046C170.554 53.662 170.428 53.194 170.428 52.642C170.428 52.078 170.572 51.598 170.86 51.202C171.16 50.794 171.574 50.482 172.102 50.266C172.642 50.05 173.272 49.942 173.992 49.942C174.436 49.942 174.85 49.996 175.234 50.104C175.618 50.212 175.942 50.338 176.206 50.482C176.47 50.626 176.656 50.764 176.764 50.896V52.03C176.428 51.778 176.08 51.592 175.72 51.472C175.36 51.352 174.934 51.292 174.442 51.292C174.082 51.292 173.776 51.346 173.524 51.454C173.272 51.562 173.08 51.706 172.948 51.886C172.828 52.066 172.768 52.282 172.768 52.534ZM172.03 49.078L171.184 47.476C171.604 47.248 172.12 47.032 172.732 46.828C173.344 46.612 174.022 46.504 174.766 46.504C175.486 46.504 176.116 46.606 176.656 46.81C177.208 47.014 177.64 47.314 177.952 47.71C178.264 48.094 178.42 48.568 178.42 49.132V55H176.17V49.51C176.17 49.138 176.026 48.85 175.738 48.646C175.45 48.43 175.078 48.322 174.622 48.322C174.226 48.322 173.854 48.37 173.506 48.466C173.17 48.55 172.87 48.652 172.606 48.772C172.354 48.892 172.162 48.994 172.03 49.078ZM188.237 53.038H189.677V56.782H187.535V55H180.407V46.72H182.747V53.038H185.915V46.72H188.237V53.038ZM199.028 48.772L191.144 55.63L191.234 52.948L199.118 46.09L199.028 48.772ZM193.394 46.72V53.272L191.144 55.63V46.72H193.394ZM199.118 46.09V55H196.868V48.448L199.118 46.09ZM202.145 51.544V49.726H206.447V51.544H202.145ZM201.299 46.72H203.549V55H201.299V46.72ZM204.719 50.86C204.719 49.996 204.917 49.24 205.313 48.592C205.721 47.944 206.273 47.44 206.969 47.08C207.665 46.72 208.445 46.54 209.309 46.54C210.197 46.54 210.983 46.72 211.667 47.08C212.363 47.44 212.909 47.944 213.305 48.592C213.713 49.24 213.917 49.996 213.917 50.86C213.917 51.712 213.713 52.468 213.305 53.128C212.909 53.776 212.363 54.28 211.667 54.64C210.983 55 210.197 55.18 209.309 55.18C208.445 55.18 207.665 55 206.969 54.64C206.273 54.28 205.721 53.776 205.313 53.128C204.917 52.468 204.719 51.712 204.719 50.86ZM207.113 50.86C207.113 51.328 207.209 51.742 207.401 52.102C207.605 52.45 207.869 52.726 208.193 52.93C208.529 53.122 208.901 53.218 209.309 53.218C209.729 53.218 210.101 53.122 210.425 52.93C210.761 52.726 211.025 52.45 211.217 52.102C211.421 51.742 211.523 51.328 211.523 50.86C211.523 50.392 211.421 49.978 211.217 49.618C211.025 49.258 210.761 48.982 210.425 48.79C210.101 48.598 209.729 48.502 209.309 48.502C208.901 48.502 208.529 48.598 208.193 48.79C207.869 48.982 207.605 49.258 207.401 49.618C207.209 49.978 207.113 50.392 207.113 50.86Z" fill="white"/>
<path d="M344.333 55L348.333 51M348.333 51L344.333 47M348.333 51H337.667M355 51C355 44.3726 349.627 39 343 39C336.373 39 331 44.3726 331 51C331 57.6274 336.373 63 343 63C349.627 63 355 57.6274 355 51Z" stroke="white" stroke-width="2.5" stroke-linecap="round" stroke-linejoin="round"/>
</g>
<defs>
<filter id="filter0_d_155_477" x="0" y="0" width="402" height="110" filterUnits="userSpaceOnUse" color-interpolation-filters="sRGB">
<feFlood flood-opacity="0" result="BackgroundImageFix"/>
<feColorMatrix in="SourceAlpha" type="matrix" values="0 0 0 0 0 0 0 0 0 0 0 0 0 0 0 0 0 0 127 0" result="hardAlpha"/>
<feOffset dy="4"/>
<feGaussianBlur stdDeviation="9.5"/>
<feComposite in2="hardAlpha" operator="out"/>
<feColorMatrix type="matrix" values="0 0 0 0 0.8125 0 0 0 0 1 0 0 0 0 0.81875 0 0 0 1 0"/>
<feBlend mode="normal" in2="BackgroundImageFix" result="effect1_dropShadow_155_477"/>
<feBlend mode="normal" in="SourceGraphic" in2="effect1_dropShadow_155_477" result="shape"/>
</filter>
</defs>
</svg>
