<svg width="244" height="18" viewBox="0 0 244 18" fill="none" xmlns="http://www.w3.org/2000/svg">
<path d="M13.5461 4.52L0.726094 15.7L0.826094 11.48L13.6461 0.3L13.5461 4.52ZM3.96609 0.999999V12.38L0.726094 15.7V0.999999H3.96609ZM13.6461 0.3V15H10.3861V3.74L13.6461 0.3ZM25.985 5.8V15H23.085V8.54H19.685V11.8C19.685 12.52 19.5517 13.12 19.285 13.6C19.0183 14.0667 18.565 14.42 17.925 14.66C17.2983 14.8867 16.4317 15 15.325 15V12.3C15.725 12.3 16.065 12.2267 16.345 12.08C16.6383 11.92 16.785 11.58 16.785 11.06V5.8H25.985ZM38.0859 8.4L28.8059 15.7L28.9059 12.4L38.1859 5.1L38.0859 8.4ZM31.7259 5.8V12.88L28.8059 15.7V5.8H31.7259ZM38.1859 5.1V15H35.2859V7.92L38.1859 5.1ZM48.658 10.2H51.938C52.578 10.2 53.1513 10.2667 53.658 10.4C54.1646 10.5333 54.5646 10.7667 54.858 11.1C55.1513 11.4333 55.298 11.9 55.298 12.5C55.298 13.1933 55.0646 13.7867 54.598 14.28C54.1446 14.76 53.3913 15 52.338 15H48.658V13.1H51.318C51.7446 13.1 52.038 13.0067 52.198 12.82C52.3713 12.62 52.458 12.4067 52.458 12.18C52.458 12.06 52.438 11.9467 52.398 11.84C52.358 11.7333 52.2913 11.64 52.198 11.56C52.118 11.48 52.0046 11.4133 51.858 11.36C51.7113 11.3067 51.5313 11.28 51.318 11.28H48.658V10.2ZM48.658 10.6V9.42H51.118C51.278 9.42 51.4113 9.4 51.518 9.36C51.638 9.30667 51.738 9.24 51.818 9.16C51.898 9.08 51.958 8.98667 51.998 8.88C52.038 8.77333 52.058 8.66667 52.058 8.56C52.058 8.32 51.978 8.12 51.818 7.96C51.658 7.78667 51.4246 7.7 51.118 7.7H48.658V5.8H51.738C52.3113 5.8 52.8313 5.88667 53.298 6.06C53.778 6.22 54.1646 6.48667 54.458 6.86C54.7513 7.22 54.898 7.7 54.898 8.3C54.898 8.82 54.7513 9.25333 54.458 9.6C54.1646 9.93333 53.778 10.1867 53.298 10.36C52.8313 10.52 52.3113 10.6 51.738 10.6H48.658ZM46.918 5.8H49.818V15H46.918V5.8ZM56.5463 10.4C56.5463 9.42667 56.7729 8.58 57.2262 7.86C57.6796 7.14 58.3063 6.58 59.1063 6.18C59.9063 5.78 60.8063 5.58 61.8063 5.58C62.8063 5.58 63.6996 5.78 64.4863 6.18C65.2863 6.58 65.9129 7.14 66.3663 7.86C66.8329 8.58 67.0663 9.42667 67.0663 10.4C67.0663 11.36 66.8329 12.2 66.3663 12.92C65.9129 13.64 65.2863 14.2 64.4863 14.6C63.6996 15 62.8063 15.2 61.8063 15.2C60.8063 15.2 59.9063 15 59.1063 14.6C58.3063 14.2 57.6796 13.64 57.2262 12.92C56.7729 12.2 56.5463 11.36 56.5463 10.4ZM59.6463 10.4C59.6463 10.88 59.7463 11.2933 59.9463 11.64C60.1463 11.9733 60.4063 12.2333 60.7263 12.42C61.0463 12.6067 61.4063 12.7 61.8063 12.7C62.1929 12.7 62.5463 12.6067 62.8663 12.42C63.1996 12.2333 63.4596 11.9733 63.6463 11.64C63.8463 11.2933 63.9463 10.88 63.9463 10.4C63.9463 9.92 63.8463 9.50667 63.6463 9.16C63.4596 8.81333 63.1996 8.54667 62.8663 8.36C62.5463 8.17333 62.1929 8.08 61.8063 8.08C61.4063 8.08 61.0463 8.17333 60.7263 8.36C60.4063 8.54667 60.1463 8.81333 59.9463 9.16C59.7463 9.50667 59.6463 9.92 59.6463 10.4ZM78.2031 8.4L68.9231 15.7L69.0231 12.4L78.3031 5.1L78.2031 8.4ZM71.8431 5.8V12.88L68.9231 15.7V5.8H71.8431ZM78.3031 5.1V15H75.4031V7.92L78.3031 5.1ZM70.4831 1.1H72.4631C72.4631 1.32667 72.5165 1.53333 72.6231 1.72C72.7298 1.89333 72.8831 2.03333 73.0831 2.14C73.2831 2.23333 73.5098 2.28 73.7631 2.28C74.0165 2.28 74.2431 2.23333 74.4431 2.14C74.6431 2.03333 74.7965 1.89333 74.9031 1.72C75.0098 1.53333 75.0631 1.32667 75.0631 1.1H77.0431C77.0431 1.63333 76.9165 2.12667 76.6631 2.58C76.4098 3.02 76.0365 3.37333 75.5431 3.64C75.0631 3.89333 74.4698 4.02 73.7631 4.02C73.0698 4.02 72.4765 3.89333 71.9831 3.64C71.4898 3.37333 71.1165 3.02 70.8631 2.58C70.6098 2.12667 70.4831 1.63333 70.4831 1.1ZM86.5391 9.44L84.3391 14.4L81.4191 13.78L86.5391 5.1L91.6591 13.78L88.7391 14.4L86.5391 9.44ZM89.8991 15H83.2791V16.8H80.3391V12.62H92.7391V16.8H89.8991V15ZM104.141 8.4L94.8606 15.7L94.9606 12.4L104.241 5.1L104.141 8.4ZM97.7806 5.8V12.88L94.8606 15.7V5.8H97.7806ZM104.241 5.1V15H101.341V7.92L104.241 5.1ZM105.577 5.8H112.037V8.3H105.577V5.8ZM107.357 6.2H110.257V15H107.357V6.2ZM114.184 11.04V9.36H119.384C119.33 8.98667 119.23 8.67333 119.084 8.42C118.95 8.16667 118.757 7.97333 118.504 7.84C118.264 7.69333 117.964 7.62 117.604 7.62C117.19 7.62 116.83 7.71333 116.524 7.9C116.23 8.07333 115.997 8.33333 115.824 8.68C115.65 9.01333 115.564 9.42667 115.564 9.92L115.524 10.4C115.524 11.0267 115.617 11.5333 115.804 11.92C116.004 12.3067 116.264 12.5867 116.584 12.76C116.917 12.9333 117.277 13.02 117.664 13.02C118.037 13.02 118.364 12.9733 118.644 12.88C118.937 12.7867 119.19 12.6533 119.404 12.48C119.617 12.2933 119.797 12.0733 119.944 11.82L122.644 12.48C122.337 13.04 121.97 13.5267 121.544 13.94C121.117 14.34 120.59 14.6533 119.964 14.88C119.35 15.0933 118.597 15.2 117.704 15.2C116.597 15.2 115.65 14.9933 114.864 14.58C114.09 14.1667 113.497 13.6 113.084 12.88C112.684 12.1467 112.484 11.32 112.484 10.4C112.484 10.2267 112.49 10.06 112.504 9.9C112.517 9.74 112.537 9.58 112.564 9.42C112.697 8.66 112.97 7.99333 113.384 7.42C113.81 6.84667 114.377 6.4 115.084 6.08C115.804 5.76 116.664 5.6 117.664 5.6C118.744 5.6 119.65 5.78667 120.384 6.16C121.117 6.53333 121.67 7.06667 122.044 7.76C122.43 8.45333 122.624 9.28667 122.624 10.26C122.624 10.34 122.624 10.4533 122.624 10.6C122.624 10.7333 122.61 10.88 122.584 11.04H114.184ZM133.064 10.4C133.064 10.8933 133.17 11.32 133.384 11.68C133.597 12.0267 133.89 12.3 134.264 12.5C134.65 12.7 135.064 12.8 135.504 12.8C135.877 12.8 136.23 12.7467 136.564 12.64C136.91 12.52 137.224 12.36 137.504 12.16C137.797 11.96 138.037 11.7133 138.224 11.42V14.36C137.904 14.6133 137.504 14.82 137.024 14.98C136.544 15.1267 135.957 15.2 135.264 15.2C134.25 15.2 133.337 15 132.524 14.6C131.724 14.2 131.09 13.64 130.624 12.92C130.17 12.2 129.944 11.36 129.944 10.4C129.944 9.42667 130.17 8.58667 130.624 7.88C131.09 7.16 131.724 6.6 132.524 6.2C133.337 5.8 134.25 5.6 135.264 5.6C135.957 5.6 136.544 5.68 137.024 5.84C137.504 5.98667 137.904 6.17333 138.224 6.4V9.36C138.037 9.06667 137.79 8.82 137.484 8.62C137.19 8.42 136.87 8.26667 136.524 8.16C136.177 8.05333 135.837 8 135.504 8C135.064 8 134.65 8.10667 134.264 8.32C133.89 8.53333 133.597 8.82 133.384 9.18C133.17 9.54 133.064 9.94667 133.064 10.4ZM155.523 5.8V15H152.623V8.42H149.323V15H146.403V5.8H155.523ZM157.367 10.4C157.367 9.42667 157.593 8.58 158.047 7.86C158.5 7.14 159.127 6.58 159.927 6.18C160.727 5.78 161.627 5.58 162.627 5.58C163.627 5.58 164.52 5.78 165.307 6.18C166.107 6.58 166.733 7.14 167.187 7.86C167.653 8.58 167.887 9.42667 167.887 10.4C167.887 11.36 167.653 12.2 167.187 12.92C166.733 13.64 166.107 14.2 165.307 14.6C164.52 15 163.627 15.2 162.627 15.2C161.627 15.2 160.727 15 159.927 14.6C159.127 14.2 158.5 13.64 158.047 12.92C157.593 12.2 157.367 11.36 157.367 10.4ZM160.467 10.4C160.467 10.88 160.567 11.2933 160.767 11.64C160.967 11.9733 161.227 12.2333 161.547 12.42C161.867 12.6067 162.227 12.7 162.627 12.7C163.013 12.7 163.367 12.6067 163.687 12.42C164.02 12.2333 164.28 11.9733 164.467 11.64C164.667 11.2933 164.767 10.88 164.767 10.4C164.767 9.92 164.667 9.50667 164.467 9.16C164.28 8.81333 164.02 8.54667 163.687 8.36C163.367 8.17333 163.013 8.08 162.627 8.08C162.227 8.08 161.867 8.17333 161.547 8.36C161.227 8.54667 160.967 8.81333 160.767 9.16C160.567 9.50667 160.467 9.92 160.467 10.4ZM178.523 15L177.263 8.7L178.783 5.1L181.563 15H178.523ZM174.463 12.38L178.783 5.1L178.983 9.18L175.063 15.62L174.463 12.38ZM175.063 15.62L171.203 9.18L171.403 5.1L175.663 12.38L175.063 15.62ZM168.623 15L171.403 5.1L172.923 8.7L171.663 15H168.623ZM182.308 10.4C182.308 9.42667 182.535 8.58 182.988 7.86C183.441 7.14 184.068 6.58 184.868 6.18C185.668 5.78 186.568 5.58 187.568 5.58C188.568 5.58 189.461 5.78 190.248 6.18C191.048 6.58 191.675 7.14 192.128 7.86C192.595 8.58 192.828 9.42667 192.828 10.4C192.828 11.36 192.595 12.2 192.128 12.92C191.675 13.64 191.048 14.2 190.248 14.6C189.461 15 188.568 15.2 187.568 15.2C186.568 15.2 185.668 15 184.868 14.6C184.068 14.2 183.441 13.64 182.988 12.92C182.535 12.2 182.308 11.36 182.308 10.4ZM185.408 10.4C185.408 10.88 185.508 11.2933 185.708 11.64C185.908 11.9733 186.168 12.2333 186.488 12.42C186.808 12.6067 187.168 12.7 187.568 12.7C187.955 12.7 188.308 12.6067 188.628 12.42C188.961 12.2333 189.221 11.9733 189.408 11.64C189.608 11.2933 189.708 10.88 189.708 10.4C189.708 9.92 189.608 9.50667 189.408 9.16C189.221 8.81333 188.961 8.54667 188.628 8.36C188.308 8.17333 187.955 8.08 187.568 8.08C187.168 8.08 186.808 8.17333 186.488 8.36C186.168 8.54667 185.908 8.81333 185.708 9.16C185.508 9.50667 185.408 9.92 185.408 10.4ZM203.285 12.5H206.085V5.8H208.985V12.5H210.585V17.04H207.765V15H194.645V5.8H197.565V12.5H200.385V5.8H203.285V12.5ZM212.304 5.8H215.324V15H212.304V5.8ZM214.664 10.86V8.9H217.524C218.471 8.9 219.264 9.13333 219.904 9.6C220.558 10.0533 220.884 10.7733 220.884 11.76C220.884 12.4133 220.738 12.9867 220.444 13.48C220.151 13.9733 219.751 14.3533 219.244 14.62C218.738 14.8733 218.164 15 217.524 15H214.664V12.66H216.984C217.211 12.66 217.398 12.6267 217.544 12.56C217.704 12.4933 217.824 12.3933 217.904 12.26C217.998 12.1133 218.044 11.9467 218.044 11.76C218.044 11.4933 217.951 11.28 217.764 11.12C217.591 10.9467 217.331 10.86 216.984 10.86H214.664ZM224.003 11.28V9.02H229.403V11.28H224.003ZM223.063 5.8H225.983V15H223.063V5.8ZM227.143 10.4C227.143 9.42667 227.369 8.58 227.823 7.86C228.289 7.14 228.916 6.58 229.703 6.18C230.503 5.78 231.403 5.58 232.403 5.58C233.403 5.58 234.296 5.78 235.083 6.18C235.883 6.58 236.509 7.14 236.963 7.86C237.429 8.58 237.663 9.42667 237.663 10.4C237.663 11.36 237.429 12.2 236.963 12.92C236.509 13.64 235.883 14.2 235.083 14.6C234.296 15 233.403 15.2 232.403 15.2C231.403 15.2 230.503 15 229.703 14.6C228.916 14.2 228.289 13.64 227.823 12.92C227.369 12.2 227.143 11.36 227.143 10.4ZM230.263 10.4C230.263 10.88 230.356 11.2933 230.543 11.64C230.743 11.9733 231.003 12.2333 231.323 12.42C231.643 12.6067 232.003 12.7 232.403 12.7C232.789 12.7 233.143 12.6067 233.463 12.42C233.796 12.2333 234.056 11.9733 234.243 11.64C234.443 11.2933 234.543 10.88 234.543 10.4C234.543 9.92 234.443 9.50667 234.243 9.16C234.056 8.81333 233.796 8.54667 233.463 8.36C233.143 8.17333 232.789 8.08 232.403 8.08C232.003 8.08 231.643 8.17333 231.323 8.36C231.003 8.54667 230.743 8.81333 230.543 9.16C230.356 9.50667 230.263 9.92 230.263 10.4ZM239.649 13.64C239.649 13.1333 239.829 12.7 240.189 12.34C240.549 11.98 240.995 11.8 241.529 11.8C242.089 11.8 242.542 11.98 242.889 12.34C243.235 12.7 243.409 13.1333 243.409 13.64C243.409 14.1467 243.235 14.58 242.889 14.94C242.542 15.3 242.089 15.48 241.529 15.48C240.995 15.48 240.549 15.3 240.189 14.94C239.829 14.58 239.649 14.1467 239.649 13.64ZM239.649 6.16C239.649 5.65333 239.829 5.22 240.189 4.86C240.549 4.5 240.995 4.32 241.529 4.32C242.089 4.32 242.542 4.5 242.889 4.86C243.235 5.22 243.409 5.65333 243.409 6.16C243.409 6.66667 243.235 7.10667 242.889 7.48C242.542 7.84 242.089 8.02 241.529 8.02C240.995 8.02 240.549 7.84 240.189 7.48C239.829 7.10667 239.649 6.66667 239.649 6.16Z" fill="black"/>
<path d="M13.5461 4.52L0.726094 15.7L0.826094 11.48L13.6461 0.3L13.5461 4.52ZM3.96609 0.999999V12.38L0.726094 15.7V0.999999H3.96609ZM13.6461 0.3V15H10.3861V3.74L13.6461 0.3ZM25.985 5.8V15H23.085V8.54H19.685V11.8C19.685 12.52 19.5517 13.12 19.285 13.6C19.0183 14.0667 18.565 14.42 17.925 14.66C17.2983 14.8867 16.4317 15 15.325 15V12.3C15.725 12.3 16.065 12.2267 16.345 12.08C16.6383 11.92 16.785 11.58 16.785 11.06V5.8H25.985ZM38.0859 8.4L28.8059 15.7L28.9059 12.4L38.1859 5.1L38.0859 8.4ZM31.7259 5.8V12.88L28.8059 15.7V5.8H31.7259ZM38.1859 5.1V15H35.2859V7.92L38.1859 5.1ZM48.658 10.2H51.938C52.578 10.2 53.1513 10.2667 53.658 10.4C54.1646 10.5333 54.5646 10.7667 54.858 11.1C55.1513 11.4333 55.298 11.9 55.298 12.5C55.298 13.1933 55.0646 13.7867 54.598 14.28C54.1446 14.76 53.3913 15 52.338 15H48.658V13.1H51.318C51.7446 13.1 52.038 13.0067 52.198 12.82C52.3713 12.62 52.458 12.4067 52.458 12.18C52.458 12.06 52.438 11.9467 52.398 11.84C52.358 11.7333 52.2913 11.64 52.198 11.56C52.118 11.48 52.0046 11.4133 51.858 11.36C51.7113 11.3067 51.5313 11.28 51.318 11.28H48.658V10.2ZM48.658 10.6V9.42H51.118C51.278 9.42 51.4113 9.4 51.518 9.36C51.638 9.30667 51.738 9.24 51.818 9.16C51.898 9.08 51.958 8.98667 51.998 8.88C52.038 8.77333 52.058 8.66667 52.058 8.56C52.058 8.32 51.978 8.12 51.818 7.96C51.658 7.78667 51.4246 7.7 51.118 7.7H48.658V5.8H51.738C52.3113 5.8 52.8313 5.88667 53.298 6.06C53.778 6.22 54.1646 6.48667 54.458 6.86C54.7513 7.22 54.898 7.7 54.898 8.3C54.898 8.82 54.7513 9.25333 54.458 9.6C54.1646 9.93333 53.778 10.1867 53.298 10.36C52.8313 10.52 52.3113 10.6 51.738 10.6H48.658ZM46.918 5.8H49.818V15H46.918V5.8ZM56.5463 10.4C56.5463 9.42667 56.7729 8.58 57.2262 7.86C57.6796 7.14 58.3063 6.58 59.1063 6.18C59.9063 5.78 60.8063 5.58 61.8063 5.58C62.8063 5.58 63.6996 5.78 64.4863 6.18C65.2863 6.58 65.9129 7.14 66.3663 7.86C66.8329 8.58 67.0663 9.42667 67.0663 10.4C67.0663 11.36 66.8329 12.2 66.3663 12.92C65.9129 13.64 65.2863 14.2 64.4863 14.6C63.6996 15 62.8063 15.2 61.8063 15.2C60.8063 15.2 59.9063 15 59.1063 14.6C58.3063 14.2 57.6796 13.64 57.2262 12.92C56.7729 12.2 56.5463 11.36 56.5463 10.4ZM59.6463 10.4C59.6463 10.88 59.7463 11.2933 59.9463 11.64C60.1463 11.9733 60.4063 12.2333 60.7263 12.42C61.0463 12.6067 61.4063 12.7 61.8063 12.7C62.1929 12.7 62.5463 12.6067 62.8663 12.42C63.1996 12.2333 63.4596 11.9733 63.6463 11.64C63.8463 11.2933 63.9463 10.88 63.9463 10.4C63.9463 9.92 63.8463 9.50667 63.6463 9.16C63.4596 8.81333 63.1996 8.54667 62.8663 8.36C62.5463 8.17333 62.1929 8.08 61.8063 8.08C61.4063 8.08 61.0463 8.17333 60.7263 8.36C60.4063 8.54667 60.1463 8.81333 59.9463 9.16C59.7463 9.50667 59.6463 9.92 59.6463 10.4ZM78.2031 8.4L68.9231 15.7L69.0231 12.4L78.3031 5.1L78.2031 8.4ZM71.8431 5.8V12.88L68.9231 15.7V5.8H71.8431ZM78.3031 5.1V15H75.4031V7.92L78.3031 5.1ZM70.4831 1.1H72.4631C72.4631 1.32667 72.5165 1.53333 72.6231 1.72C72.7298 1.89333 72.8831 2.03333 73.0831 2.14C73.2831 2.23333 73.5098 2.28 73.7631 2.28C74.0165 2.28 74.2431 2.23333 74.4431 2.14C74.6431 2.03333 74.7965 1.89333 74.9031 1.72C75.0098 1.53333 75.0631 1.32667 75.0631 1.1H77.0431C77.0431 1.63333 76.9165 2.12667 76.6631 2.58C76.4098 3.02 76.0365 3.37333 75.5431 3.64C75.0631 3.89333 74.4698 4.02 73.7631 4.02C73.0698 4.02 72.4765 3.89333 71.9831 3.64C71.4898 3.37333 71.1165 3.02 70.8631 2.58C70.6098 2.12667 70.4831 1.63333 70.4831 1.1ZM86.5391 9.44L84.3391 14.4L81.4191 13.78L86.5391 5.1L91.6591 13.78L88.7391 14.4L86.5391 9.44ZM89.8991 15H83.2791V16.8H80.3391V12.62H92.7391V16.8H89.8991V15ZM104.141 8.4L94.8606 15.7L94.9606 12.4L104.241 5.1L104.141 8.4ZM97.7806 5.8V12.88L94.8606 15.7V5.8H97.7806ZM104.241 5.1V15H101.341V7.92L104.241 5.1ZM105.577 5.8H112.037V8.3H105.577V5.8ZM107.357 6.2H110.257V15H107.357V6.2ZM114.184 11.04V9.36H119.384C119.33 8.98667 119.23 8.67333 119.084 8.42C118.95 8.16667 118.757 7.97333 118.504 7.84C118.264 7.69333 117.964 7.62 117.604 7.62C117.19 7.62 116.83 7.71333 116.524 7.9C116.23 8.07333 115.997 8.33333 115.824 8.68C115.65 9.01333 115.564 9.42667 115.564 9.92L115.524 10.4C115.524 11.0267 115.617 11.5333 115.804 11.92C116.004 12.3067 116.264 12.5867 116.584 12.76C116.917 12.9333 117.277 13.02 117.664 13.02C118.037 13.02 118.364 12.9733 118.644 12.88C118.937 12.7867 119.19 12.6533 119.404 12.48C119.617 12.2933 119.797 12.0733 119.944 11.82L122.644 12.48C122.337 13.04 121.97 13.5267 121.544 13.94C121.117 14.34 120.59 14.6533 119.964 14.88C119.35 15.0933 118.597 15.2 117.704 15.2C116.597 15.2 115.65 14.9933 114.864 14.58C114.09 14.1667 113.497 13.6 113.084 12.88C112.684 12.1467 112.484 11.32 112.484 10.4C112.484 10.2267 112.49 10.06 112.504 9.9C112.517 9.74 112.537 9.58 112.564 9.42C112.697 8.66 112.97 7.99333 113.384 7.42C113.81 6.84667 114.377 6.4 115.084 6.08C115.804 5.76 116.664 5.6 117.664 5.6C118.744 5.6 119.65 5.78667 120.384 6.16C121.117 6.53333 121.67 7.06667 122.044 7.76C122.43 8.45333 122.624 9.28667 122.624 10.26C122.624 10.34 122.624 10.4533 122.624 10.6C122.624 10.7333 122.61 10.88 122.584 11.04H114.184ZM133.064 10.4C133.064 10.8933 133.17 11.32 133.384 11.68C133.597 12.0267 133.89 12.3 134.264 12.5C134.65 12.7 135.064 12.8 135.504 12.8C135.877 12.8 136.23 12.7467 136.564 12.64C136.91 12.52 137.224 12.36 137.504 12.16C137.797 11.96 138.037 11.7133 138.224 11.42V14.36C137.904 14.6133 137.504 14.82 137.024 14.98C136.544 15.1267 135.957 15.2 135.264 15.2C134.25 15.2 133.337 15 132.524 14.6C131.724 14.2 131.09 13.64 130.624 12.92C130.17 12.2 129.944 11.36 129.944 10.4C129.944 9.42667 130.17 8.58667 130.624 7.88C131.09 7.16 131.724 6.6 132.524 6.2C133.337 5.8 134.25 5.6 135.264 5.6C135.957 5.6 136.544 5.68 137.024 5.84C137.504 5.98667 137.904 6.17333 138.224 6.4V9.36C138.037 9.06667 137.79 8.82 137.484 8.62C137.19 8.42 136.87 8.26667 136.524 8.16C136.177 8.05333 135.837 8 135.504 8C135.064 8 134.65 8.10667 134.264 8.32C133.89 8.53333 133.597 8.82 133.384 9.18C133.17 9.54 133.064 9.94667 133.064 10.4ZM155.523 5.8V15H152.623V8.42H149.323V15H146.403V5.8H155.523ZM157.367 10.4C157.367 9.42667 157.593 8.58 158.047 7.86C158.5 7.14 159.127 6.58 159.927 6.18C160.727 5.78 161.627 5.58 162.627 5.58C163.627 5.58 164.52 5.78 165.307 6.18C166.107 6.58 166.733 7.14 167.187 7.86C167.653 8.58 167.887 9.42667 167.887 10.4C167.887 11.36 167.653 12.2 167.187 12.92C166.733 13.64 166.107 14.2 165.307 14.6C164.52 15 163.627 15.2 162.627 15.2C161.627 15.2 160.727 15 159.927 14.6C159.127 14.2 158.5 13.64 158.047 12.92C157.593 12.2 157.367 11.36 157.367 10.4ZM160.467 10.4C160.467 10.88 160.567 11.2933 160.767 11.64C160.967 11.9733 161.227 12.2333 161.547 12.42C161.867 12.6067 162.227 12.7 162.627 12.7C163.013 12.7 163.367 12.6067 163.687 12.42C164.02 12.2333 164.28 11.9733 164.467 11.64C164.667 11.2933 164.767 10.88 164.767 10.4C164.767 9.92 164.667 9.50667 164.467 9.16C164.28 8.81333 164.02 8.54667 163.687 8.36C163.367 8.17333 163.013 8.08 162.627 8.08C162.227 8.08 161.867 8.17333 161.547 8.36C161.227 8.54667 160.967 8.81333 160.767 9.16C160.567 9.50667 160.467 9.92 160.467 10.4ZM178.523 15L177.263 8.7L178.783 5.1L181.563 15H178.523ZM174.463 12.38L178.783 5.1L178.983 9.18L175.063 15.62L174.463 12.38ZM175.063 15.62L171.203 9.18L171.403 5.1L175.663 12.38L175.063 15.62ZM168.623 15L171.403 5.1L172.923 8.7L171.663 15H168.623ZM182.308 10.4C182.308 9.42667 182.535 8.58 182.988 7.86C183.441 7.14 184.068 6.58 184.868 6.18C185.668 5.78 186.568 5.58 187.568 5.58C188.568 5.58 189.461 5.78 190.248 6.18C191.048 6.58 191.675 7.14 192.128 7.86C192.595 8.58 192.828 9.42667 192.828 10.4C192.828 11.36 192.595 12.2 192.128 12.92C191.675 13.64 191.048 14.2 190.248 14.6C189.461 15 188.568 15.2 187.568 15.2C186.568 15.2 185.668 15 184.868 14.6C184.068 14.2 183.441 13.64 182.988 12.92C182.535 12.2 182.308 11.36 182.308 10.4ZM185.408 10.4C185.408 10.88 185.508 11.2933 185.708 11.64C185.908 11.9733 186.168 12.2333 186.488 12.42C186.808 12.6067 187.168 12.7 187.568 12.7C187.955 12.7 188.308 12.6067 188.628 12.42C188.961 12.2333 189.221 11.9733 189.408 11.64C189.608 11.2933 189.708 10.88 189.708 10.4C189.708 9.92 189.608 9.50667 189.408 9.16C189.221 8.81333 188.961 8.54667 188.628 8.36C188.308 8.17333 187.955 8.08 187.568 8.08C187.168 8.08 186.808 8.17333 186.488 8.36C186.168 8.54667 185.908 8.81333 185.708 9.16C185.508 9.50667 185.408 9.92 185.408 10.4ZM203.285 12.5H206.085V5.8H208.985V12.5H210.585V17.04H207.765V15H194.645V5.8H197.565V12.5H200.385V5.8H203.285V12.5ZM212.304 5.8H215.324V15H212.304V5.8ZM214.664 10.86V8.9H217.524C218.471 8.9 219.264 9.13333 219.904 9.6C220.558 10.0533 220.884 10.7733 220.884 11.76C220.884 12.4133 220.738 12.9867 220.444 13.48C220.151 13.9733 219.751 14.3533 219.244 14.62C218.738 14.8733 218.164 15 217.524 15H214.664V12.66H216.984C217.211 12.66 217.398 12.6267 217.544 12.56C217.704 12.4933 217.824 12.3933 217.904 12.26C217.998 12.1133 218.044 11.9467 218.044 11.76C218.044 11.4933 217.951 11.28 217.764 11.12C217.591 10.9467 217.331 10.86 216.984 10.86H214.664ZM224.003 11.28V9.02H229.403V11.28H224.003ZM223.063 5.8H225.983V15H223.063V5.8ZM227.143 10.4C227.143 9.42667 227.369 8.58 227.823 7.86C228.289 7.14 228.916 6.58 229.703 6.18C230.503 5.78 231.403 5.58 232.403 5.58C233.403 5.58 234.296 5.78 235.083 6.18C235.883 6.58 236.509 7.14 236.963 7.86C237.429 8.58 237.663 9.42667 237.663 10.4C237.663 11.36 237.429 12.2 236.963 12.92C236.509 13.64 235.883 14.2 235.083 14.6C234.296 15 233.403 15.2 232.403 15.2C231.403 15.2 230.503 15 229.703 14.6C228.916 14.2 228.289 13.64 227.823 12.92C227.369 12.2 227.143 11.36 227.143 10.4ZM230.263 10.4C230.263 10.88 230.356 11.2933 230.543 11.64C230.743 11.9733 231.003 12.2333 231.323 12.42C231.643 12.6067 232.003 12.7 232.403 12.7C232.789 12.7 233.143 12.6067 233.463 12.42C233.796 12.2333 234.056 11.9733 234.243 11.64C234.443 11.2933 234.543 10.88 234.543 10.4C234.543 9.92 234.443 9.50667 234.243 9.16C234.056 8.81333 233.796 8.54667 233.463 8.36C233.143 8.17333 232.789 8.08 232.403 8.08C232.003 8.08 231.643 8.17333 231.323 8.36C231.003 8.54667 230.743 8.81333 230.543 9.16C230.356 9.50667 230.263 9.92 230.263 10.4ZM239.649 13.64C239.649 13.1333 239.829 12.7 240.189 12.34C240.549 11.98 240.995 11.8 241.529 11.8C242.089 11.8 242.542 11.98 242.889 12.34C243.235 12.7 243.409 13.1333 243.409 13.64C243.409 14.1467 243.235 14.58 242.889 14.94C242.542 15.3 242.089 15.48 241.529 15.48C240.995 15.48 240.549 15.3 240.189 14.94C239.829 14.58 239.649 14.1467 239.649 13.64ZM239.649 6.16C239.649 5.65333 239.829 5.22 240.189 4.86C240.549 4.5 240.995 4.32 241.529 4.32C242.089 4.32 242.542 4.5 242.889 4.86C243.235 5.22 243.409 5.65333 243.409 6.16C243.409 6.66667 243.235 7.10667 242.889 7.48C242.542 7.84 242.089 8.02 241.529 8.02C240.995 8.02 240.549 7.84 240.189 7.48C239.829 7.10667 239.649 6.66667 239.649 6.16Z" fill="#596574"/>
</svg>
