<svg width="277" height="35" viewBox="0 0 277 35" fill="none" xmlns="http://www.w3.org/2000/svg">
<path d="M16.1702 4.378L15.4422 11H14.2522L15.4422 0.71L19.3622 7.808L23.2822 0.71L24.4722 11H23.2822L22.5542 4.378L19.3622 10.09L16.1702 4.378ZM26.4802 9.012C26.4802 9.25467 26.5362 9.46467 26.6482 9.642C26.7695 9.81933 26.9328 9.95467 27.1382 10.048C27.3528 10.132 27.5955 10.174 27.8662 10.174C28.2115 10.174 28.5195 10.104 28.7902 9.964C29.0702 9.824 29.2895 9.628 29.4482 9.376C29.6162 9.11467 29.7002 8.816 29.7002 8.48L29.9242 9.32C29.9242 9.73067 29.7982 10.0713 29.5462 10.342C29.3035 10.6127 29.0002 10.8133 28.6362 10.944C28.2815 11.0747 27.9268 11.14 27.5722 11.14C27.1802 11.14 26.8115 11.0607 26.4662 10.902C26.1302 10.734 25.8595 10.496 25.6542 10.188C25.4488 9.88 25.3462 9.50667 25.3462 9.068C25.3462 8.44267 25.5655 7.94333 26.0042 7.57C26.4522 7.18733 27.0728 6.996 27.8662 6.996C28.3328 6.996 28.7202 7.052 29.0282 7.164C29.3455 7.26667 29.5975 7.388 29.7842 7.528C29.9708 7.65867 30.0968 7.766 30.1622 7.85V8.508C29.8355 8.284 29.4995 8.12533 29.1542 8.032C28.8088 7.92933 28.4402 7.878 28.0482 7.878C27.6842 7.878 27.3855 7.92467 27.1522 8.018C26.9282 8.11133 26.7602 8.242 26.6482 8.41C26.5362 8.578 26.4802 8.77867 26.4802 9.012ZM26.3122 6.044L25.7662 5.218C26.0088 5.04067 26.3402 4.86333 26.7602 4.686C27.1895 4.50867 27.7028 4.42 28.3002 4.42C28.8042 4.42 29.2428 4.49933 29.6162 4.658C29.9988 4.80733 30.2928 5.02667 30.4982 5.316C30.7128 5.60533 30.8202 5.96 30.8202 6.38V11H29.7002V6.534C29.7002 6.31 29.6628 6.128 29.5882 5.988C29.5135 5.83867 29.4062 5.722 29.2662 5.638C29.1355 5.554 28.9815 5.49333 28.8042 5.456C28.6268 5.41867 28.4402 5.4 28.2442 5.4C27.9268 5.4 27.6375 5.43733 27.3762 5.512C27.1242 5.58667 26.9095 5.67533 26.7322 5.778C26.5548 5.88067 26.4148 5.96933 26.3122 6.044ZM41.4364 6.94V11H40.3164V7.08C40.3164 6.52933 40.2137 6.12333 40.0084 5.862C39.8124 5.60067 39.5044 5.47 39.0844 5.47C38.7764 5.47 38.5104 5.53533 38.2864 5.666C38.0624 5.78733 37.8897 5.96933 37.7684 6.212C37.6471 6.45467 37.5864 6.744 37.5864 7.08V11H36.4664V7.08C36.4664 6.52933 36.3637 6.12333 36.1584 5.862C35.9624 5.60067 35.6544 5.47 35.2344 5.47C34.9264 5.47 34.6604 5.53533 34.4364 5.666C34.2124 5.78733 34.0397 5.96933 33.9184 6.212C33.7971 6.45467 33.7364 6.744 33.7364 7.08V11H32.6164V4.56H33.7364V5.498C33.9324 5.134 34.1751 4.86333 34.4644 4.686C34.7631 4.50867 35.1131 4.42 35.5144 4.42C35.9624 4.42 36.3451 4.52733 36.6624 4.742C36.9891 4.94733 37.2271 5.24133 37.3764 5.624C37.6004 5.22267 37.8804 4.924 38.2164 4.728C38.5524 4.52267 38.9351 4.42 39.3644 4.42C39.8031 4.42 40.1764 4.518 40.4844 4.714C40.7924 4.91 41.0257 5.19933 41.1844 5.582C41.3524 5.95533 41.4364 6.408 41.4364 6.94ZM43.9442 9.012C43.9442 9.25467 44.0002 9.46467 44.1122 9.642C44.2336 9.81933 44.3969 9.95467 44.6022 10.048C44.8169 10.132 45.0596 10.174 45.3302 10.174C45.6756 10.174 45.9836 10.104 46.2542 9.964C46.5342 9.824 46.7536 9.628 46.9122 9.376C47.0802 9.11467 47.1642 8.816 47.1642 8.48L47.3882 9.32C47.3882 9.73067 47.2622 10.0713 47.0102 10.342C46.7676 10.6127 46.4642 10.8133 46.1002 10.944C45.7456 11.0747 45.3909 11.14 45.0362 11.14C44.6442 11.14 44.2756 11.0607 43.9302 10.902C43.5942 10.734 43.3236 10.496 43.1182 10.188C42.9129 9.88 42.8102 9.50667 42.8102 9.068C42.8102 8.44267 43.0296 7.94333 43.4682 7.57C43.9162 7.18733 44.5369 6.996 45.3302 6.996C45.7969 6.996 46.1842 7.052 46.4922 7.164C46.8096 7.26667 47.0616 7.388 47.2482 7.528C47.4349 7.65867 47.5609 7.766 47.6262 7.85V8.508C47.2996 8.284 46.9636 8.12533 46.6182 8.032C46.2729 7.92933 45.9042 7.878 45.5122 7.878C45.1482 7.878 44.8496 7.92467 44.6162 8.018C44.3922 8.11133 44.2242 8.242 44.1122 8.41C44.0002 8.578 43.9442 8.77867 43.9442 9.012ZM43.7762 6.044L43.2302 5.218C43.4729 5.04067 43.8042 4.86333 44.2242 4.686C44.6536 4.50867 45.1669 4.42 45.7642 4.42C46.2682 4.42 46.7069 4.49933 47.0802 4.658C47.4629 4.80733 47.7569 5.02667 47.9622 5.316C48.1769 5.60533 48.2842 5.96 48.2842 6.38V11H47.1642V6.534C47.1642 6.31 47.1269 6.128 47.0522 5.988C46.9776 5.83867 46.8702 5.722 46.7302 5.638C46.5996 5.554 46.4456 5.49333 46.2682 5.456C46.0909 5.41867 45.9042 5.4 45.7082 5.4C45.3909 5.4 45.1016 5.43733 44.8402 5.512C44.5882 5.58667 44.3736 5.67533 44.1962 5.778C44.0189 5.88067 43.8789 5.96933 43.7762 6.044ZM50.1505 1.2H51.3405V11H50.1505V1.2ZM55.1905 1.2H56.6605L52.4185 5.792L56.8705 11H55.4005L50.9765 5.82L55.1905 1.2ZM59.0165 4.56V11H57.8965V4.56H59.0165ZM60.9625 5.792C60.8131 5.68 60.6778 5.60067 60.5565 5.554C60.4351 5.498 60.2811 5.47 60.0945 5.47C59.8145 5.47 59.5951 5.54 59.4365 5.68C59.2778 5.82 59.1658 6.01133 59.1005 6.254C59.0445 6.49667 59.0165 6.772 59.0165 7.08H58.5125C58.5125 6.56667 58.6011 6.114 58.7785 5.722C58.9651 5.32067 59.2031 5.00333 59.4925 4.77C59.7818 4.53667 60.0758 4.42 60.3745 4.42C60.6078 4.42 60.8225 4.45267 61.0185 4.518C61.2238 4.574 61.4105 4.69067 61.5785 4.868L60.9625 5.792ZM62.5953 1.9C62.5953 1.68533 62.67 1.50333 62.8193 1.354C62.978 1.20467 63.16 1.13 63.3653 1.13C63.58 1.13 63.762 1.20467 63.9113 1.354C64.0606 1.50333 64.1353 1.68533 64.1353 1.9C64.1353 2.10533 64.0606 2.28733 63.9113 2.446C63.762 2.59533 63.58 2.67 63.3653 2.67C63.16 2.67 62.978 2.59533 62.8193 2.446C62.67 2.28733 62.5953 2.10533 62.5953 1.9ZM62.8053 4.56H63.9253V11H62.8053V4.56ZM66.398 9.026C66.5287 9.222 66.678 9.404 66.846 9.572C67.014 9.74 67.2054 9.87533 67.42 9.978C67.644 10.0713 67.8867 10.118 68.148 10.118C68.4654 10.118 68.7127 10.048 68.89 9.908C69.0767 9.75867 69.17 9.558 69.17 9.306C69.17 9.082 69.0954 8.89533 68.946 8.746C68.806 8.58733 68.624 8.45667 68.4 8.354C68.176 8.242 67.938 8.13933 67.686 8.046C67.406 7.934 67.1214 7.80333 66.832 7.654C66.552 7.49533 66.314 7.29467 66.118 7.052C65.9314 6.8 65.838 6.48733 65.838 6.114C65.838 5.73133 65.936 5.414 66.132 5.162C66.3374 4.91 66.5987 4.72333 66.916 4.602C67.2427 4.48067 67.5787 4.42 67.924 4.42C68.2694 4.42 68.5914 4.476 68.89 4.588C69.198 4.7 69.4687 4.84933 69.702 5.036C69.9354 5.22267 70.1174 5.43733 70.248 5.68L69.352 6.254C69.1747 6.01133 68.9507 5.81067 68.68 5.652C68.4187 5.49333 68.12 5.414 67.784 5.414C67.5507 5.414 67.35 5.46533 67.182 5.568C67.014 5.67067 66.93 5.82933 66.93 6.044C66.93 6.212 66.9954 6.36133 67.126 6.492C67.2567 6.62267 67.4247 6.73933 67.63 6.842C67.8354 6.94467 68.05 7.04267 68.274 7.136C68.6474 7.28533 68.988 7.44867 69.296 7.626C69.604 7.794 69.8467 7.99933 70.024 8.242C70.2107 8.48467 70.304 8.79733 70.304 9.18C70.304 9.74 70.0987 10.2067 69.688 10.58C69.2867 10.9533 68.7547 11.14 68.092 11.14C67.6627 11.14 67.2754 11.0653 66.93 10.916C66.5847 10.7573 66.2907 10.5567 66.048 10.314C65.8147 10.0713 65.6374 9.824 65.516 9.572L66.398 9.026ZM74.7958 8.2V7.15H77.5958V8.2H74.7958ZM87.8225 4.56L83.6225 14.08H82.3625L84.1265 10.09L81.6625 4.56H82.9925L85.0365 9.6L84.5745 9.544L86.5625 4.56H87.8225ZM91.4445 6.492L89.5545 10.58H88.2945L91.4445 4.07L94.5945 10.58H93.3345L91.4445 6.492ZM94.3145 11H88.6445V12.26H87.4545V9.95H95.4345V12.26H94.3145V11ZM96.4584 7.78C96.4584 7.12667 96.603 6.548 96.8924 6.044C97.191 5.54 97.5924 5.14333 98.0964 4.854C98.6004 4.56467 99.165 4.42 99.7904 4.42C100.425 4.42 100.99 4.56467 101.484 4.854C101.988 5.14333 102.385 5.54 102.674 6.044C102.973 6.548 103.122 7.12667 103.122 7.78C103.122 8.424 102.973 9.00267 102.674 9.516C102.385 10.02 101.988 10.4167 101.484 10.706C100.99 10.9953 100.425 11.14 99.7904 11.14C99.165 11.14 98.6004 10.9953 98.0964 10.706C97.5924 10.4167 97.191 10.02 96.8924 9.516C96.603 9.00267 96.4584 8.424 96.4584 7.78ZM97.5924 7.78C97.5924 8.228 97.6857 8.62467 97.8724 8.97C98.0684 9.31533 98.3297 9.59067 98.6564 9.796C98.9924 9.992 99.3704 10.09 99.7904 10.09C100.21 10.09 100.584 9.992 100.91 9.796C101.246 9.59067 101.508 9.31533 101.694 8.97C101.89 8.62467 101.988 8.228 101.988 7.78C101.988 7.332 101.89 6.93533 101.694 6.59C101.508 6.23533 101.246 5.96 100.91 5.764C100.584 5.568 100.21 5.47 99.7904 5.47C99.3704 5.47 98.9924 5.568 98.6564 5.764C98.3297 5.96 98.0684 6.23533 97.8724 6.59C97.6857 6.93533 97.5924 7.332 97.5924 7.78ZM107.333 5.47V4.42C107.968 4.42 108.532 4.56467 109.027 4.854C109.531 5.14333 109.928 5.54 110.217 6.044C110.516 6.548 110.665 7.12667 110.665 7.78C110.665 8.424 110.516 9.00267 110.217 9.516C109.928 10.02 109.531 10.4167 109.027 10.706C108.532 10.9953 107.968 11.14 107.333 11.14C106.708 11.14 106.143 10.986 105.639 10.678C105.135 10.3607 104.734 9.88933 104.435 9.264C104.146 8.63867 104.001 7.864 104.001 6.94L105.121 7.78C105.121 8.228 105.219 8.62467 105.415 8.97C105.611 9.31533 105.872 9.59067 106.199 9.796C106.535 9.992 106.913 10.09 107.333 10.09C107.753 10.09 108.126 9.992 108.453 9.796C108.789 9.59067 109.05 9.31533 109.237 8.97C109.433 8.62467 109.531 8.228 109.531 7.78C109.531 7.332 109.433 6.93533 109.237 6.59C109.05 6.23533 108.789 5.96 108.453 5.764C108.126 5.568 107.753 5.47 107.333 5.47ZM104.617 7.78C104.617 7.25733 104.682 6.79067 104.813 6.38C104.944 5.96 105.13 5.60533 105.373 5.316C105.616 5.02667 105.9 4.80733 106.227 4.658C106.563 4.49933 106.932 4.42 107.333 4.42V5.47C107.09 5.47 106.838 5.52133 106.577 5.624C106.316 5.72667 106.073 5.876 105.849 6.072C105.634 6.268 105.457 6.51067 105.317 6.8C105.186 7.08 105.121 7.40667 105.121 7.78H104.617ZM104.001 6.94C104.001 6.06267 104.085 5.288 104.253 4.616C104.421 3.944 104.715 3.37467 105.135 2.908C105.564 2.432 106.152 2.068 106.899 1.816C107.534 1.60133 108.005 1.34467 108.313 1.046C108.63 0.738 108.822 0.416 108.887 0.0799996H109.993C109.946 0.490666 109.797 0.868666 109.545 1.214C109.293 1.55 108.962 1.844 108.551 2.096C108.15 2.348 107.692 2.558 107.179 2.726C106.6 2.91267 106.148 3.19267 105.821 3.566C105.504 3.93933 105.284 4.364 105.163 4.84C105.042 5.30667 104.981 5.77333 104.981 6.24V7.682L104.001 6.94ZM112.762 8.13V7.08H117.522V8.13H112.762ZM116.794 4.56H117.914V11H116.794V4.56ZM112.104 4.56H113.224V11H112.104V4.56ZM125.73 4.56H126.85V11H125.73V4.56ZM119.92 4.56H121.04V11H119.92V4.56ZM120.578 7.976V6.996H122.58C123.242 6.996 123.798 7.15933 124.246 7.486C124.703 7.80333 124.932 8.30733 124.932 8.998C124.932 9.45533 124.829 9.83333 124.624 10.132C124.418 10.4307 124.138 10.65 123.784 10.79C123.429 10.93 123.028 11 122.58 11H120.578V10.02H122.58C122.85 10.02 123.074 9.98267 123.252 9.908C123.438 9.824 123.578 9.70733 123.672 9.558C123.765 9.39933 123.812 9.21267 123.812 8.998C123.812 8.67133 123.709 8.41933 123.504 8.242C123.298 8.06467 122.99 7.976 122.58 7.976H120.578ZM134.233 5.68L128.913 11.49L128.983 9.88L134.303 4.07L134.233 5.68ZM130.033 4.56V9.95L128.913 11.49V4.56H130.033ZM134.303 4.07V11H133.183V5.61L134.303 4.07ZM129.431 1.27H130.425C130.425 1.39133 130.458 1.536 130.523 1.704C130.588 1.86267 130.71 2.00733 130.887 2.138C131.064 2.25933 131.316 2.32 131.643 2.32C131.97 2.32 132.222 2.25933 132.399 2.138C132.576 2.00733 132.698 1.86267 132.763 1.704C132.828 1.536 132.861 1.39133 132.861 1.27H133.855C133.855 1.58733 133.771 1.9 133.603 2.208C133.444 2.50667 133.202 2.754 132.875 2.95C132.548 3.13667 132.138 3.23 131.643 3.23C131.158 3.23 130.747 3.13667 130.411 2.95C130.084 2.754 129.837 2.50667 129.669 2.208C129.51 1.9 129.431 1.58733 129.431 1.27ZM140.469 1.9C140.469 1.68533 140.544 1.50333 140.693 1.354C140.852 1.20467 141.034 1.13 141.239 1.13C141.454 1.13 141.636 1.20467 141.785 1.354C141.934 1.50333 142.009 1.68533 142.009 1.9C142.009 2.10533 141.934 2.28733 141.785 2.446C141.636 2.59533 141.454 2.67 141.239 2.67C141.034 2.67 140.852 2.59533 140.693 2.446C140.544 2.28733 140.469 2.10533 140.469 1.9ZM140.679 4.56H141.799V11H140.679V4.56ZM143.026 4.56H146.246V5.61H143.026V4.56ZM144.076 2.32H145.196V11H144.076V2.32ZM146.289 8.2V7.15H149.089V8.2H146.289ZM150.613 7.78C150.613 8.228 150.706 8.62467 150.893 8.97C151.089 9.31533 151.35 9.59067 151.677 9.796C152.013 9.992 152.391 10.09 152.811 10.09C153.156 10.09 153.478 10.0387 153.777 9.936C154.085 9.824 154.351 9.67933 154.575 9.502C154.799 9.31533 154.957 9.11933 155.051 8.914V10.314C154.827 10.5753 154.505 10.7807 154.085 10.93C153.674 11.07 153.249 11.14 152.811 11.14C152.185 11.14 151.621 10.9953 151.117 10.706C150.613 10.4167 150.211 10.02 149.913 9.516C149.623 9.00267 149.479 8.424 149.479 7.78C149.479 7.12667 149.623 6.548 149.913 6.044C150.211 5.54 150.613 5.14333 151.117 4.854C151.621 4.56467 152.185 4.42 152.811 4.42C153.249 4.42 153.674 4.49467 154.085 4.644C154.505 4.784 154.827 4.98467 155.051 5.246V6.646C154.957 6.43133 154.799 6.23533 154.575 6.058C154.351 5.88067 154.085 5.74067 153.777 5.638C153.478 5.526 153.156 5.47 152.811 5.47C152.391 5.47 152.013 5.568 151.677 5.764C151.35 5.96 151.089 6.23533 150.893 6.59C150.706 6.93533 150.613 7.332 150.613 7.78ZM156.848 8.06V7.108H161.146C161.109 6.772 161.015 6.478 160.866 6.226C160.726 5.96467 160.525 5.764 160.264 5.624C160.012 5.47467 159.699 5.4 159.326 5.4C158.953 5.4 158.612 5.47933 158.304 5.638C157.996 5.79667 157.749 6.02533 157.562 6.324C157.385 6.61333 157.296 6.95867 157.296 7.36L157.268 7.78C157.268 8.27467 157.352 8.69467 157.52 9.04C157.688 9.38533 157.926 9.64667 158.234 9.824C158.542 10.0013 158.906 10.09 159.326 10.09C159.643 10.09 159.923 10.0433 160.166 9.95C160.418 9.84733 160.642 9.712 160.838 9.544C161.034 9.36667 161.202 9.16133 161.342 8.928L162.252 9.502C162.037 9.82867 161.799 10.118 161.538 10.37C161.277 10.6127 160.959 10.804 160.586 10.944C160.213 11.0747 159.746 11.14 159.186 11.14C158.607 11.14 158.085 10.9953 157.618 10.706C157.161 10.4167 156.797 10.02 156.526 9.516C156.265 9.00267 156.134 8.424 156.134 7.78C156.134 7.65867 156.139 7.542 156.148 7.43C156.157 7.318 156.171 7.206 156.19 7.094C156.283 6.562 156.47 6.09533 156.75 5.694C157.03 5.29267 157.389 4.98 157.828 4.756C158.276 4.532 158.775 4.42 159.326 4.42C159.933 4.42 160.465 4.55533 160.922 4.826C161.379 5.09667 161.734 5.47933 161.986 5.974C162.238 6.45933 162.364 7.04267 162.364 7.724C162.364 7.78 162.364 7.836 162.364 7.892C162.364 7.948 162.359 8.004 162.35 8.06H156.848ZM164.849 14.08H163.729V4.56H164.849V14.08ZM170.239 7.78C170.239 8.47067 170.095 9.068 169.805 9.572C169.516 10.076 169.129 10.4633 168.643 10.734C168.167 11.0047 167.635 11.14 167.047 11.14C166.515 11.14 166.044 11.0047 165.633 10.734C165.232 10.4633 164.915 10.076 164.681 9.572C164.457 9.068 164.345 8.47067 164.345 7.78C164.345 7.08 164.457 6.48267 164.681 5.988C164.915 5.484 165.232 5.09667 165.633 4.826C166.044 4.55533 166.515 4.42 167.047 4.42C167.635 4.42 168.167 4.55533 168.643 4.826C169.129 5.09667 169.516 5.484 169.805 5.988C170.095 6.48267 170.239 7.08 170.239 7.78ZM169.105 7.78C169.105 7.28533 169.003 6.86533 168.797 6.52C168.601 6.17467 168.335 5.91333 167.999 5.736C167.673 5.55867 167.309 5.47 166.907 5.47C166.581 5.47 166.259 5.55867 165.941 5.736C165.624 5.91333 165.363 6.17467 165.157 6.52C164.952 6.86533 164.849 7.28533 164.849 7.78C164.849 8.27467 164.952 8.69467 165.157 9.04C165.363 9.38533 165.624 9.64667 165.941 9.824C166.259 10.0013 166.581 10.09 166.907 10.09C167.309 10.09 167.673 10.0013 167.999 9.824C168.335 9.64667 168.601 9.38533 168.797 9.04C169.003 8.69467 169.105 8.27467 169.105 7.78ZM172.342 7.64H174.204C174.652 7.64 175.053 7.68667 175.408 7.78C175.762 7.87333 176.042 8.03667 176.248 8.27C176.453 8.50333 176.556 8.83 176.556 9.25C176.556 9.73533 176.392 10.1507 176.066 10.496C175.748 10.832 175.221 11 174.484 11H172.342V10.02H174.204C174.624 10.02 174.932 9.93133 175.128 9.754C175.333 9.57667 175.436 9.362 175.436 9.11C175.436 8.97933 175.408 8.86267 175.352 8.76C175.305 8.65733 175.23 8.564 175.128 8.48C175.034 8.396 174.908 8.33533 174.75 8.298C174.6 8.25133 174.418 8.228 174.204 8.228H172.342V7.64ZM172.342 7.92V7.262H174.064C174.232 7.262 174.381 7.24333 174.512 7.206C174.652 7.15933 174.768 7.094 174.862 7.01C174.955 6.926 175.025 6.83267 175.072 6.73C175.128 6.618 175.156 6.50133 175.156 6.38C175.156 6.128 175.058 5.92733 174.862 5.778C174.666 5.61933 174.4 5.54 174.064 5.54H172.342V4.56H174.064C174.465 4.56 174.829 4.62067 175.156 4.742C175.492 4.854 175.762 5.04067 175.968 5.302C176.173 5.554 176.276 5.89 176.276 6.31C176.276 6.674 176.173 6.97733 175.968 7.22C175.762 7.45333 175.492 7.63067 175.156 7.752C174.829 7.864 174.465 7.92 174.064 7.92H172.342ZM171.684 4.56H172.804V11H171.684V4.56ZM183.317 5.68L177.997 11.49L178.067 9.88L183.387 4.07L183.317 5.68ZM179.117 4.56V9.95L177.997 11.49V4.56H179.117ZM183.387 4.07V11H182.267V5.61L183.387 4.07ZM185.96 7.78C185.96 8.228 186.054 8.62467 186.24 8.97C186.436 9.31533 186.698 9.59067 187.024 9.796C187.36 9.992 187.738 10.09 188.158 10.09C188.504 10.09 188.826 10.0387 189.124 9.936C189.432 9.824 189.698 9.67933 189.922 9.502C190.146 9.31533 190.305 9.11933 190.398 8.914V10.314C190.174 10.5753 189.852 10.7807 189.432 10.93C189.022 11.07 188.597 11.14 188.158 11.14C187.533 11.14 186.968 10.9953 186.464 10.706C185.96 10.4167 185.559 10.02 185.26 9.516C184.971 9.00267 184.826 8.424 184.826 7.78C184.826 7.12667 184.971 6.548 185.26 6.044C185.559 5.54 185.96 5.14333 186.464 4.854C186.968 4.56467 187.533 4.42 188.158 4.42C188.597 4.42 189.022 4.49467 189.432 4.644C189.852 4.784 190.174 4.98467 190.398 5.246V6.646C190.305 6.43133 190.146 6.23533 189.922 6.058C189.698 5.88067 189.432 5.74067 189.124 5.638C188.826 5.526 188.504 5.47 188.158 5.47C187.738 5.47 187.36 5.568 187.024 5.764C186.698 5.96 186.436 6.23533 186.24 6.59C186.054 6.93533 185.96 7.332 185.96 7.78ZM199.639 6.492L197.749 10.58H196.489L199.639 4.07L202.789 10.58H201.529L199.639 6.492ZM202.509 11H196.839V12.26H195.649V9.95H203.629V12.26H202.509V11ZM210.855 4.56V11H209.735V5.61H206.445V8.76C206.445 9.264 206.366 9.684 206.207 10.02C206.058 10.3467 205.824 10.594 205.507 10.762C205.19 10.9207 204.788 11 204.303 11V9.978C204.583 9.978 204.821 9.88933 205.017 9.712C205.222 9.53467 205.325 9.21733 205.325 8.76V4.56H210.855ZM213.844 11H212.612L214.992 7.64H216.224L213.844 11ZM217.932 11H216.812V4.56H217.932V11ZM217.274 7.444V8.424H215.272C214.833 8.424 214.432 8.35867 214.068 8.228C213.713 8.09733 213.433 7.892 213.228 7.612C213.022 7.32267 212.92 6.94933 212.92 6.492C212.92 6.02533 213.022 5.652 213.228 5.372C213.433 5.092 213.713 4.88667 214.068 4.756C214.432 4.62533 214.833 4.56 215.272 4.56H217.274V5.54H215.272C215.001 5.54 214.772 5.57733 214.586 5.652C214.408 5.71733 214.273 5.82 214.18 5.96C214.086 6.1 214.04 6.27733 214.04 6.492C214.04 6.70667 214.086 6.884 214.18 7.024C214.273 7.164 214.408 7.27133 214.586 7.346C214.772 7.41133 215.001 7.444 215.272 7.444H217.274ZM228.934 4.56V11H227.814V5.61H224.804V11H223.684V4.56H228.934ZM230.38 7.78C230.38 7.12667 230.525 6.548 230.814 6.044C231.113 5.54 231.514 5.14333 232.018 4.854C232.522 4.56467 233.087 4.42 233.712 4.42C234.347 4.42 234.911 4.56467 235.406 4.854C235.91 5.14333 236.307 5.54 236.596 6.044C236.895 6.548 237.044 7.12667 237.044 7.78C237.044 8.424 236.895 9.00267 236.596 9.516C236.307 10.02 235.91 10.4167 235.406 10.706C234.911 10.9953 234.347 11.14 233.712 11.14C233.087 11.14 232.522 10.9953 232.018 10.706C231.514 10.4167 231.113 10.02 230.814 9.516C230.525 9.00267 230.38 8.424 230.38 7.78ZM231.514 7.78C231.514 8.228 231.607 8.62467 231.794 8.97C231.99 9.31533 232.251 9.59067 232.578 9.796C232.914 9.992 233.292 10.09 233.712 10.09C234.132 10.09 234.505 9.992 234.832 9.796C235.168 9.59067 235.429 9.31533 235.616 8.97C235.812 8.62467 235.91 8.228 235.91 7.78C235.91 7.332 235.812 6.93533 235.616 6.59C235.429 6.23533 235.168 5.96 234.832 5.764C234.505 5.568 234.132 5.47 233.712 5.47C233.292 5.47 232.914 5.568 232.578 5.764C232.251 5.96 231.99 6.23533 231.794 6.59C231.607 6.93533 231.514 7.332 231.514 7.78ZM243.872 5.68L238.552 11.49L238.622 9.88L243.942 4.07L243.872 5.68ZM239.672 4.56V9.95L238.552 11.49V4.56H239.672ZM243.942 4.07V11H242.822V5.61L243.942 4.07ZM246.515 7.78C246.515 8.228 246.609 8.62467 246.795 8.97C246.991 9.31533 247.253 9.59067 247.579 9.796C247.915 9.992 248.293 10.09 248.713 10.09C249.059 10.09 249.381 10.0387 249.679 9.936C249.987 9.824 250.253 9.67933 250.477 9.502C250.701 9.31533 250.86 9.11933 250.953 8.914V10.314C250.729 10.5753 250.407 10.7807 249.987 10.93C249.577 11.07 249.152 11.14 248.713 11.14C248.088 11.14 247.523 10.9953 247.019 10.706C246.515 10.4167 246.114 10.02 245.815 9.516C245.526 9.00267 245.381 8.424 245.381 7.78C245.381 7.12667 245.526 6.548 245.815 6.044C246.114 5.54 246.515 5.14333 247.019 4.854C247.523 4.56467 248.088 4.42 248.713 4.42C249.152 4.42 249.577 4.49467 249.987 4.644C250.407 4.784 250.729 4.98467 250.953 5.246V6.646C250.86 6.43133 250.701 6.23533 250.477 6.058C250.253 5.88067 249.987 5.74067 249.679 5.638C249.381 5.526 249.059 5.47 248.713 5.47C248.293 5.47 247.915 5.568 247.579 5.764C247.253 5.96 246.991 6.23533 246.795 6.59C246.609 6.93533 246.515 7.332 246.515 7.78ZM252.527 4.56H253.647V11H252.527V4.56ZM256.027 4.56H257.427L254.627 7.22L257.707 11H256.307L253.227 7.22L256.027 4.56ZM259.167 9.11C259.167 9.334 259.228 9.52533 259.349 9.684C259.47 9.83333 259.634 9.95 259.839 10.034C260.044 10.1087 260.273 10.146 260.525 10.146C260.898 10.146 261.23 10.09 261.519 9.978C261.808 9.866 262.032 9.68867 262.191 9.446C262.359 9.20333 262.443 8.88133 262.443 8.48L262.667 9.18C262.667 9.59067 262.555 9.94533 262.331 10.244C262.116 10.5333 261.827 10.7573 261.463 10.916C261.099 11.0653 260.693 11.14 260.245 11.14C259.844 11.14 259.475 11.0653 259.139 10.916C258.803 10.7667 258.532 10.5473 258.327 10.258C258.131 9.95933 258.033 9.59067 258.033 9.152C258.033 8.69467 258.145 8.30733 258.369 7.99C258.593 7.67267 258.91 7.43 259.321 7.262C259.732 7.08467 260.217 6.996 260.777 6.996C261.188 6.996 261.538 7.052 261.827 7.164C262.126 7.26667 262.364 7.388 262.541 7.528C262.718 7.65867 262.84 7.766 262.905 7.85V8.508C262.588 8.284 262.266 8.12067 261.939 8.018C261.612 7.906 261.244 7.85 260.833 7.85C260.46 7.85 260.147 7.90133 259.895 8.004C259.652 8.10667 259.47 8.25133 259.349 8.438C259.228 8.62467 259.167 8.84867 259.167 9.11ZM259.167 6.072L258.621 5.218C258.864 5.04067 259.19 4.86333 259.601 4.686C260.012 4.50867 260.506 4.42 261.085 4.42C261.58 4.42 262.009 4.49933 262.373 4.658C262.746 4.80733 263.036 5.02667 263.241 5.316C263.456 5.60533 263.563 5.96 263.563 6.38V11H262.443V6.38C262.443 6.05333 262.303 5.81067 262.023 5.652C261.752 5.484 261.44 5.4 261.085 5.4C260.777 5.4 260.497 5.442 260.245 5.526C259.993 5.60067 259.774 5.694 259.587 5.806C259.41 5.90867 259.27 5.99733 259.167 6.072ZM7.0379 24.56V31H5.9179V25.61H2.6279V28.76C2.6279 29.264 2.54857 29.684 2.3899 30.02C2.24057 30.3467 2.00723 30.594 1.6899 30.762C1.37257 30.9207 0.971235 31 0.485901 31V29.978C0.765902 29.978 1.0039 29.8893 1.1999 29.712C1.40523 29.5347 1.5079 29.2173 1.5079 28.76V24.56H7.0379ZM14.2125 24.56L10.0125 34.08H8.75254L10.5165 30.09L8.05254 24.56H9.38254L11.4265 29.6L10.9645 29.544L12.9525 24.56H14.2125ZM17.3386 29.04V27.99H19.5366V29.04H17.3386ZM18.7386 24.56H19.8586V31H18.7386V24.56ZM15.9386 24.56V26.408C15.9386 26.7813 15.9806 27.0847 16.0646 27.318C16.1486 27.5513 16.2932 27.724 16.4986 27.836C16.7039 27.9387 16.9839 27.99 17.3386 27.99V29.04C16.6946 29.04 16.1859 28.9513 15.8126 28.774C15.4486 28.5967 15.1919 28.3167 15.0426 27.934C14.8932 27.542 14.8186 27.0333 14.8186 26.408V24.56H15.9386ZM26.8335 29.95H29.5635V24.56H30.6835V31H21.8635V24.56H22.9835V29.95H25.7135V24.56H26.8335V29.95ZM38.0773 25.68L32.7573 31.49L32.8273 29.88L38.1473 24.07L38.0773 25.68ZM33.8773 24.56V29.95L32.7573 31.49V24.56H33.8773ZM38.1473 24.07V31H37.0273V25.61L38.1473 24.07ZM43.6462 24.56H44.9062L42.7082 27.682L45.0462 31H43.7862L42.1062 28.564L40.4262 31H39.1662L41.5042 27.682L39.3062 24.56H40.5662L42.1062 26.8L43.6462 24.56ZM50.7504 27.64H52.6124C53.0604 27.64 53.4617 27.6867 53.8164 27.78C54.1711 27.8733 54.4511 28.0367 54.6564 28.27C54.8617 28.5033 54.9644 28.83 54.9644 29.25C54.9644 29.7353 54.8011 30.1507 54.4744 30.496C54.1571 30.832 53.6297 31 52.8924 31H50.7504V30.02H52.6124C53.0324 30.02 53.3404 29.9313 53.5364 29.754C53.7417 29.5767 53.8444 29.362 53.8444 29.11C53.8444 28.9793 53.8164 28.8627 53.7604 28.76C53.7137 28.6573 53.6391 28.564 53.5364 28.48C53.4431 28.396 53.3171 28.3353 53.1584 28.298C53.0091 28.2513 52.8271 28.228 52.6124 28.228H50.7504V27.64ZM50.7504 27.92V27.262H52.4724C52.6404 27.262 52.7897 27.2433 52.9204 27.206C53.0604 27.1593 53.1771 27.094 53.2704 27.01C53.3637 26.926 53.4337 26.8327 53.4804 26.73C53.5364 26.618 53.5644 26.5013 53.5644 26.38C53.5644 26.128 53.4664 25.9273 53.2704 25.778C53.0744 25.6193 52.8084 25.54 52.4724 25.54H50.7504V24.56H52.4724C52.8737 24.56 53.2377 24.6207 53.5644 24.742C53.9004 24.854 54.1711 25.0407 54.3764 25.302C54.5817 25.554 54.6844 25.89 54.6844 26.31C54.6844 26.674 54.5817 26.9773 54.3764 27.22C54.1711 27.4533 53.9004 27.6307 53.5644 27.752C53.2377 27.864 52.8737 27.92 52.4724 27.92H50.7504ZM50.0924 24.56H51.2124V31H50.0924V24.56ZM56.8401 29.11C56.8401 29.334 56.9008 29.5253 57.0221 29.684C57.1435 29.8333 57.3068 29.95 57.5121 30.034C57.7175 30.1087 57.9461 30.146 58.1981 30.146C58.5715 30.146 58.9028 30.09 59.1921 29.978C59.4815 29.866 59.7055 29.6887 59.8641 29.446C60.0321 29.2033 60.1161 28.8813 60.1161 28.48L60.3401 29.18C60.3401 29.5907 60.2281 29.9453 60.0041 30.244C59.7895 30.5333 59.5001 30.7573 59.1361 30.916C58.7721 31.0653 58.3661 31.14 57.9181 31.14C57.5168 31.14 57.1481 31.0653 56.8121 30.916C56.4761 30.7667 56.2055 30.5473 56.0001 30.258C55.8041 29.9593 55.7061 29.5907 55.7061 29.152C55.7061 28.6947 55.8181 28.3073 56.0421 27.99C56.2661 27.6727 56.5835 27.43 56.9941 27.262C57.4048 27.0847 57.8901 26.996 58.4501 26.996C58.8608 26.996 59.2108 27.052 59.5001 27.164C59.7988 27.2667 60.0368 27.388 60.2141 27.528C60.3915 27.6587 60.5128 27.766 60.5781 27.85V28.508C60.2608 28.284 59.9388 28.1207 59.6121 28.018C59.2855 27.906 58.9168 27.85 58.5061 27.85C58.1328 27.85 57.8201 27.9013 57.5681 28.004C57.3255 28.1067 57.1435 28.2513 57.0221 28.438C56.9008 28.6247 56.8401 28.8487 56.8401 29.11ZM56.8401 26.072L56.2941 25.218C56.5368 25.0407 56.8635 24.8633 57.2741 24.686C57.6848 24.5087 58.1795 24.42 58.7581 24.42C59.2528 24.42 59.6821 24.4993 60.0461 24.658C60.4195 24.8073 60.7088 25.0267 60.9141 25.316C61.1288 25.6053 61.2361 25.96 61.2361 26.38V31H60.1161V26.38C60.1161 26.0533 59.9761 25.8107 59.6961 25.652C59.4255 25.484 59.1128 25.4 58.7581 25.4C58.4501 25.4 58.1701 25.442 57.9181 25.526C57.6661 25.6007 57.4468 25.694 57.2601 25.806C57.0828 25.9087 56.9428 25.9973 56.8401 26.072ZM62.9611 24.56H64.0811V31H62.9611V24.56ZM66.4611 24.56H67.8611L65.0611 27.22L68.1411 31H66.7411L63.6611 27.22L66.4611 24.56ZM69.6011 29.11C69.6011 29.334 69.6617 29.5253 69.7831 29.684C69.9044 29.8333 70.0677 29.95 70.2731 30.034C70.4784 30.1087 70.7071 30.146 70.9591 30.146C71.3324 30.146 71.6637 30.09 71.9531 29.978C72.2424 29.866 72.4664 29.6887 72.6251 29.446C72.7931 29.2033 72.8771 28.8813 72.8771 28.48L73.1011 29.18C73.1011 29.5907 72.9891 29.9453 72.7651 30.244C72.5504 30.5333 72.2611 30.7573 71.8971 30.916C71.5331 31.0653 71.1271 31.14 70.6791 31.14C70.2777 31.14 69.9091 31.0653 69.5731 30.916C69.2371 30.7667 68.9664 30.5473 68.7611 30.258C68.5651 29.9593 68.4671 29.5907 68.4671 29.152C68.4671 28.6947 68.5791 28.3073 68.8031 27.99C69.0271 27.6727 69.3444 27.43 69.7551 27.262C70.1657 27.0847 70.6511 26.996 71.2111 26.996C71.6217 26.996 71.9717 27.052 72.2611 27.164C72.5597 27.2667 72.7977 27.388 72.9751 27.528C73.1524 27.6587 73.2737 27.766 73.3391 27.85V28.508C73.0217 28.284 72.6997 28.1207 72.3731 28.018C72.0464 27.906 71.6777 27.85 71.2671 27.85C70.8937 27.85 70.5811 27.9013 70.3291 28.004C70.0864 28.1067 69.9044 28.2513 69.7831 28.438C69.6617 28.6247 69.6011 28.8487 69.6011 29.11ZM69.6011 26.072L69.0551 25.218C69.2977 25.0407 69.6244 24.8633 70.0351 24.686C70.4457 24.5087 70.9404 24.42 71.5191 24.42C72.0137 24.42 72.4431 24.4993 72.8071 24.658C73.1804 24.8073 73.4697 25.0267 73.6751 25.316C73.8897 25.6053 73.9971 25.96 73.9971 26.38V31H72.8771V26.38C72.8771 26.0533 72.7371 25.8107 72.4571 25.652C72.1864 25.484 71.8737 25.4 71.5191 25.4C71.2111 25.4 70.9311 25.442 70.6791 25.526C70.4271 25.6007 70.2077 25.694 70.0211 25.806C69.8437 25.9087 69.7037 25.9973 69.6011 26.072ZM76.45 28.13V27.08H81.21V28.13H76.45ZM80.482 24.56H81.602V31H80.482V24.56ZM75.792 24.56H76.912V31H75.792V24.56ZM84.112 27.78C84.112 28.228 84.2053 28.6247 84.392 28.97C84.588 29.3153 84.8493 29.5907 85.176 29.796C85.512 29.992 85.89 30.09 86.31 30.09C86.6553 30.09 86.9773 30.0387 87.276 29.936C87.584 29.824 87.85 29.6793 88.074 29.502C88.298 29.3153 88.4567 29.1193 88.55 28.914V30.314C88.326 30.5753 88.004 30.7807 87.584 30.93C87.1733 31.07 86.7487 31.14 86.31 31.14C85.6847 31.14 85.12 30.9953 84.616 30.706C84.112 30.4167 83.7107 30.02 83.412 29.516C83.1227 29.0027 82.978 28.424 82.978 27.78C82.978 27.1267 83.1227 26.548 83.412 26.044C83.7107 25.54 84.112 25.1433 84.616 24.854C85.12 24.5647 85.6847 24.42 86.31 24.42C86.7487 24.42 87.1733 24.4947 87.584 24.644C88.004 24.784 88.326 24.9847 88.55 25.246V26.646C88.4567 26.4313 88.298 26.2353 88.074 26.058C87.85 25.8807 87.584 25.7407 87.276 25.638C86.9773 25.526 86.6553 25.47 86.31 25.47C85.89 25.47 85.512 25.568 85.176 25.764C84.8493 25.96 84.588 26.2353 84.392 26.59C84.2053 26.9353 84.112 27.332 84.112 27.78ZM95.5836 25.68L90.2636 31.49L90.3336 29.88L95.6536 24.07L95.5836 25.68ZM91.3836 24.56V29.95L90.2636 31.49V24.56H91.3836ZM95.6536 24.07V31H94.5336V25.61L95.6536 24.07ZM103.112 25.68L97.7925 31.49L97.8625 29.88L103.182 24.07L103.112 25.68ZM98.9125 24.56V29.95L97.7925 31.49V24.56H98.9125ZM103.182 24.07V31H102.062V25.61L103.182 24.07ZM98.3105 21.27H99.3045C99.3045 21.3913 99.3371 21.536 99.4025 21.704C99.4678 21.8627 99.5891 22.0073 99.7665 22.138C99.9438 22.2593 100.196 22.32 100.522 22.32C100.849 22.32 101.101 22.2593 101.278 22.138C101.456 22.0073 101.577 21.8627 101.642 21.704C101.708 21.536 101.74 21.3913 101.74 21.27H102.734C102.734 21.5873 102.65 21.9 102.482 22.208C102.324 22.5067 102.081 22.754 101.754 22.95C101.428 23.1367 101.017 23.23 100.522 23.23C100.037 23.23 99.6265 23.1367 99.2905 22.95C98.9638 22.754 98.7165 22.5067 98.5485 22.208C98.3898 21.9 98.3105 21.5873 98.3105 21.27ZM114.739 25.68L109.419 31.49L109.489 29.88L114.809 24.07L114.739 25.68ZM110.539 24.56V29.95L109.419 31.49V24.56H110.539ZM114.809 24.07V31H113.689V25.61L114.809 24.07ZM121.479 27.78C121.479 28.228 121.572 28.6247 121.759 28.97C121.955 29.3153 122.216 29.5907 122.543 29.796C122.879 29.992 123.257 30.09 123.677 30.09C124.022 30.09 124.344 30.0387 124.643 29.936C124.951 29.824 125.217 29.6793 125.441 29.502C125.665 29.3153 125.823 29.1193 125.917 28.914V30.314C125.693 30.5753 125.371 30.7807 124.951 30.93C124.54 31.07 124.115 31.14 123.677 31.14C123.051 31.14 122.487 30.9953 121.983 30.706C121.479 30.4167 121.077 30.02 120.779 29.516C120.489 29.0027 120.345 28.424 120.345 27.78C120.345 27.1267 120.489 26.548 120.779 26.044C121.077 25.54 121.479 25.1433 121.983 24.854C122.487 24.5647 123.051 24.42 123.677 24.42C124.115 24.42 124.54 24.4947 124.951 24.644C125.371 24.784 125.693 24.9847 125.917 25.246V26.646C125.823 26.4313 125.665 26.2353 125.441 26.058C125.217 25.8807 124.951 25.7407 124.643 25.638C124.344 25.526 124.022 25.47 123.677 25.47C123.257 25.47 122.879 25.568 122.543 25.764C122.216 25.96 121.955 26.2353 121.759 26.59C121.572 26.9353 121.479 27.332 121.479 27.78ZM127 27.78C127 27.1267 127.145 26.548 127.434 26.044C127.733 25.54 128.134 25.1433 128.638 24.854C129.142 24.5647 129.707 24.42 130.332 24.42C130.967 24.42 131.532 24.5647 132.026 24.854C132.53 25.1433 132.927 25.54 133.216 26.044C133.515 26.548 133.664 27.1267 133.664 27.78C133.664 28.424 133.515 29.0027 133.216 29.516C132.927 30.02 132.53 30.4167 132.026 30.706C131.532 30.9953 130.967 31.14 130.332 31.14C129.707 31.14 129.142 30.9953 128.638 30.706C128.134 30.4167 127.733 30.02 127.434 29.516C127.145 29.0027 127 28.424 127 27.78ZM128.134 27.78C128.134 28.228 128.228 28.6247 128.414 28.97C128.61 29.3153 128.872 29.5907 129.198 29.796C129.534 29.992 129.912 30.09 130.332 30.09C130.752 30.09 131.126 29.992 131.452 29.796C131.788 29.5907 132.05 29.3153 132.236 28.97C132.432 28.6247 132.53 28.228 132.53 27.78C132.53 27.332 132.432 26.9353 132.236 26.59C132.05 26.2353 131.788 25.96 131.452 25.764C131.126 25.568 130.752 25.47 130.332 25.47C129.912 25.47 129.534 25.568 129.198 25.764C128.872 25.96 128.61 26.2353 128.414 26.59C128.228 26.9353 128.134 27.332 128.134 27.78ZM134.123 24.56H137.903V25.61H134.123V24.56ZM135.453 24.84H136.573V31H135.453V24.84ZM139.977 34.08H138.857V24.56H139.977V34.08ZM145.367 27.78C145.367 28.4707 145.222 29.068 144.933 29.572C144.643 30.076 144.256 30.4633 143.771 30.734C143.295 31.0047 142.763 31.14 142.175 31.14C141.643 31.14 141.171 31.0047 140.761 30.734C140.359 30.4633 140.042 30.076 139.809 29.572C139.585 29.068 139.473 28.4707 139.473 27.78C139.473 27.08 139.585 26.4827 139.809 25.988C140.042 25.484 140.359 25.0967 140.761 24.826C141.171 24.5553 141.643 24.42 142.175 24.42C142.763 24.42 143.295 24.5553 143.771 24.826C144.256 25.0967 144.643 25.484 144.933 25.988C145.222 26.4827 145.367 27.08 145.367 27.78ZM144.233 27.78C144.233 27.2853 144.13 26.8653 143.925 26.52C143.729 26.1747 143.463 25.9133 143.127 25.736C142.8 25.5587 142.436 25.47 142.035 25.47C141.708 25.47 141.386 25.5587 141.069 25.736C140.751 25.9133 140.49 26.1747 140.285 26.52C140.079 26.8653 139.977 27.2853 139.977 27.78C139.977 28.2747 140.079 28.6947 140.285 29.04C140.49 29.3853 140.751 29.6467 141.069 29.824C141.386 30.0013 141.708 30.09 142.035 30.09C142.436 30.09 142.8 30.0013 143.127 29.824C143.463 29.6467 143.729 29.3853 143.925 29.04C144.13 28.6947 144.233 28.2747 144.233 27.78ZM151.716 24.56L147.516 34.08H146.256L148.02 30.09L145.556 24.56H146.886L148.93 29.6L148.468 29.544L150.456 24.56H151.716ZM155.338 26.492L153.448 30.58H152.188L155.338 24.07L158.488 30.58H157.228L155.338 26.492ZM158.208 31H152.538V32.26H151.348V29.95H159.328V32.26H158.208V31ZM161.57 28.13V27.08H166.33V28.13H161.57ZM165.602 24.56H166.722V31H165.602V24.56ZM160.912 24.56H162.032V31H160.912V24.56ZM174.118 25.68L168.798 31.49L168.868 29.88L174.188 24.07L174.118 25.68ZM169.918 24.56V29.95L168.798 31.49V24.56H169.918ZM174.188 24.07V31H173.068V25.61L174.188 24.07ZM176.187 24.56H177.307V31H176.187V24.56ZM179.687 24.56H181.087L178.287 27.22L181.367 31H179.967L176.887 27.22L179.687 24.56ZM181.558 27.78C181.558 27.1267 181.702 26.548 181.992 26.044C182.29 25.54 182.692 25.1433 183.196 24.854C183.7 24.5647 184.264 24.42 184.89 24.42C185.524 24.42 186.089 24.5647 186.584 24.854C187.088 25.1433 187.484 25.54 187.774 26.044C188.072 26.548 188.222 27.1267 188.222 27.78C188.222 28.424 188.072 29.0027 187.774 29.516C187.484 30.02 187.088 30.4167 186.584 30.706C186.089 30.9953 185.524 31.14 184.89 31.14C184.264 31.14 183.7 30.9953 183.196 30.706C182.692 30.4167 182.29 30.02 181.992 29.516C181.702 29.0027 181.558 28.424 181.558 27.78ZM182.692 27.78C182.692 28.228 182.785 28.6247 182.972 28.97C183.168 29.3153 183.429 29.5907 183.756 29.796C184.092 29.992 184.47 30.09 184.89 30.09C185.31 30.09 185.683 29.992 186.01 29.796C186.346 29.5907 186.607 29.3153 186.794 28.97C186.99 28.6247 187.088 28.228 187.088 27.78C187.088 27.332 186.99 26.9353 186.794 26.59C186.607 26.2353 186.346 25.96 186.01 25.764C185.683 25.568 185.31 25.47 184.89 25.47C184.47 25.47 184.092 25.568 183.756 25.764C183.429 25.96 183.168 26.2353 182.972 26.59C182.785 26.9353 182.692 27.332 182.692 27.78ZM190.318 27.64H192.18C192.628 27.64 193.03 27.6867 193.384 27.78C193.739 27.8733 194.019 28.0367 194.224 28.27C194.43 28.5033 194.532 28.83 194.532 29.25C194.532 29.7353 194.369 30.1507 194.042 30.496C193.725 30.832 193.198 31 192.46 31H190.318V30.02H192.18C192.6 30.02 192.908 29.9313 193.104 29.754C193.31 29.5767 193.412 29.362 193.412 29.11C193.412 28.9793 193.384 28.8627 193.328 28.76C193.282 28.6573 193.207 28.564 193.104 28.48C193.011 28.396 192.885 28.3353 192.726 28.298C192.577 28.2513 192.395 28.228 192.18 28.228H190.318V27.64ZM190.318 27.92V27.262H192.04C192.208 27.262 192.358 27.2433 192.488 27.206C192.628 27.1593 192.745 27.094 192.838 27.01C192.932 26.926 193.002 26.8327 193.048 26.73C193.104 26.618 193.132 26.5013 193.132 26.38C193.132 26.128 193.034 25.9273 192.838 25.778C192.642 25.6193 192.376 25.54 192.04 25.54H190.318V24.56H192.04C192.442 24.56 192.806 24.6207 193.132 24.742C193.468 24.854 193.739 25.0407 193.944 25.302C194.15 25.554 194.252 25.89 194.252 26.31C194.252 26.674 194.15 26.9773 193.944 27.22C193.739 27.4533 193.468 27.6307 193.132 27.752C192.806 27.864 192.442 27.92 192.04 27.92H190.318ZM189.66 24.56H190.78V31H189.66V24.56ZM200.659 28.13V27.08H205.419V28.13H200.659ZM204.691 24.56H205.811V31H204.691V24.56ZM200.001 24.56H201.121V31H200.001V24.56ZM208.321 29.11C208.321 29.334 208.382 29.5253 208.503 29.684C208.625 29.8333 208.788 29.95 208.993 30.034C209.199 30.1087 209.427 30.146 209.679 30.146C210.053 30.146 210.384 30.09 210.673 29.978C210.963 29.866 211.187 29.6887 211.345 29.446C211.513 29.2033 211.597 28.8813 211.597 28.48L211.821 29.18C211.821 29.5907 211.709 29.9453 211.485 30.244C211.271 30.5333 210.981 30.7573 210.617 30.916C210.253 31.0653 209.847 31.14 209.399 31.14C208.998 31.14 208.629 31.0653 208.293 30.916C207.957 30.7667 207.687 30.5473 207.481 30.258C207.285 29.9593 207.187 29.5907 207.187 29.152C207.187 28.6947 207.299 28.3073 207.523 27.99C207.747 27.6727 208.065 27.43 208.475 27.262C208.886 27.0847 209.371 26.996 209.931 26.996C210.342 26.996 210.692 27.052 210.981 27.164C211.28 27.2667 211.518 27.388 211.695 27.528C211.873 27.6587 211.994 27.766 212.059 27.85V28.508C211.742 28.284 211.42 28.1207 211.093 28.018C210.767 27.906 210.398 27.85 209.987 27.85C209.614 27.85 209.301 27.9013 209.049 28.004C208.807 28.1067 208.625 28.2513 208.503 28.438C208.382 28.6247 208.321 28.8487 208.321 29.11ZM208.321 26.072L207.775 25.218C208.018 25.0407 208.345 24.8633 208.755 24.686C209.166 24.5087 209.661 24.42 210.239 24.42C210.734 24.42 211.163 24.4993 211.527 24.658C211.901 24.8073 212.19 25.0267 212.395 25.316C212.61 25.6053 212.717 25.96 212.717 26.38V31H211.597V26.38C211.597 26.0533 211.457 25.8107 211.177 25.652C210.907 25.484 210.594 25.4 210.239 25.4C209.931 25.4 209.651 25.442 209.399 25.526C209.147 25.6007 208.928 25.694 208.741 25.806C208.564 25.9087 208.424 25.9973 208.321 26.072ZM223.72 24.56L219.52 34.08H218.26L220.024 30.09L217.56 24.56H218.89L220.934 29.6L220.472 29.544L222.46 24.56H223.72ZM227.342 26.492L225.452 30.58H224.192L227.342 24.07L230.492 30.58H229.232L227.342 26.492ZM230.212 31H224.542V32.26H223.352V29.95H231.332V32.26H230.212V31ZM233.419 29.11C233.419 29.334 233.48 29.5253 233.601 29.684C233.723 29.8333 233.886 29.95 234.091 30.034C234.297 30.1087 234.525 30.146 234.777 30.146C235.151 30.146 235.482 30.09 235.771 29.978C236.061 29.866 236.285 29.6887 236.443 29.446C236.611 29.2033 236.695 28.8813 236.695 28.48L236.919 29.18C236.919 29.5907 236.807 29.9453 236.583 30.244C236.369 30.5333 236.079 30.7573 235.715 30.916C235.351 31.0653 234.945 31.14 234.497 31.14C234.096 31.14 233.727 31.0653 233.391 30.916C233.055 30.7667 232.785 30.5473 232.579 30.258C232.383 29.9593 232.285 29.5907 232.285 29.152C232.285 28.6947 232.397 28.3073 232.621 27.99C232.845 27.6727 233.163 27.43 233.573 27.262C233.984 27.0847 234.469 26.996 235.029 26.996C235.44 26.996 235.79 27.052 236.079 27.164C236.378 27.2667 236.616 27.388 236.793 27.528C236.971 27.6587 237.092 27.766 237.157 27.85V28.508C236.84 28.284 236.518 28.1207 236.191 28.018C235.865 27.906 235.496 27.85 235.085 27.85C234.712 27.85 234.399 27.9013 234.147 28.004C233.905 28.1067 233.723 28.2513 233.601 28.438C233.48 28.6247 233.419 28.8487 233.419 29.11ZM233.419 26.072L232.873 25.218C233.116 25.0407 233.443 24.8633 233.853 24.686C234.264 24.5087 234.759 24.42 235.337 24.42C235.832 24.42 236.261 24.4993 236.625 24.658C236.999 24.8073 237.288 25.0267 237.493 25.316C237.708 25.6053 237.815 25.96 237.815 26.38V31H236.695V26.38C236.695 26.0533 236.555 25.8107 236.275 25.652C236.005 25.484 235.692 25.4 235.337 25.4C235.029 25.4 234.749 25.442 234.497 25.526C234.245 25.6007 234.026 25.694 233.839 25.806C233.662 25.9087 233.522 25.9973 233.419 26.072ZM245.252 24.56V31H244.132V25.61H240.842V28.76C240.842 29.264 240.763 29.684 240.604 30.02C240.455 30.3467 240.222 30.594 239.904 30.762C239.587 30.9207 239.186 31 238.7 31V29.978C238.98 29.978 239.218 29.8893 239.414 29.712C239.62 29.5347 239.722 29.2173 239.722 28.76V24.56H245.252ZM247.471 28.06V27.108H251.769C251.732 26.772 251.638 26.478 251.489 26.226C251.349 25.9647 251.148 25.764 250.887 25.624C250.635 25.4747 250.322 25.4 249.949 25.4C249.576 25.4 249.235 25.4793 248.927 25.638C248.619 25.7967 248.372 26.0253 248.185 26.324C248.008 26.6133 247.919 26.9587 247.919 27.36L247.891 27.78C247.891 28.2747 247.975 28.6947 248.143 29.04C248.311 29.3853 248.549 29.6467 248.857 29.824C249.165 30.0013 249.529 30.09 249.949 30.09C250.266 30.09 250.546 30.0433 250.789 29.95C251.041 29.8473 251.265 29.712 251.461 29.544C251.657 29.3667 251.825 29.1613 251.965 28.928L252.875 29.502C252.66 29.8287 252.422 30.118 252.161 30.37C251.9 30.6127 251.582 30.804 251.209 30.944C250.836 31.0747 250.369 31.14 249.809 31.14C249.23 31.14 248.708 30.9953 248.241 30.706C247.784 30.4167 247.42 30.02 247.149 29.516C246.888 29.0027 246.757 28.424 246.757 27.78C246.757 27.6587 246.762 27.542 246.771 27.43C246.78 27.318 246.794 27.206 246.813 27.094C246.906 26.562 247.093 26.0953 247.373 25.694C247.653 25.2927 248.012 24.98 248.451 24.756C248.899 24.532 249.398 24.42 249.949 24.42C250.556 24.42 251.088 24.5553 251.545 24.826C252.002 25.0967 252.357 25.4793 252.609 25.974C252.861 26.4593 252.987 27.0427 252.987 27.724C252.987 27.78 252.987 27.836 252.987 27.892C252.987 27.948 252.982 28.004 252.973 28.06H247.471ZM255.08 28.13V27.08H259.84V28.13H255.08ZM259.112 24.56H260.232V31H259.112V24.56ZM254.422 24.56H255.542V31H254.422V24.56ZM262.168 24.56H263.288V31H262.168V24.56ZM265.668 24.56H267.068L264.268 27.22L267.348 31H265.948L262.868 27.22L265.668 24.56ZM268.253 28.06V27.108H272.551C272.514 26.772 272.42 26.478 272.271 26.226C272.131 25.9647 271.93 25.764 271.669 25.624C271.417 25.4747 271.104 25.4 270.731 25.4C270.358 25.4 270.017 25.4793 269.709 25.638C269.401 25.7967 269.154 26.0253 268.967 26.324C268.79 26.6133 268.701 26.9587 268.701 27.36L268.673 27.78C268.673 28.2747 268.757 28.6947 268.925 29.04C269.093 29.3853 269.331 29.6467 269.639 29.824C269.947 30.0013 270.311 30.09 270.731 30.09C271.048 30.09 271.328 30.0433 271.571 29.95C271.823 29.8473 272.047 29.712 272.243 29.544C272.439 29.3667 272.607 29.1613 272.747 28.928L273.657 29.502C273.442 29.8287 273.204 30.118 272.943 30.37C272.682 30.6127 272.364 30.804 271.991 30.944C271.618 31.0747 271.151 31.14 270.591 31.14C270.012 31.14 269.49 30.9953 269.023 30.706C268.566 30.4167 268.202 30.02 267.931 29.516C267.67 29.0027 267.539 28.424 267.539 27.78C267.539 27.6587 267.544 27.542 267.553 27.43C267.562 27.318 267.576 27.206 267.595 27.094C267.688 26.562 267.875 26.0953 268.155 25.694C268.435 25.2927 268.794 24.98 269.233 24.756C269.681 24.532 270.18 24.42 270.731 24.42C271.338 24.42 271.87 24.5553 272.327 24.826C272.784 25.0967 273.139 25.4793 273.391 25.974C273.643 26.4593 273.769 27.0427 273.769 27.724C273.769 27.78 273.769 27.836 273.769 27.892C273.769 27.948 273.764 28.004 273.755 28.06H268.253ZM274.787 30.44C274.787 30.2253 274.862 30.0433 275.011 29.894C275.17 29.7447 275.352 29.67 275.557 29.67C275.772 29.67 275.954 29.7447 276.103 29.894C276.252 30.0433 276.327 30.2253 276.327 30.44C276.327 30.6453 276.252 30.8273 276.103 30.986C275.954 31.1353 275.772 31.21 275.557 31.21C275.352 31.21 275.17 31.1353 275.011 30.986C274.862 30.8273 274.787 30.6453 274.787 30.44Z" fill="#596574"/>
</svg>
