<svg width="268" height="29" viewBox="0 0 268 29" fill="none" xmlns="http://www.w3.org/2000/svg">
<path d="M11.4951 9.96L7.40713 21.16H1.94713L11.4951 1.42L21.0151 21.16H15.5551L11.4951 9.96ZM17.9351 22H5.02713V25.08H0.323125V17.94H22.6391V25.08H17.9351V22ZM24.7905 15.56C24.7905 14.1973 25.1079 13.012 25.7425 12.004C26.3772 10.996 27.2545 10.212 28.3745 9.652C29.4945 9.092 30.7545 8.812 32.1545 8.812C33.5545 8.812 34.8052 9.092 35.9065 9.652C37.0265 10.212 37.9039 10.996 38.5385 12.004C39.1919 13.012 39.5185 14.1973 39.5185 15.56C39.5185 16.904 39.1919 18.08 38.5385 19.088C37.9039 20.096 37.0265 20.88 35.9065 21.44C34.8052 22 33.5545 22.28 32.1545 22.28C30.7545 22.28 29.4945 22 28.3745 21.44C27.2545 20.88 26.3772 20.096 25.7425 19.088C25.1079 18.08 24.7905 16.904 24.7905 15.56ZM29.1305 15.56C29.1305 16.232 29.2705 16.8107 29.5505 17.296C29.8305 17.7627 30.1945 18.1267 30.6425 18.388C31.0905 18.6493 31.5945 18.78 32.1545 18.78C32.6959 18.78 33.1905 18.6493 33.6385 18.388C34.1052 18.1267 34.4692 17.7627 34.7305 17.296C35.0105 16.8107 35.1505 16.232 35.1505 15.56C35.1505 14.888 35.0105 14.3093 34.7305 13.824C34.4692 13.3387 34.1052 12.9653 33.6385 12.704C33.1905 12.4427 32.6959 12.312 32.1545 12.312C31.5945 12.312 31.0905 12.4427 30.6425 12.704C30.1945 12.9653 29.8305 13.3387 29.5505 13.824C29.2705 14.3093 29.1305 14.888 29.1305 15.56ZM49.1182 12.312L49.4542 8.84C50.8355 8.84 52.0488 9.12933 53.0942 9.708C54.1582 10.2867 54.9795 11.08 55.5582 12.088C56.1555 13.096 56.4542 14.2533 56.4542 15.56C56.4542 16.848 56.1462 18.0053 55.5302 19.032C54.9328 20.04 54.0835 20.8333 52.9822 21.412C51.8995 21.9907 50.6022 22.28 49.0902 22.28C47.6155 22.28 46.2902 21.972 45.1142 21.356C43.9568 20.7213 43.0422 19.7787 42.3702 18.528C41.7168 17.2773 41.3902 15.728 41.3902 13.88L46.0662 15.56C46.0662 16.232 46.2062 16.8107 46.4862 17.296C46.7662 17.7627 47.1302 18.1267 47.5782 18.388C48.0448 18.6493 48.5488 18.78 49.0902 18.78C49.6502 18.78 50.1542 18.6493 50.6022 18.388C51.0502 18.1267 51.4142 17.7627 51.6942 17.296C51.9742 16.8107 52.1142 16.232 52.1142 15.56C52.1142 14.888 51.9742 14.3093 51.6942 13.824C51.4328 13.3387 51.0688 12.9653 50.6022 12.704C50.1542 12.4427 49.6595 12.312 49.1182 12.312ZM44.1902 15.56C44.1902 14.5147 44.3115 13.5813 44.5542 12.76C44.7968 11.92 45.1515 11.2107 45.6182 10.632C46.0848 10.0533 46.6355 9.61467 47.2702 9.316C47.9235 8.99867 48.6515 8.84 49.4542 8.84L49.1182 12.312C48.7448 12.312 48.3715 12.3867 47.9982 12.536C47.6248 12.6667 47.2888 12.872 46.9902 13.152C46.7102 13.432 46.4862 13.7773 46.3182 14.188C46.1502 14.58 46.0662 15.0373 46.0662 15.56H44.1902ZM41.3902 13.88C41.3902 12.1253 41.5395 10.5853 41.8382 9.26C42.1555 7.916 42.7155 6.768 43.5182 5.816C44.3208 4.84533 45.4502 4.06133 46.9062 3.464C48.1755 2.94133 49.1462 2.428 49.8182 1.924C50.5088 1.42 50.9195 0.831999 51.0502 0.159999H55.1102C55.0168 0.981332 54.7182 1.76533 54.2142 2.512C53.7102 3.25867 53.0475 3.93067 52.2262 4.528C51.4235 5.10667 50.5088 5.592 49.4822 5.984C48.3435 6.41333 47.4475 6.95467 46.7942 7.608C46.1595 8.26133 45.7115 9.008 45.4502 9.848C45.2075 10.6693 45.0862 11.5467 45.0862 12.48L45.7862 15.532L41.3902 13.88ZM63.2973 28.16H59.0693V9.12H63.2973V28.16ZM73.8253 15.56C73.8253 17.0533 73.5266 18.3133 72.9293 19.34C72.3506 20.3667 71.5946 21.1413 70.6613 21.664C69.7466 22.1867 68.7573 22.448 67.6933 22.448C66.5733 22.448 65.6026 22.168 64.7813 21.608C63.9786 21.0293 63.3626 20.2267 62.9333 19.2C62.504 18.1547 62.2893 16.9413 62.2893 15.56C62.2893 14.16 62.504 12.9467 62.9333 11.92C63.3626 10.8933 63.9786 10.1 64.7813 9.54C65.6026 8.96133 66.5733 8.672 67.6933 8.672C68.7573 8.672 69.7466 8.93333 70.6613 9.456C71.5946 9.97867 72.3506 10.7533 72.9293 11.78C73.5266 12.788 73.8253 14.048 73.8253 15.56ZM69.3733 15.56C69.3733 14.888 69.2333 14.3187 68.9533 13.852C68.6733 13.3853 68.3 13.0307 67.8333 12.788C67.3666 12.5453 66.8533 12.424 66.2933 12.424C65.808 12.424 65.332 12.5453 64.8653 12.788C64.4173 13.012 64.044 13.3573 63.7453 13.824C63.4466 14.2907 63.2973 14.8693 63.2973 15.56C63.2973 16.2507 63.4466 16.8293 63.7453 17.296C64.044 17.7627 64.4173 18.1173 64.8653 18.36C65.332 18.584 65.808 18.696 66.2933 18.696C66.8533 18.696 67.3666 18.5747 67.8333 18.332C68.3 18.0893 68.6733 17.7347 68.9533 17.268C69.2333 16.8013 69.3733 16.232 69.3733 15.56ZM75.6226 15.56C75.6226 14.1973 75.9399 13.012 76.5746 12.004C77.2092 10.996 78.0866 10.212 79.2066 9.652C80.3266 9.092 81.5866 8.812 82.9866 8.812C84.3866 8.812 85.6372 9.092 86.7386 9.652C87.8586 10.212 88.7359 10.996 89.3706 12.004C90.0239 13.012 90.3506 14.1973 90.3506 15.56C90.3506 16.904 90.0239 18.08 89.3706 19.088C88.7359 20.096 87.8586 20.88 86.7386 21.44C85.6372 22 84.3866 22.28 82.9866 22.28C81.5866 22.28 80.3266 22 79.2066 21.44C78.0866 20.88 77.2092 20.096 76.5746 19.088C75.9399 18.08 75.6226 16.904 75.6226 15.56ZM79.9626 15.56C79.9626 16.232 80.1026 16.8107 80.3826 17.296C80.6626 17.7627 81.0266 18.1267 81.4746 18.388C81.9226 18.6493 82.4266 18.78 82.9866 18.78C83.5279 18.78 84.0226 18.6493 84.4706 18.388C84.9372 18.1267 85.3012 17.7627 85.5626 17.296C85.8426 16.8107 85.9826 16.232 85.9826 15.56C85.9826 14.888 85.8426 14.3093 85.5626 13.824C85.3012 13.3387 84.9372 12.9653 84.4706 12.704C84.0226 12.4427 83.5279 12.312 82.9866 12.312C82.4266 12.312 81.9226 12.4427 81.4746 12.704C81.0266 12.9653 80.6626 13.3387 80.3826 13.824C80.1026 14.3093 79.9626 14.888 79.9626 15.56ZM114.057 9.12V22H109.997V12.788H105.377V22H101.289V9.12H114.057ZM116.638 15.56C116.638 14.1973 116.956 13.012 117.59 12.004C118.225 10.996 119.102 10.212 120.222 9.652C121.342 9.092 122.602 8.812 124.002 8.812C125.402 8.812 126.653 9.092 127.754 9.652C128.874 10.212 129.752 10.996 130.386 12.004C131.04 13.012 131.366 14.1973 131.366 15.56C131.366 16.904 131.04 18.08 130.386 19.088C129.752 20.096 128.874 20.88 127.754 21.44C126.653 22 125.402 22.28 124.002 22.28C122.602 22.28 121.342 22 120.222 21.44C119.102 20.88 118.225 20.096 117.59 19.088C116.956 18.08 116.638 16.904 116.638 15.56ZM120.978 15.56C120.978 16.232 121.118 16.8107 121.398 17.296C121.678 17.7627 122.042 18.1267 122.49 18.388C122.938 18.6493 123.442 18.78 124.002 18.78C124.544 18.78 125.038 18.6493 125.486 18.388C125.953 18.1267 126.317 17.7627 126.578 17.296C126.858 16.8107 126.998 16.232 126.998 15.56C126.998 14.888 126.858 14.3093 126.578 13.824C126.317 13.3387 125.953 12.9653 125.486 12.704C125.038 12.4427 124.544 12.312 124.002 12.312C123.442 12.312 122.938 12.4427 122.49 12.704C122.042 12.9653 121.678 13.3387 121.398 13.824C121.118 14.3093 120.978 14.888 120.978 15.56ZM151.056 9.12H155.928L150.412 14.552L156.488 22H151.616L145.456 14.44L151.056 9.12ZM146.184 9.12V22H142.152V9.12H146.184ZM137.308 9.12L142.908 14.44L136.748 22H131.848L137.952 14.552L132.408 9.12H137.308ZM161.412 18.164C161.412 18.4627 161.496 18.7147 161.664 18.92C161.832 19.1067 162.056 19.256 162.336 19.368C162.635 19.4613 162.943 19.508 163.26 19.508C163.783 19.508 164.259 19.424 164.688 19.256C165.136 19.088 165.491 18.808 165.752 18.416C166.014 18.024 166.144 17.4827 166.144 16.792L166.592 18.36C166.592 19.1813 166.378 19.8907 165.948 20.488C165.538 21.0667 164.968 21.5147 164.24 21.832C163.531 22.1307 162.728 22.28 161.832 22.28C160.936 22.28 160.134 22.1307 159.424 21.832C158.715 21.5147 158.155 21.0667 157.744 20.488C157.352 19.8907 157.156 19.172 157.156 18.332C157.156 17.4733 157.38 16.736 157.828 16.12C158.295 15.504 158.948 15.028 159.788 14.692C160.628 14.356 161.608 14.188 162.728 14.188C163.382 14.188 163.998 14.2627 164.576 14.412C165.174 14.5427 165.687 14.72 166.116 14.944C166.564 15.1493 166.882 15.3547 167.068 15.56V17.548C166.583 17.1933 166.079 16.932 165.556 16.764C165.052 16.5773 164.436 16.484 163.708 16.484C163.223 16.484 162.803 16.5587 162.448 16.708C162.112 16.8387 161.851 17.0253 161.664 17.268C161.496 17.5107 161.412 17.8093 161.412 18.164ZM159.76 13.096L158.332 10.24C159.06 9.88533 159.928 9.54933 160.936 9.232C161.963 8.91467 163.055 8.756 164.212 8.756C165.37 8.756 166.396 8.924 167.292 9.26C168.207 9.57733 168.916 10.044 169.42 10.66C169.943 11.276 170.204 12.032 170.204 12.928V22H166.144V13.768C166.144 13.2267 165.939 12.7973 165.528 12.48C165.136 12.144 164.586 11.976 163.876 11.976C163.26 11.976 162.672 12.0413 162.112 12.172C161.571 12.3027 161.095 12.4613 160.684 12.648C160.274 12.816 159.966 12.9653 159.76 13.096ZM186.919 9.12V22H182.859V12.956H178.099V17.52C178.099 18.528 177.912 19.368 177.539 20.04C177.166 20.6933 176.531 21.188 175.635 21.524C174.758 21.8413 173.544 22 171.995 22V18.22C172.555 18.22 173.031 18.1173 173.423 17.912C173.834 17.688 174.039 17.212 174.039 16.484V9.12H186.919ZM190.056 15.56C190.056 14.1973 190.373 13.012 191.008 12.004C191.643 10.996 192.52 10.212 193.64 9.652C194.76 9.092 196.02 8.812 197.42 8.812C198.82 8.812 200.071 9.092 201.172 9.652C202.292 10.212 203.169 10.996 203.804 12.004C204.457 13.012 204.784 14.1973 204.784 15.56C204.784 16.904 204.457 18.08 203.804 19.088C203.169 20.096 202.292 20.88 201.172 21.44C200.071 22 198.82 22.28 197.42 22.28C196.02 22.28 194.76 22 193.64 21.44C192.52 20.88 191.643 20.096 191.008 19.088C190.373 18.08 190.056 16.904 190.056 15.56ZM194.396 15.56C194.396 16.232 194.536 16.8107 194.816 17.296C195.096 17.7627 195.46 18.1267 195.908 18.388C196.356 18.6493 196.86 18.78 197.42 18.78C197.961 18.78 198.456 18.6493 198.904 18.388C199.371 18.1267 199.735 17.7627 199.996 17.296C200.276 16.8107 200.416 16.232 200.416 15.56C200.416 14.888 200.276 14.3093 199.996 13.824C199.735 13.3387 199.371 12.9653 198.904 12.704C198.456 12.4427 197.961 12.312 197.42 12.312C196.86 12.312 196.356 12.4427 195.908 12.704C195.46 12.9653 195.096 13.3387 194.816 13.824C194.536 14.3093 194.396 14.888 194.396 15.56ZM210.212 15.28H214.804C215.7 15.28 216.502 15.3733 217.212 15.56C217.921 15.7467 218.481 16.0733 218.892 16.54C219.302 17.0067 219.508 17.66 219.508 18.5C219.508 19.4707 219.181 20.3013 218.528 20.992C217.893 21.664 216.838 22 215.364 22H210.212V19.34H213.936C214.533 19.34 214.944 19.2093 215.168 18.948C215.41 18.668 215.532 18.3693 215.532 18.052C215.532 17.884 215.504 17.7253 215.448 17.576C215.392 17.4267 215.298 17.296 215.168 17.184C215.056 17.072 214.897 16.9787 214.692 16.904C214.486 16.8293 214.234 16.792 213.936 16.792H210.212V15.28ZM210.212 15.84V14.188H213.656C213.88 14.188 214.066 14.16 214.216 14.104C214.384 14.0293 214.524 13.936 214.636 13.824C214.748 13.712 214.832 13.5813 214.888 13.432C214.944 13.2827 214.972 13.1333 214.972 12.984C214.972 12.648 214.86 12.368 214.636 12.144C214.412 11.9013 214.085 11.78 213.656 11.78H210.212V9.12H214.524C215.326 9.12 216.054 9.24133 216.708 9.484C217.38 9.708 217.921 10.0813 218.332 10.604C218.742 11.108 218.948 11.78 218.948 12.62C218.948 13.348 218.742 13.9547 218.332 14.44C217.921 14.9067 217.38 15.2613 216.708 15.504C216.054 15.728 215.326 15.84 214.524 15.84H210.212ZM207.776 9.12H211.836V22H207.776V9.12ZM225.287 18.164C225.287 18.4627 225.371 18.7147 225.539 18.92C225.707 19.1067 225.931 19.256 226.211 19.368C226.51 19.4613 226.818 19.508 227.135 19.508C227.658 19.508 228.134 19.424 228.563 19.256C229.011 19.088 229.366 18.808 229.627 18.416C229.889 18.024 230.019 17.4827 230.019 16.792L230.467 18.36C230.467 19.1813 230.253 19.8907 229.823 20.488C229.413 21.0667 228.843 21.5147 228.115 21.832C227.406 22.1307 226.603 22.28 225.707 22.28C224.811 22.28 224.009 22.1307 223.299 21.832C222.59 21.5147 222.03 21.0667 221.619 20.488C221.227 19.8907 221.031 19.172 221.031 18.332C221.031 17.4733 221.255 16.736 221.703 16.12C222.17 15.504 222.823 15.028 223.663 14.692C224.503 14.356 225.483 14.188 226.603 14.188C227.257 14.188 227.873 14.2627 228.451 14.412C229.049 14.5427 229.562 14.72 229.991 14.944C230.439 15.1493 230.757 15.3547 230.943 15.56V17.548C230.458 17.1933 229.954 16.932 229.431 16.764C228.927 16.5773 228.311 16.484 227.583 16.484C227.098 16.484 226.678 16.5587 226.323 16.708C225.987 16.8387 225.726 17.0253 225.539 17.268C225.371 17.5107 225.287 17.8093 225.287 18.164ZM223.635 13.096L222.207 10.24C222.935 9.88533 223.803 9.54933 224.811 9.232C225.838 8.91467 226.93 8.756 228.087 8.756C229.245 8.756 230.271 8.924 231.167 9.26C232.082 9.57733 232.791 10.044 233.295 10.66C233.818 11.276 234.079 12.032 234.079 12.928V22H230.019V13.768C230.019 13.2267 229.814 12.7973 229.403 12.48C229.011 12.144 228.461 11.976 227.751 11.976C227.135 11.976 226.547 12.0413 225.987 12.172C225.446 12.3027 224.97 12.4613 224.559 12.648C224.149 12.816 223.841 12.9653 223.635 13.096ZM235.73 9.12H244.774V12.62H235.73V9.12ZM238.222 9.68H242.282V22H238.222V9.68ZM246.762 9.12H250.99V22H246.762V9.12ZM250.066 16.204V13.46H254.07C255.395 13.46 256.506 13.7867 257.402 14.44C258.317 15.0747 258.774 16.0827 258.774 17.464C258.774 18.3787 258.569 19.1813 258.158 19.872C257.747 20.5627 257.187 21.0947 256.478 21.468C255.769 21.8227 254.966 22 254.07 22H250.066V18.724H253.314C253.631 18.724 253.893 18.6773 254.098 18.584C254.322 18.4907 254.49 18.3507 254.602 18.164C254.733 17.9587 254.798 17.7253 254.798 17.464C254.798 17.0907 254.667 16.792 254.406 16.568C254.163 16.3253 253.799 16.204 253.314 16.204H250.066ZM262.356 2.4H267.592L266.696 15.532H263.28L262.356 2.4ZM262.356 20.264C262.356 19.5547 262.599 18.976 263.084 18.528C263.588 18.08 264.223 17.856 264.988 17.856C265.753 17.856 266.379 18.08 266.864 18.528C267.368 18.976 267.62 19.5547 267.62 20.264C267.62 20.9733 267.368 21.552 266.864 22C266.379 22.448 265.753 22.672 264.988 22.672C264.223 22.672 263.588 22.448 263.084 22C262.599 21.552 262.356 20.9733 262.356 20.264Z" fill="black"/>
</svg>
