<svg width="204" height="29" viewBox="0 0 204 29" fill="none" xmlns="http://www.w3.org/2000/svg">
<path d="M3.6 12.256V10.184H6.764C7.30533 10.184 7.76267 10.1 8.136 9.932C8.528 9.764 8.82667 9.53067 9.032 9.232C9.23733 8.91467 9.34 8.532 9.34 8.084C9.34 7.412 9.116 6.908 8.668 6.572C8.22 6.236 7.58533 6.068 6.764 6.068H4.804V18.332H7.212C7.828 18.332 8.37867 18.2573 8.864 18.108C9.34933 17.94 9.732 17.6787 10.012 17.324C10.3107 16.9507 10.46 16.4467 10.46 15.812C10.46 15.4013 10.376 15.0467 10.208 14.748C10.04 14.4493 9.80667 14.2067 9.508 14.02C9.20933 13.8333 8.864 13.7027 8.472 13.628C8.09867 13.5347 7.67867 13.488 7.212 13.488H3.6V10.912H7.744C8.696 10.912 9.62 11.0147 10.516 11.22C11.412 11.4253 12.224 11.7613 12.952 12.228C13.68 12.676 14.2587 13.2547 14.688 13.964C15.136 14.6547 15.36 15.4947 15.36 16.484C15.36 17.7907 15.0427 18.8453 14.408 19.648C13.792 20.4507 12.9147 21.048 11.776 21.44C10.6373 21.8133 9.29333 22 7.744 22H0.072V2.4H7.268C8.63067 2.4 9.82533 2.58667 10.852 2.96C11.8973 3.31467 12.7187 3.86533 13.316 4.612C13.932 5.34 14.24 6.264 14.24 7.384C14.24 8.41067 13.932 9.288 13.316 10.016C12.7187 10.744 11.8973 11.304 10.852 11.696C9.82533 12.0693 8.63067 12.256 7.268 12.256H3.6ZM32.0498 9.12H36.3058V22H32.0498V9.12ZM18.2458 9.12H22.5018V22H18.2458V9.12ZM21.5778 16.204V13.46H25.5818C26.9071 13.46 28.0178 13.7867 28.9138 14.44C29.8284 15.0747 30.2858 16.0827 30.2858 17.464C30.2858 18.3787 30.0804 19.1813 29.6698 19.872C29.2591 20.5627 28.6991 21.0947 27.9898 21.468C27.2804 21.8227 26.4778 22 25.5818 22H21.5778V18.724H24.8257C25.1431 18.724 25.4044 18.6773 25.6098 18.584C25.8338 18.4907 26.0018 18.3507 26.1138 18.164C26.2444 17.9587 26.3098 17.7253 26.3098 17.464C26.3098 17.0907 26.1791 16.792 25.9178 16.568C25.6751 16.3253 25.3111 16.204 24.8257 16.204H21.5778ZM46.6572 12.312L46.9932 8.84C48.3746 8.84 49.5879 9.12933 50.6332 9.708C51.6972 10.2867 52.5186 11.08 53.0972 12.088C53.6946 13.096 53.9932 14.2533 53.9932 15.56C53.9932 16.848 53.6852 18.0053 53.0692 19.032C52.4719 20.04 51.6226 20.8333 50.5212 21.412C49.4386 21.9907 48.1412 22.28 46.6292 22.28C45.1546 22.28 43.8292 21.972 42.6532 21.356C41.4959 20.7213 40.5812 19.7787 39.9092 18.528C39.2559 17.2773 38.9292 15.728 38.9292 13.88L43.6052 15.56C43.6052 16.232 43.7452 16.8107 44.0252 17.296C44.3052 17.7627 44.6692 18.1267 45.1172 18.388C45.5839 18.6493 46.0879 18.78 46.6292 18.78C47.1892 18.78 47.6932 18.6493 48.1412 18.388C48.5892 18.1267 48.9532 17.7627 49.2332 17.296C49.5132 16.8107 49.6532 16.232 49.6532 15.56C49.6532 14.888 49.5132 14.3093 49.2332 13.824C48.9719 13.3387 48.6079 12.9653 48.1412 12.704C47.6932 12.4427 47.1986 12.312 46.6572 12.312ZM41.7292 15.56C41.7292 14.5147 41.8506 13.5813 42.0932 12.76C42.3359 11.92 42.6906 11.2107 43.1572 10.632C43.6239 10.0533 44.1746 9.61467 44.8092 9.316C45.4626 8.99867 46.1906 8.84 46.9932 8.84L46.6572 12.312C46.2839 12.312 45.9106 12.3867 45.5372 12.536C45.1639 12.6667 44.8279 12.872 44.5292 13.152C44.2492 13.432 44.0252 13.7773 43.8572 14.188C43.6892 14.58 43.6052 15.0373 43.6052 15.56H41.7292ZM38.9292 13.88C38.9292 12.1253 39.0786 10.5853 39.3772 9.26C39.6946 7.916 40.2546 6.768 41.0572 5.816C41.8599 4.84533 42.9892 4.06133 44.4452 3.464C45.7146 2.94133 46.6852 2.428 47.3572 1.924C48.0479 1.42 48.4586 0.831999 48.5892 0.159999H52.6492C52.5559 0.981332 52.2572 1.76533 51.7532 2.512C51.2492 3.25867 50.5866 3.93067 49.7652 4.528C48.9626 5.10667 48.0479 5.592 47.0212 5.984C45.8826 6.41333 44.9866 6.95467 44.3332 7.608C43.6986 8.26133 43.2506 9.008 42.9892 9.848C42.7466 10.6693 42.6252 11.5467 42.6252 12.48L43.3252 15.532L38.9292 13.88ZM58.2604 16.456V14.104H65.5404C65.4657 13.5813 65.3257 13.1427 65.1204 12.788C64.9337 12.4333 64.663 12.1627 64.3084 11.976C63.9724 11.7707 63.5524 11.668 63.0484 11.668C62.4697 11.668 61.9657 11.7987 61.5364 12.06C61.1257 12.3027 60.799 12.6667 60.5564 13.152C60.3137 13.6187 60.1924 14.1973 60.1924 14.888L60.1364 15.56C60.1364 16.4373 60.267 17.1467 60.5284 17.688C60.8084 18.2293 61.1724 18.6213 61.6204 18.864C62.087 19.1067 62.591 19.228 63.1324 19.228C63.655 19.228 64.1124 19.1627 64.5044 19.032C64.915 18.9013 65.2697 18.7147 65.5684 18.472C65.867 18.2107 66.119 17.9027 66.3244 17.548L70.1044 18.472C69.675 19.256 69.1617 19.9373 68.5644 20.516C67.967 21.076 67.2297 21.5147 66.3524 21.832C65.4937 22.1307 64.439 22.28 63.1884 22.28C61.639 22.28 60.3137 21.9907 59.2124 21.412C58.1297 20.8333 57.299 20.04 56.7204 19.032C56.1604 18.0053 55.8804 16.848 55.8804 15.56C55.8804 15.3173 55.8897 15.084 55.9084 14.86C55.927 14.636 55.955 14.412 55.9924 14.188C56.179 13.124 56.5617 12.1907 57.1404 11.388C57.7377 10.5853 58.531 9.96 59.5204 9.512C60.5284 9.064 61.7324 8.84 63.1324 8.84C64.6444 8.84 65.9137 9.10133 66.9404 9.624C67.967 10.1467 68.7417 10.8933 69.2644 11.864C69.8057 12.8347 70.0764 14.0013 70.0764 15.364C70.0764 15.476 70.0764 15.6347 70.0764 15.84C70.0764 16.0267 70.0577 16.232 70.0204 16.456H58.2604ZM76.9418 28.16H72.7138V9.12H76.9418V28.16ZM87.4698 15.56C87.4698 17.0533 87.1712 18.3133 86.5738 19.34C85.9952 20.3667 85.2392 21.1413 84.3058 21.664C83.3912 22.1867 82.4018 22.448 81.3378 22.448C80.2178 22.448 79.2472 22.168 78.4258 21.608C77.6232 21.0293 77.0072 20.2267 76.5778 19.2C76.1485 18.1547 75.9338 16.9413 75.9338 15.56C75.9338 14.16 76.1485 12.9467 76.5778 11.92C77.0072 10.8933 77.6232 10.1 78.4258 9.54C79.2472 8.96133 80.2178 8.672 81.3378 8.672C82.4018 8.672 83.3912 8.93333 84.3058 9.456C85.2392 9.97867 85.9952 10.7533 86.5738 11.78C87.1712 12.788 87.4698 14.048 87.4698 15.56ZM83.0178 15.56C83.0178 14.888 82.8778 14.3187 82.5978 13.852C82.3178 13.3853 81.9445 13.0307 81.4778 12.788C81.0112 12.5453 80.4978 12.424 79.9378 12.424C79.4525 12.424 78.9765 12.5453 78.5098 12.788C78.0618 13.012 77.6885 13.3573 77.3898 13.824C77.0912 14.2907 76.9418 14.8693 76.9418 15.56C76.9418 16.2507 77.0912 16.8293 77.3898 17.296C77.6885 17.7627 78.0618 18.1173 78.5098 18.36C78.9765 18.584 79.4525 18.696 79.9378 18.696C80.4978 18.696 81.0112 18.5747 81.4778 18.332C81.9445 18.0893 82.3178 17.7347 82.5978 17.268C82.8778 16.8013 83.0178 16.232 83.0178 15.56ZM103.071 12.76L90.0791 22.98L90.2191 18.36L103.211 8.14L103.071 12.76ZM94.1671 9.12V19.032L90.0791 22.98V9.12H94.1671ZM103.211 8.14V22H99.1511V12.088L103.211 8.14ZM105.081 9.12H114.125V12.62H105.081V9.12ZM107.573 9.68H111.633V22H107.573V9.68ZM117.131 16.456V14.104H124.411C124.337 13.5813 124.197 13.1427 123.991 12.788C123.805 12.4333 123.534 12.1627 123.179 11.976C122.843 11.7707 122.423 11.668 121.919 11.668C121.341 11.668 120.837 11.7987 120.407 12.06C119.997 12.3027 119.67 12.6667 119.427 13.152C119.185 13.6187 119.063 14.1973 119.063 14.888L119.007 15.56C119.007 16.4373 119.138 17.1467 119.399 17.688C119.679 18.2293 120.043 18.6213 120.491 18.864C120.958 19.1067 121.462 19.228 122.003 19.228C122.526 19.228 122.983 19.1627 123.375 19.032C123.786 18.9013 124.141 18.7147 124.439 18.472C124.738 18.2107 124.99 17.9027 125.195 17.548L128.975 18.472C128.546 19.256 128.033 19.9373 127.435 20.516C126.838 21.076 126.101 21.5147 125.223 21.832C124.365 22.1307 123.31 22.28 122.059 22.28C120.51 22.28 119.185 21.9907 118.083 21.412C117.001 20.8333 116.17 20.04 115.591 19.032C115.031 18.0053 114.751 16.848 114.751 15.56C114.751 15.3173 114.761 15.084 114.779 14.86C114.798 14.636 114.826 14.412 114.863 14.188C115.05 13.124 115.433 12.1907 116.011 11.388C116.609 10.5853 117.402 9.96 118.391 9.512C119.399 9.064 120.603 8.84 122.003 8.84C123.515 8.84 124.785 9.10133 125.811 9.624C126.838 10.1467 127.613 10.8933 128.135 11.864C128.677 12.8347 128.947 14.0013 128.947 15.364C128.947 15.476 128.947 15.6347 128.947 15.84C128.947 16.0267 128.929 16.232 128.891 16.456H117.131ZM144.207 28.16H139.979V9.12H144.207V28.16ZM154.735 15.56C154.735 17.0533 154.437 18.3133 153.839 19.34C153.261 20.3667 152.505 21.1413 151.571 21.664C150.657 22.1867 149.667 22.448 148.603 22.448C147.483 22.448 146.513 22.168 145.691 21.608C144.889 21.0293 144.273 20.2267 143.843 19.2C143.414 18.1547 143.199 16.9413 143.199 15.56C143.199 14.16 143.414 12.9467 143.843 11.92C144.273 10.8933 144.889 10.1 145.691 9.54C146.513 8.96133 147.483 8.672 148.603 8.672C149.667 8.672 150.657 8.93333 151.571 9.456C152.505 9.97867 153.261 10.7533 153.839 11.78C154.437 12.788 154.735 14.048 154.735 15.56ZM150.283 15.56C150.283 14.888 150.143 14.3187 149.863 13.852C149.583 13.3853 149.21 13.0307 148.743 12.788C148.277 12.5453 147.763 12.424 147.203 12.424C146.718 12.424 146.242 12.5453 145.775 12.788C145.327 13.012 144.954 13.3573 144.655 13.824C144.357 14.2907 144.207 14.8693 144.207 15.56C144.207 16.2507 144.357 16.8293 144.655 17.296C144.954 17.7627 145.327 18.1173 145.775 18.36C146.242 18.584 146.718 18.696 147.203 18.696C147.763 18.696 148.277 18.5747 148.743 18.332C149.21 18.0893 149.583 17.7347 149.863 17.268C150.143 16.8013 150.283 16.232 150.283 15.56ZM156.533 15.56C156.533 14.1973 156.85 13.012 157.485 12.004C158.119 10.996 158.997 10.212 160.117 9.652C161.237 9.092 162.497 8.812 163.897 8.812C165.297 8.812 166.547 9.092 167.649 9.652C168.769 10.212 169.646 10.996 170.281 12.004C170.934 13.012 171.261 14.1973 171.261 15.56C171.261 16.904 170.934 18.08 170.281 19.088C169.646 20.096 168.769 20.88 167.649 21.44C166.547 22 165.297 22.28 163.897 22.28C162.497 22.28 161.237 22 160.117 21.44C158.997 20.88 158.119 20.096 157.485 19.088C156.85 18.08 156.533 16.904 156.533 15.56ZM160.873 15.56C160.873 16.232 161.013 16.8107 161.293 17.296C161.573 17.7627 161.937 18.1267 162.385 18.388C162.833 18.6493 163.337 18.78 163.897 18.78C164.438 18.78 164.933 18.6493 165.381 18.388C165.847 18.1267 166.211 17.7627 166.473 17.296C166.753 16.8107 166.893 16.232 166.893 15.56C166.893 14.888 166.753 14.3093 166.473 13.824C166.211 13.3387 165.847 12.9653 165.381 12.704C164.933 12.4427 164.438 12.312 163.897 12.312C163.337 12.312 162.833 12.4427 162.385 12.704C161.937 12.9653 161.573 13.3387 161.293 13.824C161.013 14.3093 160.873 14.888 160.873 15.56ZM187.356 9.12V22H183.296V12.956H178.536V17.52C178.536 18.528 178.35 19.368 177.976 20.04C177.603 20.6933 176.968 21.188 176.072 21.524C175.195 21.8413 173.982 22 172.432 22V18.22C172.992 18.22 173.468 18.1173 173.86 17.912C174.271 17.688 174.476 17.212 174.476 16.484V9.12H187.356ZM191.446 9.12H195.674V22H191.446V9.12ZM194.75 16.204V13.46H198.754C200.079 13.46 201.19 13.7867 202.086 14.44C203 15.0747 203.458 16.0827 203.458 17.464C203.458 18.3787 203.252 19.1813 202.842 19.872C202.431 20.5627 201.871 21.0947 201.162 21.468C200.452 21.8227 199.65 22 198.754 22H194.75V18.724H197.998C198.315 18.724 198.576 18.6773 198.782 18.584C199.006 18.4907 199.174 18.3507 199.286 18.164C199.416 17.9587 199.482 17.7253 199.482 17.464C199.482 17.0907 199.351 16.792 199.09 16.568C198.847 16.3253 198.483 16.204 197.998 16.204H194.75Z" fill="black"/>
</svg>
