<svg width="272" height="35" viewBox="0 0 272 35" fill="none" xmlns="http://www.w3.org/2000/svg">
<path d="M6.7 2.32H1.31V11H0.12V1.2H7.89V11H6.7V2.32ZM11.0078 14.08H9.88781V4.56H11.0078V14.08ZM16.3978 7.78C16.3978 8.47067 16.2531 9.068 15.9638 9.572C15.6745 10.076 15.2871 10.4633 14.8018 10.734C14.3258 11.0047 13.7938 11.14 13.2058 11.14C12.6738 11.14 12.2025 11.0047 11.7918 10.734C11.3905 10.4633 11.0731 10.076 10.8398 9.572C10.6158 9.068 10.5038 8.47067 10.5038 7.78C10.5038 7.08 10.6158 6.48267 10.8398 5.988C11.0731 5.484 11.3905 5.09667 11.7918 4.826C12.2025 4.55533 12.6738 4.42 13.2058 4.42C13.7938 4.42 14.3258 4.55533 14.8018 4.826C15.2871 5.09667 15.6745 5.484 15.9638 5.988C16.2531 6.48267 16.3978 7.08 16.3978 7.78ZM15.2638 7.78C15.2638 7.28533 15.1611 6.86533 14.9558 6.52C14.7598 6.17467 14.4938 5.91333 14.1578 5.736C13.8311 5.55867 13.4671 5.47 13.0658 5.47C12.7391 5.47 12.4171 5.55867 12.0998 5.736C11.7825 5.91333 11.5211 6.17467 11.3158 6.52C11.1105 6.86533 11.0078 7.28533 11.0078 7.78C11.0078 8.27467 11.1105 8.69467 11.3158 9.04C11.5211 9.38533 11.7825 9.64667 12.0998 9.824C12.4171 10.0013 12.7391 10.09 13.0658 10.09C13.4671 10.09 13.8311 10.0013 14.1578 9.824C14.4938 9.64667 14.7598 9.38533 14.9558 9.04C15.1611 8.69467 15.2638 8.27467 15.2638 7.78ZM23.2322 5.68L17.9122 11.49L17.9822 9.88L23.3022 4.07L23.2322 5.68ZM19.0322 4.56V9.95L17.9122 11.49V4.56H19.0322ZM23.3022 4.07V11H22.1822V5.61L23.3022 4.07ZM30.1264 7.64H31.9884C32.4364 7.64 32.8377 7.68667 33.1924 7.78C33.547 7.87333 33.827 8.03667 34.0324 8.27C34.2377 8.50333 34.3404 8.83 34.3404 9.25C34.3404 9.73533 34.177 10.1507 33.8504 10.496C33.533 10.832 33.0057 11 32.2684 11H30.1264V10.02H31.9884C32.4084 10.02 32.7164 9.93133 32.9124 9.754C33.1177 9.57667 33.2204 9.362 33.2204 9.11C33.2204 8.97933 33.1924 8.86267 33.1364 8.76C33.0897 8.65733 33.015 8.564 32.9124 8.48C32.819 8.396 32.693 8.33533 32.5344 8.298C32.385 8.25133 32.203 8.228 31.9884 8.228H30.1264V7.64ZM30.1264 7.92V7.262H31.8484C32.0164 7.262 32.1657 7.24333 32.2964 7.206C32.4364 7.15933 32.553 7.094 32.6464 7.01C32.7397 6.926 32.8097 6.83267 32.8564 6.73C32.9124 6.618 32.9404 6.50133 32.9404 6.38C32.9404 6.128 32.8424 5.92733 32.6464 5.778C32.4504 5.61933 32.1844 5.54 31.8484 5.54H30.1264V4.56H31.8484C32.2497 4.56 32.6137 4.62067 32.9404 4.742C33.2764 4.854 33.547 5.04067 33.7524 5.302C33.9577 5.554 34.0604 5.89 34.0604 6.31C34.0604 6.674 33.9577 6.97733 33.7524 7.22C33.547 7.45333 33.2764 7.63067 32.9404 7.752C32.6137 7.864 32.2497 7.92 31.8484 7.92H30.1264ZM29.4684 4.56H30.5884V11H29.4684V4.56ZM41.5221 4.56H42.6421V11H41.5221V4.56ZM35.7121 4.56H36.8321V11H35.7121V4.56ZM36.3701 7.976V6.996H38.3721C39.0348 6.996 39.5901 7.15933 40.0381 7.486C40.4954 7.80333 40.7241 8.30733 40.7241 8.998C40.7241 9.45533 40.6214 9.83333 40.4161 10.132C40.2108 10.4307 39.9308 10.65 39.5761 10.79C39.2214 10.93 38.8201 11 38.3721 11H36.3701V10.02H38.3721C38.6428 10.02 38.8668 9.98267 39.0441 9.908C39.2308 9.824 39.3708 9.70733 39.4641 9.558C39.5574 9.39933 39.6041 9.21267 39.6041 8.998C39.6041 8.67133 39.5014 8.41933 39.2961 8.242C39.0908 8.06467 38.7828 7.976 38.3721 7.976H36.3701ZM47.4075 5.47V4.42C48.0422 4.42 48.6069 4.56467 49.1015 4.854C49.6055 5.14333 50.0022 5.54 50.2915 6.044C50.5902 6.548 50.7395 7.12667 50.7395 7.78C50.7395 8.424 50.5902 9.00267 50.2915 9.516C50.0022 10.02 49.6055 10.4167 49.1015 10.706C48.6069 10.9953 48.0422 11.14 47.4075 11.14C46.7822 11.14 46.2175 10.986 45.7135 10.678C45.2095 10.3607 44.8082 9.88933 44.5095 9.264C44.2202 8.63867 44.0755 7.864 44.0755 6.94L45.1955 7.78C45.1955 8.228 45.2935 8.62467 45.4895 8.97C45.6855 9.31533 45.9469 9.59067 46.2735 9.796C46.6095 9.992 46.9875 10.09 47.4075 10.09C47.8275 10.09 48.2009 9.992 48.5275 9.796C48.8635 9.59067 49.1249 9.31533 49.3115 8.97C49.5075 8.62467 49.6055 8.228 49.6055 7.78C49.6055 7.332 49.5075 6.93533 49.3115 6.59C49.1249 6.23533 48.8635 5.96 48.5275 5.764C48.2009 5.568 47.8275 5.47 47.4075 5.47ZM44.6915 7.78C44.6915 7.25733 44.7569 6.79067 44.8875 6.38C45.0182 5.96 45.2049 5.60533 45.4475 5.316C45.6902 5.02667 45.9749 4.80733 46.3015 4.658C46.6375 4.49933 47.0062 4.42 47.4075 4.42V5.47C47.1649 5.47 46.9129 5.52133 46.6515 5.624C46.3902 5.72667 46.1475 5.876 45.9235 6.072C45.7089 6.268 45.5315 6.51067 45.3915 6.8C45.2609 7.08 45.1955 7.40667 45.1955 7.78H44.6915ZM44.0755 6.94C44.0755 6.06267 44.1595 5.288 44.3275 4.616C44.4955 3.944 44.7895 3.37467 45.2095 2.908C45.6389 2.432 46.2269 2.068 46.9735 1.816C47.6082 1.60133 48.0795 1.34467 48.3875 1.046C48.7049 0.738 48.8962 0.416 48.9615 0.0799996H50.0675C50.0209 0.490666 49.8715 0.868666 49.6195 1.214C49.3675 1.55 49.0362 1.844 48.6255 2.096C48.2242 2.348 47.7669 2.558 47.2535 2.726C46.6749 2.91267 46.2222 3.19267 45.8955 3.566C45.5782 3.93933 45.3589 4.364 45.2375 4.84C45.1162 5.30667 45.0555 5.77333 45.0555 6.24V7.682L44.0755 6.94ZM51.6181 7.78C51.6181 7.12667 51.7628 6.548 52.0521 6.044C52.3508 5.54 52.7521 5.14333 53.2561 4.854C53.7601 4.56467 54.3248 4.42 54.9501 4.42C55.5848 4.42 56.1495 4.56467 56.6441 4.854C57.1481 5.14333 57.5448 5.54 57.8341 6.044C58.1328 6.548 58.2821 7.12667 58.2821 7.78C58.2821 8.424 58.1328 9.00267 57.8341 9.516C57.5448 10.02 57.1481 10.4167 56.6441 10.706C56.1495 10.9953 55.5848 11.14 54.9501 11.14C54.3248 11.14 53.7601 10.9953 53.2561 10.706C52.7521 10.4167 52.3508 10.02 52.0521 9.516C51.7628 9.00267 51.6181 8.424 51.6181 7.78ZM52.7521 7.78C52.7521 8.228 52.8455 8.62467 53.0321 8.97C53.2281 9.31533 53.4895 9.59067 53.8161 9.796C54.1521 9.992 54.5301 10.09 54.9501 10.09C55.3701 10.09 55.7435 9.992 56.0701 9.796C56.4061 9.59067 56.6675 9.31533 56.8541 8.97C57.0501 8.62467 57.1481 8.228 57.1481 7.78C57.1481 7.332 57.0501 6.93533 56.8541 6.59C56.6675 6.23533 56.4061 5.96 56.0701 5.764C55.7435 5.568 55.3701 5.47 54.9501 5.47C54.5301 5.47 54.1521 5.568 53.8161 5.764C53.4895 5.96 53.2281 6.23533 53.0321 6.59C52.8455 6.93533 52.7521 7.332 52.7521 7.78ZM60.7707 14.08H59.6507V4.56H60.7707V14.08ZM66.1607 7.78C66.1607 8.47067 66.016 9.068 65.7267 9.572C65.4374 10.076 65.05 10.4633 64.5647 10.734C64.0887 11.0047 63.5567 11.14 62.9687 11.14C62.4367 11.14 61.9654 11.0047 61.5547 10.734C61.1534 10.4633 60.836 10.076 60.6027 9.572C60.3787 9.068 60.2667 8.47067 60.2667 7.78C60.2667 7.08 60.3787 6.48267 60.6027 5.988C60.836 5.484 61.1534 5.09667 61.5547 4.826C61.9654 4.55533 62.4367 4.42 62.9687 4.42C63.5567 4.42 64.0887 4.55533 64.5647 4.826C65.05 5.09667 65.4374 5.484 65.7267 5.988C66.016 6.48267 66.1607 7.08 66.1607 7.78ZM65.0267 7.78C65.0267 7.28533 64.924 6.86533 64.7187 6.52C64.5227 6.17467 64.2567 5.91333 63.9207 5.736C63.594 5.55867 63.23 5.47 62.8287 5.47C62.502 5.47 62.18 5.55867 61.8627 5.736C61.5454 5.91333 61.284 6.17467 61.0787 6.52C60.8734 6.86533 60.7707 7.28533 60.7707 7.78C60.7707 8.27467 60.8734 8.69467 61.0787 9.04C61.284 9.38533 61.5454 9.64667 61.8627 9.824C62.18 10.0013 62.502 10.09 62.8287 10.09C63.23 10.09 63.594 10.0013 63.9207 9.824C64.2567 9.64667 64.5227 9.38533 64.7187 9.04C64.924 8.69467 65.0267 8.27467 65.0267 7.78ZM67.7591 8.06V7.108H72.0571C72.0197 6.772 71.9264 6.478 71.7771 6.226C71.6371 5.96467 71.4364 5.764 71.1751 5.624C70.9231 5.47467 70.6104 5.4 70.2371 5.4C69.8637 5.4 69.5231 5.47933 69.2151 5.638C68.9071 5.79667 68.6597 6.02533 68.4731 6.324C68.2957 6.61333 68.2071 6.95867 68.2071 7.36L68.1791 7.78C68.1791 8.27467 68.2631 8.69467 68.4311 9.04C68.5991 9.38533 68.8371 9.64667 69.1451 9.824C69.4531 10.0013 69.8171 10.09 70.2371 10.09C70.5544 10.09 70.8344 10.0433 71.0771 9.95C71.3291 9.84733 71.5531 9.712 71.7491 9.544C71.9451 9.36667 72.1131 9.16133 72.2531 8.928L73.1631 9.502C72.9484 9.82867 72.7104 10.118 72.4491 10.37C72.1877 10.6127 71.8704 10.804 71.4971 10.944C71.1237 11.0747 70.6571 11.14 70.0971 11.14C69.5184 11.14 68.9957 10.9953 68.5291 10.706C68.0717 10.4167 67.7077 10.02 67.4371 9.516C67.1757 9.00267 67.0451 8.424 67.0451 7.78C67.0451 7.65867 67.0497 7.542 67.0591 7.43C67.0684 7.318 67.0824 7.206 67.1011 7.094C67.1944 6.562 67.3811 6.09533 67.6611 5.694C67.9411 5.29267 68.3004 4.98 68.7391 4.756C69.1871 4.532 69.6864 4.42 70.2371 4.42C70.8437 4.42 71.3757 4.55533 71.8331 4.826C72.2904 5.09667 72.6451 5.47933 72.8971 5.974C73.1491 6.45933 73.2751 7.04267 73.2751 7.724C73.2751 7.78 73.2751 7.836 73.2751 7.892C73.2751 7.948 73.2704 8.004 73.2611 8.06H67.7591ZM75.0349 9.46L76.1549 9.88L74.6149 13.38L73.8029 13.086L75.0349 9.46ZM83.3248 5.82V5.162H84.9068C85.2335 5.162 85.5275 5.106 85.7888 4.994C86.0501 4.882 86.2555 4.71867 86.4048 4.504C86.5541 4.28933 86.6288 4.028 86.6288 3.72C86.6288 3.25333 86.4655 2.894 86.1388 2.642C85.8121 2.38067 85.4015 2.25 84.9068 2.25H83.5768V9.95H85.0468C85.4668 9.95 85.8355 9.87533 86.1528 9.726C86.4795 9.57667 86.7315 9.362 86.9088 9.082C87.0955 8.802 87.1888 8.46133 87.1888 8.06C87.1888 7.76133 87.1375 7.49533 87.0348 7.262C86.9321 7.02867 86.7828 6.83267 86.5868 6.674C86.4001 6.51533 86.1761 6.39867 85.9148 6.324C85.6535 6.24 85.3641 6.198 85.0468 6.198H83.3248V5.54H85.0468C85.5228 5.54 85.9615 5.59133 86.3628 5.694C86.7641 5.79667 87.1141 5.95533 87.4128 6.17C87.7208 6.37533 87.9588 6.64133 88.1268 6.968C88.2948 7.29467 88.3788 7.682 88.3788 8.13C88.3788 8.774 88.2295 9.31067 87.9308 9.74C87.6415 10.16 87.2448 10.4773 86.7408 10.692C86.2461 10.8973 85.6815 11 85.0468 11H82.3868V1.2H84.9068C85.4948 1.2 86.0035 1.28867 86.4328 1.466C86.8715 1.64333 87.2121 1.914 87.4548 2.278C87.6975 2.63267 87.8188 3.09 87.8188 3.65C87.8188 4.10733 87.6975 4.49933 87.4548 4.826C87.2121 5.15267 86.8715 5.4 86.4328 5.568C86.0035 5.736 85.4948 5.82 84.9068 5.82H83.3248ZM95.8334 4.56H96.9534V11H95.8334V4.56ZM90.0234 4.56H91.1434V11H90.0234V4.56ZM90.6814 7.976V6.996H92.6834C93.3461 6.996 93.9014 7.15933 94.3494 7.486C94.8068 7.80333 95.0354 8.30733 95.0354 8.998C95.0354 9.45533 94.9328 9.83333 94.7274 10.132C94.5221 10.4307 94.2421 10.65 93.8874 10.79C93.5328 10.93 93.1314 11 92.6834 11H90.6814V10.02H92.6834C92.9541 10.02 93.1781 9.98267 93.3554 9.908C93.5421 9.824 93.6821 9.70733 93.7754 9.558C93.8688 9.39933 93.9154 9.21267 93.9154 8.998C93.9154 8.67133 93.8128 8.41933 93.6074 8.242C93.4021 8.06467 93.0941 7.976 92.6834 7.976H90.6814ZM102.484 7.78C102.484 7.12667 102.629 6.548 102.918 6.044C103.217 5.54 103.618 5.14333 104.122 4.854C104.626 4.56467 105.191 4.42 105.816 4.42C106.451 4.42 107.015 4.56467 107.51 4.854C108.014 5.14333 108.411 5.54 108.7 6.044C108.999 6.548 109.148 7.12667 109.148 7.78C109.148 8.424 108.999 9.00267 108.7 9.516C108.411 10.02 108.014 10.4167 107.51 10.706C107.015 10.9953 106.451 11.14 105.816 11.14C105.191 11.14 104.626 10.9953 104.122 10.706C103.618 10.4167 103.217 10.02 102.918 9.516C102.629 9.00267 102.484 8.424 102.484 7.78ZM103.618 7.78C103.618 8.228 103.711 8.62467 103.898 8.97C104.094 9.31533 104.355 9.59067 104.682 9.796C105.018 9.992 105.396 10.09 105.816 10.09C106.236 10.09 106.609 9.992 106.936 9.796C107.272 9.59067 107.533 9.31533 107.72 8.97C107.916 8.62467 108.014 8.228 108.014 7.78C108.014 7.332 107.916 6.93533 107.72 6.59C107.533 6.23533 107.272 5.96 106.936 5.764C106.609 5.568 106.236 5.47 105.816 5.47C105.396 5.47 105.018 5.568 104.682 5.764C104.355 5.96 104.094 6.23533 103.898 6.59C103.711 6.93533 103.618 7.332 103.618 7.78ZM115.837 4.56V11H114.717V5.61H111.707V11H110.587V4.56H115.837ZM118.892 14.08H117.772V4.56H118.892V14.08ZM124.282 7.78C124.282 8.47067 124.138 9.068 123.848 9.572C123.559 10.076 123.172 10.4633 122.686 10.734C122.21 11.0047 121.678 11.14 121.09 11.14C120.558 11.14 120.087 11.0047 119.676 10.734C119.275 10.4633 118.958 10.076 118.724 9.572C118.5 9.068 118.388 8.47067 118.388 7.78C118.388 7.08 118.5 6.48267 118.724 5.988C118.958 5.484 119.275 5.09667 119.676 4.826C120.087 4.55533 120.558 4.42 121.09 4.42C121.678 4.42 122.21 4.55533 122.686 4.826C123.172 5.09667 123.559 5.484 123.848 5.988C124.138 6.48267 124.282 7.08 124.282 7.78ZM123.148 7.78C123.148 7.28533 123.046 6.86533 122.84 6.52C122.644 6.17467 122.378 5.91333 122.042 5.736C121.716 5.55867 121.352 5.47 120.95 5.47C120.624 5.47 120.302 5.55867 119.984 5.736C119.667 5.91333 119.406 6.17467 119.2 6.52C118.995 6.86533 118.892 7.28533 118.892 7.78C118.892 8.27467 118.995 8.69467 119.2 9.04C119.406 9.38533 119.667 9.64667 119.984 9.824C120.302 10.0013 120.624 10.09 120.95 10.09C121.352 10.09 121.716 10.0013 122.042 9.824C122.378 9.64667 122.644 9.38533 122.84 9.04C123.046 8.69467 123.148 8.27467 123.148 7.78ZM125.881 8.06V7.108H130.179C130.141 6.772 130.048 6.478 129.899 6.226C129.759 5.96467 129.558 5.764 129.297 5.624C129.045 5.47467 128.732 5.4 128.359 5.4C127.985 5.4 127.645 5.47933 127.337 5.638C127.029 5.79667 126.781 6.02533 126.595 6.324C126.417 6.61333 126.329 6.95867 126.329 7.36L126.301 7.78C126.301 8.27467 126.385 8.69467 126.553 9.04C126.721 9.38533 126.959 9.64667 127.267 9.824C127.575 10.0013 127.939 10.09 128.359 10.09C128.676 10.09 128.956 10.0433 129.199 9.95C129.451 9.84733 129.675 9.712 129.871 9.544C130.067 9.36667 130.235 9.16133 130.375 8.928L131.285 9.502C131.07 9.82867 130.832 10.118 130.571 10.37C130.309 10.6127 129.992 10.804 129.619 10.944C129.245 11.0747 128.779 11.14 128.219 11.14C127.64 11.14 127.117 10.9953 126.651 10.706C126.193 10.4167 125.829 10.02 125.559 9.516C125.297 9.00267 125.167 8.424 125.167 7.78C125.167 7.65867 125.171 7.542 125.181 7.43C125.19 7.318 125.204 7.206 125.223 7.094C125.316 6.562 125.503 6.09533 125.783 5.694C126.063 5.29267 126.422 4.98 126.861 4.756C127.309 4.532 127.808 4.42 128.359 4.42C128.965 4.42 129.497 4.55533 129.955 4.826C130.412 5.09667 130.767 5.47933 131.019 5.974C131.271 6.45933 131.397 7.04267 131.397 7.724C131.397 7.78 131.397 7.836 131.397 7.892C131.397 7.948 131.392 8.004 131.383 8.06H125.881ZM135.634 6.492L133.744 10.58H132.484L135.634 4.07L138.784 10.58H137.524L135.634 6.492ZM138.504 11H132.834V12.26H131.644V9.95H139.624V12.26H138.504V11ZM141.362 8.06V7.108H145.66C145.623 6.772 145.53 6.478 145.38 6.226C145.24 5.96467 145.04 5.764 144.778 5.624C144.526 5.47467 144.214 5.4 143.84 5.4C143.467 5.4 143.126 5.47933 142.818 5.638C142.51 5.79667 142.263 6.02533 142.076 6.324C141.899 6.61333 141.81 6.95867 141.81 7.36L141.782 7.78C141.782 8.27467 141.866 8.69467 142.034 9.04C142.202 9.38533 142.44 9.64667 142.748 9.824C143.056 10.0013 143.42 10.09 143.84 10.09C144.158 10.09 144.438 10.0433 144.68 9.95C144.932 9.84733 145.156 9.712 145.352 9.544C145.548 9.36667 145.716 9.16133 145.856 8.928L146.766 9.502C146.552 9.82867 146.314 10.118 146.052 10.37C145.791 10.6127 145.474 10.804 145.1 10.944C144.727 11.0747 144.26 11.14 143.7 11.14C143.122 11.14 142.599 10.9953 142.132 10.706C141.675 10.4167 141.311 10.02 141.04 9.516C140.779 9.00267 140.648 8.424 140.648 7.78C140.648 7.65867 140.653 7.542 140.662 7.43C140.672 7.318 140.686 7.206 140.704 7.094C140.798 6.562 140.984 6.09533 141.264 5.694C141.544 5.29267 141.904 4.98 142.342 4.756C142.79 4.532 143.29 4.42 143.84 4.42C144.447 4.42 144.979 4.55533 145.436 4.826C145.894 5.09667 146.248 5.47933 146.5 5.974C146.752 6.45933 146.878 7.04267 146.878 7.724C146.878 7.78 146.878 7.836 146.878 7.892C146.878 7.948 146.874 8.004 146.864 8.06H141.362ZM153.955 4.56V11H152.835V5.61H149.545V8.76C149.545 9.264 149.466 9.684 149.307 10.02C149.158 10.3467 148.925 10.594 148.607 10.762C148.29 10.9207 147.889 11 147.403 11V9.978C147.683 9.978 147.921 9.88933 148.117 9.712C148.323 9.53467 148.425 9.21733 148.425 8.76V4.56H153.955ZM156.944 11H155.712L158.092 7.64H159.324L156.944 11ZM161.032 11H159.912V4.56H161.032V11ZM160.374 7.444V8.424H158.372C157.933 8.424 157.532 8.35867 157.168 8.228C156.813 8.09733 156.533 7.892 156.328 7.612C156.123 7.32267 156.02 6.94933 156.02 6.492C156.02 6.02533 156.123 5.652 156.328 5.372C156.533 5.092 156.813 4.88667 157.168 4.756C157.532 4.62533 157.933 4.56 158.372 4.56H160.374V5.54H158.372C158.101 5.54 157.873 5.57733 157.686 5.652C157.509 5.71733 157.373 5.82 157.28 5.96C157.187 6.1 157.14 6.27733 157.14 6.492C157.14 6.70667 157.187 6.884 157.28 7.024C157.373 7.164 157.509 7.27133 157.686 7.346C157.873 7.41133 158.101 7.444 158.372 7.444H160.374ZM162.841 8.06V7.108H167.139C167.102 6.772 167.009 6.478 166.859 6.226C166.719 5.96467 166.519 5.764 166.257 5.624C166.005 5.47467 165.693 5.4 165.319 5.4C164.946 5.4 164.605 5.47933 164.297 5.638C163.989 5.79667 163.742 6.02533 163.555 6.324C163.378 6.61333 163.289 6.95867 163.289 7.36L163.261 7.78C163.261 8.27467 163.345 8.69467 163.513 9.04C163.681 9.38533 163.919 9.64667 164.227 9.824C164.535 10.0013 164.899 10.09 165.319 10.09C165.637 10.09 165.917 10.0433 166.159 9.95C166.411 9.84733 166.635 9.712 166.831 9.544C167.027 9.36667 167.195 9.16133 167.335 8.928L168.245 9.502C168.031 9.82867 167.793 10.118 167.531 10.37C167.27 10.6127 166.953 10.804 166.579 10.944C166.206 11.0747 165.739 11.14 165.179 11.14C164.601 11.14 164.078 10.9953 163.611 10.706C163.154 10.4167 162.79 10.02 162.519 9.516C162.258 9.00267 162.127 8.424 162.127 7.78C162.127 7.65867 162.132 7.542 162.141 7.43C162.151 7.318 162.165 7.206 162.183 7.094C162.277 6.562 162.463 6.09533 162.743 5.694C163.023 5.29267 163.383 4.98 163.821 4.756C164.269 4.532 164.769 4.42 165.319 4.42C165.926 4.42 166.458 4.55533 166.915 4.826C167.373 5.09667 167.727 5.47933 167.979 5.974C168.231 6.45933 168.357 7.04267 168.357 7.724C168.357 7.78 168.357 7.836 168.357 7.892C168.357 7.948 168.353 8.004 168.343 8.06H162.841ZM168.813 4.56H172.593V5.61H168.813V4.56ZM170.143 4.84H171.263V11H170.143V4.84ZM173.565 8.06V7.108H177.863C177.826 6.772 177.733 6.478 177.583 6.226C177.443 5.96467 177.243 5.764 176.981 5.624C176.729 5.47467 176.417 5.4 176.043 5.4C175.67 5.4 175.329 5.47933 175.021 5.638C174.713 5.79667 174.466 6.02533 174.279 6.324C174.102 6.61333 174.013 6.95867 174.013 7.36L173.985 7.78C173.985 8.27467 174.069 8.69467 174.237 9.04C174.405 9.38533 174.643 9.64667 174.951 9.824C175.259 10.0013 175.623 10.09 176.043 10.09C176.361 10.09 176.641 10.0433 176.883 9.95C177.135 9.84733 177.359 9.712 177.555 9.544C177.751 9.36667 177.919 9.16133 178.059 8.928L178.969 9.502C178.755 9.82867 178.517 10.118 178.255 10.37C177.994 10.6127 177.677 10.804 177.303 10.944C176.93 11.0747 176.463 11.14 175.903 11.14C175.325 11.14 174.802 10.9953 174.335 10.706C173.878 10.4167 173.514 10.02 173.243 9.516C172.982 9.00267 172.851 8.424 172.851 7.78C172.851 7.65867 172.856 7.542 172.865 7.43C172.875 7.318 172.889 7.206 172.907 7.094C173.001 6.562 173.187 6.09533 173.467 5.694C173.747 5.29267 174.107 4.98 174.545 4.756C174.993 4.532 175.493 4.42 176.043 4.42C176.65 4.42 177.182 4.55533 177.639 4.826C178.097 5.09667 178.451 5.47933 178.703 5.974C178.955 6.45933 179.081 7.04267 179.081 7.724C179.081 7.78 179.081 7.836 179.081 7.892C179.081 7.948 179.077 8.004 179.067 8.06H173.565ZM188.114 6.492L186.224 10.58H184.964L188.114 4.07L191.264 10.58H190.004L188.114 6.492ZM190.984 11H185.314V12.26H184.124V9.95H192.104V12.26H190.984V11ZM199.329 4.56V11H198.209V5.61H194.919V8.76C194.919 9.264 194.84 9.684 194.681 10.02C194.532 10.3467 194.299 10.594 193.981 10.762C193.664 10.9207 193.263 11 192.777 11V9.978C193.057 9.978 193.295 9.88933 193.491 9.712C193.697 9.53467 193.799 9.21733 193.799 8.76V4.56H199.329ZM202.318 11H201.086L203.466 7.64H204.698L202.318 11ZM206.406 11H205.286V4.56H206.406V11ZM205.748 7.444V8.424H203.746C203.307 8.424 202.906 8.35867 202.542 8.228C202.187 8.09733 201.907 7.892 201.702 7.612C201.497 7.32267 201.394 6.94933 201.394 6.492C201.394 6.02533 201.497 5.652 201.702 5.372C201.907 5.092 202.187 4.88667 202.542 4.756C202.906 4.62533 203.307 4.56 203.746 4.56H205.748V5.54H203.746C203.475 5.54 203.247 5.57733 203.06 5.652C202.883 5.71733 202.747 5.82 202.654 5.96C202.561 6.1 202.514 6.27733 202.514 6.492C202.514 6.70667 202.561 6.884 202.654 7.024C202.747 7.164 202.883 7.27133 203.06 7.346C203.247 7.41133 203.475 7.444 203.746 7.444H205.748ZM212.663 7.78C212.663 8.228 212.756 8.62467 212.943 8.97C213.139 9.31533 213.4 9.59067 213.727 9.796C214.063 9.992 214.441 10.09 214.861 10.09C215.206 10.09 215.528 10.0387 215.827 9.936C216.135 9.824 216.401 9.67933 216.625 9.502C216.849 9.31533 217.008 9.11933 217.101 8.914V10.314C216.877 10.5753 216.555 10.7807 216.135 10.93C215.724 11.07 215.3 11.14 214.861 11.14C214.236 11.14 213.671 10.9953 213.167 10.706C212.663 10.4167 212.262 10.02 211.963 9.516C211.674 9.00267 211.529 8.424 211.529 7.78C211.529 7.12667 211.674 6.548 211.963 6.044C212.262 5.54 212.663 5.14333 213.167 4.854C213.671 4.56467 214.236 4.42 214.861 4.42C215.3 4.42 215.724 4.49467 216.135 4.644C216.555 4.784 216.877 4.98467 217.101 5.246V6.646C217.008 6.43133 216.849 6.23533 216.625 6.058C216.401 5.88067 216.135 5.74067 215.827 5.638C215.528 5.526 215.206 5.47 214.861 5.47C214.441 5.47 214.063 5.568 213.727 5.764C213.4 5.96 213.139 6.23533 212.943 6.59C212.756 6.93533 212.663 7.332 212.663 7.78ZM218.899 8.06V7.108H223.197C223.159 6.772 223.066 6.478 222.917 6.226C222.777 5.96467 222.576 5.764 222.315 5.624C222.063 5.47467 221.75 5.4 221.377 5.4C221.003 5.4 220.663 5.47933 220.355 5.638C220.047 5.79667 219.799 6.02533 219.613 6.324C219.435 6.61333 219.347 6.95867 219.347 7.36L219.319 7.78C219.319 8.27467 219.403 8.69467 219.571 9.04C219.739 9.38533 219.977 9.64667 220.285 9.824C220.593 10.0013 220.957 10.09 221.377 10.09C221.694 10.09 221.974 10.0433 222.217 9.95C222.469 9.84733 222.693 9.712 222.889 9.544C223.085 9.36667 223.253 9.16133 223.393 8.928L224.303 9.502C224.088 9.82867 223.85 10.118 223.589 10.37C223.327 10.6127 223.01 10.804 222.637 10.944C222.263 11.0747 221.797 11.14 221.237 11.14C220.658 11.14 220.135 10.9953 219.669 10.706C219.211 10.4167 218.847 10.02 218.577 9.516C218.315 9.00267 218.185 8.424 218.185 7.78C218.185 7.65867 218.189 7.542 218.199 7.43C218.208 7.318 218.222 7.206 218.241 7.094C218.334 6.562 218.521 6.09533 218.801 5.694C219.081 5.29267 219.44 4.98 219.879 4.756C220.327 4.532 220.826 4.42 221.377 4.42C221.983 4.42 222.515 4.55533 222.973 4.826C223.43 5.09667 223.785 5.47933 224.037 5.974C224.289 6.45933 224.415 7.04267 224.415 7.724C224.415 7.78 224.415 7.836 224.415 7.892C224.415 7.948 224.41 8.004 224.401 8.06H218.899ZM228.622 5.47V4.42C229.256 4.42 229.821 4.56467 230.316 4.854C230.82 5.14333 231.216 5.54 231.506 6.044C231.804 6.548 231.954 7.12667 231.954 7.78C231.954 8.424 231.804 9.00267 231.506 9.516C231.216 10.02 230.82 10.4167 230.316 10.706C229.821 10.9953 229.256 11.14 228.622 11.14C227.996 11.14 227.432 10.986 226.928 10.678C226.424 10.3607 226.022 9.88933 225.724 9.264C225.434 8.63867 225.29 7.864 225.29 6.94L226.41 7.78C226.41 8.228 226.508 8.62467 226.704 8.97C226.9 9.31533 227.161 9.59067 227.488 9.796C227.824 9.992 228.202 10.09 228.622 10.09C229.042 10.09 229.415 9.992 229.742 9.796C230.078 9.59067 230.339 9.31533 230.526 8.97C230.722 8.62467 230.82 8.228 230.82 7.78C230.82 7.332 230.722 6.93533 230.526 6.59C230.339 6.23533 230.078 5.96 229.742 5.764C229.415 5.568 229.042 5.47 228.622 5.47ZM225.906 7.78C225.906 7.25733 225.971 6.79067 226.102 6.38C226.232 5.96 226.419 5.60533 226.662 5.316C226.904 5.02667 227.189 4.80733 227.516 4.658C227.852 4.49933 228.22 4.42 228.622 4.42V5.47C228.379 5.47 228.127 5.52133 227.866 5.624C227.604 5.72667 227.362 5.876 227.138 6.072C226.923 6.268 226.746 6.51067 226.606 6.8C226.475 7.08 226.41 7.40667 226.41 7.78H225.906ZM225.29 6.94C225.29 6.06267 225.374 5.288 225.542 4.616C225.71 3.944 226.004 3.37467 226.424 2.908C226.853 2.432 227.441 2.068 228.188 1.816C228.822 1.60133 229.294 1.34467 229.602 1.046C229.919 0.738 230.11 0.416 230.176 0.0799996H231.282C231.235 0.490666 231.086 0.868666 230.834 1.214C230.582 1.55 230.25 1.844 229.84 2.096C229.438 2.348 228.981 2.558 228.468 2.726C227.889 2.91267 227.436 3.19267 227.11 3.566C226.792 3.93933 226.573 4.364 226.452 4.84C226.33 5.30667 226.27 5.77333 226.27 6.24V7.682L225.29 6.94ZM234.316 11H233.084L235.464 7.64H236.696L234.316 11ZM238.404 11H237.284V4.56H238.404V11ZM237.746 7.444V8.424H235.744C235.306 8.424 234.904 8.35867 234.54 8.228C234.186 8.09733 233.906 7.892 233.7 7.612C233.495 7.32267 233.392 6.94933 233.392 6.492C233.392 6.02533 233.495 5.652 233.7 5.372C233.906 5.092 234.186 4.88667 234.54 4.756C234.904 4.62533 235.306 4.56 235.744 4.56H237.746V5.54H235.744C235.474 5.54 235.245 5.57733 235.058 5.652C234.881 5.71733 234.746 5.82 234.652 5.96C234.559 6.1 234.512 6.27733 234.512 6.492C234.512 6.70667 234.559 6.884 234.652 7.024C234.746 7.164 234.881 7.27133 235.058 7.346C235.245 7.41133 235.474 7.444 235.744 7.444H237.746ZM249.407 9.95H250.527V12.26H249.547V11H244.157V4.56H245.277V9.95H248.287V4.56H249.407V9.95ZM252.127 8.06V7.108H256.425C256.388 6.772 256.294 6.478 256.145 6.226C256.005 5.96467 255.804 5.764 255.543 5.624C255.291 5.47467 254.978 5.4 254.605 5.4C254.232 5.4 253.891 5.47933 253.583 5.638C253.275 5.79667 253.028 6.02533 252.841 6.324C252.664 6.61333 252.575 6.95867 252.575 7.36L252.547 7.78C252.547 8.27467 252.631 8.69467 252.799 9.04C252.967 9.38533 253.205 9.64667 253.513 9.824C253.821 10.0013 254.185 10.09 254.605 10.09C254.922 10.09 255.202 10.0433 255.445 9.95C255.697 9.84733 255.921 9.712 256.117 9.544C256.313 9.36667 256.481 9.16133 256.621 8.928L257.531 9.502C257.316 9.82867 257.078 10.118 256.817 10.37C256.556 10.6127 256.238 10.804 255.865 10.944C255.492 11.0747 255.025 11.14 254.465 11.14C253.886 11.14 253.364 10.9953 252.897 10.706C252.44 10.4167 252.076 10.02 251.805 9.516C251.544 9.00267 251.413 8.424 251.413 7.78C251.413 7.65867 251.418 7.542 251.427 7.43C251.436 7.318 251.45 7.206 251.469 7.094C251.562 6.562 251.749 6.09533 252.029 5.694C252.309 5.29267 252.668 4.98 253.107 4.756C253.555 4.532 254.054 4.42 254.605 4.42C255.212 4.42 255.744 4.55533 256.201 4.826C256.658 5.09667 257.013 5.47933 257.265 5.974C257.517 6.45933 257.643 7.04267 257.643 7.724C257.643 7.78 257.643 7.836 257.643 7.892C257.643 7.948 257.638 8.004 257.629 8.06H252.127ZM264.72 4.56V11H263.6V5.61H260.31V8.76C260.31 9.264 260.231 9.684 260.072 10.02C259.923 10.3467 259.689 10.594 259.372 10.762C259.055 10.9207 258.653 11 258.168 11V9.978C258.448 9.978 258.686 9.88933 258.882 9.712C259.087 9.53467 259.19 9.21733 259.19 8.76V4.56H264.72ZM266.785 4.56H267.905V11H266.785V4.56ZM267.443 7.976V6.996H269.445C270.107 6.996 270.663 7.15933 271.111 7.486C271.568 7.80333 271.797 8.30733 271.797 8.998C271.797 9.45533 271.694 9.83333 271.489 10.132C271.283 10.4307 271.003 10.65 270.649 10.79C270.294 10.93 269.893 11 269.445 11H267.443V10.02H269.445C269.715 10.02 269.939 9.98267 270.117 9.908C270.303 9.824 270.443 9.70733 270.537 9.558C270.63 9.39933 270.677 9.21267 270.677 8.998C270.677 8.67133 270.574 8.41933 270.369 8.242C270.163 8.06467 269.855 7.976 269.445 7.976H267.443ZM5.3 24.56V31H4.18V25.61H1.17V31H0.05V24.56H5.3ZM8.35547 34.08H7.23547V24.56H8.35547V34.08ZM13.7455 27.78C13.7455 28.4707 13.6008 29.068 13.3115 29.572C13.0221 30.076 12.6348 30.4633 12.1495 30.734C11.6735 31.0047 11.1415 31.14 10.5535 31.14C10.0215 31.14 9.55014 31.0047 9.13947 30.734C8.73814 30.4633 8.4208 30.076 8.18747 29.572C7.96347 29.068 7.85147 28.4707 7.85147 27.78C7.85147 27.08 7.96347 26.4827 8.18747 25.988C8.4208 25.484 8.73814 25.0967 9.13947 24.826C9.55014 24.5553 10.0215 24.42 10.5535 24.42C11.1415 24.42 11.6735 24.5553 12.1495 24.826C12.6348 25.0967 13.0221 25.484 13.3115 25.988C13.6008 26.4827 13.7455 27.08 13.7455 27.78ZM12.6115 27.78C12.6115 27.2853 12.5088 26.8653 12.3035 26.52C12.1075 26.1747 11.8415 25.9133 11.5055 25.736C11.1788 25.5587 10.8148 25.47 10.4135 25.47C10.0868 25.47 9.7648 25.5587 9.44747 25.736C9.13014 25.9133 8.8688 26.1747 8.66347 26.52C8.45814 26.8653 8.35547 27.2853 8.35547 27.78C8.35547 28.2747 8.45814 28.6947 8.66347 29.04C8.8688 29.3853 9.13014 29.6467 9.44747 29.824C9.7648 30.0013 10.0868 30.09 10.4135 30.09C10.8148 30.09 11.1788 30.0013 11.5055 29.824C11.8415 29.6467 12.1075 29.3853 12.3035 29.04C12.5088 28.6947 12.6115 28.2747 12.6115 27.78ZM15.3438 28.06V27.108H19.6418C19.6045 26.772 19.5112 26.478 19.3618 26.226C19.2218 25.9647 19.0212 25.764 18.7598 25.624C18.5078 25.4747 18.1952 25.4 17.8218 25.4C17.4485 25.4 17.1078 25.4793 16.7998 25.638C16.4918 25.7967 16.2445 26.0253 16.0578 26.324C15.8805 26.6133 15.7918 26.9587 15.7918 27.36L15.7638 27.78C15.7638 28.2747 15.8478 28.6947 16.0158 29.04C16.1838 29.3853 16.4218 29.6467 16.7298 29.824C17.0378 30.0013 17.4018 30.09 17.8218 30.09C18.1392 30.09 18.4192 30.0433 18.6618 29.95C18.9138 29.8473 19.1378 29.712 19.3338 29.544C19.5298 29.3667 19.6978 29.1613 19.8378 28.928L20.7478 29.502C20.5332 29.8287 20.2952 30.118 20.0338 30.37C19.7725 30.6127 19.4552 30.804 19.0818 30.944C18.7085 31.0747 18.2418 31.14 17.6818 31.14C17.1032 31.14 16.5805 30.9953 16.1138 30.706C15.6565 30.4167 15.2925 30.02 15.0218 29.516C14.7605 29.0027 14.6298 28.424 14.6298 27.78C14.6298 27.6587 14.6345 27.542 14.6438 27.43C14.6532 27.318 14.6672 27.206 14.6858 27.094C14.7792 26.562 14.9658 26.0953 15.2458 25.694C15.5258 25.2927 15.8852 24.98 16.3238 24.756C16.7718 24.532 17.2712 24.42 17.8218 24.42C18.4285 24.42 18.9605 24.5553 19.4178 24.826C19.8752 25.0967 20.2298 25.4793 20.4818 25.974C20.7338 26.4593 20.8598 27.0427 20.8598 27.724C20.8598 27.78 20.8598 27.836 20.8598 27.892C20.8598 27.948 20.8552 28.004 20.8458 28.06H15.3438ZM25.0669 25.47V24.42C25.7016 24.42 26.2663 24.5647 26.7609 24.854C27.2649 25.1433 27.6616 25.54 27.9509 26.044C28.2496 26.548 28.3989 27.1267 28.3989 27.78C28.3989 28.424 28.2496 29.0027 27.9509 29.516C27.6616 30.02 27.2649 30.4167 26.7609 30.706C26.2663 30.9953 25.7016 31.14 25.0669 31.14C24.4416 31.14 23.8769 30.986 23.3729 30.678C22.8689 30.3607 22.4676 29.8893 22.1689 29.264C21.8796 28.6387 21.7349 27.864 21.7349 26.94L22.8549 27.78C22.8549 28.228 22.9529 28.6247 23.1489 28.97C23.3449 29.3153 23.6063 29.5907 23.9329 29.796C24.2689 29.992 24.6469 30.09 25.0669 30.09C25.4869 30.09 25.8603 29.992 26.1869 29.796C26.5229 29.5907 26.7843 29.3153 26.9709 28.97C27.1669 28.6247 27.2649 28.228 27.2649 27.78C27.2649 27.332 27.1669 26.9353 26.9709 26.59C26.7843 26.2353 26.5229 25.96 26.1869 25.764C25.8603 25.568 25.4869 25.47 25.0669 25.47ZM22.3509 27.78C22.3509 27.2573 22.4163 26.7907 22.5469 26.38C22.6776 25.96 22.8643 25.6053 23.1069 25.316C23.3496 25.0267 23.6343 24.8073 23.9609 24.658C24.2969 24.4993 24.6656 24.42 25.0669 24.42V25.47C24.8243 25.47 24.5723 25.5213 24.3109 25.624C24.0496 25.7267 23.8069 25.876 23.5829 26.072C23.3683 26.268 23.1909 26.5107 23.0509 26.8C22.9203 27.08 22.8549 27.4067 22.8549 27.78H22.3509ZM21.7349 26.94C21.7349 26.0627 21.8189 25.288 21.9869 24.616C22.1549 23.944 22.4489 23.3747 22.8689 22.908C23.2983 22.432 23.8863 22.068 24.6329 21.816C25.2676 21.6013 25.7389 21.3447 26.0469 21.046C26.3643 20.738 26.5556 20.416 26.6209 20.08H27.7269C27.6803 20.4907 27.5309 20.8687 27.2789 21.214C27.0269 21.55 26.6956 21.844 26.2849 22.096C25.8836 22.348 25.4263 22.558 24.9129 22.726C24.3343 22.9127 23.8816 23.1927 23.5549 23.566C23.2376 23.9393 23.0183 24.364 22.8969 24.84C22.7756 25.3067 22.7149 25.7733 22.7149 26.24V27.682L21.7349 26.94ZM35.6475 24.56H36.7675V31H35.6475V24.56ZM29.8375 24.56H30.9575V31H29.8375V24.56ZM30.4955 27.976V26.996H32.4975C33.1602 26.996 33.7155 27.1593 34.1635 27.486C34.6208 27.8033 34.8495 28.3073 34.8495 28.998C34.8495 29.4553 34.7468 29.8333 34.5415 30.132C34.3362 30.4307 34.0562 30.65 33.7015 30.79C33.3468 30.93 32.9455 31 32.4975 31H30.4955V30.02H32.4975C32.7682 30.02 32.9922 29.9827 33.1695 29.908C33.3562 29.824 33.4962 29.7073 33.5895 29.558C33.6828 29.3993 33.7295 29.2127 33.7295 28.998C33.7295 28.6713 33.6268 28.4193 33.4215 28.242C33.2162 28.0647 32.9082 27.976 32.4975 27.976H30.4955ZM39.4189 27.64H41.2809C41.7289 27.64 42.1303 27.6867 42.4849 27.78C42.8396 27.8733 43.1196 28.0367 43.3249 28.27C43.5303 28.5033 43.6329 28.83 43.6329 29.25C43.6329 29.7353 43.4696 30.1507 43.1429 30.496C42.8256 30.832 42.2983 31 41.5609 31H39.4189V30.02H41.2809C41.7009 30.02 42.0089 29.9313 42.2049 29.754C42.4103 29.5767 42.5129 29.362 42.5129 29.11C42.5129 28.9793 42.4849 28.8627 42.4289 28.76C42.3823 28.6573 42.3076 28.564 42.2049 28.48C42.1116 28.396 41.9856 28.3353 41.8269 28.298C41.6776 28.2513 41.4956 28.228 41.2809 28.228H39.4189V27.64ZM39.4189 27.92V27.262H41.1409C41.3089 27.262 41.4583 27.2433 41.5889 27.206C41.7289 27.1593 41.8456 27.094 41.9389 27.01C42.0323 26.926 42.1023 26.8327 42.1489 26.73C42.2049 26.618 42.2329 26.5013 42.2329 26.38C42.2329 26.128 42.1349 25.9273 41.9389 25.778C41.7429 25.6193 41.4769 25.54 41.1409 25.54H39.4189V24.56H41.1409C41.5423 24.56 41.9063 24.6207 42.2329 24.742C42.5689 24.854 42.8396 25.0407 43.0449 25.302C43.2503 25.554 43.3529 25.89 43.3529 26.31C43.3529 26.674 43.2503 26.9773 43.0449 27.22C42.8396 27.4533 42.5689 27.6307 42.2329 27.752C41.9063 27.864 41.5423 27.92 41.1409 27.92H39.4189ZM38.7609 24.56H39.8809V31H38.7609V24.56ZM45.5087 29.11C45.5087 29.334 45.5694 29.5253 45.6907 29.684C45.812 29.8333 45.9754 29.95 46.1807 30.034C46.386 30.1087 46.6147 30.146 46.8667 30.146C47.24 30.146 47.5714 30.09 47.8607 29.978C48.15 29.866 48.374 29.6887 48.5327 29.446C48.7007 29.2033 48.7847 28.8813 48.7847 28.48L49.0087 29.18C49.0087 29.5907 48.8967 29.9453 48.6727 30.244C48.458 30.5333 48.1687 30.7573 47.8047 30.916C47.4407 31.0653 47.0347 31.14 46.5867 31.14C46.1854 31.14 45.8167 31.0653 45.4807 30.916C45.1447 30.7667 44.874 30.5473 44.6687 30.258C44.4727 29.9593 44.3747 29.5907 44.3747 29.152C44.3747 28.6947 44.4867 28.3073 44.7107 27.99C44.9347 27.6727 45.252 27.43 45.6627 27.262C46.0734 27.0847 46.5587 26.996 47.1187 26.996C47.5294 26.996 47.8794 27.052 48.1687 27.164C48.4674 27.2667 48.7054 27.388 48.8827 27.528C49.06 27.6587 49.1814 27.766 49.2467 27.85V28.508C48.9294 28.284 48.6074 28.1207 48.2807 28.018C47.954 27.906 47.5854 27.85 47.1747 27.85C46.8014 27.85 46.4887 27.9013 46.2367 28.004C45.994 28.1067 45.812 28.2513 45.6907 28.438C45.5694 28.6247 45.5087 28.8487 45.5087 29.11ZM45.5087 26.072L44.9627 25.218C45.2054 25.0407 45.532 24.8633 45.9427 24.686C46.3534 24.5087 46.848 24.42 47.4267 24.42C47.9214 24.42 48.3507 24.4993 48.7147 24.658C49.088 24.8073 49.3774 25.0267 49.5827 25.316C49.7974 25.6053 49.9047 25.96 49.9047 26.38V31H48.7847V26.38C48.7847 26.0533 48.6447 25.8107 48.3647 25.652C48.094 25.484 47.7814 25.4 47.4267 25.4C47.1187 25.4 46.8387 25.442 46.5867 25.526C46.3347 25.6007 46.1154 25.694 45.9287 25.806C45.7514 25.9087 45.6114 25.9973 45.5087 26.072ZM52.3576 28.13V27.08H57.1176V28.13H52.3576ZM56.3896 24.56H57.5096V31H56.3896V24.56ZM51.6996 24.56H52.8196V31H51.6996V24.56ZM64.9056 25.68L59.5856 31.49L59.6556 29.88L64.9756 24.07L64.9056 25.68ZM60.7056 24.56V29.95L59.5856 31.49V24.56H60.7056ZM64.9756 24.07V31H63.8556V25.61L64.9756 24.07ZM67.9685 31H66.7365L69.1165 27.64H70.3485L67.9685 31ZM72.0565 31H70.9365V24.56H72.0565V31ZM71.3985 27.444V28.424H69.3965C68.9579 28.424 68.5565 28.3587 68.1925 28.228C67.8379 28.0973 67.5579 27.892 67.3525 27.612C67.1472 27.3227 67.0445 26.9493 67.0445 26.492C67.0445 26.0253 67.1472 25.652 67.3525 25.372C67.5579 25.092 67.8379 24.8867 68.1925 24.756C68.5565 24.6253 68.9579 24.56 69.3965 24.56H71.3985V25.54H69.3965C69.1259 25.54 68.8972 25.5773 68.7105 25.652C68.5332 25.7173 68.3979 25.82 68.3045 25.96C68.2112 26.1 68.1645 26.2773 68.1645 26.492C68.1645 26.7067 68.2112 26.884 68.3045 27.024C68.3979 27.164 68.5332 27.2713 68.7105 27.346C68.8972 27.4113 69.1259 27.444 69.3965 27.444H71.3985ZM78.4674 27.64H80.3294C80.7774 27.64 81.1787 27.6867 81.5334 27.78C81.888 27.8733 82.168 28.0367 82.3734 28.27C82.5787 28.5033 82.6814 28.83 82.6814 29.25C82.6814 29.7353 82.518 30.1507 82.1914 30.496C81.874 30.832 81.3467 31 80.6094 31H78.4674V30.02H80.3294C80.7494 30.02 81.0574 29.9313 81.2534 29.754C81.4587 29.5767 81.5614 29.362 81.5614 29.11C81.5614 28.9793 81.5334 28.8627 81.4774 28.76C81.4307 28.6573 81.356 28.564 81.2534 28.48C81.16 28.396 81.034 28.3353 80.8754 28.298C80.726 28.2513 80.544 28.228 80.3294 28.228H78.4674V27.64ZM78.4674 27.92V27.262H80.1894C80.3574 27.262 80.5067 27.2433 80.6374 27.206C80.7774 27.1593 80.894 27.094 80.9874 27.01C81.0807 26.926 81.1507 26.8327 81.1974 26.73C81.2534 26.618 81.2814 26.5013 81.2814 26.38C81.2814 26.128 81.1834 25.9273 80.9874 25.778C80.7914 25.6193 80.5254 25.54 80.1894 25.54H78.4674V24.56H80.1894C80.5907 24.56 80.9547 24.6207 81.2814 24.742C81.6174 24.854 81.888 25.0407 82.0934 25.302C82.2987 25.554 82.4014 25.89 82.4014 26.31C82.4014 26.674 82.2987 26.9773 82.0934 27.22C81.888 27.4533 81.6174 27.6307 81.2814 27.752C80.9547 27.864 80.5907 27.92 80.1894 27.92H78.4674ZM77.8094 24.56H78.9294V31H77.8094V24.56ZM88.6544 27.78C88.6544 28.228 88.7477 28.6247 88.9344 28.97C89.1304 29.3153 89.3917 29.5907 89.7184 29.796C90.0544 29.992 90.4324 30.09 90.8524 30.09C91.1977 30.09 91.5197 30.0387 91.8184 29.936C92.1264 29.824 92.3924 29.6793 92.6164 29.502C92.8404 29.3153 92.9991 29.1193 93.0924 28.914V30.314C92.8684 30.5753 92.5464 30.7807 92.1264 30.93C91.7157 31.07 91.2911 31.14 90.8524 31.14C90.2271 31.14 89.6624 30.9953 89.1584 30.706C88.6544 30.4167 88.2531 30.02 87.9544 29.516C87.6651 29.0027 87.5204 28.424 87.5204 27.78C87.5204 27.1267 87.6651 26.548 87.9544 26.044C88.2531 25.54 88.6544 25.1433 89.1584 24.854C89.6624 24.5647 90.2271 24.42 90.8524 24.42C91.2911 24.42 91.7157 24.4947 92.1264 24.644C92.5464 24.784 92.8684 24.9847 93.0924 25.246V26.646C92.9991 26.4313 92.8404 26.2353 92.6164 26.058C92.3924 25.8807 92.1264 25.7407 91.8184 25.638C91.5197 25.526 91.1977 25.47 90.8524 25.47C90.4324 25.47 90.0544 25.568 89.7184 25.764C89.3917 25.96 89.1304 26.2353 88.9344 26.59C88.7477 26.9353 88.6544 27.332 88.6544 27.78ZM94.8899 28.06V27.108H99.1879C99.1506 26.772 99.0573 26.478 98.9079 26.226C98.7679 25.9647 98.5673 25.764 98.3059 25.624C98.0539 25.4747 97.7413 25.4 97.3679 25.4C96.9946 25.4 96.6539 25.4793 96.3459 25.638C96.0379 25.7967 95.7906 26.0253 95.6039 26.324C95.4266 26.6133 95.3379 26.9587 95.3379 27.36L95.3099 27.78C95.3099 28.2747 95.3939 28.6947 95.5619 29.04C95.7299 29.3853 95.9679 29.6467 96.2759 29.824C96.5839 30.0013 96.9479 30.09 97.3679 30.09C97.6853 30.09 97.9653 30.0433 98.2079 29.95C98.4599 29.8473 98.6839 29.712 98.8799 29.544C99.0759 29.3667 99.2439 29.1613 99.3839 28.928L100.294 29.502C100.079 29.8287 99.8413 30.118 99.5799 30.37C99.3186 30.6127 99.0013 30.804 98.6279 30.944C98.2546 31.0747 97.7879 31.14 97.2279 31.14C96.6493 31.14 96.1266 30.9953 95.6599 30.706C95.2026 30.4167 94.8386 30.02 94.5679 29.516C94.3066 29.0027 94.1759 28.424 94.1759 27.78C94.1759 27.6587 94.1806 27.542 94.1899 27.43C94.1993 27.318 94.2133 27.206 94.2319 27.094C94.3253 26.562 94.5119 26.0953 94.7919 25.694C95.0719 25.2927 95.4313 24.98 95.8699 24.756C96.3179 24.532 96.8173 24.42 97.3679 24.42C97.9746 24.42 98.5066 24.5553 98.9639 24.826C99.4213 25.0967 99.7759 25.4793 100.028 25.974C100.28 26.4593 100.406 27.0427 100.406 27.724C100.406 27.78 100.406 27.836 100.406 27.892C100.406 27.948 100.401 28.004 100.392 28.06H94.8899ZM102.891 34.08H101.771V24.56H102.891V34.08ZM108.281 27.78C108.281 28.4707 108.136 29.068 107.847 29.572C107.558 30.076 107.17 30.4633 106.685 30.734C106.209 31.0047 105.677 31.14 105.089 31.14C104.557 31.14 104.086 31.0047 103.675 30.734C103.274 30.4633 102.956 30.076 102.723 29.572C102.499 29.068 102.387 28.4707 102.387 27.78C102.387 27.08 102.499 26.4827 102.723 25.988C102.956 25.484 103.274 25.0967 103.675 24.826C104.086 24.5553 104.557 24.42 105.089 24.42C105.677 24.42 106.209 24.5553 106.685 24.826C107.17 25.0967 107.558 25.484 107.847 25.988C108.136 26.4827 108.281 27.08 108.281 27.78ZM107.147 27.78C107.147 27.2853 107.044 26.8653 106.839 26.52C106.643 26.1747 106.377 25.9133 106.041 25.736C105.714 25.5587 105.35 25.47 104.949 25.47C104.622 25.47 104.3 25.5587 103.983 25.736C103.666 25.9133 103.404 26.1747 103.199 26.52C102.994 26.8653 102.891 27.2853 102.891 27.78C102.891 28.2747 102.994 28.6947 103.199 29.04C103.404 29.3853 103.666 29.6467 103.983 29.824C104.3 30.0013 104.622 30.09 104.949 30.09C105.35 30.09 105.714 30.0013 106.041 29.824C106.377 29.6467 106.643 29.3853 106.839 29.04C107.044 28.6947 107.147 28.2747 107.147 27.78ZM110.383 27.64H112.245C112.693 27.64 113.095 27.6867 113.449 27.78C113.804 27.8733 114.084 28.0367 114.289 28.27C114.495 28.5033 114.597 28.83 114.597 29.25C114.597 29.7353 114.434 30.1507 114.107 30.496C113.79 30.832 113.263 31 112.525 31H110.383V30.02H112.245C112.665 30.02 112.973 29.9313 113.169 29.754C113.375 29.5767 113.477 29.362 113.477 29.11C113.477 28.9793 113.449 28.8627 113.393 28.76C113.347 28.6573 113.272 28.564 113.169 28.48C113.076 28.396 112.95 28.3353 112.791 28.298C112.642 28.2513 112.46 28.228 112.245 28.228H110.383V27.64ZM110.383 27.92V27.262H112.105C112.273 27.262 112.423 27.2433 112.553 27.206C112.693 27.1593 112.81 27.094 112.903 27.01C112.997 26.926 113.067 26.8327 113.113 26.73C113.169 26.618 113.197 26.5013 113.197 26.38C113.197 26.128 113.099 25.9273 112.903 25.778C112.707 25.6193 112.441 25.54 112.105 25.54H110.383V24.56H112.105C112.507 24.56 112.871 24.6207 113.197 24.742C113.533 24.854 113.804 25.0407 114.009 25.302C114.215 25.554 114.317 25.89 114.317 26.31C114.317 26.674 114.215 26.9773 114.009 27.22C113.804 27.4533 113.533 27.6307 113.197 27.752C112.871 27.864 112.507 27.92 112.105 27.92H110.383ZM109.725 24.56H110.845V31H109.725V24.56ZM121.359 25.68L116.039 31.49L116.109 29.88L121.429 24.07L121.359 25.68ZM117.159 24.56V29.95L116.039 31.49V24.56H117.159ZM121.429 24.07V31H120.309V25.61L121.429 24.07ZM124.002 27.78C124.002 28.228 124.095 28.6247 124.282 28.97C124.478 29.3153 124.739 29.5907 125.066 29.796C125.402 29.992 125.78 30.09 126.2 30.09C126.545 30.09 126.867 30.0387 127.166 29.936C127.474 29.824 127.74 29.6793 127.964 29.502C128.188 29.3153 128.347 29.1193 128.44 28.914V30.314C128.216 30.5753 127.894 30.7807 127.474 30.93C127.063 31.07 126.639 31.14 126.2 31.14C125.575 31.14 125.01 30.9953 124.506 30.706C124.002 30.4167 123.601 30.02 123.302 29.516C123.013 29.0027 122.868 28.424 122.868 27.78C122.868 27.1267 123.013 26.548 123.302 26.044C123.601 25.54 124.002 25.1433 124.506 24.854C125.01 24.5647 125.575 24.42 126.2 24.42C126.639 24.42 127.063 24.4947 127.474 24.644C127.894 24.784 128.216 24.9847 128.44 25.246V26.646C128.347 26.4313 128.188 26.2353 127.964 26.058C127.74 25.8807 127.474 25.7407 127.166 25.638C126.867 25.526 126.545 25.47 126.2 25.47C125.78 25.47 125.402 25.568 125.066 25.764C124.739 25.96 124.478 26.2353 124.282 26.59C124.095 26.9353 124.002 27.332 124.002 27.78ZM130.238 28.06V27.108H134.536C134.498 26.772 134.405 26.478 134.256 26.226C134.116 25.9647 133.915 25.764 133.654 25.624C133.402 25.4747 133.089 25.4 132.716 25.4C132.342 25.4 132.002 25.4793 131.694 25.638C131.386 25.7967 131.138 26.0253 130.952 26.324C130.774 26.6133 130.686 26.9587 130.686 27.36L130.658 27.78C130.658 28.2747 130.742 28.6947 130.91 29.04C131.078 29.3853 131.316 29.6467 131.624 29.824C131.932 30.0013 132.296 30.09 132.716 30.09C133.033 30.09 133.313 30.0433 133.556 29.95C133.808 29.8473 134.032 29.712 134.228 29.544C134.424 29.3667 134.592 29.1613 134.732 28.928L135.642 29.502C135.427 29.8287 135.189 30.118 134.928 30.37C134.666 30.6127 134.349 30.804 133.976 30.944C133.602 31.0747 133.136 31.14 132.576 31.14C131.997 31.14 131.474 30.9953 131.008 30.706C130.55 30.4167 130.186 30.02 129.916 29.516C129.654 29.0027 129.524 28.424 129.524 27.78C129.524 27.6587 129.528 27.542 129.538 27.43C129.547 27.318 129.561 27.206 129.58 27.094C129.673 26.562 129.86 26.0953 130.14 25.694C130.42 25.2927 130.779 24.98 131.218 24.756C131.666 24.532 132.165 24.42 132.716 24.42C133.322 24.42 133.854 24.5553 134.312 24.826C134.769 25.0967 135.124 25.4793 135.376 25.974C135.628 26.4593 135.754 27.0427 135.754 27.724C135.754 27.78 135.754 27.836 135.754 27.892C135.754 27.948 135.749 28.004 135.74 28.06H130.238ZM142.714 24.378L141.986 31H140.796L141.986 20.71L145.906 27.808L149.826 20.71L151.016 31H149.826L149.098 24.378L145.906 30.09L142.714 24.378ZM153.024 29.012C153.024 29.2547 153.08 29.4647 153.192 29.642C153.313 29.8193 153.477 29.9547 153.682 30.048C153.897 30.132 154.139 30.174 154.41 30.174C154.755 30.174 155.063 30.104 155.334 29.964C155.614 29.824 155.833 29.628 155.992 29.376C156.16 29.1147 156.244 28.816 156.244 28.48L156.468 29.32C156.468 29.7307 156.342 30.0713 156.09 30.342C155.847 30.6127 155.544 30.8133 155.18 30.944C154.825 31.0747 154.471 31.14 154.116 31.14C153.724 31.14 153.355 31.0607 153.01 30.902C152.674 30.734 152.403 30.496 152.198 30.188C151.993 29.88 151.89 29.5067 151.89 29.068C151.89 28.4427 152.109 27.9433 152.548 27.57C152.996 27.1873 153.617 26.996 154.41 26.996C154.877 26.996 155.264 27.052 155.572 27.164C155.889 27.2667 156.141 27.388 156.328 27.528C156.515 27.6587 156.641 27.766 156.706 27.85V28.508C156.379 28.284 156.043 28.1253 155.698 28.032C155.353 27.9293 154.984 27.878 154.592 27.878C154.228 27.878 153.929 27.9247 153.696 28.018C153.472 28.1113 153.304 28.242 153.192 28.41C153.08 28.578 153.024 28.7787 153.024 29.012ZM152.856 26.044L152.31 25.218C152.553 25.0407 152.884 24.8633 153.304 24.686C153.733 24.5087 154.247 24.42 154.844 24.42C155.348 24.42 155.787 24.4993 156.16 24.658C156.543 24.8073 156.837 25.0267 157.042 25.316C157.257 25.6053 157.364 25.96 157.364 26.38V31H156.244V26.534C156.244 26.31 156.207 26.128 156.132 25.988C156.057 25.8387 155.95 25.722 155.81 25.638C155.679 25.554 155.525 25.4933 155.348 25.456C155.171 25.4187 154.984 25.4 154.788 25.4C154.471 25.4 154.181 25.4373 153.92 25.512C153.668 25.5867 153.453 25.6753 153.276 25.778C153.099 25.8807 152.959 25.9693 152.856 26.044ZM167.98 26.94V31H166.86V27.08C166.86 26.5293 166.757 26.1233 166.552 25.862C166.356 25.6007 166.048 25.47 165.628 25.47C165.32 25.47 165.054 25.5353 164.83 25.666C164.606 25.7873 164.433 25.9693 164.312 26.212C164.191 26.4547 164.13 26.744 164.13 27.08V31H163.01V27.08C163.01 26.5293 162.907 26.1233 162.702 25.862C162.506 25.6007 162.198 25.47 161.778 25.47C161.47 25.47 161.204 25.5353 160.98 25.666C160.756 25.7873 160.583 25.9693 160.462 26.212C160.341 26.4547 160.28 26.744 160.28 27.08V31H159.16V24.56H160.28V25.498C160.476 25.134 160.719 24.8633 161.008 24.686C161.307 24.5087 161.657 24.42 162.058 24.42C162.506 24.42 162.889 24.5273 163.206 24.742C163.533 24.9473 163.771 25.2413 163.92 25.624C164.144 25.2227 164.424 24.924 164.76 24.728C165.096 24.5227 165.479 24.42 165.908 24.42C166.347 24.42 166.72 24.518 167.028 24.714C167.336 24.91 167.569 25.1993 167.728 25.582C167.896 25.9553 167.98 26.408 167.98 26.94ZM170.488 29.012C170.488 29.2547 170.544 29.4647 170.656 29.642C170.777 29.8193 170.941 29.9547 171.146 30.048C171.361 30.132 171.603 30.174 171.874 30.174C172.219 30.174 172.527 30.104 172.798 29.964C173.078 29.824 173.297 29.628 173.456 29.376C173.624 29.1147 173.708 28.816 173.708 28.48L173.932 29.32C173.932 29.7307 173.806 30.0713 173.554 30.342C173.311 30.6127 173.008 30.8133 172.644 30.944C172.289 31.0747 171.935 31.14 171.58 31.14C171.188 31.14 170.819 31.0607 170.474 30.902C170.138 30.734 169.867 30.496 169.662 30.188C169.457 29.88 169.354 29.5067 169.354 29.068C169.354 28.4427 169.573 27.9433 170.012 27.57C170.46 27.1873 171.081 26.996 171.874 26.996C172.341 26.996 172.728 27.052 173.036 27.164C173.353 27.2667 173.605 27.388 173.792 27.528C173.979 27.6587 174.105 27.766 174.17 27.85V28.508C173.843 28.284 173.507 28.1253 173.162 28.032C172.817 27.9293 172.448 27.878 172.056 27.878C171.692 27.878 171.393 27.9247 171.16 28.018C170.936 28.1113 170.768 28.242 170.656 28.41C170.544 28.578 170.488 28.7787 170.488 29.012ZM170.32 26.044L169.774 25.218C170.017 25.0407 170.348 24.8633 170.768 24.686C171.197 24.5087 171.711 24.42 172.308 24.42C172.812 24.42 173.251 24.4993 173.624 24.658C174.007 24.8073 174.301 25.0267 174.506 25.316C174.721 25.6053 174.828 25.96 174.828 26.38V31H173.708V26.534C173.708 26.31 173.671 26.128 173.596 25.988C173.521 25.8387 173.414 25.722 173.274 25.638C173.143 25.554 172.989 25.4933 172.812 25.456C172.635 25.4187 172.448 25.4 172.252 25.4C171.935 25.4 171.645 25.4373 171.384 25.512C171.132 25.5867 170.917 25.6753 170.74 25.778C170.563 25.8807 170.423 25.9693 170.32 26.044ZM176.694 21.2H177.884V31H176.694V21.2ZM181.734 21.2H183.204L178.962 25.792L183.414 31H181.944L177.52 25.82L181.734 21.2ZM185.56 24.56V31H184.44V24.56H185.56ZM187.506 25.792C187.357 25.68 187.222 25.6007 187.1 25.554C186.979 25.498 186.825 25.47 186.638 25.47C186.358 25.47 186.139 25.54 185.98 25.68C185.822 25.82 185.71 26.0113 185.644 26.254C185.588 26.4967 185.56 26.772 185.56 27.08H185.056C185.056 26.5667 185.145 26.114 185.322 25.722C185.509 25.3207 185.747 25.0033 186.036 24.77C186.326 24.5367 186.62 24.42 186.918 24.42C187.152 24.42 187.366 24.4527 187.562 24.518C187.768 24.574 187.954 24.6907 188.122 24.868L187.506 25.792ZM189.139 21.9C189.139 21.6853 189.214 21.5033 189.363 21.354C189.522 21.2047 189.704 21.13 189.909 21.13C190.124 21.13 190.306 21.2047 190.455 21.354C190.604 21.5033 190.679 21.6853 190.679 21.9C190.679 22.1053 190.604 22.2873 190.455 22.446C190.306 22.5953 190.124 22.67 189.909 22.67C189.704 22.67 189.522 22.5953 189.363 22.446C189.214 22.2873 189.139 22.1053 189.139 21.9ZM189.349 24.56H190.469V31H189.349V24.56ZM192.942 29.026C193.072 29.222 193.222 29.404 193.39 29.572C193.558 29.74 193.749 29.8753 193.964 29.978C194.188 30.0713 194.43 30.118 194.692 30.118C195.009 30.118 195.256 30.048 195.434 29.908C195.62 29.7587 195.714 29.558 195.714 29.306C195.714 29.082 195.639 28.8953 195.49 28.746C195.35 28.5873 195.168 28.4567 194.944 28.354C194.72 28.242 194.482 28.1393 194.23 28.046C193.95 27.934 193.665 27.8033 193.376 27.654C193.096 27.4953 192.858 27.2947 192.662 27.052C192.475 26.8 192.382 26.4873 192.382 26.114C192.382 25.7313 192.48 25.414 192.676 25.162C192.881 24.91 193.142 24.7233 193.46 24.602C193.786 24.4807 194.122 24.42 194.468 24.42C194.813 24.42 195.135 24.476 195.434 24.588C195.742 24.7 196.012 24.8493 196.246 25.036C196.479 25.2227 196.661 25.4373 196.792 25.68L195.896 26.254C195.718 26.0113 195.494 25.8107 195.224 25.652C194.962 25.4933 194.664 25.414 194.328 25.414C194.094 25.414 193.894 25.4653 193.726 25.568C193.558 25.6707 193.474 25.8293 193.474 26.044C193.474 26.212 193.539 26.3613 193.67 26.492C193.8 26.6227 193.968 26.7393 194.174 26.842C194.379 26.9447 194.594 27.0427 194.818 27.136C195.191 27.2853 195.532 27.4487 195.84 27.626C196.148 27.794 196.39 27.9993 196.568 28.242C196.754 28.4847 196.848 28.7973 196.848 29.18C196.848 29.74 196.642 30.2067 196.232 30.58C195.83 30.9533 195.298 31.14 194.636 31.14C194.206 31.14 193.819 31.0653 193.474 30.916C193.128 30.7573 192.834 30.5567 192.592 30.314C192.358 30.0713 192.181 29.824 192.06 29.572L192.942 29.026Z" fill="#596574"/>
</svg>
