<svg width="152" height="21" viewBox="0 0 152 21" fill="none" xmlns="http://www.w3.org/2000/svg">
<path d="M6.604 10.718L5.512 20H0.884L3.822 0.89L11.57 11.992L19.344 0.89L22.282 20H17.654L16.562 10.718L11.57 18.31L6.604 10.718ZM23.9883 14.02C23.9883 12.7547 24.2829 11.654 24.8722 10.718C25.4616 9.782 26.2763 9.054 27.3163 8.534C28.3563 8.014 29.5263 7.754 30.8263 7.754C32.1263 7.754 33.2876 8.014 34.3103 8.534C35.3503 9.054 36.1649 9.782 36.7543 10.718C37.3609 11.654 37.6643 12.7547 37.6643 14.02C37.6643 15.268 37.3609 16.36 36.7543 17.296C36.1649 18.232 35.3503 18.96 34.3103 19.48C33.2876 20 32.1263 20.26 30.8263 20.26C29.5263 20.26 28.3563 20 27.3163 19.48C26.2763 18.96 25.4616 18.232 24.8722 17.296C24.2829 16.36 23.9883 15.268 23.9883 14.02ZM28.0183 14.02C28.0183 14.644 28.1483 15.1813 28.4083 15.632C28.6683 16.0653 29.0063 16.4033 29.4223 16.646C29.8383 16.8887 30.3063 17.01 30.8263 17.01C31.3289 17.01 31.7883 16.8887 32.2043 16.646C32.6376 16.4033 32.9756 16.0653 33.2183 15.632C33.4783 15.1813 33.6083 14.644 33.6083 14.02C33.6083 13.396 33.4783 12.8587 33.2183 12.408C32.9756 11.9573 32.6376 11.6107 32.2043 11.368C31.7883 11.1253 31.3289 11.004 30.8263 11.004C30.3063 11.004 29.8383 11.1253 29.4223 11.368C29.0063 11.6107 28.6683 11.9573 28.4083 12.408C28.1483 12.8587 28.0183 13.396 28.0183 14.02ZM52.1422 11.42L40.0782 20.91L40.2082 16.62L52.2722 7.13L52.1422 11.42ZM43.8742 8.04V17.244L40.0782 20.91V8.04H43.8742ZM52.2722 7.13V20H48.5022V10.796L52.2722 7.13ZM68.7458 14.02V12.85C69.3005 12.85 69.6992 12.746 69.9418 12.538C70.2018 12.3127 70.3318 12.0353 70.3318 11.706C70.3318 11.3767 70.2105 11.1167 69.9678 10.926C69.7252 10.718 69.4045 10.614 69.0058 10.614C68.7112 10.614 68.4425 10.6747 68.1998 10.796C67.9745 10.9173 67.8012 11.082 67.6798 11.29C67.5585 11.498 67.4892 11.7407 67.4718 12.018H63.9098C63.9098 11.1687 64.1178 10.432 64.5338 9.808C64.9672 9.16667 65.5565 8.67267 66.3018 8.326C67.0645 7.962 67.9572 7.78 68.9798 7.78C69.9332 7.78 70.7825 7.936 71.5278 8.248C72.2732 8.54267 72.8538 8.95 73.2698 9.47C73.7032 9.97267 73.9198 10.5533 73.9198 11.212C73.9198 12.096 73.4952 12.8067 72.6458 13.344C71.8138 13.864 70.5138 14.0893 68.7458 14.02ZM68.9278 20.26C67.2292 20.26 65.8858 19.87 64.8978 19.09C63.9272 18.2927 63.3725 17.2353 63.2338 15.918H66.9518C67.0905 16.4207 67.3245 16.8107 67.6538 17.088C67.9832 17.348 68.3992 17.478 68.9018 17.478C69.2832 17.478 69.6125 17.426 69.8898 17.322C70.1672 17.2007 70.3838 17.0447 70.5398 16.854C70.6958 16.646 70.7738 16.3947 70.7738 16.1C70.7738 15.8053 70.6958 15.5627 70.5398 15.372C70.4012 15.164 70.1758 15.008 69.8638 14.904C69.5692 14.7827 69.1965 14.722 68.7458 14.722V13.24C70.5658 13.1533 71.9698 13.4133 72.9578 14.02C73.9458 14.6093 74.4398 15.4413 74.4398 16.516C74.4398 17.2613 74.1972 17.92 73.7118 18.492C73.2438 19.0467 72.5938 19.48 71.7618 19.792C70.9298 20.104 69.9852 20.26 68.9278 20.26ZM80.1893 16.438C80.1893 16.7153 80.2673 16.9493 80.4233 17.14C80.5793 17.3133 80.7873 17.452 81.0473 17.556C81.3246 17.6427 81.6106 17.686 81.9053 17.686C82.3906 17.686 82.8326 17.608 83.2313 17.452C83.6473 17.296 83.9766 17.036 84.2193 16.672C84.4619 16.308 84.5833 15.8053 84.5833 15.164L84.9993 16.62C84.9993 17.3827 84.7999 18.0413 84.4013 18.596C84.0199 19.1333 83.4913 19.5493 82.8153 19.844C82.1566 20.1213 81.4113 20.26 80.5793 20.26C79.7473 20.26 79.0019 20.1213 78.3433 19.844C77.6846 19.5493 77.1646 19.1333 76.7833 18.596C76.4193 18.0413 76.2373 17.374 76.2373 16.594C76.2373 15.7967 76.4453 15.112 76.8613 14.54C77.2946 13.968 77.9013 13.526 78.6813 13.214C79.4613 12.902 80.3713 12.746 81.4113 12.746C82.0179 12.746 82.5899 12.8153 83.1273 12.954C83.6819 13.0753 84.1586 13.24 84.5573 13.448C84.9733 13.6387 85.2679 13.8293 85.4413 14.02V15.866C84.9906 15.5367 84.5226 15.294 84.0373 15.138C83.5693 14.9647 82.9973 14.878 82.3213 14.878C81.8706 14.878 81.4806 14.9473 81.1513 15.086C80.8393 15.2073 80.5966 15.3807 80.4233 15.606C80.2673 15.8313 80.1893 16.1087 80.1893 16.438ZM78.6553 11.732L77.3293 9.08C78.0053 8.75067 78.8113 8.43867 79.7473 8.144C80.7006 7.84933 81.7146 7.702 82.7893 7.702C83.8639 7.702 84.8173 7.858 85.6493 8.17C86.4986 8.46467 87.1573 8.898 87.6253 9.47C88.1106 10.042 88.3533 10.744 88.3533 11.576V20H84.5833V12.356C84.5833 11.8533 84.3926 11.4547 84.0113 11.16C83.6473 10.848 83.1359 10.692 82.4773 10.692C81.9053 10.692 81.3593 10.7527 80.8393 10.874C80.3366 10.9953 79.8946 11.1427 79.5133 11.316C79.1319 11.472 78.8459 11.6107 78.6553 11.732ZM91.2639 8.04H95.0339V20H91.2639V8.04ZM99.3759 8.04H104.082L98.9599 12.98L104.602 20H99.9739L94.2539 12.98L99.3759 8.04ZM109.338 16.438C109.338 16.7153 109.416 16.9493 109.572 17.14C109.728 17.3133 109.936 17.452 110.196 17.556C110.473 17.6427 110.759 17.686 111.054 17.686C111.539 17.686 111.981 17.608 112.38 17.452C112.796 17.296 113.125 17.036 113.368 16.672C113.61 16.308 113.732 15.8053 113.732 15.164L114.148 16.62C114.148 17.3827 113.948 18.0413 113.55 18.596C113.168 19.1333 112.64 19.5493 111.964 19.844C111.305 20.1213 110.56 20.26 109.728 20.26C108.896 20.26 108.15 20.1213 107.492 19.844C106.833 19.5493 106.313 19.1333 105.932 18.596C105.568 18.0413 105.386 17.374 105.386 16.594C105.386 15.7967 105.594 15.112 106.01 14.54C106.443 13.968 107.05 13.526 107.83 13.214C108.61 12.902 109.52 12.746 110.56 12.746C111.166 12.746 111.738 12.8153 112.276 12.954C112.83 13.0753 113.307 13.24 113.706 13.448C114.122 13.6387 114.416 13.8293 114.59 14.02V15.866C114.139 15.5367 113.671 15.294 113.186 15.138C112.718 14.9647 112.146 14.878 111.47 14.878C111.019 14.878 110.629 14.9473 110.3 15.086C109.988 15.2073 109.745 15.3807 109.572 15.606C109.416 15.8313 109.338 16.1087 109.338 16.438ZM107.804 11.732L106.478 9.08C107.154 8.75067 107.96 8.43867 108.896 8.144C109.849 7.84933 110.863 7.702 111.938 7.702C113.012 7.702 113.966 7.858 114.798 8.17C115.647 8.46467 116.306 8.898 116.774 9.47C117.259 10.042 117.502 10.744 117.502 11.576V20H113.732V12.356C113.732 11.8533 113.541 11.4547 113.16 11.16C112.796 10.848 112.284 10.692 111.626 10.692C111.054 10.692 110.508 10.7527 109.988 10.874C109.485 10.9953 109.043 11.1427 108.662 11.316C108.28 11.472 107.994 11.6107 107.804 11.732ZM125.976 14.02V12.85C126.531 12.85 126.93 12.746 127.172 12.538C127.432 12.3127 127.562 12.0353 127.562 11.706C127.562 11.3767 127.441 11.1167 127.198 10.926C126.956 10.718 126.635 10.614 126.236 10.614C125.942 10.614 125.673 10.6747 125.43 10.796C125.205 10.9173 125.032 11.082 124.91 11.29C124.789 11.498 124.72 11.7407 124.702 12.018H121.14C121.14 11.1687 121.348 10.432 121.764 9.808C122.198 9.16667 122.787 8.67267 123.532 8.326C124.295 7.962 125.188 7.78 126.21 7.78C127.164 7.78 128.013 7.936 128.758 8.248C129.504 8.54267 130.084 8.95 130.5 9.47C130.934 9.97267 131.15 10.5533 131.15 11.212C131.15 12.096 130.726 12.8067 129.876 13.344C129.044 13.864 127.744 14.0893 125.976 14.02ZM126.158 20.26C124.46 20.26 123.116 19.87 122.128 19.09C121.158 18.2927 120.603 17.2353 120.464 15.918H124.182C124.321 16.4207 124.555 16.8107 124.884 17.088C125.214 17.348 125.63 17.478 126.132 17.478C126.514 17.478 126.843 17.426 127.12 17.322C127.398 17.2007 127.614 17.0447 127.77 16.854C127.926 16.646 128.004 16.3947 128.004 16.1C128.004 15.8053 127.926 15.5627 127.77 15.372C127.632 15.164 127.406 15.008 127.094 14.904C126.8 14.7827 126.427 14.722 125.976 14.722V13.24C127.796 13.1533 129.2 13.4133 130.188 14.02C131.176 14.6093 131.67 15.4413 131.67 16.516C131.67 17.2613 131.428 17.92 130.942 18.492C130.474 19.0467 129.824 19.48 128.992 19.792C128.16 20.104 127.216 20.26 126.158 20.26ZM147.196 8.04H151.148V20H147.196V8.04ZM134.378 8.04H138.33V20H134.378V8.04ZM137.472 14.618V12.07H141.19C142.42 12.07 143.452 12.3733 144.284 12.98C145.133 13.5693 145.558 14.5053 145.558 15.788C145.558 16.6373 145.367 17.3827 144.986 18.024C144.604 18.6653 144.084 19.1593 143.426 19.506C142.767 19.8353 142.022 20 141.19 20H137.472V16.958H140.488C140.782 16.958 141.025 16.9147 141.216 16.828C141.424 16.7413 141.58 16.6113 141.684 16.438C141.805 16.2473 141.866 16.0307 141.866 15.788C141.866 15.4413 141.744 15.164 141.502 14.956C141.276 14.7307 140.938 14.618 140.488 14.618H137.472Z" fill="black"/>
</svg>
