<svg width="317" height="40" viewBox="0 0 317 40" fill="none" xmlns="http://www.w3.org/2000/svg">
<path d="M1.82 5.1C1.82 5.83733 1.97867 6.49533 2.296 7.074C2.62267 7.65267 3.066 8.11 3.626 8.446C4.186 8.782 4.82067 8.95 5.53 8.95C6.24867 8.95 6.88333 8.782 7.434 8.446C7.994 8.11 8.43267 7.65267 8.75 7.074C9.07667 6.49533 9.24 5.83733 9.24 5.1C9.24 4.36267 9.07667 3.70467 8.75 3.126C8.43267 2.54733 7.994 2.09 7.434 1.754C6.88333 1.418 6.24867 1.25 5.53 1.25C4.82067 1.25 4.186 1.418 3.626 1.754C3.066 2.09 2.62267 2.54733 2.296 3.126C1.97867 3.70467 1.82 4.36267 1.82 5.1ZM0.56 5.1C0.56 4.38133 0.681333 3.71867 0.924 3.112C1.176 2.496 1.526 1.964 1.974 1.516C2.422 1.05867 2.94933 0.704 3.556 0.451999C4.16267 0.190666 4.82067 0.0599995 5.53 0.0599995C6.24867 0.0599995 6.90667 0.190666 7.504 0.451999C8.11067 0.704 8.638 1.05867 9.086 1.516C9.534 1.964 9.87933 2.496 10.122 3.112C10.374 3.71867 10.5 4.38133 10.5 5.1C10.5 5.80933 10.374 6.472 10.122 7.088C9.87933 7.704 9.534 8.24067 9.086 8.698C8.638 9.146 8.11067 9.50067 7.504 9.762C6.90667 10.014 6.24867 10.14 5.53 10.14C4.82067 10.14 4.16267 10.014 3.556 9.762C2.94933 9.50067 2.422 9.146 1.974 8.698C1.526 8.24067 1.176 7.704 0.924 7.088C0.681333 6.472 0.56 5.80933 0.56 5.1ZM17.2605 3.56V10H16.1405V4.61H13.1305V10H12.0105V3.56H17.2605ZM24.656 4.68L19.336 10.49L19.406 8.88L24.726 3.07L24.656 4.68ZM20.456 3.56V8.95L19.336 10.49V3.56H20.456ZM24.726 3.07V10H23.606V4.61L24.726 3.07ZM27.2989 6.78C27.2989 7.228 27.3923 7.62467 27.5789 7.97C27.7749 8.31533 28.0363 8.59067 28.3629 8.796C28.6989 8.992 29.0769 9.09 29.4969 9.09C29.8423 9.09 30.1643 9.03867 30.4629 8.936C30.7709 8.824 31.0369 8.67933 31.2609 8.502C31.4849 8.31533 31.6436 8.11933 31.7369 7.914V9.314C31.5129 9.57533 31.1909 9.78067 30.7709 9.93C30.3603 10.07 29.9356 10.14 29.4969 10.14C28.8716 10.14 28.3069 9.99533 27.8029 9.706C27.2989 9.41667 26.8976 9.02 26.5989 8.516C26.3096 8.00267 26.1649 7.424 26.1649 6.78C26.1649 6.12667 26.3096 5.548 26.5989 5.044C26.8976 4.54 27.2989 4.14333 27.8029 3.854C28.3069 3.56467 28.8716 3.42 29.4969 3.42C29.9356 3.42 30.3603 3.49467 30.7709 3.644C31.1909 3.784 31.5129 3.98467 31.7369 4.246V5.646C31.6436 5.43133 31.4849 5.23533 31.2609 5.058C31.0369 4.88067 30.7709 4.74067 30.4629 4.638C30.1643 4.526 29.8423 4.47 29.4969 4.47C29.0769 4.47 28.6989 4.568 28.3629 4.764C28.0363 4.96 27.7749 5.23533 27.5789 5.59C27.3923 5.93533 27.2989 6.332 27.2989 6.78ZM33.8845 8.11C33.8845 8.334 33.9451 8.52533 34.0665 8.684C34.1878 8.83333 34.3511 8.95 34.5565 9.034C34.7618 9.10867 34.9905 9.146 35.2425 9.146C35.6158 9.146 35.9471 9.09 36.2365 8.978C36.5258 8.866 36.7498 8.68867 36.9085 8.446C37.0765 8.20333 37.1605 7.88133 37.1605 7.48L37.3845 8.18C37.3845 8.59067 37.2725 8.94533 37.0485 9.244C36.8338 9.53333 36.5445 9.75733 36.1805 9.916C35.8165 10.0653 35.4105 10.14 34.9625 10.14C34.5611 10.14 34.1925 10.0653 33.8565 9.916C33.5205 9.76667 33.2498 9.54733 33.0445 9.258C32.8485 8.95933 32.7505 8.59067 32.7505 8.152C32.7505 7.69467 32.8625 7.30733 33.0865 6.99C33.3105 6.67267 33.6278 6.43 34.0385 6.262C34.4491 6.08467 34.9345 5.996 35.4945 5.996C35.9051 5.996 36.2551 6.052 36.5445 6.164C36.8431 6.26667 37.0811 6.388 37.2585 6.528C37.4358 6.65867 37.5571 6.766 37.6225 6.85V7.508C37.3051 7.284 36.9831 7.12067 36.6565 7.018C36.3298 6.906 35.9611 6.85 35.5505 6.85C35.1771 6.85 34.8645 6.90133 34.6125 7.004C34.3698 7.10667 34.1878 7.25133 34.0665 7.438C33.9451 7.62467 33.8845 7.84867 33.8845 8.11ZM33.8845 5.072L33.3385 4.218C33.5811 4.04067 33.9078 3.86333 34.3185 3.686C34.7291 3.50867 35.2238 3.42 35.8025 3.42C36.2971 3.42 36.7265 3.49933 37.0905 3.658C37.4638 3.80733 37.7531 4.02667 37.9585 4.316C38.1731 4.60533 38.2805 4.96 38.2805 5.38V10H37.1605V5.38C37.1605 5.05333 37.0205 4.81067 36.7405 4.652C36.4698 4.484 36.1571 4.4 35.8025 4.4C35.4945 4.4 35.2145 4.442 34.9625 4.526C34.7105 4.60067 34.4911 4.694 34.3045 4.806C34.1271 4.90867 33.9871 4.99733 33.8845 5.072ZM40.7334 7.13V6.08H45.4934V7.13H40.7334ZM44.7654 3.56H45.8854V10H44.7654V3.56ZM40.0754 3.56H41.1954V10H40.0754V3.56ZM53.2814 4.68L47.9614 10.49L48.0314 8.88L53.3514 3.07L53.2814 4.68ZM49.0814 3.56V8.95L47.9614 10.49V3.56H49.0814ZM53.3514 3.07V10H52.2314V4.61L53.3514 3.07ZM55.5743 7.06V6.108H59.8723C59.835 5.772 59.7416 5.478 59.5923 5.226C59.4523 4.96467 59.2516 4.764 58.9903 4.624C58.7383 4.47467 58.4256 4.4 58.0523 4.4C57.679 4.4 57.3383 4.47933 57.0303 4.638C56.7223 4.79667 56.475 5.02533 56.2883 5.324C56.111 5.61333 56.0223 5.95867 56.0223 6.36L55.9943 6.78C55.9943 7.27467 56.0783 7.69467 56.2463 8.04C56.4143 8.38533 56.6523 8.64667 56.9603 8.824C57.2683 9.00133 57.6323 9.09 58.0523 9.09C58.3696 9.09 58.6496 9.04333 58.8923 8.95C59.1443 8.84733 59.3683 8.712 59.5643 8.544C59.7603 8.36667 59.9283 8.16133 60.0683 7.928L60.9783 8.502C60.7636 8.82867 60.5256 9.118 60.2643 9.37C60.003 9.61267 59.6856 9.804 59.3123 9.944C58.939 10.0747 58.4723 10.14 57.9123 10.14C57.3336 10.14 56.811 9.99533 56.3443 9.706C55.887 9.41667 55.523 9.02 55.2523 8.516C54.991 8.00267 54.8603 7.424 54.8603 6.78C54.8603 6.65867 54.865 6.542 54.8743 6.43C54.8836 6.318 54.8976 6.206 54.9163 6.094C55.0096 5.562 55.1963 5.09533 55.4763 4.694C55.7563 4.29267 56.1156 3.98 56.5543 3.756C57.0023 3.532 57.5016 3.42 58.0523 3.42C58.659 3.42 59.191 3.55533 59.6483 3.826C60.1056 4.09667 60.4603 4.47933 60.7123 4.974C60.9643 5.45933 61.0903 6.04267 61.0903 6.724C61.0903 6.78 61.0903 6.836 61.0903 6.892C61.0903 6.948 61.0856 7.004 61.0763 7.06H55.5743ZM71.8727 3.56V10H70.7527V4.61H67.7427V10H66.6227V3.56H71.8727ZM73.3181 6.78C73.3181 6.12667 73.4628 5.548 73.7521 5.044C74.0508 4.54 74.4521 4.14333 74.9561 3.854C75.4601 3.56467 76.0248 3.42 76.6501 3.42C77.2848 3.42 77.8495 3.56467 78.3441 3.854C78.8481 4.14333 79.2448 4.54 79.5341 5.044C79.8328 5.548 79.9821 6.12667 79.9821 6.78C79.9821 7.424 79.8328 8.00267 79.5341 8.516C79.2448 9.02 78.8481 9.41667 78.3441 9.706C77.8495 9.99533 77.2848 10.14 76.6501 10.14C76.0248 10.14 75.4601 9.99533 74.9561 9.706C74.4521 9.41667 74.0508 9.02 73.7521 8.516C73.4628 8.00267 73.3181 7.424 73.3181 6.78ZM74.4521 6.78C74.4521 7.228 74.5455 7.62467 74.7321 7.97C74.9281 8.31533 75.1895 8.59067 75.5161 8.796C75.8521 8.992 76.2301 9.09 76.6501 9.09C77.0701 9.09 77.4435 8.992 77.7701 8.796C78.1061 8.59067 78.3675 8.31533 78.5541 7.97C78.7501 7.62467 78.8481 7.228 78.8481 6.78C78.8481 6.332 78.7501 5.93533 78.5541 5.59C78.3675 5.23533 78.1061 4.96 77.7701 4.764C77.4435 4.568 77.0701 4.47 76.6501 4.47C76.2301 4.47 75.8521 4.568 75.5161 4.764C75.1895 4.96 74.9281 5.23533 74.7321 5.59C74.5455 5.93533 74.4521 6.332 74.4521 6.78ZM83.5907 8.04V6.99H85.7887V8.04H83.5907ZM84.9907 3.56H86.1107V10H84.9907V3.56ZM82.1907 3.56V5.408C82.1907 5.78133 82.2327 6.08467 82.3167 6.318C82.4007 6.55133 82.5454 6.724 82.7507 6.836C82.956 6.93867 83.236 6.99 83.5907 6.99V8.04C82.9467 8.04 82.438 7.95133 82.0647 7.774C81.7007 7.59667 81.444 7.31667 81.2947 6.934C81.1454 6.542 81.0707 6.03333 81.0707 5.408V3.56H82.1907ZM88.2696 7.06V6.108H92.5676C92.5303 5.772 92.437 5.478 92.2876 5.226C92.1476 4.96467 91.947 4.764 91.6856 4.624C91.4336 4.47467 91.121 4.4 90.7476 4.4C90.3743 4.4 90.0336 4.47933 89.7256 4.638C89.4176 4.79667 89.1703 5.02533 88.9836 5.324C88.8063 5.61333 88.7176 5.95867 88.7176 6.36L88.6896 6.78C88.6896 7.27467 88.7736 7.69467 88.9416 8.04C89.1096 8.38533 89.3476 8.64667 89.6556 8.824C89.9636 9.00133 90.3276 9.09 90.7476 9.09C91.065 9.09 91.345 9.04333 91.5876 8.95C91.8396 8.84733 92.0636 8.712 92.2596 8.544C92.4556 8.36667 92.6236 8.16133 92.7636 7.928L93.6736 8.502C93.459 8.82867 93.221 9.118 92.9596 9.37C92.6983 9.61267 92.381 9.804 92.0076 9.944C91.6343 10.0747 91.1676 10.14 90.6076 10.14C90.029 10.14 89.5063 9.99533 89.0396 9.706C88.5823 9.41667 88.2183 9.02 87.9476 8.516C87.6863 8.00267 87.5556 7.424 87.5556 6.78C87.5556 6.65867 87.5603 6.542 87.5696 6.43C87.579 6.318 87.593 6.206 87.6116 6.094C87.705 5.562 87.8916 5.09533 88.1716 4.694C88.4516 4.29267 88.811 3.98 89.2496 3.756C89.6976 3.532 90.197 3.42 90.7476 3.42C91.3543 3.42 91.8863 3.55533 92.3436 3.826C92.801 4.09667 93.1556 4.47933 93.4076 4.974C93.6596 5.45933 93.7856 6.04267 93.7856 6.724C93.7856 6.78 93.7856 6.836 93.7856 6.892C93.7856 6.948 93.781 7.004 93.7716 7.06H88.2696ZM101.339 10L100.289 4.89L100.919 3.07L102.599 10H101.339ZM97.9787 9.034L100.919 3.07L101.059 5.31L98.3987 10.434L97.9787 9.034ZM98.3987 10.434L95.7807 5.31L95.9207 3.07L98.8187 9.034L98.3987 10.434ZM94.2407 10L95.9207 3.07L96.5507 4.89L95.5007 10H94.2407ZM108.666 3.56L104.466 13.08H103.206L104.97 9.09L102.506 3.56H103.836L105.88 8.6L105.418 8.544L107.406 3.56H108.666ZM112.74 3.56H116.52V4.61H112.74V3.56ZM114.07 3.84H115.19V10H114.07V3.84ZM118.047 8.11C118.047 8.334 118.108 8.52533 118.229 8.684C118.351 8.83333 118.514 8.95 118.719 9.034C118.925 9.10867 119.153 9.146 119.405 9.146C119.779 9.146 120.11 9.09 120.399 8.978C120.689 8.866 120.913 8.68867 121.071 8.446C121.239 8.20333 121.323 7.88133 121.323 7.48L121.547 8.18C121.547 8.59067 121.435 8.94533 121.211 9.244C120.997 9.53333 120.707 9.75733 120.343 9.916C119.979 10.0653 119.573 10.14 119.125 10.14C118.724 10.14 118.355 10.0653 118.019 9.916C117.683 9.76667 117.413 9.54733 117.207 9.258C117.011 8.95933 116.913 8.59067 116.913 8.152C116.913 7.69467 117.025 7.30733 117.249 6.99C117.473 6.67267 117.791 6.43 118.201 6.262C118.612 6.08467 119.097 5.996 119.657 5.996C120.068 5.996 120.418 6.052 120.707 6.164C121.006 6.26667 121.244 6.388 121.421 6.528C121.599 6.65867 121.72 6.766 121.785 6.85V7.508C121.468 7.284 121.146 7.12067 120.819 7.018C120.493 6.906 120.124 6.85 119.713 6.85C119.34 6.85 119.027 6.90133 118.775 7.004C118.533 7.10667 118.351 7.25133 118.229 7.438C118.108 7.62467 118.047 7.84867 118.047 8.11ZM118.047 5.072L117.501 4.218C117.744 4.04067 118.071 3.86333 118.481 3.686C118.892 3.50867 119.387 3.42 119.965 3.42C120.46 3.42 120.889 3.49933 121.253 3.658C121.627 3.80733 121.916 4.02667 122.121 4.316C122.336 4.60533 122.443 4.96 122.443 5.38V10H121.323V5.38C121.323 5.05333 121.183 4.81067 120.903 4.652C120.633 4.484 120.32 4.4 119.965 4.4C119.657 4.4 119.377 4.442 119.125 4.526C118.873 4.60067 118.654 4.694 118.467 4.806C118.29 4.90867 118.15 4.99733 118.047 5.072ZM124.168 3.56H125.288V10H124.168V3.56ZM127.668 3.56H129.068L126.268 6.22L129.348 10H127.948L124.868 6.22L127.668 3.56ZM135.06 6.64H136.922C137.37 6.64 137.771 6.68667 138.126 6.78C138.48 6.87333 138.76 7.03667 138.966 7.27C139.171 7.50333 139.274 7.83 139.274 8.25C139.274 8.73533 139.11 9.15067 138.784 9.496C138.466 9.832 137.939 10 137.202 10H135.06V9.02H136.922C137.342 9.02 137.65 8.93133 137.846 8.754C138.051 8.57667 138.154 8.362 138.154 8.11C138.154 7.97933 138.126 7.86267 138.07 7.76C138.023 7.65733 137.948 7.564 137.846 7.48C137.752 7.396 137.626 7.33533 137.468 7.298C137.318 7.25133 137.136 7.228 136.922 7.228H135.06V6.64ZM135.06 6.92V6.262H136.782C136.95 6.262 137.099 6.24333 137.23 6.206C137.37 6.15933 137.486 6.094 137.58 6.01C137.673 5.926 137.743 5.83267 137.79 5.73C137.846 5.618 137.874 5.50133 137.874 5.38C137.874 5.128 137.776 4.92733 137.58 4.778C137.384 4.61933 137.118 4.54 136.782 4.54H135.06V3.56H136.782C137.183 3.56 137.547 3.62067 137.874 3.742C138.21 3.854 138.48 4.04067 138.686 4.302C138.891 4.554 138.994 4.89 138.994 5.31C138.994 5.674 138.891 5.97733 138.686 6.22C138.48 6.45333 138.21 6.63067 137.874 6.752C137.547 6.864 137.183 6.92 136.782 6.92H135.06ZM134.402 3.56H135.522V10H134.402V3.56ZM141.149 8.11C141.149 8.334 141.21 8.52533 141.331 8.684C141.453 8.83333 141.616 8.95 141.821 9.034C142.027 9.10867 142.255 9.146 142.507 9.146C142.881 9.146 143.212 9.09 143.501 8.978C143.791 8.866 144.015 8.68867 144.173 8.446C144.341 8.20333 144.425 7.88133 144.425 7.48L144.649 8.18C144.649 8.59067 144.537 8.94533 144.313 9.244C144.099 9.53333 143.809 9.75733 143.445 9.916C143.081 10.0653 142.675 10.14 142.227 10.14C141.826 10.14 141.457 10.0653 141.121 9.916C140.785 9.76667 140.515 9.54733 140.309 9.258C140.113 8.95933 140.015 8.59067 140.015 8.152C140.015 7.69467 140.127 7.30733 140.351 6.99C140.575 6.67267 140.893 6.43 141.303 6.262C141.714 6.08467 142.199 5.996 142.759 5.996C143.17 5.996 143.52 6.052 143.809 6.164C144.108 6.26667 144.346 6.388 144.523 6.528C144.701 6.65867 144.822 6.766 144.887 6.85V7.508C144.57 7.284 144.248 7.12067 143.921 7.018C143.595 6.906 143.226 6.85 142.815 6.85C142.442 6.85 142.129 6.90133 141.877 7.004C141.635 7.10667 141.453 7.25133 141.331 7.438C141.21 7.62467 141.149 7.84867 141.149 8.11ZM141.149 5.072L140.603 4.218C140.846 4.04067 141.173 3.86333 141.583 3.686C141.994 3.50867 142.489 3.42 143.067 3.42C143.562 3.42 143.991 3.49933 144.355 3.658C144.729 3.80733 145.018 4.02667 145.223 4.316C145.438 4.60533 145.545 4.96 145.545 5.38V10H144.425V5.38C144.425 5.05333 144.285 4.81067 144.005 4.652C143.735 4.484 143.422 4.4 143.067 4.4C142.759 4.4 142.479 4.442 142.227 4.526C141.975 4.60067 141.756 4.694 141.569 4.806C141.392 4.90867 141.252 4.99733 141.149 5.072ZM154.06 3.56H155.46L152.52 6.36L155.74 10H154.34L151.26 6.22L154.06 3.56ZM151.54 3.56V10H150.49V3.56H151.54ZM147.97 3.56L150.77 6.22L147.69 10H146.29L149.51 6.36L146.57 3.56H147.97ZM157.345 7.13V6.08H162.105V7.13H157.345ZM161.377 3.56H162.497V10H161.377V3.56ZM156.687 3.56H157.807V10H156.687V3.56ZM163.944 6.78C163.944 6.12667 164.088 5.548 164.378 5.044C164.676 4.54 165.078 4.14333 165.582 3.854C166.086 3.56467 166.65 3.42 167.276 3.42C167.91 3.42 168.475 3.56467 168.97 3.854C169.474 4.14333 169.87 4.54 170.16 5.044C170.458 5.548 170.608 6.12667 170.608 6.78C170.608 7.424 170.458 8.00267 170.16 8.516C169.87 9.02 169.474 9.41667 168.97 9.706C168.475 9.99533 167.91 10.14 167.276 10.14C166.65 10.14 166.086 9.99533 165.582 9.706C165.078 9.41667 164.676 9.02 164.378 8.516C164.088 8.00267 163.944 7.424 163.944 6.78ZM165.078 6.78C165.078 7.228 165.171 7.62467 165.358 7.97C165.554 8.31533 165.815 8.59067 166.142 8.796C166.478 8.992 166.856 9.09 167.276 9.09C167.696 9.09 168.069 8.992 168.396 8.796C168.732 8.59067 168.993 8.31533 169.18 7.97C169.376 7.62467 169.474 7.228 169.474 6.78C169.474 6.332 169.376 5.93533 169.18 5.59C168.993 5.23533 168.732 4.96 168.396 4.764C168.069 4.568 167.696 4.47 167.276 4.47C166.856 4.47 166.478 4.568 166.142 4.764C165.815 4.96 165.554 5.23533 165.358 5.59C165.171 5.93533 165.078 6.332 165.078 6.78ZM181.393 3.56V10H180.273V4.61H177.263V10H176.143V3.56H181.393ZM182.839 6.78C182.839 6.12667 182.983 5.548 183.273 5.044C183.571 4.54 183.973 4.14333 184.477 3.854C184.981 3.56467 185.545 3.42 186.171 3.42C186.805 3.42 187.37 3.56467 187.865 3.854C188.369 4.14333 188.765 4.54 189.055 5.044C189.353 5.548 189.503 6.12667 189.503 6.78C189.503 7.424 189.353 8.00267 189.055 8.516C188.765 9.02 188.369 9.41667 187.865 9.706C187.37 9.99533 186.805 10.14 186.171 10.14C185.545 10.14 184.981 9.99533 184.477 9.706C183.973 9.41667 183.571 9.02 183.273 8.516C182.983 8.00267 182.839 7.424 182.839 6.78ZM183.973 6.78C183.973 7.228 184.066 7.62467 184.253 7.97C184.449 8.31533 184.71 8.59067 185.037 8.796C185.373 8.992 185.751 9.09 186.171 9.09C186.591 9.09 186.964 8.992 187.291 8.796C187.627 8.59067 187.888 8.31533 188.075 7.97C188.271 7.62467 188.369 7.228 188.369 6.78C188.369 6.332 188.271 5.93533 188.075 5.59C187.888 5.23533 187.627 4.96 187.291 4.764C186.964 4.568 186.591 4.47 186.171 4.47C185.751 4.47 185.373 4.568 185.037 4.764C184.71 4.96 184.449 5.23533 184.253 5.59C184.066 5.93533 183.973 6.332 183.973 6.78ZM191.445 6.78C191.445 7.228 191.539 7.62467 191.725 7.97C191.921 8.31533 192.183 8.59067 192.509 8.796C192.845 8.992 193.223 9.09 193.643 9.09C193.989 9.09 194.311 9.03867 194.609 8.936C194.917 8.824 195.183 8.67933 195.407 8.502C195.631 8.31533 195.79 8.11933 195.883 7.914V9.314C195.659 9.57533 195.337 9.78067 194.917 9.93C194.507 10.07 194.082 10.14 193.643 10.14C193.018 10.14 192.453 9.99533 191.949 9.706C191.445 9.41667 191.044 9.02 190.745 8.516C190.456 8.00267 190.311 7.424 190.311 6.78C190.311 6.12667 190.456 5.548 190.745 5.044C191.044 4.54 191.445 4.14333 191.949 3.854C192.453 3.56467 193.018 3.42 193.643 3.42C194.082 3.42 194.507 3.49467 194.917 3.644C195.337 3.784 195.659 3.98467 195.883 4.246V5.646C195.79 5.43133 195.631 5.23533 195.407 5.058C195.183 4.88067 194.917 4.74067 194.609 4.638C194.311 4.526 193.989 4.47 193.643 4.47C193.223 4.47 192.845 4.568 192.509 4.764C192.183 4.96 191.921 5.23533 191.725 5.59C191.539 5.93533 191.445 6.332 191.445 6.78ZM196.547 3.56H200.327V4.61H196.547V3.56ZM197.877 3.84H198.997V10H197.877V3.84ZM201.855 8.11C201.855 8.334 201.915 8.52533 202.037 8.684C202.158 8.83333 202.321 8.95 202.527 9.034C202.732 9.10867 202.961 9.146 203.213 9.146C203.586 9.146 203.917 9.09 204.207 8.978C204.496 8.866 204.72 8.68867 204.879 8.446C205.047 8.20333 205.131 7.88133 205.131 7.48L205.355 8.18C205.355 8.59067 205.243 8.94533 205.019 9.244C204.804 9.53333 204.515 9.75733 204.151 9.916C203.787 10.0653 203.381 10.14 202.933 10.14C202.531 10.14 202.163 10.0653 201.827 9.916C201.491 9.76667 201.22 9.54733 201.015 9.258C200.819 8.95933 200.721 8.59067 200.721 8.152C200.721 7.69467 200.833 7.30733 201.057 6.99C201.281 6.67267 201.598 6.43 202.009 6.262C202.419 6.08467 202.905 5.996 203.465 5.996C203.875 5.996 204.225 6.052 204.515 6.164C204.813 6.26667 205.051 6.388 205.229 6.528C205.406 6.65867 205.527 6.766 205.593 6.85V7.508C205.275 7.284 204.953 7.12067 204.627 7.018C204.3 6.906 203.931 6.85 203.521 6.85C203.147 6.85 202.835 6.90133 202.583 7.004C202.34 7.10667 202.158 7.25133 202.037 7.438C201.915 7.62467 201.855 7.84867 201.855 8.11ZM201.855 5.072L201.309 4.218C201.551 4.04067 201.878 3.86333 202.289 3.686C202.699 3.50867 203.194 3.42 203.773 3.42C204.267 3.42 204.697 3.49933 205.061 3.658C205.434 3.80733 205.723 4.02667 205.929 4.316C206.143 4.60533 206.251 4.96 206.251 5.38V10H205.131V5.38C205.131 5.05333 204.991 4.81067 204.711 4.652C204.44 4.484 204.127 4.4 203.773 4.4C203.465 4.4 203.185 4.442 202.933 4.526C202.681 4.60067 202.461 4.694 202.275 4.806C202.097 4.90867 201.957 4.99733 201.855 5.072ZM208.704 6.64H210.566C211.014 6.64 211.415 6.68667 211.77 6.78C212.124 6.87333 212.404 7.03667 212.61 7.27C212.815 7.50333 212.918 7.83 212.918 8.25C212.918 8.73533 212.754 9.15067 212.428 9.496C212.11 9.832 211.583 10 210.846 10H208.704V9.02H210.566C210.986 9.02 211.294 8.93133 211.49 8.754C211.695 8.57667 211.798 8.362 211.798 8.11C211.798 7.97933 211.77 7.86267 211.714 7.76C211.667 7.65733 211.592 7.564 211.49 7.48C211.396 7.396 211.27 7.33533 211.112 7.298C210.962 7.25133 210.78 7.228 210.566 7.228H208.704V6.64ZM208.704 6.92V6.262H210.426C210.594 6.262 210.743 6.24333 210.874 6.206C211.014 6.15933 211.13 6.094 211.224 6.01C211.317 5.926 211.387 5.83267 211.434 5.73C211.49 5.618 211.518 5.50133 211.518 5.38C211.518 5.128 211.42 4.92733 211.224 4.778C211.028 4.61933 210.762 4.54 210.426 4.54H208.704V3.56H210.426C210.827 3.56 211.191 3.62067 211.518 3.742C211.854 3.854 212.124 4.04067 212.33 4.302C212.535 4.554 212.638 4.89 212.638 5.31C212.638 5.674 212.535 5.97733 212.33 6.22C212.124 6.45333 211.854 6.63067 211.518 6.752C211.191 6.864 210.827 6.92 210.426 6.92H208.704ZM208.046 3.56H209.166V10H208.046V3.56ZM219.679 4.68L214.359 10.49L214.429 8.88L219.749 3.07L219.679 4.68ZM215.479 3.56V8.95L214.359 10.49V3.56H215.479ZM219.749 3.07V10H218.629V4.61L219.749 3.07ZM220.838 3.56H224.618V4.61H220.838V3.56ZM222.168 3.84H223.288V10H222.168V3.84ZM225.642 3.56H226.762V10H225.642V3.56ZM226.3 6.976V5.996H228.302C228.965 5.996 229.52 6.15933 229.968 6.486C230.426 6.80333 230.654 7.30733 230.654 7.998C230.654 8.45533 230.552 8.83333 230.346 9.132C230.141 9.43067 229.861 9.65 229.506 9.79C229.152 9.93 228.75 10 228.302 10H226.3V9.02H228.302C228.573 9.02 228.797 8.98267 228.974 8.908C229.161 8.824 229.301 8.70733 229.394 8.558C229.488 8.39933 229.534 8.21267 229.534 7.998C229.534 7.67133 229.432 7.41933 229.226 7.242C229.021 7.06467 228.713 6.976 228.302 6.976H226.3ZM237.275 6.262H241.475L240.495 7.298H237.275V6.262ZM240.495 6.78C240.495 6.332 240.397 5.93533 240.201 5.59C240.014 5.23533 239.753 4.96 239.417 4.764C239.09 4.568 238.717 4.47 238.297 4.47C237.952 4.47 237.625 4.526 237.317 4.638C237.018 4.74067 236.757 4.88067 236.533 5.058C236.318 5.23533 236.16 5.43133 236.057 5.646V4.246C236.281 3.98467 236.598 3.784 237.009 3.644C237.429 3.49467 237.858 3.42 238.297 3.42C238.932 3.42 239.496 3.56467 239.991 3.854C240.495 4.14333 240.892 4.54 241.181 5.044C241.48 5.548 241.629 6.12667 241.629 6.78C241.629 7.424 241.48 8.00267 241.181 8.516C240.892 9.02 240.495 9.41667 239.991 9.706C239.496 9.99533 238.932 10.14 238.297 10.14C237.858 10.14 237.429 10.07 237.009 9.93C236.598 9.78067 236.281 9.57533 236.057 9.314V7.914C236.16 8.11933 236.318 8.31533 236.533 8.502C236.757 8.67933 237.018 8.824 237.317 8.936C237.625 9.03867 237.952 9.09 238.297 9.09C238.717 9.09 239.09 8.992 239.417 8.796C239.753 8.59067 240.014 8.31533 240.201 7.97C240.397 7.62467 240.495 7.228 240.495 6.78ZM242.013 3.56H245.793V4.61H242.013V3.56ZM243.343 3.84H244.463V10H243.343V3.84ZM252.206 4.68L246.886 10.49L246.956 8.88L252.276 3.07L252.206 4.68ZM248.006 3.56V8.95L246.886 10.49V3.56H248.006ZM252.276 3.07V10H251.156V4.61L252.276 3.07ZM258.513 3.56H261.943V4.61H259.633V10H258.513V3.56ZM263.468 8.11C263.468 8.334 263.528 8.52533 263.65 8.684C263.771 8.83333 263.934 8.95 264.14 9.034C264.345 9.10867 264.574 9.146 264.826 9.146C265.199 9.146 265.53 9.09 265.82 8.978C266.109 8.866 266.333 8.68867 266.492 8.446C266.66 8.20333 266.744 7.88133 266.744 7.48L266.968 8.18C266.968 8.59067 266.856 8.94533 266.632 9.244C266.417 9.53333 266.128 9.75733 265.764 9.916C265.4 10.0653 264.994 10.14 264.546 10.14C264.144 10.14 263.776 10.0653 263.44 9.916C263.104 9.76667 262.833 9.54733 262.628 9.258C262.432 8.95933 262.334 8.59067 262.334 8.152C262.334 7.69467 262.446 7.30733 262.67 6.99C262.894 6.67267 263.211 6.43 263.622 6.262C264.032 6.08467 264.518 5.996 265.078 5.996C265.488 5.996 265.838 6.052 266.128 6.164C266.426 6.26667 266.664 6.388 266.842 6.528C267.019 6.65867 267.14 6.766 267.206 6.85V7.508C266.888 7.284 266.566 7.12067 266.24 7.018C265.913 6.906 265.544 6.85 265.134 6.85C264.76 6.85 264.448 6.90133 264.196 7.004C263.953 7.10667 263.771 7.25133 263.65 7.438C263.528 7.62467 263.468 7.84867 263.468 8.11ZM263.468 5.072L262.922 4.218C263.164 4.04067 263.491 3.86333 263.902 3.686C264.312 3.50867 264.807 3.42 265.386 3.42C265.88 3.42 266.31 3.49933 266.674 3.658C267.047 3.80733 267.336 4.02667 267.542 4.316C267.756 4.60533 267.864 4.96 267.864 5.38V10H266.744V5.38C266.744 5.05333 266.604 4.81067 266.324 4.652C266.053 4.484 265.74 4.4 265.386 4.4C265.078 4.4 264.798 4.442 264.546 4.526C264.294 4.60067 264.074 4.694 263.888 4.806C263.71 4.90867 263.57 4.99733 263.468 5.072ZM275.301 3.56V10H274.181V4.61H270.891V7.76C270.891 8.264 270.811 8.684 270.653 9.02C270.503 9.34667 270.27 9.594 269.953 9.762C269.635 9.92067 269.234 10 268.749 10V8.978C269.029 8.978 269.267 8.88933 269.463 8.712C269.668 8.53467 269.771 8.21733 269.771 7.76V3.56H275.301ZM276.805 6.78C276.805 6.12667 276.95 5.548 277.239 5.044C277.538 4.54 277.939 4.14333 278.443 3.854C278.947 3.56467 279.512 3.42 280.137 3.42C280.772 3.42 281.337 3.56467 281.831 3.854C282.335 4.14333 282.732 4.54 283.021 5.044C283.32 5.548 283.469 6.12667 283.469 6.78C283.469 7.424 283.32 8.00267 283.021 8.516C282.732 9.02 282.335 9.41667 281.831 9.706C281.337 9.99533 280.772 10.14 280.137 10.14C279.512 10.14 278.947 9.99533 278.443 9.706C277.939 9.41667 277.538 9.02 277.239 8.516C276.95 8.00267 276.805 7.424 276.805 6.78ZM277.939 6.78C277.939 7.228 278.033 7.62467 278.219 7.97C278.415 8.31533 278.677 8.59067 279.003 8.796C279.339 8.992 279.717 9.09 280.137 9.09C280.557 9.09 280.931 8.992 281.257 8.796C281.593 8.59067 281.855 8.31533 282.041 7.97C282.237 7.62467 282.335 7.228 282.335 6.78C282.335 6.332 282.237 5.93533 282.041 5.59C281.855 5.23533 281.593 4.96 281.257 4.764C280.931 4.568 280.557 4.47 280.137 4.47C279.717 4.47 279.339 4.568 279.003 4.764C278.677 4.96 278.415 5.23533 278.219 5.59C278.033 5.93533 277.939 6.332 277.939 6.78ZM287.078 8.04V6.99H289.276V8.04H287.078ZM288.478 3.56H289.598V10H288.478V3.56ZM285.678 3.56V5.408C285.678 5.78133 285.72 6.08467 285.804 6.318C285.888 6.55133 286.032 6.724 286.238 6.836C286.443 6.93867 286.723 6.99 287.078 6.99V8.04C286.434 8.04 285.925 7.95133 285.552 7.774C285.188 7.59667 284.931 7.31667 284.782 6.934C284.632 6.542 284.558 6.03333 284.558 5.408V3.56H285.678ZM291.533 3.56H292.653V10H291.533V3.56ZM295.033 3.56H296.433L293.633 6.22L296.713 10H295.313L292.233 6.22L295.033 3.56ZM303.059 4.68L297.739 10.49L297.809 8.88L303.129 3.07L303.059 4.68ZM298.859 3.56V8.95L297.739 10.49V3.56H298.859ZM303.129 3.07V10H302.009V4.61L303.129 3.07ZM314.685 4.68L309.365 10.49L309.435 8.88L314.755 3.07L314.685 4.68ZM310.485 3.56V8.95L309.365 10.49V3.56H310.485ZM314.755 3.07V10H313.635V4.61L314.755 3.07ZM0.98 23.56H2.1V30H0.98V23.56ZM4.48 23.56H5.88L3.08 26.22L6.16 30H4.76L1.68 26.22L4.48 23.56ZM7.62002 28.11C7.62002 28.334 7.68068 28.5253 7.80202 28.684C7.92335 28.8333 8.08668 28.95 8.29202 29.034C8.49735 29.1087 8.72602 29.146 8.97802 29.146C9.35135 29.146 9.68268 29.09 9.97202 28.978C10.2613 28.866 10.4853 28.6887 10.644 28.446C10.812 28.2033 10.896 27.8813 10.896 27.48L11.12 28.18C11.12 28.5907 11.008 28.9453 10.784 29.244C10.5693 29.5333 10.28 29.7573 9.91602 29.916C9.55202 30.0653 9.14602 30.14 8.69802 30.14C8.29668 30.14 7.92802 30.0653 7.59202 29.916C7.25602 29.7667 6.98535 29.5473 6.78002 29.258C6.58402 28.9593 6.48602 28.5907 6.48602 28.152C6.48602 27.6947 6.59802 27.3073 6.82202 26.99C7.04602 26.6727 7.36335 26.43 7.77402 26.262C8.18468 26.0847 8.67002 25.996 9.23002 25.996C9.64068 25.996 9.99068 26.052 10.28 26.164C10.5787 26.2667 10.8167 26.388 10.994 26.528C11.1713 26.6587 11.2927 26.766 11.358 26.85V27.508C11.0407 27.284 10.7187 27.1207 10.392 27.018C10.0653 26.906 9.69668 26.85 9.28602 26.85C8.91268 26.85 8.60002 26.9013 8.34802 27.004C8.10535 27.1067 7.92335 27.2513 7.80202 27.438C7.68068 27.6247 7.62002 27.8487 7.62002 28.11ZM7.62002 25.072L7.07402 24.218C7.31668 24.0407 7.64335 23.8633 8.05402 23.686C8.46468 23.5087 8.95935 23.42 9.53802 23.42C10.0327 23.42 10.462 23.4993 10.826 23.658C11.1993 23.8073 11.4887 24.0267 11.694 24.316C11.9087 24.6053 12.016 24.96 12.016 25.38V30H10.896V25.38C10.896 25.0533 10.756 24.8107 10.476 24.652C10.2053 24.484 9.89268 24.4 9.53802 24.4C9.23002 24.4 8.95002 24.442 8.69802 24.526C8.44602 24.6007 8.22668 24.694 8.04002 24.806C7.86268 24.9087 7.72268 24.9973 7.62002 25.072ZM13.7409 23.56H14.8609V30H13.7409V23.56ZM17.2409 23.56H18.6409L15.8409 26.22L18.9209 30H17.5209L14.4409 26.22L17.2409 23.56ZM30.0922 30L29.0422 24.89L29.6722 23.07L31.3522 30H30.0922ZM26.7322 29.034L29.6722 23.07L29.8122 25.31L27.1522 30.434L26.7322 29.034ZM27.1522 30.434L24.5342 25.31L24.6742 23.07L27.5722 29.034L27.1522 30.434ZM22.9942 30L24.6742 23.07L25.3042 24.89L24.2542 30H22.9942ZM38.1881 23.56H39.3081V30H38.1881V23.56ZM32.3781 23.56H33.4981V30H32.3781V23.56ZM33.0361 26.976V25.996H35.0381C35.7008 25.996 36.2561 26.1593 36.7041 26.486C37.1615 26.8033 37.3901 27.3073 37.3901 27.998C37.3901 28.4553 37.2875 28.8333 37.0821 29.132C36.8768 29.4307 36.5968 29.65 36.2421 29.79C35.8875 29.93 35.4861 30 35.0381 30H33.0361V29.02H35.0381C35.3088 29.02 35.5328 28.9827 35.7101 28.908C35.8968 28.824 36.0368 28.7073 36.1301 28.558C36.2235 28.3993 36.2701 28.2127 36.2701 27.998C36.2701 27.6713 36.1675 27.4193 35.9621 27.242C35.7568 27.0647 35.4488 26.976 35.0381 26.976H33.0361ZM47.6808 26.78V26.08C48.1102 26.08 48.4182 26.0007 48.6048 25.842C48.7915 25.674 48.8848 25.4733 48.8848 25.24C48.8848 24.988 48.7915 24.792 48.6048 24.652C48.4182 24.5027 48.1568 24.428 47.8208 24.428C47.5408 24.428 47.3075 24.484 47.1208 24.596C46.9435 24.6987 46.8128 24.8293 46.7288 24.988C46.6448 25.1373 46.6028 25.2867 46.6028 25.436H45.4688C45.4688 25.072 45.5715 24.736 45.7768 24.428C45.9822 24.12 46.2622 23.8773 46.6168 23.7C46.9715 23.5133 47.3728 23.42 47.8208 23.42C48.2408 23.42 48.6188 23.4993 48.9548 23.658C49.2908 23.8167 49.5522 24.0267 49.7388 24.288C49.9348 24.5493 50.0328 24.8387 50.0328 25.156C50.0328 25.6227 49.8228 26.01 49.4028 26.318C48.9922 26.626 48.4182 26.78 47.6808 26.78ZM47.7928 30.14C47.0368 30.14 46.4302 29.9347 45.9728 29.524C45.5248 29.1133 45.2635 28.5953 45.1888 27.97H46.3228C46.3882 28.278 46.5282 28.5533 46.7428 28.796C46.9575 29.0387 47.3075 29.16 47.7928 29.16C48.0915 29.16 48.3435 29.118 48.5488 29.034C48.7635 28.95 48.9268 28.8287 49.0388 28.67C49.1508 28.5113 49.2068 28.3293 49.2068 28.124C49.2068 27.9 49.1462 27.7087 49.0248 27.55C48.9128 27.3913 48.7402 27.27 48.5068 27.186C48.2828 27.102 48.0075 27.06 47.6808 27.06V26.36C48.4835 26.36 49.1228 26.5 49.5988 26.78C50.0748 27.06 50.3128 27.5033 50.3128 28.11C50.3128 28.53 50.1962 28.894 49.9628 29.202C49.7388 29.5007 49.4355 29.734 49.0528 29.902C48.6702 30.0607 48.2502 30.14 47.7928 30.14ZM52.3927 28.11C52.3927 28.334 52.4533 28.5253 52.5747 28.684C52.696 28.8333 52.8593 28.95 53.0647 29.034C53.27 29.1087 53.4987 29.146 53.7507 29.146C54.124 29.146 54.4553 29.09 54.7447 28.978C55.034 28.866 55.258 28.6887 55.4167 28.446C55.5847 28.2033 55.6687 27.8813 55.6687 27.48L55.8927 28.18C55.8927 28.5907 55.7807 28.9453 55.5567 29.244C55.342 29.5333 55.0527 29.7573 54.6887 29.916C54.3247 30.0653 53.9187 30.14 53.4707 30.14C53.0693 30.14 52.7007 30.0653 52.3647 29.916C52.0287 29.7667 51.758 29.5473 51.5527 29.258C51.3567 28.9593 51.2587 28.5907 51.2587 28.152C51.2587 27.6947 51.3707 27.3073 51.5947 26.99C51.8187 26.6727 52.136 26.43 52.5467 26.262C52.9573 26.0847 53.4427 25.996 54.0027 25.996C54.4133 25.996 54.7633 26.052 55.0527 26.164C55.3513 26.2667 55.5893 26.388 55.7667 26.528C55.944 26.6587 56.0653 26.766 56.1307 26.85V27.508C55.8133 27.284 55.4913 27.1207 55.1647 27.018C54.838 26.906 54.4693 26.85 54.0587 26.85C53.6853 26.85 53.3727 26.9013 53.1207 27.004C52.878 27.1067 52.696 27.2513 52.5747 27.438C52.4533 27.6247 52.3927 27.8487 52.3927 28.11ZM52.3927 25.072L51.8467 24.218C52.0893 24.0407 52.416 23.8633 52.8267 23.686C53.2373 23.5087 53.732 23.42 54.3107 23.42C54.8053 23.42 55.2347 23.4993 55.5987 23.658C55.972 23.8073 56.2613 24.0267 56.4667 24.316C56.6813 24.6053 56.7887 24.96 56.7887 25.38V30H55.6687V25.38C55.6687 25.0533 55.5287 24.8107 55.2487 24.652C54.978 24.484 54.6653 24.4 54.3107 24.4C54.0027 24.4 53.7227 24.442 53.4707 24.526C53.2187 24.6007 52.9993 24.694 52.8127 24.806C52.6353 24.9087 52.4953 24.9973 52.3927 25.072ZM61.3556 24.47V23.42C61.9903 23.42 62.5549 23.5647 63.0496 23.854C63.5536 24.1433 63.9503 24.54 64.2396 25.044C64.5383 25.548 64.6876 26.1267 64.6876 26.78C64.6876 27.424 64.5383 28.0027 64.2396 28.516C63.9503 29.02 63.5536 29.4167 63.0496 29.706C62.5549 29.9953 61.9903 30.14 61.3556 30.14C60.7303 30.14 60.1656 29.986 59.6616 29.678C59.1576 29.3607 58.7563 28.8893 58.4576 28.264C58.1683 27.6387 58.0236 26.864 58.0236 25.94L59.1436 26.78C59.1436 27.228 59.2416 27.6247 59.4376 27.97C59.6336 28.3153 59.8949 28.5907 60.2216 28.796C60.5576 28.992 60.9356 29.09 61.3556 29.09C61.7756 29.09 62.1489 28.992 62.4756 28.796C62.8116 28.5907 63.0729 28.3153 63.2596 27.97C63.4556 27.6247 63.5536 27.228 63.5536 26.78C63.5536 26.332 63.4556 25.9353 63.2596 25.59C63.0729 25.2353 62.8116 24.96 62.4756 24.764C62.1489 24.568 61.7756 24.47 61.3556 24.47ZM58.6396 26.78C58.6396 26.2573 58.7049 25.7907 58.8356 25.38C58.9663 24.96 59.1529 24.6053 59.3956 24.316C59.6383 24.0267 59.9229 23.8073 60.2496 23.658C60.5856 23.4993 60.9543 23.42 61.3556 23.42V24.47C61.1129 24.47 60.8609 24.5213 60.5996 24.624C60.3383 24.7267 60.0956 24.876 59.8716 25.072C59.6569 25.268 59.4796 25.5107 59.3396 25.8C59.2089 26.08 59.1436 26.4067 59.1436 26.78H58.6396ZM58.0236 25.94C58.0236 25.0627 58.1076 24.288 58.2756 23.616C58.4436 22.944 58.7376 22.3747 59.1576 21.908C59.5869 21.432 60.1749 21.068 60.9216 20.816C61.5563 20.6013 62.0276 20.3447 62.3356 20.046C62.6529 19.738 62.8443 19.416 62.9096 19.08H64.0156C63.9689 19.4907 63.8196 19.8687 63.5676 20.214C63.3156 20.55 62.9843 20.844 62.5736 21.096C62.1723 21.348 61.7149 21.558 61.2016 21.726C60.6229 21.9127 60.1703 22.1927 59.8436 22.566C59.5263 22.9393 59.3069 23.364 59.1856 23.84C59.0643 24.3067 59.0036 24.7733 59.0036 25.24V26.682L58.0236 25.94ZM65.5662 26.78C65.5662 26.1267 65.7108 25.548 66.0002 25.044C66.2988 24.54 66.7002 24.1433 67.2042 23.854C67.7082 23.5647 68.2728 23.42 68.8982 23.42C69.5328 23.42 70.0975 23.5647 70.5922 23.854C71.0962 24.1433 71.4928 24.54 71.7822 25.044C72.0808 25.548 72.2302 26.1267 72.2302 26.78C72.2302 27.424 72.0808 28.0027 71.7822 28.516C71.4928 29.02 71.0962 29.4167 70.5922 29.706C70.0975 29.9953 69.5328 30.14 68.8982 30.14C68.2728 30.14 67.7082 29.9953 67.2042 29.706C66.7002 29.4167 66.2988 29.02 66.0002 28.516C65.7108 28.0027 65.5662 27.424 65.5662 26.78ZM66.7002 26.78C66.7002 27.228 66.7935 27.6247 66.9802 27.97C67.1762 28.3153 67.4375 28.5907 67.7642 28.796C68.1002 28.992 68.4782 29.09 68.8982 29.09C69.3182 29.09 69.6915 28.992 70.0182 28.796C70.3542 28.5907 70.6155 28.3153 70.8022 27.97C70.9982 27.6247 71.0962 27.228 71.0962 26.78C71.0962 26.332 70.9982 25.9353 70.8022 25.59C70.6155 25.2353 70.3542 24.96 70.0182 24.764C69.6915 24.568 69.3182 24.47 68.8982 24.47C68.4782 24.47 68.1002 24.568 67.7642 24.764C67.4375 24.96 67.1762 25.2353 66.9802 25.59C66.7935 25.9353 66.7002 26.332 66.7002 26.78ZM72.6888 23.56H76.4688V24.61H72.6888V23.56ZM74.0188 23.84H75.1388V30H74.0188V23.84ZM82.8826 24.68L77.5626 30.49L77.6326 28.88L82.9526 23.07L82.8826 24.68ZM78.6826 23.56V28.95L77.5626 30.49V23.56H78.6826ZM82.9526 23.07V30H81.8326V24.61L82.9526 23.07ZM91.1395 30L90.0895 24.89L90.7195 23.07L92.3995 30H91.1395ZM87.7795 29.034L90.7195 23.07L90.8595 25.31L88.1995 30.434L87.7795 29.034ZM88.1995 30.434L85.5815 25.31L85.7215 23.07L88.6195 29.034L88.1995 30.434ZM84.0415 30L85.7215 23.07L86.3515 24.89L85.3015 30H84.0415ZM93.9294 26.78C93.9294 27.228 94.0227 27.6247 94.2094 27.97C94.4054 28.3153 94.6667 28.5907 94.9934 28.796C95.3294 28.992 95.7074 29.09 96.1274 29.09C96.4727 29.09 96.7947 29.0387 97.0934 28.936C97.4014 28.824 97.6674 28.6793 97.8914 28.502C98.1154 28.3153 98.2741 28.1193 98.3674 27.914V29.314C98.1434 29.5753 97.8214 29.7807 97.4014 29.93C96.9907 30.07 96.5661 30.14 96.1274 30.14C95.5021 30.14 94.9374 29.9953 94.4334 29.706C93.9294 29.4167 93.5281 29.02 93.2294 28.516C92.9401 28.0027 92.7954 27.424 92.7954 26.78C92.7954 26.1267 92.9401 25.548 93.2294 25.044C93.5281 24.54 93.9294 24.1433 94.4334 23.854C94.9374 23.5647 95.5021 23.42 96.1274 23.42C96.5661 23.42 96.9907 23.4947 97.4014 23.644C97.8214 23.784 98.1434 23.9847 98.3674 24.246V25.646C98.2741 25.4313 98.1154 25.2353 97.8914 25.058C97.6674 24.8807 97.4014 24.7407 97.0934 24.638C96.7947 24.526 96.4727 24.47 96.1274 24.47C95.7074 24.47 95.3294 24.568 94.9934 24.764C94.6667 24.96 94.4054 25.2353 94.2094 25.59C94.0227 25.9353 93.9294 26.332 93.9294 26.78ZM100.935 30H99.7029L102.083 26.64H103.315L100.935 30ZM105.023 30H103.903V23.56H105.023V30ZM104.365 26.444V27.424H102.363C101.924 27.424 101.523 27.3587 101.159 27.228C100.804 27.0973 100.524 26.892 100.319 26.612C100.114 26.3227 100.011 25.9493 100.011 25.492C100.011 25.0253 100.114 24.652 100.319 24.372C100.524 24.092 100.804 23.8867 101.159 23.756C101.523 23.6253 101.924 23.56 102.363 23.56H104.365V24.54H102.363C102.092 24.54 101.864 24.5773 101.677 24.652C101.5 24.7173 101.364 24.82 101.271 24.96C101.178 25.1 101.131 25.2773 101.131 25.492C101.131 25.7067 101.178 25.884 101.271 26.024C101.364 26.164 101.5 26.2713 101.677 26.346C101.864 26.4113 102.092 26.444 102.363 26.444H104.365ZM110.216 26.78C110.216 26.1267 110.36 25.548 110.65 25.044C110.948 24.54 111.35 24.1433 111.854 23.854C112.358 23.5647 112.922 23.42 113.548 23.42C114.182 23.42 114.747 23.5647 115.242 23.854C115.746 24.1433 116.142 24.54 116.432 25.044C116.73 25.548 116.88 26.1267 116.88 26.78C116.88 27.424 116.73 28.0027 116.432 28.516C116.142 29.02 115.746 29.4167 115.242 29.706C114.747 29.9953 114.182 30.14 113.548 30.14C112.922 30.14 112.358 29.9953 111.854 29.706C111.35 29.4167 110.948 29.02 110.65 28.516C110.36 28.0027 110.216 27.424 110.216 26.78ZM111.35 26.78C111.35 27.228 111.443 27.6247 111.63 27.97C111.826 28.3153 112.087 28.5907 112.414 28.796C112.75 28.992 113.128 29.09 113.548 29.09C113.968 29.09 114.341 28.992 114.668 28.796C115.004 28.5907 115.265 28.3153 115.452 27.97C115.648 27.6247 115.746 27.228 115.746 26.78C115.746 26.332 115.648 25.9353 115.452 25.59C115.265 25.2353 115.004 24.96 114.668 24.764C114.341 24.568 113.968 24.47 113.548 24.47C113.128 24.47 112.75 24.568 112.414 24.764C112.087 24.96 111.826 25.2353 111.63 25.59C111.443 25.9353 111.35 26.332 111.35 26.78ZM123.074 27.13V26.08H127.834V27.13H123.074ZM127.106 23.56H128.226V30H127.106V23.56ZM122.416 23.56H123.536V30H122.416V23.56ZM130.736 28.11C130.736 28.334 130.796 28.5253 130.918 28.684C131.039 28.8333 131.202 28.95 131.408 29.034C131.613 29.1087 131.842 29.146 132.094 29.146C132.467 29.146 132.798 29.09 133.088 28.978C133.377 28.866 133.601 28.6887 133.76 28.446C133.928 28.2033 134.012 27.8813 134.012 27.48L134.236 28.18C134.236 28.5907 134.124 28.9453 133.9 29.244C133.685 29.5333 133.396 29.7573 133.032 29.916C132.668 30.0653 132.262 30.14 131.814 30.14C131.412 30.14 131.044 30.0653 130.708 29.916C130.372 29.7667 130.101 29.5473 129.896 29.258C129.7 28.9593 129.602 28.5907 129.602 28.152C129.602 27.6947 129.714 27.3073 129.938 26.99C130.162 26.6727 130.479 26.43 130.89 26.262C131.3 26.0847 131.786 25.996 132.346 25.996C132.756 25.996 133.106 26.052 133.396 26.164C133.694 26.2667 133.932 26.388 134.11 26.528C134.287 26.6587 134.408 26.766 134.474 26.85V27.508C134.156 27.284 133.834 27.1207 133.508 27.018C133.181 26.906 132.812 26.85 132.402 26.85C132.028 26.85 131.716 26.9013 131.464 27.004C131.221 27.1067 131.039 27.2513 130.918 27.438C130.796 27.6247 130.736 27.8487 130.736 28.11ZM130.736 25.072L130.19 24.218C130.432 24.0407 130.759 23.8633 131.17 23.686C131.58 23.5087 132.075 23.42 132.654 23.42C133.148 23.42 133.578 23.4993 133.942 23.658C134.315 23.8073 134.604 24.0267 134.81 24.316C135.024 24.6053 135.132 24.96 135.132 25.38V30H134.012V25.38C134.012 25.0533 133.872 24.8107 133.592 24.652C133.321 24.484 133.008 24.4 132.654 24.4C132.346 24.4 132.066 24.442 131.814 24.526C131.562 24.6007 131.342 24.694 131.156 24.806C130.978 24.9087 130.838 24.9973 130.736 25.072ZM141.897 28.95H144.627V23.56H145.747V30H136.927V23.56H138.047V28.95H140.777V23.56H141.897V28.95ZM153.14 24.68L147.82 30.49L147.89 28.88L153.21 23.07L153.14 24.68ZM148.94 23.56V28.95L147.82 30.49V23.56H148.94ZM153.21 23.07V30H152.09V24.61L153.21 23.07ZM158.709 23.56H159.969L157.771 26.682L160.109 30H158.849L157.169 27.564L155.489 30H154.229L156.567 26.682L154.369 23.56H155.629L157.169 25.8L158.709 23.56ZM170.405 23.56V30H169.285V24.61H166.275V30H165.155V23.56H170.405ZM171.851 26.78C171.851 26.1267 171.996 25.548 172.285 25.044C172.584 24.54 172.985 24.1433 173.489 23.854C173.993 23.5647 174.558 23.42 175.183 23.42C175.818 23.42 176.382 23.5647 176.877 23.854C177.381 24.1433 177.778 24.54 178.067 25.044C178.366 25.548 178.515 26.1267 178.515 26.78C178.515 27.424 178.366 28.0027 178.067 28.516C177.778 29.02 177.381 29.4167 176.877 29.706C176.382 29.9953 175.818 30.14 175.183 30.14C174.558 30.14 173.993 29.9953 173.489 29.706C172.985 29.4167 172.584 29.02 172.285 28.516C171.996 28.0027 171.851 27.424 171.851 26.78ZM172.985 26.78C172.985 27.228 173.078 27.6247 173.265 27.97C173.461 28.3153 173.722 28.5907 174.049 28.796C174.385 28.992 174.763 29.09 175.183 29.09C175.603 29.09 175.976 28.992 176.303 28.796C176.639 28.5907 176.9 28.3153 177.087 27.97C177.283 27.6247 177.381 27.228 177.381 26.78C177.381 26.332 177.283 25.9353 177.087 25.59C176.9 25.2353 176.639 24.96 176.303 24.764C175.976 24.568 175.603 24.47 175.183 24.47C174.763 24.47 174.385 24.568 174.049 24.764C173.722 24.96 173.461 25.2353 173.265 25.59C173.078 25.9353 172.985 26.332 172.985 26.78ZM185.596 23.56V30H184.476V24.61H181.186V27.76C181.186 28.264 181.106 28.684 180.948 29.02C180.798 29.3467 180.565 29.594 180.248 29.762C179.93 29.9207 179.529 30 179.044 30V28.978C179.324 28.978 179.562 28.8893 179.758 28.712C179.963 28.5347 180.066 28.2173 180.066 27.76V23.56H185.596ZM187.66 23.56H188.78V30H187.66V23.56ZM188.318 26.976V25.996H190.32C190.983 25.996 191.538 26.1593 191.986 26.486C192.443 26.8033 192.672 27.3073 192.672 27.998C192.672 28.4553 192.569 28.8333 192.364 29.132C192.159 29.4307 191.879 29.65 191.524 29.79C191.169 29.93 190.768 30 190.32 30H188.318V29.02H190.32C190.591 29.02 190.815 28.9827 190.992 28.908C191.179 28.824 191.319 28.7073 191.412 28.558C191.505 28.3993 191.552 28.2127 191.552 27.998C191.552 27.6713 191.449 27.4193 191.244 27.242C191.039 27.0647 190.731 26.976 190.32 26.976H188.318ZM196.61 26.78V26.08C197.039 26.08 197.347 26.0007 197.534 25.842C197.72 25.674 197.814 25.4733 197.814 25.24C197.814 24.988 197.72 24.792 197.534 24.652C197.347 24.5027 197.086 24.428 196.75 24.428C196.47 24.428 196.236 24.484 196.05 24.596C195.872 24.6987 195.742 24.8293 195.658 24.988C195.574 25.1373 195.532 25.2867 195.532 25.436H194.398C194.398 25.072 194.5 24.736 194.706 24.428C194.911 24.12 195.191 23.8773 195.546 23.7C195.9 23.5133 196.302 23.42 196.75 23.42C197.17 23.42 197.548 23.4993 197.884 23.658C198.22 23.8167 198.481 24.0267 198.668 24.288C198.864 24.5493 198.962 24.8387 198.962 25.156C198.962 25.6227 198.752 26.01 198.332 26.318C197.921 26.626 197.347 26.78 196.61 26.78ZM196.722 30.14C195.966 30.14 195.359 29.9347 194.902 29.524C194.454 29.1133 194.192 28.5953 194.118 27.97H195.252C195.317 28.278 195.457 28.5533 195.672 28.796C195.886 29.0387 196.236 29.16 196.722 29.16C197.02 29.16 197.272 29.118 197.478 29.034C197.692 28.95 197.856 28.8287 197.968 28.67C198.08 28.5113 198.136 28.3293 198.136 28.124C198.136 27.9 198.075 27.7087 197.954 27.55C197.842 27.3913 197.669 27.27 197.436 27.186C197.212 27.102 196.936 27.06 196.61 27.06V26.36C197.412 26.36 198.052 26.5 198.528 26.78C199.004 27.06 199.242 27.5033 199.242 28.11C199.242 28.53 199.125 28.894 198.892 29.202C198.668 29.5007 198.364 29.734 197.982 29.902C197.599 30.0607 197.179 30.14 196.722 30.14ZM200.258 26.78C200.258 26.1267 200.402 25.548 200.692 25.044C200.99 24.54 201.392 24.1433 201.896 23.854C202.4 23.5647 202.964 23.42 203.59 23.42C204.224 23.42 204.789 23.5647 205.284 23.854C205.788 24.1433 206.184 24.54 206.474 25.044C206.772 25.548 206.922 26.1267 206.922 26.78C206.922 27.424 206.772 28.0027 206.474 28.516C206.184 29.02 205.788 29.4167 205.284 29.706C204.789 29.9953 204.224 30.14 203.59 30.14C202.964 30.14 202.4 29.9953 201.896 29.706C201.392 29.4167 200.99 29.02 200.692 28.516C200.402 28.0027 200.258 27.424 200.258 26.78ZM201.392 26.78C201.392 27.228 201.485 27.6247 201.672 27.97C201.868 28.3153 202.129 28.5907 202.456 28.796C202.792 28.992 203.17 29.09 203.59 29.09C204.01 29.09 204.383 28.992 204.71 28.796C205.046 28.5907 205.307 28.3153 205.494 27.97C205.69 27.6247 205.788 27.228 205.788 26.78C205.788 26.332 205.69 25.9353 205.494 25.59C205.307 25.2353 205.046 24.96 204.71 24.764C204.383 24.568 204.01 24.47 203.59 24.47C203.17 24.47 202.792 24.568 202.456 24.764C202.129 24.96 201.868 25.2353 201.672 25.59C201.485 25.9353 201.392 26.332 201.392 26.78ZM209.018 26.64H210.88C211.328 26.64 211.729 26.6867 212.084 26.78C212.439 26.8733 212.719 27.0367 212.924 27.27C213.129 27.5033 213.232 27.83 213.232 28.25C213.232 28.7353 213.069 29.1507 212.742 29.496C212.425 29.832 211.897 30 211.16 30H209.018V29.02H210.88C211.3 29.02 211.608 28.9313 211.804 28.754C212.009 28.5767 212.112 28.362 212.112 28.11C212.112 27.9793 212.084 27.8627 212.028 27.76C211.981 27.6573 211.907 27.564 211.804 27.48C211.711 27.396 211.585 27.3353 211.426 27.298C211.277 27.2513 211.095 27.228 210.88 27.228H209.018V26.64ZM209.018 26.92V26.262H210.74C210.908 26.262 211.057 26.2433 211.188 26.206C211.328 26.1593 211.445 26.094 211.538 26.01C211.631 25.926 211.701 25.8327 211.748 25.73C211.804 25.618 211.832 25.5013 211.832 25.38C211.832 25.128 211.734 24.9273 211.538 24.778C211.342 24.6193 211.076 24.54 210.74 24.54H209.018V23.56H210.74C211.141 23.56 211.505 23.6207 211.832 23.742C212.168 23.854 212.439 24.0407 212.644 24.302C212.849 24.554 212.952 24.89 212.952 25.31C212.952 25.674 212.849 25.9773 212.644 26.22C212.439 26.4533 212.168 26.6307 211.832 26.752C211.505 26.864 211.141 26.92 210.74 26.92H209.018ZM208.36 23.56H209.48V30H208.36V23.56ZM215.108 28.11C215.108 28.334 215.169 28.5253 215.29 28.684C215.411 28.8333 215.575 28.95 215.78 29.034C215.985 29.1087 216.214 29.146 216.466 29.146C216.839 29.146 217.171 29.09 217.46 28.978C217.749 28.866 217.973 28.6887 218.132 28.446C218.3 28.2033 218.384 27.8813 218.384 27.48L218.608 28.18C218.608 28.5907 218.496 28.9453 218.272 29.244C218.057 29.5333 217.768 29.7573 217.404 29.916C217.04 30.0653 216.634 30.14 216.186 30.14C215.785 30.14 215.416 30.0653 215.08 29.916C214.744 29.7667 214.473 29.5473 214.268 29.258C214.072 28.9593 213.974 28.5907 213.974 28.152C213.974 27.6947 214.086 27.3073 214.31 26.99C214.534 26.6727 214.851 26.43 215.262 26.262C215.673 26.0847 216.158 25.996 216.718 25.996C217.129 25.996 217.479 26.052 217.768 26.164C218.067 26.2667 218.305 26.388 218.482 26.528C218.659 26.6587 218.781 26.766 218.846 26.85V27.508C218.529 27.284 218.207 27.1207 217.88 27.018C217.553 26.906 217.185 26.85 216.774 26.85C216.401 26.85 216.088 26.9013 215.836 27.004C215.593 27.1067 215.411 27.2513 215.29 27.438C215.169 27.6247 215.108 27.8487 215.108 28.11ZM215.108 25.072L214.562 24.218C214.805 24.0407 215.131 23.8633 215.542 23.686C215.953 23.5087 216.447 23.42 217.026 23.42C217.521 23.42 217.95 23.4993 218.314 23.658C218.687 23.8073 218.977 24.0267 219.182 24.316C219.397 24.6053 219.504 24.96 219.504 25.38V30H218.384V25.38C218.384 25.0533 218.244 24.8107 217.964 24.652C217.693 24.484 217.381 24.4 217.026 24.4C216.718 24.4 216.438 24.442 216.186 24.526C215.934 24.6007 215.715 24.694 215.528 24.806C215.351 24.9087 215.211 24.9973 215.108 25.072ZM220.319 23.56H224.099V24.61H220.319V23.56ZM221.649 23.84H222.769V30H221.649V23.84ZM225.072 27.06V26.108H229.37C229.332 25.772 229.239 25.478 229.09 25.226C228.95 24.9647 228.749 24.764 228.488 24.624C228.236 24.4747 227.923 24.4 227.55 24.4C227.176 24.4 226.836 24.4793 226.528 24.638C226.22 24.7967 225.972 25.0253 225.786 25.324C225.608 25.6133 225.52 25.9587 225.52 26.36L225.492 26.78C225.492 27.2747 225.576 27.6947 225.744 28.04C225.912 28.3853 226.15 28.6467 226.458 28.824C226.766 29.0013 227.13 29.09 227.55 29.09C227.867 29.09 228.147 29.0433 228.39 28.95C228.642 28.8473 228.866 28.712 229.062 28.544C229.258 28.3667 229.426 28.1613 229.566 27.928L230.476 28.502C230.261 28.8287 230.023 29.118 229.762 29.37C229.5 29.6127 229.183 29.804 228.81 29.944C228.436 30.0747 227.97 30.14 227.41 30.14C226.831 30.14 226.308 29.9953 225.842 29.706C225.384 29.4167 225.02 29.02 224.75 28.516C224.488 28.0027 224.358 27.424 224.358 26.78C224.358 26.6587 224.362 26.542 224.372 26.43C224.381 26.318 224.395 26.206 224.414 26.094C224.507 25.562 224.694 25.0953 224.974 24.694C225.254 24.2927 225.613 23.98 226.052 23.756C226.5 23.532 226.999 23.42 227.55 23.42C228.156 23.42 228.688 23.5553 229.146 23.826C229.603 24.0967 229.958 24.4793 230.21 24.974C230.462 25.4593 230.588 26.0427 230.588 26.724C230.588 26.78 230.588 26.836 230.588 26.892C230.588 26.948 230.583 27.004 230.574 27.06H225.072ZM237.665 23.56V30H236.545V24.61H233.255V27.76C233.255 28.264 233.175 28.684 233.017 29.02C232.867 29.3467 232.634 29.594 232.317 29.762C231.999 29.9207 231.598 30 231.113 30V28.978C231.393 28.978 231.631 28.8893 231.827 28.712C232.032 28.5347 232.135 28.2173 232.135 27.76V23.56H237.665ZM240.653 30H239.421L241.801 26.64H243.033L240.653 30ZM244.741 30H243.621V23.56H244.741V30ZM244.083 26.444V27.424H242.081C241.643 27.424 241.241 27.3587 240.877 27.228C240.523 27.0973 240.243 26.892 240.037 26.612C239.832 26.3227 239.729 25.9493 239.729 25.492C239.729 25.0253 239.832 24.652 240.037 24.372C240.243 24.092 240.523 23.8867 240.877 23.756C241.241 23.6253 241.643 23.56 242.081 23.56H244.083V24.54H242.081C241.811 24.54 241.582 24.5773 241.395 24.652C241.218 24.7173 241.083 24.82 240.989 24.96C240.896 25.1 240.849 25.2773 240.849 25.492C240.849 25.7067 240.896 25.884 240.989 26.024C241.083 26.164 241.218 26.2713 241.395 26.346C241.582 26.4113 241.811 26.444 242.081 26.444H244.083ZM249.827 23.56H251.087L248.889 26.682L251.227 30H249.967L248.287 27.564L246.607 30H245.347L247.685 26.682L245.487 23.56H246.747L248.287 25.8L249.827 23.56Z" fill="#596574"/>
</svg>
