<svg width="293" height="55" viewBox="0 0 293 55" fill="none" xmlns="http://www.w3.org/2000/svg">
<path d="M1.072 0.399999H5.972V20H1.072V0.399999ZM12.636 0.399999H18.18L10.228 9.584L18.6 20H12.86L4.6 9.724L12.636 0.399999ZM18.6265 13.56C18.6265 12.1973 18.9438 11.012 19.5785 10.004C20.2131 8.996 21.0905 8.212 22.2105 7.652C23.3305 7.092 24.5905 6.812 25.9905 6.812C27.3905 6.812 28.6411 7.092 29.7425 7.652C30.8625 8.212 31.7398 8.996 32.3745 10.004C33.0278 11.012 33.3545 12.1973 33.3545 13.56C33.3545 14.904 33.0278 16.08 32.3745 17.088C31.7398 18.096 30.8625 18.88 29.7425 19.44C28.6411 20 27.3905 20.28 25.9905 20.28C24.5905 20.28 23.3305 20 22.2105 19.44C21.0905 18.88 20.2131 18.096 19.5785 17.088C18.9438 16.08 18.6265 14.904 18.6265 13.56ZM22.9665 13.56C22.9665 14.232 23.1065 14.8107 23.3865 15.296C23.6665 15.7627 24.0305 16.1267 24.4785 16.388C24.9265 16.6493 25.4305 16.78 25.9905 16.78C26.5318 16.78 27.0265 16.6493 27.4745 16.388C27.9411 16.1267 28.3051 15.7627 28.5665 15.296C28.8465 14.8107 28.9865 14.232 28.9865 13.56C28.9865 12.888 28.8465 12.3093 28.5665 11.824C28.3051 11.3387 27.9411 10.9653 27.4745 10.704C27.0265 10.4427 26.5318 10.312 25.9905 10.312C25.4305 10.312 24.9265 10.4427 24.4785 10.704C24.0305 10.9653 23.6665 11.3387 23.3865 11.824C23.1065 12.3093 22.9665 12.888 22.9665 13.56ZM37.2141 14.792V11.628H47.6301V14.792H37.2141ZM45.7261 7.12H49.7861V20H45.7261V7.12ZM35.8981 7.12H39.9861V20H35.8981V7.12ZM58.8087 4.32H62.7847V22.8H58.8087V4.32ZM52.3687 13.56C52.3687 12.1973 52.7047 11.012 53.3767 10.004C54.0487 8.996 55.01 8.212 56.2607 7.652C57.53 7.092 59.042 6.812 60.7967 6.812C62.57 6.812 64.082 7.092 65.3327 7.652C66.602 8.212 67.5727 8.996 68.2447 10.004C68.9167 11.012 69.2527 12.1973 69.2527 13.56C69.2527 14.904 68.9167 16.08 68.2447 17.088C67.5727 18.096 66.602 18.88 65.3327 19.44C64.082 20 62.57 20.28 60.7967 20.28C59.042 20.28 57.53 20 56.2607 19.44C55.01 18.88 54.0487 18.096 53.3767 17.088C52.7047 16.08 52.3687 14.904 52.3687 13.56ZM56.2047 13.56C56.2047 14.232 56.3633 14.8107 56.6807 15.296C56.998 15.7627 57.4927 16.1267 58.1647 16.388C58.8367 16.6493 59.714 16.78 60.7967 16.78C61.898 16.78 62.7847 16.6493 63.4567 16.388C64.1287 16.1267 64.6233 15.7627 64.9407 15.296C65.258 14.8107 65.4167 14.232 65.4167 13.56C65.4167 12.888 65.258 12.3093 64.9407 11.824C64.6233 11.3387 64.1287 10.9653 63.4567 10.704C62.7847 10.4427 61.898 10.312 60.7967 10.312C59.714 10.312 58.8367 10.4427 58.1647 10.704C57.4927 10.9653 56.998 11.3387 56.6807 11.824C56.3633 12.3093 56.2047 12.888 56.2047 13.56ZM84.8484 10.76L71.8564 20.98L71.9964 16.36L84.9884 6.14L84.8484 10.76ZM75.9444 7.12V17.032L71.8564 20.98V7.12H75.9444ZM84.9884 6.14V20H80.9284V10.088L84.9884 6.14ZM96.5188 12.216L93.4388 19.16L89.3508 18.292L96.5188 6.14L103.687 18.292L99.5988 19.16L96.5188 12.216ZM101.223 20H91.9548V22.52H87.8388V16.668H105.199V22.52H101.223V20ZM109.737 14.456V12.104H117.017C116.942 11.5813 116.802 11.1427 116.597 10.788C116.41 10.4333 116.14 10.1627 115.785 9.976C115.449 9.77067 115.029 9.668 114.525 9.668C113.946 9.668 113.442 9.79867 113.013 10.06C112.602 10.3027 112.276 10.6667 112.033 11.152C111.79 11.6187 111.669 12.1973 111.669 12.888L111.613 13.56C111.613 14.4373 111.744 15.1467 112.005 15.688C112.285 16.2293 112.649 16.6213 113.097 16.864C113.564 17.1067 114.068 17.228 114.609 17.228C115.132 17.228 115.589 17.1627 115.981 17.032C116.392 16.9013 116.746 16.7147 117.045 16.472C117.344 16.2107 117.596 15.9027 117.801 15.548L121.581 16.472C121.152 17.256 120.638 17.9373 120.041 18.516C119.444 19.076 118.706 19.5147 117.829 19.832C116.97 20.1307 115.916 20.28 114.665 20.28C113.116 20.28 111.79 19.9907 110.689 19.412C109.606 18.8333 108.776 18.04 108.197 17.032C107.637 16.0053 107.357 14.848 107.357 13.56C107.357 13.3173 107.366 13.084 107.385 12.86C107.404 12.636 107.432 12.412 107.469 12.188C107.656 11.124 108.038 10.1907 108.617 9.388C109.214 8.58533 110.008 7.96 110.997 7.512C112.005 7.064 113.209 6.84 114.609 6.84C116.121 6.84 117.39 7.10133 118.417 7.624C119.444 8.14667 120.218 8.89333 120.741 9.864C121.282 10.8347 121.553 12.0013 121.553 13.364C121.553 13.476 121.553 13.6347 121.553 13.84C121.553 14.0267 121.534 14.232 121.497 14.456H109.737ZM125.534 14.792V11.628H135.95V14.792H125.534ZM134.046 7.12H138.106V20H134.046V7.12ZM124.218 7.12H128.306V20H124.218V7.12ZM154.381 16.5H156.621V22.856H152.673V20H141.445V7.12H145.701V16.5H150.153V7.12H154.381V16.5ZM171.884 10.76L158.892 20.98L159.032 16.36L172.024 6.14L171.884 10.76ZM162.98 7.12V17.032L158.892 20.98V7.12H162.98ZM172.024 6.14V20H167.964V10.088L172.024 6.14ZM178.682 16.164C178.682 16.4627 178.766 16.7147 178.934 16.92C179.102 17.1067 179.326 17.256 179.606 17.368C179.905 17.4613 180.213 17.508 180.53 17.508C181.053 17.508 181.529 17.424 181.958 17.256C182.406 17.088 182.761 16.808 183.022 16.416C183.283 16.024 183.414 15.4827 183.414 14.792L183.862 16.36C183.862 17.1813 183.647 17.8907 183.218 18.488C182.807 19.0667 182.238 19.5147 181.51 19.832C180.801 20.1307 179.998 20.28 179.102 20.28C178.206 20.28 177.403 20.1307 176.694 19.832C175.985 19.5147 175.425 19.0667 175.014 18.488C174.622 17.8907 174.426 17.172 174.426 16.332C174.426 15.4733 174.65 14.736 175.098 14.12C175.565 13.504 176.218 13.028 177.058 12.692C177.898 12.356 178.878 12.188 179.998 12.188C180.651 12.188 181.267 12.2627 181.846 12.412C182.443 12.5427 182.957 12.72 183.386 12.944C183.834 13.1493 184.151 13.3547 184.338 13.56V15.548C183.853 15.1933 183.349 14.932 182.826 14.764C182.322 14.5773 181.706 14.484 180.978 14.484C180.493 14.484 180.073 14.5587 179.718 14.708C179.382 14.8387 179.121 15.0253 178.934 15.268C178.766 15.5107 178.682 15.8093 178.682 16.164ZM177.03 11.096L175.602 8.24C176.33 7.88533 177.198 7.54933 178.206 7.232C179.233 6.91467 180.325 6.756 181.482 6.756C182.639 6.756 183.666 6.924 184.562 7.26C185.477 7.57733 186.186 8.044 186.69 8.66C187.213 9.276 187.474 10.032 187.474 10.928V20H183.414V11.768C183.414 11.2267 183.209 10.7973 182.798 10.48C182.406 10.144 181.855 9.976 181.146 9.976C180.53 9.976 179.942 10.0413 179.382 10.172C178.841 10.3027 178.365 10.4613 177.954 10.648C177.543 10.816 177.235 10.9653 177.03 11.096ZM204.188 7.12V20H200.128V10.956H195.368V15.52C195.368 16.528 195.182 17.368 194.808 18.04C194.435 18.6933 193.8 19.188 192.904 19.524C192.027 19.8413 190.814 20 189.264 20V16.22C189.824 16.22 190.3 16.1173 190.692 15.912C191.103 15.688 191.308 15.212 191.308 14.484V7.12H204.188ZM208.278 7.12H212.506V20H208.278V7.12ZM211.582 14.204V11.46H215.586C216.911 11.46 218.022 11.7867 218.918 12.44C219.832 13.0747 220.29 14.0827 220.29 15.464C220.29 16.3787 220.084 17.1813 219.674 17.872C219.263 18.5627 218.703 19.0947 217.994 19.468C217.284 19.8227 216.482 20 215.586 20H211.582V16.724H214.83C215.147 16.724 215.408 16.6773 215.614 16.584C215.838 16.4907 216.006 16.3507 216.118 16.164C216.248 15.9587 216.314 15.7253 216.314 15.464C216.314 15.0907 216.183 14.792 215.922 14.568C215.679 14.3253 215.315 14.204 214.83 14.204H211.582ZM224.656 14.792V11.628H235.072V14.792H224.656ZM233.168 7.12H237.228V20H233.168V7.12ZM223.34 7.12H227.428V20H223.34V7.12ZM239.81 13.56C239.81 12.1973 240.127 11.012 240.762 10.004C241.397 8.996 242.274 8.212 243.394 7.652C244.514 7.092 245.774 6.812 247.174 6.812C248.574 6.812 249.825 7.092 250.926 7.652C252.046 8.212 252.923 8.996 253.558 10.004C254.211 11.012 254.538 12.1973 254.538 13.56C254.538 14.904 254.211 16.08 253.558 17.088C252.923 18.096 252.046 18.88 250.926 19.44C249.825 20 248.574 20.28 247.174 20.28C245.774 20.28 244.514 20 243.394 19.44C242.274 18.88 241.397 18.096 240.762 17.088C240.127 16.08 239.81 14.904 239.81 13.56ZM244.15 13.56C244.15 14.232 244.29 14.8107 244.57 15.296C244.85 15.7627 245.214 16.1267 245.662 16.388C246.11 16.6493 246.614 16.78 247.174 16.78C247.715 16.78 248.21 16.6493 248.658 16.388C249.125 16.1267 249.489 15.7627 249.75 15.296C250.03 14.8107 250.17 14.232 250.17 13.56C250.17 12.888 250.03 12.3093 249.75 11.824C249.489 11.3387 249.125 10.9653 248.658 10.704C248.21 10.4427 247.715 10.312 247.174 10.312C246.614 10.312 246.11 10.4427 245.662 10.704C245.214 10.9653 244.85 11.3387 244.57 11.824C244.29 12.3093 244.15 12.888 244.15 13.56ZM260.638 13.56C260.638 14.2507 260.787 14.848 261.086 15.352C261.384 15.8373 261.795 16.22 262.318 16.5C262.859 16.78 263.438 16.92 264.054 16.92C264.576 16.92 265.071 16.8453 265.538 16.696C266.023 16.528 266.462 16.304 266.854 16.024C267.264 15.744 267.6 15.3987 267.862 14.988V19.104C267.414 19.4587 266.854 19.748 266.182 19.972C265.51 20.1773 264.688 20.28 263.718 20.28C262.299 20.28 261.02 20 259.882 19.44C258.762 18.88 257.875 18.096 257.222 17.088C256.587 16.08 256.27 14.904 256.27 13.56C256.27 12.1973 256.587 11.0213 257.222 10.032C257.875 9.024 258.762 8.24 259.882 7.68C261.02 7.12 262.299 6.84 263.718 6.84C264.688 6.84 265.51 6.952 266.182 7.176C266.854 7.38133 267.414 7.64267 267.862 7.96V12.104C267.6 11.6933 267.255 11.348 266.826 11.068C266.415 10.788 265.967 10.5733 265.482 10.424C264.996 10.2747 264.52 10.2 264.054 10.2C263.438 10.2 262.859 10.3493 262.318 10.648C261.795 10.9467 261.384 11.348 261.086 11.852C260.787 12.356 260.638 12.9253 260.638 13.56ZM269.406 7.12H278.45V10.62H269.406V7.12ZM271.898 7.68H275.958V20H271.898V7.68ZM280.438 7.12H284.666V20H280.438V7.12ZM283.742 14.204V11.46H287.746C289.071 11.46 290.182 11.7867 291.078 12.44C291.993 13.0747 292.45 14.0827 292.45 15.464C292.45 16.3787 292.245 17.1813 291.834 17.872C291.423 18.5627 290.863 19.0947 290.154 19.468C289.445 19.8227 288.642 20 287.746 20H283.742V16.724H286.99C287.307 16.724 287.569 16.6773 287.774 16.584C287.998 16.4907 288.166 16.3507 288.278 16.164C288.409 15.9587 288.474 15.7253 288.474 15.464C288.474 15.0907 288.343 14.792 288.082 14.568C287.839 14.3253 287.475 14.204 286.99 14.204H283.742ZM13.42 35.12V48H9.36V38.788H4.74V48H0.652V35.12H13.42ZM20.9575 54.16H16.7295V35.12H20.9575V54.16ZM31.4855 41.56C31.4855 43.0533 31.1868 44.3133 30.5895 45.34C30.0108 46.3667 29.2548 47.1413 28.3215 47.664C27.4068 48.1867 26.4175 48.448 25.3535 48.448C24.2335 48.448 23.2628 48.168 22.4415 47.608C21.6388 47.0293 21.0228 46.2267 20.5935 45.2C20.1641 44.1547 19.9495 42.9413 19.9495 41.56C19.9495 40.16 20.1641 38.9467 20.5935 37.92C21.0228 36.8933 21.6388 36.1 22.4415 35.54C23.2628 34.9613 24.2335 34.672 25.3535 34.672C26.4175 34.672 27.4068 34.9333 28.3215 35.456C29.2548 35.9787 30.0108 36.7533 30.5895 37.78C31.1868 38.788 31.4855 40.048 31.4855 41.56ZM27.0335 41.56C27.0335 40.888 26.8935 40.3187 26.6135 39.852C26.3335 39.3853 25.9601 39.0307 25.4935 38.788C25.0268 38.5453 24.5135 38.424 23.9535 38.424C23.4681 38.424 22.9921 38.5453 22.5255 38.788C22.0775 39.012 21.7041 39.3573 21.4055 39.824C21.1068 40.2907 20.9575 40.8693 20.9575 41.56C20.9575 42.2507 21.1068 42.8293 21.4055 43.296C21.7041 43.7627 22.0775 44.1173 22.5255 44.36C22.9921 44.584 23.4681 44.696 23.9535 44.696C24.5135 44.696 25.0268 44.5747 25.4935 44.332C25.9601 44.0893 26.3335 43.7347 26.6135 43.268C26.8935 42.8013 27.0335 42.232 27.0335 41.56ZM35.6627 42.456V40.104H42.9427C42.8681 39.5813 42.7281 39.1427 42.5227 38.788C42.3361 38.4333 42.0654 38.1627 41.7107 37.976C41.3747 37.7707 40.9547 37.668 40.4507 37.668C39.8721 37.668 39.3681 37.7987 38.9387 38.06C38.5281 38.3027 38.2014 38.6667 37.9587 39.152C37.7161 39.6187 37.5947 40.1973 37.5947 40.888L37.5387 41.56C37.5387 42.4373 37.6694 43.1467 37.9307 43.688C38.2107 44.2293 38.5747 44.6213 39.0227 44.864C39.4894 45.1067 39.9934 45.228 40.5347 45.228C41.0574 45.228 41.5147 45.1627 41.9067 45.032C42.3174 44.9013 42.6721 44.7147 42.9707 44.472C43.2694 44.2107 43.5214 43.9027 43.7267 43.548L47.5067 44.472C47.0774 45.256 46.5641 45.9373 45.9667 46.516C45.3694 47.076 44.6321 47.5147 43.7547 47.832C42.8961 48.1307 41.8414 48.28 40.5907 48.28C39.0414 48.28 37.7161 47.9907 36.6147 47.412C35.5321 46.8333 34.7014 46.04 34.1227 45.032C33.5627 44.0053 33.2827 42.848 33.2827 41.56C33.2827 41.3173 33.2921 41.084 33.3107 40.86C33.3294 40.636 33.3574 40.412 33.3947 40.188C33.5814 39.124 33.9641 38.1907 34.5427 37.388C35.1401 36.5853 35.9334 35.96 36.9227 35.512C37.9307 35.064 39.1347 34.84 40.5347 34.84C42.0467 34.84 43.3161 35.1013 44.3427 35.624C45.3694 36.1467 46.1441 36.8933 46.6667 37.864C47.2081 38.8347 47.4787 40.0013 47.4787 41.364C47.4787 41.476 47.4787 41.6347 47.4787 41.84C47.4787 42.0267 47.4601 42.232 47.4227 42.456H35.6627ZM53.0282 41.28H57.6202C58.5162 41.28 59.3189 41.3733 60.0282 41.56C60.7375 41.7467 61.2975 42.0733 61.7082 42.54C62.1189 43.0067 62.3242 43.66 62.3242 44.5C62.3242 45.4707 61.9975 46.3013 61.3442 46.992C60.7095 47.664 59.6549 48 58.1802 48H53.0282V45.34H56.7522C57.3495 45.34 57.7602 45.2093 57.9842 44.948C58.2269 44.668 58.3482 44.3693 58.3482 44.052C58.3482 43.884 58.3202 43.7253 58.2642 43.576C58.2082 43.4267 58.1149 43.296 57.9842 43.184C57.8722 43.072 57.7135 42.9787 57.5082 42.904C57.3029 42.8293 57.0509 42.792 56.7522 42.792H53.0282V41.28ZM53.0282 41.84V40.188H56.4722C56.6962 40.188 56.8829 40.16 57.0322 40.104C57.2002 40.0293 57.3402 39.936 57.4522 39.824C57.5642 39.712 57.6482 39.5813 57.7042 39.432C57.7602 39.2827 57.7882 39.1333 57.7882 38.984C57.7882 38.648 57.6762 38.368 57.4522 38.144C57.2282 37.9013 56.9015 37.78 56.4722 37.78H53.0282V35.12H57.3402C58.1429 35.12 58.8709 35.2413 59.5242 35.484C60.1962 35.708 60.7375 36.0813 61.1482 36.604C61.5589 37.108 61.7642 37.78 61.7642 38.62C61.7642 39.348 61.5589 39.9547 61.1482 40.44C60.7375 40.9067 60.1962 41.2613 59.5242 41.504C58.8709 41.728 58.1429 41.84 57.3402 41.84H53.0282ZM50.5922 35.12H54.6522V48H50.5922V35.12ZM78.6318 35.12H82.8878V48H78.6318V35.12ZM64.8278 35.12H69.0838V48H64.8278V35.12ZM68.1598 42.204V39.46H72.1638C73.4891 39.46 74.5998 39.7867 75.4958 40.44C76.4104 41.0747 76.8678 42.0827 76.8678 43.464C76.8678 44.3787 76.6624 45.1813 76.2518 45.872C75.8411 46.5627 75.2811 47.0947 74.5718 47.468C73.8624 47.8227 73.0598 48 72.1638 48H68.1598V44.724H71.4078C71.7251 44.724 71.9864 44.6773 72.1918 44.584C72.4158 44.4907 72.5838 44.3507 72.6958 44.164C72.8264 43.9587 72.8918 43.7253 72.8918 43.464C72.8918 43.0907 72.7611 42.792 72.4998 42.568C72.2571 42.3253 71.8931 42.204 71.4078 42.204H68.1598ZM98.2793 44.5H102.227V35.12H106.287V48H86.1833V35.12H90.2713V44.5H94.2193V35.12H98.2793V44.5ZM111.241 42.456V40.104H118.521C118.446 39.5813 118.306 39.1427 118.101 38.788C117.914 38.4333 117.644 38.1627 117.289 37.976C116.953 37.7707 116.533 37.668 116.029 37.668C115.45 37.668 114.946 37.7987 114.517 38.06C114.106 38.3027 113.78 38.6667 113.537 39.152C113.294 39.6187 113.173 40.1973 113.173 40.888L113.117 41.56C113.117 42.4373 113.248 43.1467 113.509 43.688C113.789 44.2293 114.153 44.6213 114.601 44.864C115.068 45.1067 115.572 45.228 116.113 45.228C116.636 45.228 117.093 45.1627 117.485 45.032C117.896 44.9013 118.25 44.7147 118.549 44.472C118.848 44.2107 119.1 43.9027 119.305 43.548L123.085 44.472C122.656 45.256 122.142 45.9373 121.545 46.516C120.948 47.076 120.21 47.5147 119.333 47.832C118.474 48.1307 117.42 48.28 116.169 48.28C114.62 48.28 113.294 47.9907 112.193 47.412C111.11 46.8333 110.28 46.04 109.701 45.032C109.141 44.0053 108.861 42.848 108.861 41.56C108.861 41.3173 108.87 41.084 108.889 40.86C108.908 40.636 108.936 40.412 108.973 40.188C109.16 39.124 109.542 38.1907 110.121 37.388C110.718 36.5853 111.512 35.96 112.501 35.512C113.509 35.064 114.713 34.84 116.113 34.84C117.625 34.84 118.894 35.1013 119.921 35.624C120.948 36.1467 121.722 36.8933 122.245 37.864C122.786 38.8347 123.057 40.0013 123.057 41.364C123.057 41.476 123.057 41.6347 123.057 41.84C123.057 42.0267 123.038 42.232 123.001 42.456H111.241ZM137.001 41.28H141.593C142.489 41.28 143.292 41.3733 144.001 41.56C144.71 41.7467 145.27 42.0733 145.681 42.54C146.092 43.0067 146.297 43.66 146.297 44.5C146.297 45.4707 145.97 46.3013 145.317 46.992C144.682 47.664 143.628 48 142.153 48H137.001V45.34H140.725C141.322 45.34 141.733 45.2093 141.957 44.948C142.2 44.668 142.321 44.3693 142.321 44.052C142.321 43.884 142.293 43.7253 142.237 43.576C142.181 43.4267 142.088 43.296 141.957 43.184C141.845 43.072 141.686 42.9787 141.481 42.904C141.276 42.8293 141.024 42.792 140.725 42.792H137.001V41.28ZM137.001 41.84V40.188H140.445C140.669 40.188 140.856 40.16 141.005 40.104C141.173 40.0293 141.313 39.936 141.425 39.824C141.537 39.712 141.621 39.5813 141.677 39.432C141.733 39.2827 141.761 39.1333 141.761 38.984C141.761 38.648 141.649 38.368 141.425 38.144C141.201 37.9013 140.874 37.78 140.445 37.78H137.001V35.12H141.313C142.116 35.12 142.844 35.2413 143.497 35.484C144.169 35.708 144.71 36.0813 145.121 36.604C145.532 37.108 145.737 37.78 145.737 38.62C145.737 39.348 145.532 39.9547 145.121 40.44C144.71 40.9067 144.169 41.2613 143.497 41.504C142.844 41.728 142.116 41.84 141.313 41.84H137.001ZM134.565 35.12H138.625V48H134.565V35.12ZM152.356 41.56C152.356 42.2507 152.506 42.848 152.804 43.352C153.103 43.8373 153.514 44.22 154.036 44.5C154.578 44.78 155.156 44.92 155.772 44.92C156.295 44.92 156.79 44.8453 157.256 44.696C157.742 44.528 158.18 44.304 158.572 44.024C158.983 43.744 159.319 43.3987 159.58 42.988V47.104C159.132 47.4587 158.572 47.748 157.9 47.972C157.228 48.1773 156.407 48.28 155.436 48.28C154.018 48.28 152.739 48 151.6 47.44C150.48 46.88 149.594 46.096 148.94 45.088C148.306 44.08 147.988 42.904 147.988 41.56C147.988 40.1973 148.306 39.0213 148.94 38.032C149.594 37.024 150.48 36.24 151.6 35.68C152.739 35.12 154.018 34.84 155.436 34.84C156.407 34.84 157.228 34.952 157.9 35.176C158.572 35.3813 159.132 35.6427 159.58 35.96V40.104C159.319 39.6933 158.974 39.348 158.544 39.068C158.134 38.788 157.686 38.5733 157.2 38.424C156.715 38.2747 156.239 38.2 155.772 38.2C155.156 38.2 154.578 38.3493 154.036 38.648C153.514 38.9467 153.103 39.348 152.804 39.852C152.506 40.356 152.356 40.9253 152.356 41.56ZM164.26 42.456V40.104H171.54C171.466 39.5813 171.326 39.1427 171.12 38.788C170.934 38.4333 170.663 38.1627 170.308 37.976C169.972 37.7707 169.552 37.668 169.048 37.668C168.47 37.668 167.966 37.7987 167.536 38.06C167.126 38.3027 166.799 38.6667 166.556 39.152C166.314 39.6187 166.192 40.1973 166.192 40.888L166.136 41.56C166.136 42.4373 166.267 43.1467 166.528 43.688C166.808 44.2293 167.172 44.6213 167.62 44.864C168.087 45.1067 168.591 45.228 169.132 45.228C169.655 45.228 170.112 45.1627 170.504 45.032C170.915 44.9013 171.27 44.7147 171.568 44.472C171.867 44.2107 172.119 43.9027 172.324 43.548L176.104 44.472C175.675 45.256 175.162 45.9373 174.564 46.516C173.967 47.076 173.23 47.5147 172.352 47.832C171.494 48.1307 170.439 48.28 169.188 48.28C167.639 48.28 166.314 47.9907 165.212 47.412C164.13 46.8333 163.299 46.04 162.72 45.032C162.16 44.0053 161.88 42.848 161.88 41.56C161.88 41.3173 161.89 41.084 161.908 40.86C161.927 40.636 161.955 40.412 161.992 40.188C162.179 39.124 162.562 38.1907 163.14 37.388C163.738 36.5853 164.531 35.96 165.52 35.512C166.528 35.064 167.732 34.84 169.132 34.84C170.644 34.84 171.914 35.1013 172.94 35.624C173.967 36.1467 174.742 36.8933 175.264 37.864C175.806 38.8347 176.076 40.0013 176.076 41.364C176.076 41.476 176.076 41.6347 176.076 41.84C176.076 42.0267 176.058 42.232 176.02 42.456H164.26ZM178.798 35.12H187.058V38.62H182.97V48H178.798V35.12ZM187.611 41.56C187.611 40.1973 187.928 39.012 188.563 38.004C189.198 36.996 190.075 36.212 191.195 35.652C192.315 35.092 193.575 34.812 194.975 34.812C196.375 34.812 197.626 35.092 198.727 35.652C199.847 36.212 200.724 36.996 201.359 38.004C202.012 39.012 202.339 40.1973 202.339 41.56C202.339 42.904 202.012 44.08 201.359 45.088C200.724 46.096 199.847 46.88 198.727 47.44C197.626 48 196.375 48.28 194.975 48.28C193.575 48.28 192.315 48 191.195 47.44C190.075 46.88 189.198 46.096 188.563 45.088C187.928 44.08 187.611 42.904 187.611 41.56ZM191.951 41.56C191.951 42.232 192.091 42.8107 192.371 43.296C192.651 43.7627 193.015 44.1267 193.463 44.388C193.911 44.6493 194.415 44.78 194.975 44.78C195.516 44.78 196.011 44.6493 196.459 44.388C196.926 44.1267 197.29 43.7627 197.551 43.296C197.831 42.8107 197.971 42.232 197.971 41.56C197.971 40.888 197.831 40.3093 197.551 39.824C197.29 39.3387 196.926 38.9653 196.459 38.704C196.011 38.4427 195.516 38.312 194.975 38.312C194.415 38.312 193.911 38.4427 193.463 38.704C193.015 38.9653 192.651 39.3387 192.371 39.824C192.091 40.3093 191.951 40.888 191.951 41.56Z" fill="black"/>
</svg>
