<svg width="250" height="24" viewBox="0 0 250 24" fill="none" xmlns="http://www.w3.org/2000/svg">
<path d="M0.924 2.8H5.318V21H0.924V2.8ZM3.68 6.414V2.8H7.242C8.78467 2.8 10.076 3.04267 11.116 3.528C12.1733 3.996 12.9707 4.672 13.508 5.556C14.0453 6.44 14.314 7.506 14.314 8.754C14.314 9.96733 14.0453 11.0247 13.508 11.926C12.9707 12.81 12.1733 13.4947 11.116 13.98C10.076 14.448 8.78467 14.682 7.242 14.682H3.68V11.068H7.242C8.126 11.068 8.81933 10.8687 9.322 10.47C9.82467 10.0713 10.076 9.49933 10.076 8.754C10.076 7.99133 9.82467 7.41067 9.322 7.012C8.81933 6.61333 8.126 6.414 7.242 6.414H3.68ZM18.9881 17.438C18.9881 17.7153 19.0661 17.9493 19.2221 18.14C19.3781 18.3133 19.5861 18.452 19.8461 18.556C20.1234 18.6427 20.4094 18.686 20.7041 18.686C21.1894 18.686 21.6314 18.608 22.0301 18.452C22.4461 18.296 22.7754 18.036 23.0181 17.672C23.2608 17.308 23.3821 16.8053 23.3821 16.164L23.7981 17.62C23.7981 18.3827 23.5988 19.0413 23.2001 19.596C22.8188 20.1333 22.2901 20.5493 21.6141 20.844C20.9554 21.1213 20.2101 21.26 19.3781 21.26C18.5461 21.26 17.8008 21.1213 17.1421 20.844C16.4834 20.5493 15.9634 20.1333 15.5821 19.596C15.2181 19.0413 15.0361 18.374 15.0361 17.594C15.0361 16.7967 15.2441 16.112 15.6601 15.54C16.0934 14.968 16.7001 14.526 17.4801 14.214C18.2601 13.902 19.1701 13.746 20.2101 13.746C20.8168 13.746 21.3888 13.8153 21.9261 13.954C22.4808 14.0753 22.9574 14.24 23.3561 14.448C23.7721 14.6387 24.0668 14.8293 24.2401 15.02V16.866C23.7894 16.5367 23.3214 16.294 22.8361 16.138C22.3681 15.9647 21.7961 15.878 21.1201 15.878C20.6694 15.878 20.2794 15.9473 19.9501 16.086C19.6381 16.2073 19.3954 16.3807 19.2221 16.606C19.0661 16.8313 18.9881 17.1087 18.9881 17.438ZM17.4541 12.732L16.1281 10.08C16.8041 9.75067 17.6101 9.43867 18.5461 9.144C19.4994 8.84933 20.5134 8.702 21.5881 8.702C22.6628 8.702 23.6161 8.858 24.4481 9.17C25.2974 9.46467 25.9561 9.898 26.4241 10.47C26.9094 11.042 27.1521 11.744 27.1521 12.576V21H23.3821V13.356C23.3821 12.8533 23.1914 12.4547 22.8101 12.16C22.4461 11.848 21.9348 11.692 21.2761 11.692C20.7041 11.692 20.1581 11.7527 19.6381 11.874C19.1354 11.9953 18.6934 12.1427 18.3121 12.316C17.9308 12.472 17.6448 12.6107 17.4541 12.732ZM37.6547 13.772L34.7947 20.22L30.9987 19.414L37.6547 8.13L44.3107 19.414L40.5147 20.22L37.6547 13.772ZM42.0227 21H33.4167V23.34H29.5947V17.906H45.7147V23.34H42.0227V21ZM61.2387 9.04H65.1907V21H61.2387V9.04ZM48.4207 9.04H52.3727V21H48.4207V9.04ZM51.5147 15.618V13.07H55.2327C56.4634 13.07 57.4947 13.3733 58.3267 13.98C59.1761 14.5693 59.6007 15.5053 59.6007 16.788C59.6007 17.6373 59.4101 18.3827 59.0287 19.024C58.6474 19.6653 58.1274 20.1593 57.4687 20.506C56.8101 20.8353 56.0647 21 55.2327 21H51.5147V17.958H54.5307C54.8254 17.958 55.0681 17.9147 55.2587 17.828C55.4667 17.7413 55.6227 17.6113 55.7267 17.438C55.8481 17.2473 55.9087 17.0307 55.9087 16.788C55.9087 16.4413 55.7874 16.164 55.5447 15.956C55.3194 15.7307 54.9814 15.618 54.5307 15.618H51.5147ZM79.7117 11.952V10.028H82.6497C83.1524 10.028 83.5771 9.95 83.9237 9.794C84.2877 9.638 84.5651 9.42133 84.7557 9.144C84.9464 8.84933 85.0417 8.494 85.0417 8.078C85.0417 7.454 84.8337 6.986 84.4177 6.674C84.0017 6.362 83.4124 6.206 82.6497 6.206H80.8297V17.594H83.0657C83.6377 17.594 84.1491 17.5247 84.5997 17.386C85.0504 17.23 85.4057 16.9873 85.6657 16.658C85.9431 16.3113 86.0817 15.8433 86.0817 15.254C86.0817 14.8727 86.0037 14.5433 85.8477 14.266C85.6917 13.9887 85.4751 13.7633 85.1977 13.59C84.9204 13.4167 84.5997 13.2953 84.2357 13.226C83.8891 13.1393 83.4991 13.096 83.0657 13.096H79.7117V10.704H83.5597C84.4437 10.704 85.3017 10.7993 86.1337 10.99C86.9657 11.1807 87.7197 11.4927 88.3957 11.926C89.0717 12.342 89.6091 12.8793 90.0077 13.538C90.4237 14.1793 90.6317 14.9593 90.6317 15.878C90.6317 17.0913 90.3371 18.0707 89.7477 18.816C89.1757 19.5613 88.3611 20.116 87.3037 20.48C86.2464 20.8267 84.9984 21 83.5597 21H76.4357V2.8H83.1177C84.3831 2.8 85.4924 2.97333 86.4457 3.32C87.4164 3.64933 88.1791 4.16067 88.7337 4.854C89.3057 5.53 89.5917 6.388 89.5917 7.428C89.5917 8.38133 89.3057 9.196 88.7337 9.872C88.1791 10.548 87.4164 11.068 86.4457 11.432C85.4924 11.7787 84.3831 11.952 83.1177 11.952H79.7117ZM96.3533 17.438C96.3533 17.7153 96.4313 17.9493 96.5873 18.14C96.7433 18.3133 96.9513 18.452 97.2113 18.556C97.4887 18.6427 97.7747 18.686 98.0693 18.686C98.5547 18.686 98.9967 18.608 99.3953 18.452C99.8113 18.296 100.141 18.036 100.383 17.672C100.626 17.308 100.747 16.8053 100.747 16.164L101.163 17.62C101.163 18.3827 100.964 19.0413 100.565 19.596C100.184 20.1333 99.6553 20.5493 98.9793 20.844C98.3207 21.1213 97.5753 21.26 96.7433 21.26C95.9113 21.26 95.166 21.1213 94.5073 20.844C93.8487 20.5493 93.3287 20.1333 92.9473 19.596C92.5833 19.0413 92.4013 18.374 92.4013 17.594C92.4013 16.7967 92.6093 16.112 93.0253 15.54C93.4587 14.968 94.0653 14.526 94.8453 14.214C95.6253 13.902 96.5353 13.746 97.5753 13.746C98.182 13.746 98.754 13.8153 99.2913 13.954C99.846 14.0753 100.323 14.24 100.721 14.448C101.137 14.6387 101.432 14.8293 101.605 15.02V16.866C101.155 16.5367 100.687 16.294 100.201 16.138C99.7333 15.9647 99.1613 15.878 98.4853 15.878C98.0347 15.878 97.6447 15.9473 97.3153 16.086C97.0033 16.2073 96.7607 16.3807 96.5873 16.606C96.4313 16.8313 96.3533 17.1087 96.3533 17.438ZM94.8193 12.732L93.4933 10.08C94.1693 9.75067 94.9753 9.43867 95.9113 9.144C96.8647 8.84933 97.8787 8.702 98.9533 8.702C100.028 8.702 100.981 8.858 101.813 9.17C102.663 9.46467 103.321 9.898 103.789 10.47C104.275 11.042 104.517 11.744 104.517 12.576V21H100.747V13.356C100.747 12.8533 100.557 12.4547 100.175 12.16C99.8113 11.848 99.3 11.692 98.6413 11.692C98.0693 11.692 97.5233 11.7527 97.0033 11.874C96.5007 11.9953 96.0587 12.1427 95.6773 12.316C95.296 12.472 95.01 12.6107 94.8193 12.732ZM118.92 21L117.282 12.81L119.258 8.13L122.872 21H118.92ZM113.642 17.594L119.258 8.13L119.518 13.434L114.422 21.806L113.642 17.594ZM114.422 21.806L109.404 13.434L109.664 8.13L115.202 17.594L114.422 21.806ZM106.05 21L109.664 8.13L111.64 12.81L110.002 21H106.05ZM135.639 15.02C135.639 15.6613 135.777 16.216 136.055 16.684C136.332 17.1347 136.713 17.49 137.199 17.75C137.701 18.01 138.239 18.14 138.811 18.14C139.296 18.14 139.755 18.0707 140.189 17.932C140.639 17.776 141.047 17.568 141.411 17.308C141.792 17.048 142.104 16.7273 142.347 16.346V20.168C141.931 20.4973 141.411 20.766 140.787 20.974C140.163 21.1647 139.4 21.26 138.499 21.26C137.181 21.26 135.994 21 134.937 20.48C133.897 19.96 133.073 19.232 132.467 18.296C131.877 17.36 131.583 16.268 131.583 15.02C131.583 13.7547 131.877 12.6627 132.467 11.744C133.073 10.808 133.897 10.08 134.937 9.56C135.994 9.04 137.181 8.78 138.499 8.78C139.4 8.78 140.163 8.884 140.787 9.092C141.411 9.28267 141.931 9.52533 142.347 9.82V13.668C142.104 13.2867 141.783 12.966 141.385 12.706C141.003 12.446 140.587 12.2467 140.137 12.108C139.686 11.9693 139.244 11.9 138.811 11.9C138.239 11.9 137.701 12.0387 137.199 12.316C136.713 12.5933 136.332 12.966 136.055 13.434C135.777 13.902 135.639 14.4307 135.639 15.02ZM144.482 15.02C144.482 13.7547 144.777 12.654 145.366 11.718C145.956 10.782 146.77 10.054 147.81 9.534C148.85 9.014 150.02 8.754 151.32 8.754C152.62 8.754 153.782 9.014 154.804 9.534C155.844 10.054 156.659 10.782 157.248 11.718C157.855 12.654 158.158 13.7547 158.158 15.02C158.158 16.268 157.855 17.36 157.248 18.296C156.659 19.232 155.844 19.96 154.804 20.48C153.782 21 152.62 21.26 151.32 21.26C150.02 21.26 148.85 21 147.81 20.48C146.77 19.96 145.956 19.232 145.366 18.296C144.777 17.36 144.482 16.268 144.482 15.02ZM148.512 15.02C148.512 15.644 148.642 16.1813 148.902 16.632C149.162 17.0653 149.5 17.4033 149.916 17.646C150.332 17.8887 150.8 18.01 151.32 18.01C151.823 18.01 152.282 17.8887 152.698 17.646C153.132 17.4033 153.47 17.0653 153.712 16.632C153.972 16.1813 154.102 15.644 154.102 15.02C154.102 14.396 153.972 13.8587 153.712 13.408C153.47 12.9573 153.132 12.6107 152.698 12.368C152.282 12.1253 151.823 12.004 151.32 12.004C150.8 12.004 150.332 12.1253 149.916 12.368C149.5 12.6107 149.162 12.9573 148.902 13.408C148.642 13.8587 148.512 14.396 148.512 15.02ZM159.818 15.02C159.818 13.7547 160.113 12.654 160.702 11.718C161.292 10.782 162.106 10.054 163.146 9.534C164.186 9.014 165.356 8.754 166.656 8.754C167.956 8.754 169.118 9.014 170.14 9.534C171.18 10.054 171.995 10.782 172.584 11.718C173.191 12.654 173.494 13.7547 173.494 15.02C173.494 16.268 173.191 17.36 172.584 18.296C171.995 19.232 171.18 19.96 170.14 20.48C169.118 21 167.956 21.26 166.656 21.26C165.356 21.26 164.186 21 163.146 20.48C162.106 19.96 161.292 19.232 160.702 18.296C160.113 17.36 159.818 16.268 159.818 15.02ZM163.848 15.02C163.848 15.644 163.978 16.1813 164.238 16.632C164.498 17.0653 164.836 17.4033 165.252 17.646C165.668 17.8887 166.136 18.01 166.656 18.01C167.159 18.01 167.618 17.8887 168.034 17.646C168.468 17.4033 168.806 17.0653 169.048 16.632C169.308 16.1813 169.438 15.644 169.438 15.02C169.438 14.396 169.308 13.8587 169.048 13.408C168.806 12.9573 168.468 12.6107 168.034 12.368C167.618 12.1253 167.159 12.004 166.656 12.004C166.136 12.004 165.668 12.1253 165.252 12.368C164.836 12.6107 164.498 12.9573 164.238 13.408C163.978 13.8587 163.848 14.396 163.848 15.02ZM182.408 12.004L182.72 8.78C184.003 8.78 185.13 9.04867 186.1 9.586C187.088 10.1233 187.851 10.86 188.388 11.796C188.943 12.732 189.22 13.8067 189.22 15.02C189.22 16.216 188.934 17.2907 188.362 18.244C187.808 19.18 187.019 19.9167 185.996 20.454C184.991 20.9913 183.786 21.26 182.382 21.26C181.013 21.26 179.782 20.974 178.69 20.402C177.616 19.8127 176.766 18.9373 176.142 17.776C175.536 16.6147 175.232 15.176 175.232 13.46L179.574 15.02C179.574 15.644 179.704 16.1813 179.964 16.632C180.224 17.0653 180.562 17.4033 180.978 17.646C181.412 17.8887 181.88 18.01 182.382 18.01C182.902 18.01 183.37 17.8887 183.786 17.646C184.202 17.4033 184.54 17.0653 184.8 16.632C185.06 16.1813 185.19 15.644 185.19 15.02C185.19 14.396 185.06 13.8587 184.8 13.408C184.558 12.9573 184.22 12.6107 183.786 12.368C183.37 12.1253 182.911 12.004 182.408 12.004ZM177.832 15.02C177.832 14.0493 177.945 13.1827 178.17 12.42C178.396 11.64 178.725 10.9813 179.158 10.444C179.592 9.90667 180.103 9.49933 180.692 9.222C181.299 8.92733 181.975 8.78 182.72 8.78L182.408 12.004C182.062 12.004 181.715 12.0733 181.368 12.212C181.022 12.3333 180.71 12.524 180.432 12.784C180.172 13.044 179.964 13.3647 179.808 13.746C179.652 14.11 179.574 14.5347 179.574 15.02H177.832ZM175.232 13.46C175.232 11.8307 175.371 10.4007 175.648 9.17C175.943 7.922 176.463 6.856 177.208 5.972C177.954 5.07067 179.002 4.34267 180.354 3.788C181.533 3.30267 182.434 2.826 183.058 2.358C183.7 1.89 184.081 1.344 184.202 0.719999H187.972C187.886 1.48267 187.608 2.21067 187.14 2.904C186.672 3.59733 186.057 4.22133 185.294 4.776C184.549 5.31333 183.7 5.764 182.746 6.128C181.689 6.52667 180.857 7.02933 180.25 7.636C179.661 8.24267 179.245 8.936 179.002 9.716C178.777 10.4787 178.664 11.2933 178.664 12.16L179.314 14.994L175.232 13.46ZM202.907 17.75H206.547V9.04H210.317V17.75H212.397V23.652H208.731V21H191.675V9.04H195.471V17.75H199.137V9.04H202.907V17.75ZM226.566 12.42L214.502 21.91L214.632 17.62L226.696 8.13L226.566 12.42ZM218.298 9.04V18.244L214.502 21.91V9.04H218.298ZM226.696 8.13V21H222.926V11.796L226.696 8.13ZM228.433 9.04H236.831V12.29H228.433V9.04ZM230.747 9.56H234.517V21H230.747V9.56ZM238.677 9.04H242.603V21H238.677V9.04ZM241.745 15.618V13.07H245.463C246.694 13.07 247.725 13.3733 248.557 13.98C249.406 14.5693 249.831 15.5053 249.831 16.788C249.831 17.6373 249.64 18.3827 249.259 19.024C248.878 19.6653 248.358 20.1593 247.699 20.506C247.04 20.8353 246.295 21 245.463 21H241.745V17.958H244.761C245.056 17.958 245.298 17.9147 245.489 17.828C245.697 17.7413 245.853 17.6113 245.957 17.438C246.078 17.2473 246.139 17.0307 246.139 16.788C246.139 16.4413 246.018 16.164 245.775 15.956C245.55 15.7307 245.212 15.618 244.761 15.618H241.745Z" fill="black"/>
</svg>
