<svg width="29" height="28" viewBox="0 0 29 28" fill="none" xmlns="http://www.w3.org/2000/svg">
<path d="M20.209 2.3335H8.54232C5.32232 2.3335 2.70898 4.93516 2.70898 8.1435V16.2868C2.70898 19.4952 5.32232 22.0968 8.54232 22.0968H10.2923C10.6073 22.0968 11.0273 22.3068 11.2257 22.5635L12.9757 24.8852C13.7457 25.9118 15.0057 25.9118 15.7757 24.8852L17.5257 22.5635C17.7473 22.2718 18.0973 22.0968 18.459 22.0968H20.209C23.429 22.0968 26.0423 19.4952 26.0423 16.2868V8.1435C26.0423 4.93516 23.429 2.3335 20.209 2.3335ZM9.70898 14.0002C9.05565 14.0002 8.54232 13.4752 8.54232 12.8335C8.54232 12.1918 9.06732 11.6668 9.70898 11.6668C10.3507 11.6668 10.8757 12.1918 10.8757 12.8335C10.8757 13.4752 10.3623 14.0002 9.70898 14.0002ZM14.3757 14.0002C13.7223 14.0002 13.209 13.4752 13.209 12.8335C13.209 12.1918 13.734 11.6668 14.3757 11.6668C15.0173 11.6668 15.5423 12.1918 15.5423 12.8335C15.5423 13.4752 15.029 14.0002 14.3757 14.0002ZM19.0423 14.0002C18.389 14.0002 17.8757 13.4752 17.8757 12.8335C17.8757 12.1918 18.4007 11.6668 19.0423 11.6668C19.684 11.6668 20.209 12.1918 20.209 12.8335C20.209 13.4752 19.6957 14.0002 19.0423 14.0002Z" fill="#00A80E"/>
</svg>
