<svg width="29" height="28" viewBox="0 0 29 28" fill="none" xmlns="http://www.w3.org/2000/svg">
<path d="M25.1763 9.34518L17.5346 3.23185C16.0413 2.04185 13.708 2.03018 12.2263 3.22018L4.58463 9.34518C3.48796 10.2202 2.82296 11.9702 3.0563 13.3468L4.5263 22.1435C4.86463 24.1152 6.6963 25.6669 8.6913 25.6669H21.058C23.0296 25.6669 24.8963 24.0802 25.2346 22.1318L26.7046 13.3352C26.9146 11.9702 26.2496 10.2202 25.1763 9.34518ZM15.7496 21.0002C15.7496 21.4785 15.353 21.8752 14.8746 21.8752C14.3963 21.8752 13.9996 21.4785 13.9996 21.0002V17.5002C13.9996 17.0218 14.3963 16.6252 14.8746 16.6252C15.353 16.6252 15.7496 17.0218 15.7496 17.5002V21.0002Z" fill="#00A80E"/>
</svg>
