<svg width="29" height="28" viewBox="0 0 29 28" fill="none" xmlns="http://www.w3.org/2000/svg">
<path d="M25.125 10.346V5.579C25.125 4.0985 24.453 3.5 22.7835 3.5H18.5415C16.872 3.5 16.2 4.0985 16.2 5.579V10.3355C16.2 11.8265 16.872 12.4145 18.5415 12.4145H22.7835C24.453 12.425 25.125 11.8265 25.125 10.346ZM25.125 22.1585V17.9165C25.125 16.247 24.453 15.575 22.7835 15.575H18.5415C16.872 15.575 16.2 16.247 16.2 17.9165V22.1585C16.2 23.828 16.872 24.5 18.5415 24.5H22.7835C24.453 24.5 25.125 23.828 25.125 22.1585ZM13.05 10.346V5.579C13.05 4.0985 12.378 3.5 10.7085 3.5H6.4665C4.797 3.5 4.125 4.0985 4.125 5.579V10.3355C4.125 11.8265 4.797 12.4145 6.4665 12.4145H10.7085C12.378 12.425 13.05 11.8265 13.05 10.346ZM13.05 22.1585V17.9165C13.05 16.247 12.378 15.575 10.7085 15.575H6.4665C4.797 15.575 4.125 16.247 4.125 17.9165V22.1585C4.125 23.828 4.797 24.5 6.4665 24.5H10.7085C12.378 24.5 13.05 23.828 13.05 22.1585Z" fill="#00A80E"/>
</svg>
