<svg width="29" height="28" viewBox="0 0 29 28" fill="none" xmlns="http://www.w3.org/2000/svg">
<path d="M14.1254 2.3335C11.0688 2.3335 8.58378 4.8185 8.58378 7.87516C8.58378 10.8735 10.9288 13.3002 13.9854 13.4052C14.0788 13.3935 14.1721 13.3935 14.2421 13.4052H14.3238C15.758 13.3573 17.1174 12.7536 18.1146 11.7216C19.1118 10.6896 19.6685 9.31021 19.6671 7.87516C19.6671 4.8185 17.1821 2.3335 14.1254 2.3335ZM20.0521 16.5073C16.7971 14.3373 11.4888 14.3373 8.21044 16.5073C6.72878 17.499 5.91211 18.8407 5.91211 20.2757C5.91211 21.7107 6.72878 23.0407 8.19878 24.0207C9.83211 25.1173 11.9788 25.6657 14.1254 25.6657C16.2721 25.6657 18.4188 25.1173 20.0521 24.0207C21.5221 23.029 22.3388 21.699 22.3388 20.2523C22.3271 18.8173 21.5221 17.4873 20.0521 16.5073Z" fill="#00A80E"/>
</svg>
