<svg width="161" height="55" viewBox="0 0 161 55" fill="none" xmlns="http://www.w3.org/2000/svg">
<path d="M1.072 0.399999H5.972V20H1.072V0.399999ZM12.636 0.399999H18.18L10.228 9.584L18.6 20H12.86L4.6 9.724L12.636 0.399999ZM23.5061 16.164C23.5061 16.4627 23.5901 16.7147 23.7581 16.92C23.9261 17.1067 24.1501 17.256 24.4301 17.368C24.7288 17.4613 25.0368 17.508 25.3541 17.508C25.8768 17.508 26.3528 17.424 26.7821 17.256C27.2301 17.088 27.5848 16.808 27.8461 16.416C28.1075 16.024 28.2381 15.4827 28.2381 14.792L28.6861 16.36C28.6861 17.1813 28.4715 17.8907 28.0421 18.488C27.6315 19.0667 27.0621 19.5147 26.3341 19.832C25.6248 20.1307 24.8221 20.28 23.9261 20.28C23.0301 20.28 22.2275 20.1307 21.5181 19.832C20.8088 19.5147 20.2488 19.0667 19.8381 18.488C19.4461 17.8907 19.2501 17.172 19.2501 16.332C19.2501 15.4733 19.4741 14.736 19.9221 14.12C20.3888 13.504 21.0421 13.028 21.8821 12.692C22.7221 12.356 23.7021 12.188 24.8221 12.188C25.4755 12.188 26.0915 12.2627 26.6701 12.412C27.2675 12.5427 27.7808 12.72 28.2101 12.944C28.6581 13.1493 28.9755 13.3547 29.1621 13.56V15.548C28.6768 15.1933 28.1728 14.932 27.6501 14.764C27.1461 14.5773 26.5301 14.484 25.8021 14.484C25.3168 14.484 24.8968 14.5587 24.5421 14.708C24.2061 14.8387 23.9448 15.0253 23.7581 15.268C23.5901 15.5107 23.5061 15.8093 23.5061 16.164ZM21.8541 11.096L20.4261 8.24C21.1541 7.88533 22.0221 7.54933 23.0301 7.232C24.0568 6.91467 25.1488 6.756 26.3061 6.756C27.4635 6.756 28.4901 6.924 29.3861 7.26C30.3008 7.57733 31.0101 8.044 31.5141 8.66C32.0368 9.276 32.2981 10.032 32.2981 10.928V20H28.2381V11.768C28.2381 11.2267 28.0328 10.7973 27.6221 10.48C27.2301 10.144 26.6795 9.976 25.9701 9.976C25.3541 9.976 24.7661 10.0413 24.2061 10.172C23.6648 10.3027 23.1888 10.4613 22.7781 10.648C22.3675 10.816 22.0595 10.9653 21.8541 11.096ZM39.6606 26.16H35.4326V7.12H39.6606V26.16ZM50.1886 13.56C50.1886 15.0533 49.8899 16.3133 49.2926 17.34C48.7139 18.3667 47.9579 19.1413 47.0246 19.664C46.1099 20.1867 45.1206 20.448 44.0566 20.448C42.9366 20.448 41.9659 20.168 41.1446 19.608C40.3419 19.0293 39.7259 18.2267 39.2966 17.2C38.8673 16.1547 38.6526 14.9413 38.6526 13.56C38.6526 12.16 38.8673 10.9467 39.2966 9.92C39.7259 8.89333 40.3419 8.1 41.1446 7.54C41.9659 6.96133 42.9366 6.672 44.0566 6.672C45.1206 6.672 46.1099 6.93333 47.0246 7.456C47.9579 7.97867 48.7139 8.75333 49.2926 9.78C49.8899 10.788 50.1886 12.048 50.1886 13.56ZM45.7366 13.56C45.7366 12.888 45.5966 12.3187 45.3166 11.852C45.0366 11.3853 44.6633 11.0307 44.1966 10.788C43.7299 10.5453 43.2166 10.424 42.6566 10.424C42.1713 10.424 41.6953 10.5453 41.2286 10.788C40.7806 11.012 40.4073 11.3573 40.1086 11.824C39.8099 12.2907 39.6606 12.8693 39.6606 13.56C39.6606 14.2507 39.8099 14.8293 40.1086 15.296C40.4073 15.7627 40.7806 16.1173 41.2286 16.36C41.6953 16.584 42.1713 16.696 42.6566 16.696C43.2166 16.696 43.7299 16.5747 44.1966 16.332C44.6633 16.0893 45.0366 15.7347 45.3166 15.268C45.5966 14.8013 45.7366 14.232 45.7366 13.56ZM52.9378 7.12H57.1658V20H52.9378V7.12ZM56.2418 14.204V11.46H60.2458C61.5712 11.46 62.6818 11.7867 63.5778 12.44C64.4925 13.0747 64.9498 14.0827 64.9498 15.464C64.9498 16.3787 64.7445 17.1813 64.3338 17.872C63.9232 18.5627 63.3632 19.0947 62.6538 19.468C61.9445 19.8227 61.1418 20 60.2458 20H56.2418V16.724H59.4898C59.8072 16.724 60.0685 16.6773 60.2738 16.584C60.4978 16.4907 60.6658 16.3507 60.7778 16.164C60.9085 15.9587 60.9738 15.7253 60.9738 15.464C60.9738 15.0907 60.8432 14.792 60.5818 14.568C60.3392 14.3253 59.9752 14.204 59.4898 14.204H56.2418ZM69.6237 14.456V12.104H76.9037C76.829 11.5813 76.689 11.1427 76.4837 10.788C76.297 10.4333 76.0263 10.1627 75.6717 9.976C75.3357 9.77067 74.9157 9.668 74.4117 9.668C73.833 9.668 73.329 9.79867 72.8997 10.06C72.489 10.3027 72.1623 10.6667 71.9197 11.152C71.677 11.6187 71.5557 12.1973 71.5557 12.888L71.4997 13.56C71.4997 14.4373 71.6303 15.1467 71.8917 15.688C72.1717 16.2293 72.5357 16.6213 72.9837 16.864C73.4503 17.1067 73.9543 17.228 74.4957 17.228C75.0183 17.228 75.4757 17.1627 75.8677 17.032C76.2783 16.9013 76.633 16.7147 76.9317 16.472C77.2303 16.2107 77.4823 15.9027 77.6877 15.548L81.4677 16.472C81.0383 17.256 80.525 17.9373 79.9277 18.516C79.3303 19.076 78.593 19.5147 77.7157 19.832C76.857 20.1307 75.8023 20.28 74.5517 20.28C73.0023 20.28 71.677 19.9907 70.5757 19.412C69.493 18.8333 68.6623 18.04 68.0837 17.032C67.5237 16.0053 67.2437 14.848 67.2437 13.56C67.2437 13.3173 67.253 13.084 67.2717 12.86C67.2903 12.636 67.3183 12.412 67.3557 12.188C67.5423 11.124 67.925 10.1907 68.5037 9.388C69.101 8.58533 69.8943 7.96 70.8837 7.512C71.8917 7.064 73.0957 6.84 74.4957 6.84C76.0077 6.84 77.277 7.10133 78.3037 7.624C79.3303 8.14667 80.105 8.89333 80.6277 9.864C81.169 10.8347 81.4397 12.0013 81.4397 13.364C81.4397 13.476 81.4397 13.6347 81.4397 13.84C81.4397 14.0267 81.421 14.232 81.3837 14.456H69.6237ZM88.3051 26.16H84.0771V7.12H88.3051V26.16ZM98.8331 13.56C98.8331 15.0533 98.5345 16.3133 97.9371 17.34C97.3585 18.3667 96.6025 19.1413 95.6691 19.664C94.7545 20.1867 93.7651 20.448 92.7011 20.448C91.5811 20.448 90.6105 20.168 89.7891 19.608C88.9865 19.0293 88.3705 18.2267 87.9411 17.2C87.5118 16.1547 87.2971 14.9413 87.2971 13.56C87.2971 12.16 87.5118 10.9467 87.9411 9.92C88.3705 8.89333 88.9865 8.1 89.7891 7.54C90.6105 6.96133 91.5811 6.672 92.7011 6.672C93.7651 6.672 94.7545 6.93333 95.6691 7.456C96.6025 7.97867 97.3585 8.75333 97.9371 9.78C98.5345 10.788 98.8331 12.048 98.8331 13.56ZM94.3811 13.56C94.3811 12.888 94.2411 12.3187 93.9611 11.852C93.6811 11.3853 93.3078 11.0307 92.8411 10.788C92.3745 10.5453 91.8611 10.424 91.3011 10.424C90.8158 10.424 90.3398 10.5453 89.8731 10.788C89.4251 11.012 89.0518 11.3573 88.7531 11.824C88.4545 12.2907 88.3051 12.8693 88.3051 13.56C88.3051 14.2507 88.4545 14.8293 88.7531 15.296C89.0518 15.7627 89.4251 16.1173 89.8731 16.36C90.3398 16.584 90.8158 16.696 91.3011 16.696C91.8611 16.696 92.3745 16.5747 92.8411 16.332C93.3078 16.0893 93.6811 15.7347 93.9611 15.268C94.2411 14.8013 94.3811 14.232 94.3811 13.56ZM102.702 14.792V11.628H113.118V14.792H102.702ZM111.214 7.12H115.274V20H111.214V7.12ZM101.386 7.12H105.474V20H101.386V7.12ZM132.417 7.12H136.673V20H132.417V7.12ZM118.613 7.12H122.869V20H118.613V7.12ZM121.945 14.204V11.46H125.949C127.274 11.46 128.385 11.7867 129.281 12.44C130.196 13.0747 130.653 14.0827 130.653 15.464C130.653 16.3787 130.448 17.1813 130.037 17.872C129.626 18.5627 129.066 19.0947 128.357 19.468C127.648 19.8227 126.845 20 125.949 20H121.945V16.724H125.193C125.51 16.724 125.772 16.6773 125.977 16.584C126.201 16.4907 126.369 16.3507 126.481 16.164C126.612 15.9587 126.677 15.7253 126.677 15.464C126.677 15.0907 126.546 14.792 126.285 14.568C126.042 14.3253 125.678 14.204 125.193 14.204H121.945ZM153.016 10.76L140.024 20.98L140.164 16.36L153.156 6.14L153.016 10.76ZM144.112 7.12V17.032L140.024 20.98V7.12H144.112ZM153.156 6.14V20H149.096V10.088L153.156 6.14ZM142.208 0.539999H144.98C144.98 0.857332 145.055 1.14667 145.204 1.408C145.354 1.65067 145.568 1.84667 145.848 1.996C146.128 2.12667 146.446 2.192 146.8 2.192C147.155 2.192 147.472 2.12667 147.752 1.996C148.032 1.84667 148.247 1.65067 148.396 1.408C148.546 1.14667 148.62 0.857332 148.62 0.539999H151.392C151.392 1.28667 151.215 1.97733 150.86 2.612C150.506 3.228 149.983 3.72267 149.292 4.096C148.62 4.45067 147.79 4.628 146.8 4.628C145.83 4.628 144.999 4.45067 144.308 4.096C143.618 3.72267 143.095 3.228 142.74 2.612C142.386 1.97733 142.208 1.28667 142.208 0.539999ZM0.624 35.12H4.684V48H0.624V35.12ZM9.36 35.12H14.428L8.912 40.44L14.988 48H10.004L3.844 40.44L9.36 35.12ZM15.646 41.56C15.646 40.1973 15.9633 39.012 16.598 38.004C17.2327 36.996 18.11 36.212 19.23 35.652C20.35 35.092 21.61 34.812 23.01 34.812C24.41 34.812 25.6607 35.092 26.762 35.652C27.882 36.212 28.7593 36.996 29.394 38.004C30.0473 39.012 30.374 40.1973 30.374 41.56C30.374 42.904 30.0473 44.08 29.394 45.088C28.7593 46.096 27.882 46.88 26.762 47.44C25.6607 48 24.41 48.28 23.01 48.28C21.61 48.28 20.35 48 19.23 47.44C18.11 46.88 17.2327 46.096 16.598 45.088C15.9633 44.08 15.646 42.904 15.646 41.56ZM19.986 41.56C19.986 42.232 20.126 42.8107 20.406 43.296C20.686 43.7627 21.05 44.1267 21.498 44.388C21.946 44.6493 22.45 44.78 23.01 44.78C23.5513 44.78 24.046 44.6493 24.494 44.388C24.9607 44.1267 25.3247 43.7627 25.586 43.296C25.866 42.8107 26.006 42.232 26.006 41.56C26.006 40.888 25.866 40.3093 25.586 39.824C25.3247 39.3387 24.9607 38.9653 24.494 38.704C24.046 38.4427 23.5513 38.312 23.01 38.312C22.45 38.312 21.946 38.4427 21.498 38.704C21.05 38.9653 20.686 39.3387 20.406 39.824C20.126 40.3093 19.986 40.888 19.986 41.56ZM34.2336 42.792V39.628H44.6496V42.792H34.2336ZM42.7456 35.12H46.8056V48H42.7456V35.12ZM32.9176 35.12H37.0056V48H32.9176V35.12ZM53.7002 41.56C53.7002 42.2507 53.8495 42.848 54.1482 43.352C54.4469 43.8373 54.8575 44.22 55.3802 44.5C55.9215 44.78 56.5002 44.92 57.1162 44.92C57.6389 44.92 58.1335 44.8453 58.6002 44.696C59.0855 44.528 59.5242 44.304 59.9162 44.024C60.3269 43.744 60.6629 43.3987 60.9242 42.988V47.104C60.4762 47.4587 59.9162 47.748 59.2442 47.972C58.5722 48.1773 57.7509 48.28 56.7802 48.28C55.3615 48.28 54.0829 48 52.9442 47.44C51.8242 46.88 50.9375 46.096 50.2842 45.088C49.6495 44.08 49.3322 42.904 49.3322 41.56C49.3322 40.1973 49.6495 39.0213 50.2842 38.032C50.9375 37.024 51.8242 36.24 52.9442 35.68C54.0829 35.12 55.3615 34.84 56.7802 34.84C57.7509 34.84 58.5722 34.952 59.2442 35.176C59.9162 35.3813 60.4762 35.6427 60.9242 35.96V40.104C60.6629 39.6933 60.3175 39.348 59.8882 39.068C59.4775 38.788 59.0295 38.5733 58.5442 38.424C58.0589 38.2747 57.5829 38.2 57.1162 38.2C56.5002 38.2 55.9215 38.3493 55.3802 38.648C54.8575 38.9467 54.4469 39.348 54.1482 39.852C53.8495 40.356 53.7002 40.9253 53.7002 41.56ZM77.1681 35.12L68.7681 54.16H64.5121L67.6481 46.964L62.0761 35.12H66.7241L70.8961 45.452L68.7121 45.424L72.8281 35.12H77.1681ZM92.1337 35.12V48H88.0737V38.956H83.3137V43.52C83.3137 44.528 83.127 45.368 82.7537 46.04C82.3804 46.6933 81.7457 47.188 80.8497 47.524C79.9724 47.8413 78.759 48 77.2097 48V44.22C77.7697 44.22 78.2457 44.1173 78.6377 43.912C79.0484 43.688 79.2537 43.212 79.2537 42.484V35.12H92.1337ZM96.223 35.12H100.451V48H96.223V35.12ZM99.527 42.204V39.46H103.531C104.856 39.46 105.967 39.7867 106.863 40.44C107.778 41.0747 108.235 42.0827 108.235 43.464C108.235 44.3787 108.03 45.1813 107.619 45.872C107.208 46.5627 106.648 47.0947 105.939 47.468C105.23 47.8227 104.427 48 103.531 48H99.527V44.724H102.775C103.092 44.724 103.354 44.6773 103.559 44.584C103.783 44.4907 103.951 44.3507 104.063 44.164C104.194 43.9587 104.259 43.7253 104.259 43.464C104.259 43.0907 104.128 42.792 103.867 42.568C103.624 42.3253 103.26 42.204 102.775 42.204H99.527ZM109.773 35.12H118.817V38.62H109.773V35.12ZM112.265 35.68H116.325V48H112.265V35.68ZM123.885 44.164C123.885 44.4627 123.969 44.7147 124.137 44.92C124.305 45.1067 124.529 45.256 124.809 45.368C125.108 45.4613 125.416 45.508 125.733 45.508C126.256 45.508 126.732 45.424 127.161 45.256C127.609 45.088 127.964 44.808 128.225 44.416C128.486 44.024 128.617 43.4827 128.617 42.792L129.065 44.36C129.065 45.1813 128.85 45.8907 128.421 46.488C128.01 47.0667 127.441 47.5147 126.713 47.832C126.004 48.1307 125.201 48.28 124.305 48.28C123.409 48.28 122.606 48.1307 121.897 47.832C121.188 47.5147 120.628 47.0667 120.217 46.488C119.825 45.8907 119.629 45.172 119.629 44.332C119.629 43.4733 119.853 42.736 120.301 42.12C120.768 41.504 121.421 41.028 122.261 40.692C123.101 40.356 124.081 40.188 125.201 40.188C125.854 40.188 126.47 40.2627 127.049 40.412C127.646 40.5427 128.16 40.72 128.589 40.944C129.037 41.1493 129.354 41.3547 129.541 41.56V43.548C129.056 43.1933 128.552 42.932 128.029 42.764C127.525 42.5773 126.909 42.484 126.181 42.484C125.696 42.484 125.276 42.5587 124.921 42.708C124.585 42.8387 124.324 43.0253 124.137 43.268C123.969 43.5107 123.885 43.8093 123.885 44.164ZM122.233 39.096L120.805 36.24C121.533 35.8853 122.401 35.5493 123.409 35.232C124.436 34.9147 125.528 34.756 126.685 34.756C127.842 34.756 128.869 34.924 129.765 35.26C130.68 35.5773 131.389 36.044 131.893 36.66C132.416 37.276 132.677 38.032 132.677 38.928V48H128.617V39.768C128.617 39.2267 128.412 38.7973 128.001 38.48C127.609 38.144 127.058 37.976 126.349 37.976C125.733 37.976 125.145 38.0413 124.585 38.172C124.044 38.3027 123.568 38.4613 123.157 38.648C122.746 38.816 122.438 38.9653 122.233 39.096ZM137.156 42.792V39.628H147.572V42.792H137.156ZM145.668 35.12H149.728V48H145.668V35.12ZM135.84 35.12H139.928V48H135.84V35.12ZM151.554 35.12H160.598V38.62H151.554V35.12ZM154.046 35.68H158.106V48H154.046V35.68Z" fill="black"/>
</svg>
