<svg width="234" height="55" viewBox="0 0 234 55" fill="none" xmlns="http://www.w3.org/2000/svg">
<path d="M13.532 4.628H6.056V20H1.24V0.399999H18.348V20H13.532V4.628ZM25.8096 13.56C25.8096 14.2507 25.9589 14.848 26.2576 15.352C26.5562 15.8373 26.9669 16.22 27.4896 16.5C28.0309 16.78 28.6096 16.92 29.2256 16.92C29.7482 16.92 30.2429 16.8453 30.7096 16.696C31.1949 16.528 31.6336 16.304 32.0256 16.024C32.4362 15.744 32.7722 15.3987 33.0336 14.988V19.104C32.5856 19.4587 32.0256 19.748 31.3536 19.972C30.6816 20.1773 29.8602 20.28 28.8896 20.28C27.4709 20.28 26.1922 20 25.0536 19.44C23.9336 18.88 23.0469 18.096 22.3936 17.088C21.7589 16.08 21.4416 14.904 21.4416 13.56C21.4416 12.1973 21.7589 11.0213 22.3936 10.032C23.0469 9.024 23.9336 8.24 25.0536 7.68C26.1922 7.12 27.4709 6.84 28.8896 6.84C29.8602 6.84 30.6816 6.952 31.3536 7.176C32.0256 7.38133 32.5856 7.64267 33.0336 7.96V12.104C32.7722 11.6933 32.4269 11.348 31.9976 11.068C31.5869 10.788 31.1389 10.5733 30.6536 10.424C30.1682 10.2747 29.6922 10.2 29.2256 10.2C28.6096 10.2 28.0309 10.3493 27.4896 10.648C26.9669 10.9467 26.5562 11.348 26.2576 11.852C25.9589 12.356 25.8096 12.9253 25.8096 13.56ZM49.1375 10.76L36.1455 20.98L36.2855 16.36L49.2775 6.14L49.1375 10.76ZM40.2335 7.12V17.032L36.1455 20.98V7.12H40.2335ZM49.2775 6.14V20H45.2175V10.088L49.2775 6.14ZM60.9198 7.12H65.6238L60.6958 13.392L65.9038 20H61.1998L58.5118 16.248L55.8798 20H51.0078L56.2998 13.392L51.2878 7.12H56.1598L58.5118 10.508L60.9198 7.12ZM66.396 13.56C66.396 12.1973 66.7133 11.012 67.348 10.004C67.9827 8.996 68.86 8.212 69.98 7.652C71.1 7.092 72.36 6.812 73.76 6.812C75.16 6.812 76.4107 7.092 77.512 7.652C78.632 8.212 79.5093 8.996 80.144 10.004C80.7973 11.012 81.124 12.1973 81.124 13.56C81.124 14.904 80.7973 16.08 80.144 17.088C79.5093 18.096 78.632 18.88 77.512 19.44C76.4107 20 75.16 20.28 73.76 20.28C72.36 20.28 71.1 20 69.98 19.44C68.86 18.88 67.9827 18.096 67.348 17.088C66.7133 16.08 66.396 14.904 66.396 13.56ZM70.736 13.56C70.736 14.232 70.876 14.8107 71.156 15.296C71.436 15.7627 71.8 16.1267 72.248 16.388C72.696 16.6493 73.2 16.78 73.76 16.78C74.3013 16.78 74.796 16.6493 75.244 16.388C75.7107 16.1267 76.0747 15.7627 76.336 15.296C76.616 14.8107 76.756 14.232 76.756 13.56C76.756 12.888 76.616 12.3093 76.336 11.824C76.0747 11.3387 75.7107 10.9653 75.244 10.704C74.796 10.4427 74.3013 10.312 73.76 10.312C73.2 10.312 72.696 10.4427 72.248 10.704C71.8 10.9653 71.436 11.3387 71.156 11.824C70.876 12.3093 70.736 12.888 70.736 13.56ZM97.2196 7.12V20H93.1596V10.956H88.3996V15.52C88.3996 16.528 88.213 17.368 87.8396 18.04C87.4663 18.6933 86.8316 19.188 85.9356 19.524C85.0583 19.8413 83.845 20 82.2956 20V16.22C82.8556 16.22 83.3316 16.1173 83.7236 15.912C84.1343 15.688 84.3396 15.212 84.3396 14.484V7.12H97.2196ZM100.357 13.56C100.357 12.1973 100.674 11.012 101.309 10.004C101.944 8.996 102.821 8.212 103.941 7.652C105.061 7.092 106.321 6.812 107.721 6.812C109.121 6.812 110.372 7.092 111.473 7.652C112.593 8.212 113.47 8.996 114.105 10.004C114.758 11.012 115.085 12.1973 115.085 13.56C115.085 14.904 114.758 16.08 114.105 17.088C113.47 18.096 112.593 18.88 111.473 19.44C110.372 20 109.121 20.28 107.721 20.28C106.321 20.28 105.061 20 103.941 19.44C102.821 18.88 101.944 18.096 101.309 17.088C100.674 16.08 100.357 14.904 100.357 13.56ZM104.697 13.56C104.697 14.232 104.837 14.8107 105.117 15.296C105.397 15.7627 105.761 16.1267 106.209 16.388C106.657 16.6493 107.161 16.78 107.721 16.78C108.262 16.78 108.757 16.6493 109.205 16.388C109.672 16.1267 110.036 15.7627 110.297 15.296C110.577 14.8107 110.717 14.232 110.717 13.56C110.717 12.888 110.577 12.3093 110.297 11.824C110.036 11.3387 109.672 10.9653 109.205 10.704C108.757 10.4427 108.262 10.312 107.721 10.312C107.161 10.312 106.657 10.4427 106.209 10.704C105.761 10.9653 105.397 11.3387 105.117 11.824C104.837 12.3093 104.697 12.888 104.697 13.56ZM117.685 7.12H125.945V10.62H121.857V20H117.685V7.12ZM140.712 10.76L127.72 20.98L127.86 16.36L140.852 6.14L140.712 10.76ZM131.808 7.12V17.032L127.72 20.98V7.12H131.808ZM140.852 6.14V20H136.792V10.088L140.852 6.14ZM149.022 16.78L150.254 13.28H153.418V16.78H149.022ZM151.822 7.12H156.05V20H151.822V7.12ZM148.21 7.12V11.152C148.21 11.6747 148.275 12.0947 148.406 12.412C148.555 12.7107 148.779 12.9347 149.078 13.084C149.377 13.2147 149.769 13.28 150.254 13.28L149.022 16.78C147.734 16.78 146.717 16.5467 145.97 16.08C145.242 15.5947 144.729 14.9133 144.43 14.036C144.131 13.14 143.982 12.0667 143.982 10.816V7.12H148.21ZM161.171 14.456V12.104H168.451C168.376 11.5813 168.236 11.1427 168.031 10.788C167.844 10.4333 167.573 10.1627 167.219 9.976C166.883 9.77067 166.463 9.668 165.959 9.668C165.38 9.668 164.876 9.79867 164.447 10.06C164.036 10.3027 163.709 10.6667 163.467 11.152C163.224 11.6187 163.103 12.1973 163.103 12.888L163.047 13.56C163.047 14.4373 163.177 15.1467 163.439 15.688C163.719 16.2293 164.083 16.6213 164.531 16.864C164.997 17.1067 165.501 17.228 166.043 17.228C166.565 17.228 167.023 17.1627 167.415 17.032C167.825 16.9013 168.18 16.7147 168.479 16.472C168.777 16.2107 169.029 15.9027 169.235 15.548L173.015 16.472C172.585 17.256 172.072 17.9373 171.475 18.516C170.877 19.076 170.14 19.5147 169.263 19.832C168.404 20.1307 167.349 20.28 166.099 20.28C164.549 20.28 163.224 19.9907 162.123 19.412C161.04 18.8333 160.209 18.04 159.631 17.032C159.071 16.0053 158.791 14.848 158.791 13.56C158.791 13.3173 158.8 13.084 158.819 12.86C158.837 12.636 158.865 12.412 158.903 12.188C159.089 11.124 159.472 10.1907 160.051 9.388C160.648 8.58533 161.441 7.96 162.431 7.512C163.439 7.064 164.643 6.84 166.043 6.84C167.555 6.84 168.824 7.10133 169.851 7.624C170.877 8.14667 171.652 8.89333 172.175 9.864C172.716 10.8347 172.987 12.0013 172.987 13.364C172.987 13.476 172.987 13.6347 172.987 13.84C172.987 14.0267 172.968 14.232 172.931 14.456H161.171ZM179.208 13.56C179.208 14.2507 179.357 14.848 179.656 15.352C179.955 15.8373 180.365 16.22 180.888 16.5C181.429 16.78 182.008 16.92 182.624 16.92C183.147 16.92 183.641 16.8453 184.108 16.696C184.593 16.528 185.032 16.304 185.424 16.024C185.835 15.744 186.171 15.3987 186.432 14.988V19.104C185.984 19.4587 185.424 19.748 184.752 19.972C184.08 20.1773 183.259 20.28 182.288 20.28C180.869 20.28 179.591 20 178.452 19.44C177.332 18.88 176.445 18.096 175.792 17.088C175.157 16.08 174.84 14.904 174.84 13.56C174.84 12.1973 175.157 11.0213 175.792 10.032C176.445 9.024 177.332 8.24 178.452 7.68C179.591 7.12 180.869 6.84 182.288 6.84C183.259 6.84 184.08 6.952 184.752 7.176C185.424 7.38133 185.984 7.64267 186.432 7.96V12.104C186.171 11.6933 185.825 11.348 185.396 11.068C184.985 10.788 184.537 10.5733 184.052 10.424C183.567 10.2747 183.091 10.2 182.624 10.2C182.008 10.2 181.429 10.3493 180.888 10.648C180.365 10.9467 179.955 11.348 179.656 11.852C179.357 12.356 179.208 12.9253 179.208 13.56ZM189.46 7.12H193.52V20H189.46V7.12ZM198.196 7.12H203.264L197.748 12.44L203.824 20H198.84L192.68 12.44L198.196 7.12ZM208.924 16.164C208.924 16.4627 209.008 16.7147 209.176 16.92C209.344 17.1067 209.568 17.256 209.848 17.368C210.147 17.4613 210.455 17.508 210.772 17.508C211.295 17.508 211.771 17.424 212.2 17.256C212.648 17.088 213.003 16.808 213.264 16.416C213.525 16.024 213.656 15.4827 213.656 14.792L214.104 16.36C214.104 17.1813 213.889 17.8907 213.46 18.488C213.049 19.0667 212.48 19.5147 211.752 19.832C211.043 20.1307 210.24 20.28 209.344 20.28C208.448 20.28 207.645 20.1307 206.936 19.832C206.227 19.5147 205.667 19.0667 205.256 18.488C204.864 17.8907 204.668 17.172 204.668 16.332C204.668 15.4733 204.892 14.736 205.34 14.12C205.807 13.504 206.46 13.028 207.3 12.692C208.14 12.356 209.12 12.188 210.24 12.188C210.893 12.188 211.509 12.2627 212.088 12.412C212.685 12.5427 213.199 12.72 213.628 12.944C214.076 13.1493 214.393 13.3547 214.58 13.56V15.548C214.095 15.1933 213.591 14.932 213.068 14.764C212.564 14.5773 211.948 14.484 211.22 14.484C210.735 14.484 210.315 14.5587 209.96 14.708C209.624 14.8387 209.363 15.0253 209.176 15.268C209.008 15.5107 208.924 15.8093 208.924 16.164ZM207.272 11.096L205.844 8.24C206.572 7.88533 207.44 7.54933 208.448 7.232C209.475 6.91467 210.567 6.756 211.724 6.756C212.881 6.756 213.908 6.924 214.804 7.26C215.719 7.57733 216.428 8.044 216.932 8.66C217.455 9.276 217.716 10.032 217.716 10.928V20H213.656V11.768C213.656 11.2267 213.451 10.7973 213.04 10.48C212.648 10.144 212.097 9.976 211.388 9.976C210.772 9.976 210.184 10.0413 209.624 10.172C209.083 10.3027 208.607 10.4613 208.196 10.648C207.785 10.816 207.477 10.9653 207.272 11.096ZM224.743 20H220.375L224.239 14.148H228.271L224.743 20ZM233.339 20H229.111V7.12H233.339V20ZM230.567 12.552V15.38H226.563C225.685 15.38 224.836 15.2307 224.015 14.932C223.212 14.6333 222.559 14.176 222.055 13.56C221.569 12.9253 221.327 12.1227 221.327 11.152C221.327 10.1627 221.569 9.37867 222.055 8.8C222.559 8.22133 223.212 7.80133 224.015 7.54C224.836 7.26 225.685 7.12 226.563 7.12H230.567V10.48H227.151C226.796 10.48 226.488 10.5173 226.227 10.592C225.984 10.648 225.797 10.7507 225.667 10.9C225.536 11.0493 225.471 11.2547 225.471 11.516C225.471 11.7587 225.536 11.964 225.667 12.132C225.797 12.2813 225.984 12.3933 226.227 12.468C226.488 12.524 226.796 12.552 227.151 12.552H230.567ZM13.42 35.12V48H9.36V38.788H4.74V48H0.652V35.12H13.42ZM16.0015 41.56C16.0015 40.1973 16.3188 39.012 16.9535 38.004C17.5881 36.996 18.4655 36.212 19.5855 35.652C20.7055 35.092 21.9655 34.812 23.3655 34.812C24.7655 34.812 26.0161 35.092 27.1175 35.652C28.2375 36.212 29.1148 36.996 29.7495 38.004C30.4028 39.012 30.7295 40.1973 30.7295 41.56C30.7295 42.904 30.4028 44.08 29.7495 45.088C29.1148 46.096 28.2375 46.88 27.1175 47.44C26.0161 48 24.7655 48.28 23.3655 48.28C21.9655 48.28 20.7055 48 19.5855 47.44C18.4655 46.88 17.5881 46.096 16.9535 45.088C16.3188 44.08 16.0015 42.904 16.0015 41.56ZM20.3415 41.56C20.3415 42.232 20.4815 42.8107 20.7615 43.296C21.0415 43.7627 21.4055 44.1267 21.8535 44.388C22.3015 44.6493 22.8055 44.78 23.3655 44.78C23.9068 44.78 24.4015 44.6493 24.8495 44.388C25.3161 44.1267 25.6801 43.7627 25.9415 43.296C26.2215 42.8107 26.3615 42.232 26.3615 41.56C26.3615 40.888 26.2215 40.3093 25.9415 39.824C25.6801 39.3387 25.3161 38.9653 24.8495 38.704C24.4015 38.4427 23.9068 38.312 23.3655 38.312C22.8055 38.312 22.3015 38.4427 21.8535 38.704C21.4055 38.9653 21.0415 39.3387 20.7615 39.824C20.4815 40.3093 20.3415 40.888 20.3415 41.56ZM40.0266 40.216L36.9466 47.16L32.8586 46.292L40.0266 34.14L47.1946 46.292L43.1066 47.16L40.0266 40.216ZM44.7306 48H35.4626V50.52H31.3466V44.668H48.7066V50.52H44.7306V48ZM59.7688 40.216L56.6888 47.16L52.6008 46.292L59.7688 34.14L66.9368 46.292L62.8488 47.16L59.7688 40.216ZM64.4728 48H55.2048V50.52H51.0888V44.668H68.4488V50.52H64.4728V48ZM72.9869 42.456V40.104H80.2669C80.1923 39.5813 80.0523 39.1427 79.8469 38.788C79.6603 38.4333 79.3896 38.1627 79.0349 37.976C78.6989 37.7707 78.2789 37.668 77.7749 37.668C77.1963 37.668 76.6923 37.7987 76.2629 38.06C75.8523 38.3027 75.5256 38.6667 75.2829 39.152C75.0403 39.6187 74.9189 40.1973 74.9189 40.888L74.8629 41.56C74.8629 42.4373 74.9936 43.1467 75.2549 43.688C75.5349 44.2293 75.8989 44.6213 76.3469 44.864C76.8136 45.1067 77.3176 45.228 77.8589 45.228C78.3816 45.228 78.8389 45.1627 79.2309 45.032C79.6416 44.9013 79.9963 44.7147 80.2949 44.472C80.5936 44.2107 80.8456 43.9027 81.0509 43.548L84.8309 44.472C84.4016 45.256 83.8883 45.9373 83.2909 46.516C82.6936 47.076 81.9563 47.5147 81.0789 47.832C80.2203 48.1307 79.1656 48.28 77.9149 48.28C76.3656 48.28 75.0403 47.9907 73.9389 47.412C72.8563 46.8333 72.0256 46.04 71.4469 45.032C70.8869 44.0053 70.6069 42.848 70.6069 41.56C70.6069 41.3173 70.6163 41.084 70.6349 40.86C70.6536 40.636 70.6816 40.412 70.7189 40.188C70.9056 39.124 71.2883 38.1907 71.8669 37.388C72.4643 36.5853 73.2576 35.96 74.2469 35.512C75.2549 35.064 76.4589 34.84 77.8589 34.84C79.3709 34.84 80.6403 35.1013 81.6669 35.624C82.6936 36.1467 83.4683 36.8933 83.9909 37.864C84.5323 38.8347 84.8029 40.0013 84.8029 41.364C84.8029 41.476 84.8029 41.6347 84.8029 41.84C84.8029 42.0267 84.7843 42.232 84.7469 42.456H72.9869ZM91.6684 54.16H87.4404V35.12H91.6684V54.16ZM102.196 41.56C102.196 43.0533 101.898 44.3133 101.3 45.34C100.722 46.3667 99.9657 47.1413 99.0324 47.664C98.1177 48.1867 97.1284 48.448 96.0644 48.448C94.9444 48.448 93.9737 48.168 93.1524 47.608C92.3497 47.0293 91.7337 46.2267 91.3044 45.2C90.8751 44.1547 90.6604 42.9413 90.6604 41.56C90.6604 40.16 90.8751 38.9467 91.3044 37.92C91.7337 36.8933 92.3497 36.1 93.1524 35.54C93.9737 34.9613 94.9444 34.672 96.0644 34.672C97.1284 34.672 98.1177 34.9333 99.0324 35.456C99.9657 35.9787 100.722 36.7533 101.3 37.78C101.898 38.788 102.196 40.048 102.196 41.56ZM97.7444 41.56C97.7444 40.888 97.6044 40.3187 97.3244 39.852C97.0444 39.3853 96.6711 39.0307 96.2044 38.788C95.7377 38.5453 95.2244 38.424 94.6644 38.424C94.1791 38.424 93.7031 38.5453 93.2364 38.788C92.7884 39.012 92.4151 39.3573 92.1164 39.824C91.8177 40.2907 91.6684 40.8693 91.6684 41.56C91.6684 42.2507 91.8177 42.8293 92.1164 43.296C92.4151 43.7627 92.7884 44.1173 93.2364 44.36C93.7031 44.584 94.1791 44.696 94.6644 44.696C95.2244 44.696 95.7377 44.5747 96.2044 44.332C96.6711 44.0893 97.0444 43.7347 97.3244 43.268C97.6044 42.8013 97.7444 42.232 97.7444 41.56ZM121.896 35.12H126.768L121.252 40.552L127.328 48H122.456L116.296 40.44L121.896 35.12ZM117.024 35.12V48H112.992V35.12H117.024ZM108.148 35.12L113.748 40.44L107.588 48H102.688L108.792 40.552L103.248 35.12H108.148ZM128.948 35.12H133.008V48H128.948V35.12ZM137.684 35.12H142.752L137.236 40.44L143.312 48H138.328L132.168 40.44L137.684 35.12ZM148.412 44.164C148.412 44.4627 148.496 44.7147 148.664 44.92C148.832 45.1067 149.056 45.256 149.336 45.368C149.635 45.4613 149.943 45.508 150.26 45.508C150.783 45.508 151.259 45.424 151.688 45.256C152.136 45.088 152.491 44.808 152.752 44.416C153.014 44.024 153.144 43.4827 153.144 42.792L153.592 44.36C153.592 45.1813 153.378 45.8907 152.948 46.488C152.538 47.0667 151.968 47.5147 151.24 47.832C150.531 48.1307 149.728 48.28 148.832 48.28C147.936 48.28 147.134 48.1307 146.424 47.832C145.715 47.5147 145.155 47.0667 144.744 46.488C144.352 45.8907 144.156 45.172 144.156 44.332C144.156 43.4733 144.38 42.736 144.828 42.12C145.295 41.504 145.948 41.028 146.788 40.692C147.628 40.356 148.608 40.188 149.728 40.188C150.382 40.188 150.998 40.2627 151.576 40.412C152.174 40.5427 152.687 40.72 153.116 40.944C153.564 41.1493 153.882 41.3547 154.068 41.56V43.548C153.583 43.1933 153.079 42.932 152.556 42.764C152.052 42.5773 151.436 42.484 150.708 42.484C150.223 42.484 149.803 42.5587 149.448 42.708C149.112 42.8387 148.851 43.0253 148.664 43.268C148.496 43.5107 148.412 43.8093 148.412 44.164ZM146.76 39.096L145.332 36.24C146.06 35.8853 146.928 35.5493 147.936 35.232C148.963 34.9147 150.055 34.756 151.212 34.756C152.37 34.756 153.396 34.924 154.292 35.26C155.207 35.5773 155.916 36.044 156.42 36.66C156.943 37.276 157.204 38.032 157.204 38.928V48H153.144V39.768C153.144 39.2267 152.939 38.7973 152.528 38.48C152.136 38.144 151.586 37.976 150.876 37.976C150.26 37.976 149.672 38.0413 149.112 38.172C148.571 38.3027 148.095 38.4613 147.684 38.648C147.274 38.816 146.966 38.9653 146.76 39.096Z" fill="black"/>
</svg>
