<svg width="29" height="28" viewBox="0 0 29 28" fill="none" xmlns="http://www.w3.org/2000/svg">
<path d="M20.209 2.33325H8.54232C5.32232 2.33325 2.70898 4.93492 2.70898 8.14325V16.2866C2.70898 19.4949 5.32232 22.0966 8.54232 22.0966H10.2923C10.6073 22.0966 11.0273 22.3066 11.2257 22.5633L12.9757 24.8849C13.7457 25.9116 15.0057 25.9116 15.7757 24.8849L17.5257 22.5633C17.7473 22.2716 18.0973 22.0966 18.459 22.0966H20.209C23.429 22.0966 26.0423 19.4949 26.0423 16.2866V8.14325C26.0423 4.93492 23.429 2.33325 20.209 2.33325ZM9.70898 13.9999C9.05565 13.9999 8.54232 13.4749 8.54232 12.8333C8.54232 12.1916 9.06732 11.6666 9.70898 11.6666C10.3507 11.6666 10.8757 12.1916 10.8757 12.8333C10.8757 13.4749 10.3623 13.9999 9.70898 13.9999ZM14.3757 13.9999C13.7223 13.9999 13.209 13.4749 13.209 12.8333C13.209 12.1916 13.734 11.6666 14.3757 11.6666C15.0173 11.6666 15.5423 12.1916 15.5423 12.8333C15.5423 13.4749 15.029 13.9999 14.3757 13.9999ZM19.0423 13.9999C18.389 13.9999 17.8757 13.4749 17.8757 12.8333C17.8757 12.1916 18.4007 11.6666 19.0423 11.6666C19.684 11.6666 20.209 12.1916 20.209 12.8333C20.209 13.4749 19.6957 13.9999 19.0423 13.9999Z" fill="#979AA0"/>
</svg>
