<svg width="29" height="28" viewBox="0 0 29 28" fill="none" xmlns="http://www.w3.org/2000/svg">
<path d="M25.1763 9.34494L17.5346 3.23161C16.0413 2.04161 13.708 2.02994 12.2263 3.21994L4.58463 9.34494C3.48796 10.2199 2.82296 11.9699 3.0563 13.3466L4.5263 22.1433C4.86463 24.1149 6.6963 25.6666 8.6913 25.6666H21.058C23.0296 25.6666 24.8963 24.0799 25.2346 22.1316L26.7046 13.3349C26.9146 11.9699 26.2496 10.2199 25.1763 9.34494ZM15.7496 20.9999C15.7496 21.4783 15.353 21.8749 14.8746 21.8749C14.3963 21.8749 13.9996 21.4783 13.9996 20.9999V17.4999C13.9996 17.0216 14.3963 16.6249 14.8746 16.6249C15.353 16.6249 15.7496 17.0216 15.7496 17.4999V20.9999Z" fill="#979AA0"/>
</svg>
