<svg width="29" height="28" viewBox="0 0 29 28" fill="none" xmlns="http://www.w3.org/2000/svg">
<path d="M14.1254 2.33325C11.0688 2.33325 8.58378 4.81825 8.58378 7.87492C8.58378 10.8733 10.9288 13.2999 13.9854 13.4049C14.0788 13.3933 14.1721 13.3933 14.2421 13.4049H14.3238C15.758 13.3571 17.1174 12.7533 18.1146 11.7213C19.1118 10.6893 19.6685 9.30996 19.6671 7.87492C19.6671 4.81825 17.1821 2.33325 14.1254 2.33325ZM20.0521 16.5071C16.7971 14.3371 11.4888 14.3371 8.21044 16.5071C6.72878 17.4988 5.91211 18.8404 5.91211 20.2754C5.91211 21.7104 6.72878 23.0404 8.19878 24.0204C9.83211 25.1171 11.9788 25.6654 14.1254 25.6654C16.2721 25.6654 18.4188 25.1171 20.0521 24.0204C21.5221 23.0288 22.3388 21.6987 22.3388 20.2521C22.3271 18.8171 21.5221 17.4871 20.0521 16.5071Z" fill="#979AA0"/>
</svg>
