<svg width="118" height="20" viewBox="0 0 118 20" fill="none" xmlns="http://www.w3.org/2000/svg">
<path d="M4.2 9.952V8.028H7.138C7.64067 8.028 8.06533 7.95 8.412 7.794C8.776 7.638 9.05333 7.42133 9.244 7.144C9.43467 6.84933 9.53 6.494 9.53 6.078C9.53 5.454 9.322 4.986 8.906 4.674C8.49 4.362 7.90067 4.206 7.138 4.206H5.318V15.594H7.554C8.126 15.594 8.63733 15.5247 9.088 15.386C9.53867 15.23 9.894 14.9873 10.154 14.658C10.4313 14.3113 10.57 13.8433 10.57 13.254C10.57 12.8727 10.492 12.5433 10.336 12.266C10.18 11.9887 9.96333 11.7633 9.686 11.59C9.40867 11.4167 9.088 11.2953 8.724 11.226C8.37733 11.1393 7.98733 11.096 7.554 11.096H4.2V8.704H8.048C8.932 8.704 9.79 8.79933 10.622 8.99C11.454 9.18067 12.208 9.49267 12.884 9.926C13.56 10.342 14.0973 10.8793 14.496 11.538C14.912 12.1793 15.12 12.9593 15.12 13.878C15.12 15.0913 14.8253 16.0707 14.236 16.816C13.664 17.5613 12.8493 18.116 11.792 18.48C10.7347 18.8267 9.48667 19 8.048 19H0.924V0.799999H7.606C8.87133 0.799999 9.98067 0.973332 10.934 1.32C11.9047 1.64933 12.6673 2.16067 13.222 2.854C13.794 3.53 14.08 4.388 14.08 5.428C14.08 6.38133 13.794 7.196 13.222 7.872C12.6673 8.548 11.9047 9.068 10.934 9.432C9.98067 9.77867 8.87133 9.952 7.606 9.952H4.2ZM20.8416 15.438C20.8416 15.7153 20.9196 15.9493 21.0756 16.14C21.2316 16.3133 21.4396 16.452 21.6996 16.556C21.977 16.6427 22.263 16.686 22.5576 16.686C23.043 16.686 23.485 16.608 23.8836 16.452C24.2996 16.296 24.629 16.036 24.8716 15.672C25.1143 15.308 25.2356 14.8053 25.2356 14.164L25.6516 15.62C25.6516 16.3827 25.4523 17.0413 25.0536 17.596C24.6723 18.1333 24.1436 18.5493 23.4676 18.844C22.809 19.1213 22.0636 19.26 21.2316 19.26C20.3996 19.26 19.6543 19.1213 18.9956 18.844C18.337 18.5493 17.817 18.1333 17.4356 17.596C17.0716 17.0413 16.8896 16.374 16.8896 15.594C16.8896 14.7967 17.0976 14.112 17.5136 13.54C17.947 12.968 18.5536 12.526 19.3336 12.214C20.1136 11.902 21.0236 11.746 22.0636 11.746C22.6703 11.746 23.2423 11.8153 23.7796 11.954C24.3343 12.0753 24.811 12.24 25.2096 12.448C25.6256 12.6387 25.9203 12.8293 26.0936 13.02V14.866C25.643 14.5367 25.175 14.294 24.6896 14.138C24.2216 13.9647 23.6496 13.878 22.9736 13.878C22.523 13.878 22.133 13.9473 21.8036 14.086C21.4916 14.2073 21.249 14.3807 21.0756 14.606C20.9196 14.8313 20.8416 15.1087 20.8416 15.438ZM19.3076 10.732L17.9816 8.08C18.6576 7.75067 19.4636 7.43867 20.3996 7.144C21.353 6.84933 22.367 6.702 23.4416 6.702C24.5163 6.702 25.4696 6.858 26.3016 7.17C27.151 7.46467 27.8096 7.898 28.2776 8.47C28.763 9.042 29.0056 9.744 29.0056 10.576V19H25.2356V11.356C25.2356 10.8533 25.045 10.4547 24.6636 10.16C24.2996 9.848 23.7883 9.692 23.1296 9.692C22.5576 9.692 22.0116 9.75267 21.4916 9.874C20.989 9.99533 20.547 10.1427 20.1656 10.316C19.7843 10.472 19.4983 10.6107 19.3076 10.732ZM31.9162 7.04H35.6862V19H31.9162V7.04ZM40.0282 7.04H44.7342L39.6122 11.98L45.2542 19H40.6262L34.9062 11.98L40.0282 7.04ZM49.9901 15.438C49.9901 15.7153 50.0681 15.9493 50.2241 16.14C50.3801 16.3133 50.5881 16.452 50.8481 16.556C51.1254 16.6427 51.4114 16.686 51.7061 16.686C52.1914 16.686 52.6334 16.608 53.0321 16.452C53.4481 16.296 53.7774 16.036 54.0201 15.672C54.2627 15.308 54.3841 14.8053 54.3841 14.164L54.8001 15.62C54.8001 16.3827 54.6007 17.0413 54.2021 17.596C53.8207 18.1333 53.2921 18.5493 52.6161 18.844C51.9574 19.1213 51.2121 19.26 50.3801 19.26C49.5481 19.26 48.8027 19.1213 48.1441 18.844C47.4854 18.5493 46.9654 18.1333 46.5841 17.596C46.2201 17.0413 46.0381 16.374 46.0381 15.594C46.0381 14.7967 46.2461 14.112 46.6621 13.54C47.0954 12.968 47.7021 12.526 48.4821 12.214C49.2621 11.902 50.1721 11.746 51.2121 11.746C51.8187 11.746 52.3907 11.8153 52.9281 11.954C53.4827 12.0753 53.9594 12.24 54.3581 12.448C54.7741 12.6387 55.0687 12.8293 55.2421 13.02V14.866C54.7914 14.5367 54.3234 14.294 53.8381 14.138C53.3701 13.9647 52.7981 13.878 52.1221 13.878C51.6714 13.878 51.2814 13.9473 50.9521 14.086C50.6401 14.2073 50.3974 14.3807 50.2241 14.606C50.0681 14.8313 49.9901 15.1087 49.9901 15.438ZM48.4561 10.732L47.1301 8.08C47.8061 7.75067 48.6121 7.43867 49.5481 7.144C50.5014 6.84933 51.5154 6.702 52.5901 6.702C53.6647 6.702 54.6181 6.858 55.4501 7.17C56.2994 7.46467 56.9581 7.898 57.4261 8.47C57.9114 9.042 58.1541 9.744 58.1541 10.576V19H54.3841V11.356C54.3841 10.8533 54.1934 10.4547 53.8121 10.16C53.4481 9.848 52.9367 9.692 52.2781 9.692C51.7061 9.692 51.1601 9.75267 50.6401 9.874C50.1374 9.99533 49.6954 10.1427 49.3141 10.316C48.9327 10.472 48.6467 10.6107 48.4561 10.732ZM62.3126 14.164V11.226H71.9846V14.164H62.3126ZM70.2166 7.04H73.9866V19H70.2166V7.04ZM61.0906 7.04H64.8866V19H61.0906V7.04ZM80.3887 13.02C80.3887 13.6613 80.5274 14.216 80.8047 14.684C81.0821 15.1347 81.4634 15.49 81.9487 15.75C82.4514 16.01 82.9887 16.14 83.5607 16.14C84.0461 16.14 84.5054 16.0707 84.9387 15.932C85.3894 15.776 85.7967 15.568 86.1607 15.308C86.5421 15.048 86.8541 14.7273 87.0967 14.346V18.168C86.6807 18.4973 86.1607 18.766 85.5367 18.974C84.9127 19.1647 84.1501 19.26 83.2487 19.26C81.9314 19.26 80.7441 19 79.6867 18.48C78.6467 17.96 77.8234 17.232 77.2167 16.296C76.6274 15.36 76.3327 14.268 76.3327 13.02C76.3327 11.7547 76.6274 10.6627 77.2167 9.744C77.8234 8.808 78.6467 8.08 79.6867 7.56C80.7441 7.04 81.9314 6.78 83.2487 6.78C84.1501 6.78 84.9127 6.884 85.5367 7.092C86.1607 7.28267 86.6807 7.52533 87.0967 7.82V11.668C86.8541 11.2867 86.5334 10.966 86.1347 10.706C85.7534 10.446 85.3374 10.2467 84.8867 10.108C84.4361 9.96933 83.9941 9.9 83.5607 9.9C82.9887 9.9 82.4514 10.0387 81.9487 10.316C81.4634 10.5933 81.0821 10.966 80.8047 11.434C80.5274 11.902 80.3887 12.4307 80.3887 13.02ZM102.05 10.42L89.9864 19.91L90.1164 15.62L102.18 6.13L102.05 10.42ZM93.7824 7.04V16.244L89.9864 19.91V7.04H93.7824ZM102.18 6.13V19H98.4104V9.796L102.18 6.13ZM117.437 10.42L105.373 19.91L105.503 15.62L117.567 6.13L117.437 10.42ZM109.169 7.04V16.244L105.373 19.91V7.04H109.169ZM117.567 6.13V19H113.797V9.796L117.567 6.13Z" fill="black"/>
</svg>
