<svg width="21" height="21" viewBox="0 0 21 21" fill="none" xmlns="http://www.w3.org/2000/svg">
<path d="M15.7481 0H5.24286C2.34341 0 -0.00976562 2.34267 -0.00976562 5.23162V12.5643C-0.00976562 15.4532 2.34341 17.7959 5.24286 17.7959H6.81865C7.10229 17.7959 7.48048 17.985 7.65907 18.2161L9.23486 20.3067C9.9282 21.2311 11.0628 21.2311 11.7561 20.3067L13.3319 18.2161C13.5315 17.9535 13.8467 17.7959 14.1723 17.7959H15.7481C18.6476 17.7959 21.0007 15.4532 21.0007 12.5643V5.23162C21.0007 2.34267 18.6476 0 15.7481 0ZM6.29339 10.5053C5.70509 10.5053 5.24286 10.0325 5.24286 9.45473C5.24286 8.87694 5.7156 8.4042 6.29339 8.4042C6.87117 8.4042 7.34391 8.87694 7.34391 9.45473C7.34391 10.0325 6.88168 10.5053 6.29339 10.5053ZM10.4955 10.5053C9.90719 10.5053 9.44496 10.0325 9.44496 9.45473C9.44496 8.87694 9.9177 8.4042 10.4955 8.4042C11.0733 8.4042 11.546 8.87694 11.546 9.45473C11.546 10.0325 11.0838 10.5053 10.4955 10.5053ZM14.6976 10.5053C14.1093 10.5053 13.6471 10.0325 13.6471 9.45473C13.6471 8.87694 14.1198 8.4042 14.6976 8.4042C15.2754 8.4042 15.7481 8.87694 15.7481 9.45473C15.7481 10.0325 15.2859 10.5053 14.6976 10.5053Z" fill="#00A80E"/>
</svg>
