<svg width="210" height="20" viewBox="0 0 210 20" fill="none" xmlns="http://www.w3.org/2000/svg">
<path d="M11.494 4.726H4.552V19H0.0800001V0.799999H15.966V19H11.494V4.726ZM18.8906 13.02C18.8906 11.7547 19.1853 10.654 19.7746 9.718C20.3639 8.782 21.1786 8.054 22.2186 7.534C23.2586 7.014 24.4286 6.754 25.7286 6.754C27.0286 6.754 28.1899 7.014 29.2126 7.534C30.2526 8.054 31.0673 8.782 31.6566 9.718C32.2633 10.654 32.5666 11.7547 32.5666 13.02C32.5666 14.268 32.2633 15.36 31.6566 16.296C31.0673 17.232 30.2526 17.96 29.2126 18.48C28.1899 19 27.0286 19.26 25.7286 19.26C24.4286 19.26 23.2586 19 22.2186 18.48C21.1786 17.96 20.3639 17.232 19.7746 16.296C19.1853 15.36 18.8906 14.268 18.8906 13.02ZM22.9206 13.02C22.9206 13.644 23.0506 14.1813 23.3106 14.632C23.5706 15.0653 23.9086 15.4033 24.3246 15.646C24.7406 15.8887 25.2086 16.01 25.7286 16.01C26.2313 16.01 26.6906 15.8887 27.1066 15.646C27.5399 15.4033 27.8779 15.0653 28.1206 14.632C28.3806 14.1813 28.5106 13.644 28.5106 13.02C28.5106 12.396 28.3806 11.8587 28.1206 11.408C27.8779 10.9573 27.5399 10.6107 27.1066 10.368C26.6906 10.1253 26.2313 10.004 25.7286 10.004C25.2086 10.004 24.7406 10.1253 24.3246 10.368C23.9086 10.6107 23.5706 10.9573 23.3106 11.408C23.0506 11.8587 22.9206 12.396 22.9206 13.02ZM47.5125 7.04V19H43.7425V10.602H39.3225V14.84C39.3225 15.776 39.1492 16.556 38.8025 17.18C38.4559 17.7867 37.8665 18.246 37.0345 18.558C36.2199 18.8527 35.0932 19 33.6545 19V15.49C34.1745 15.49 34.6165 15.3947 34.9805 15.204C35.3619 14.996 35.5525 14.554 35.5525 13.878V7.04H47.5125ZM52.6358 13.852V11.668H59.3958C59.3264 11.1827 59.1964 10.7753 59.0058 10.446C58.8324 10.1167 58.5811 9.86533 58.2518 9.692C57.9398 9.50133 57.5498 9.406 57.0818 9.406C56.5444 9.406 56.0764 9.52733 55.6778 9.77C55.2964 9.99533 54.9931 10.3333 54.7678 10.784C54.5424 11.2173 54.4298 11.7547 54.4298 12.396L54.3778 13.02C54.3778 13.8347 54.4991 14.4933 54.7418 14.996C55.0018 15.4987 55.3398 15.8627 55.7558 16.088C56.1891 16.3133 56.6571 16.426 57.1598 16.426C57.6451 16.426 58.0698 16.3653 58.4338 16.244C58.8151 16.1227 59.1444 15.9493 59.4218 15.724C59.6991 15.4813 59.9331 15.1953 60.1238 14.866L63.6338 15.724C63.2351 16.452 62.7584 17.0847 62.2038 17.622C61.6491 18.142 60.9644 18.5493 60.1498 18.844C59.3524 19.1213 58.3731 19.26 57.2118 19.26C55.7731 19.26 54.5424 18.9913 53.5198 18.454C52.5144 17.9167 51.7431 17.18 51.2058 16.244C50.6858 15.2907 50.4258 14.216 50.4258 13.02C50.4258 12.7947 50.4344 12.578 50.4517 12.37C50.4691 12.162 50.4951 11.954 50.5298 11.746C50.7031 10.758 51.0584 9.89133 51.5958 9.146C52.1504 8.40067 52.8871 7.82 53.8058 7.404C54.7418 6.988 55.8598 6.78 57.1598 6.78C58.5638 6.78 59.7424 7.02267 60.6958 7.508C61.6491 7.99333 62.3684 8.68667 62.8538 9.588C63.3564 10.4893 63.6078 11.5727 63.6078 12.838C63.6078 12.942 63.6078 13.0893 63.6078 13.28C63.6078 13.4533 63.5904 13.644 63.5558 13.852H52.6358ZM71.6208 13.02V11.85C72.1755 11.85 72.5742 11.746 72.8168 11.538C73.0768 11.3127 73.2068 11.0353 73.2068 10.706C73.2068 10.3767 73.0855 10.1167 72.8428 9.926C72.6002 9.718 72.2795 9.614 71.8808 9.614C71.5862 9.614 71.3175 9.67467 71.0748 9.796C70.8495 9.91733 70.6762 10.082 70.5548 10.29C70.4335 10.498 70.3642 10.7407 70.3468 11.018H66.7848C66.7848 10.1687 66.9928 9.432 67.4088 8.808C67.8422 8.16667 68.4315 7.67267 69.1768 7.326C69.9395 6.962 70.8322 6.78 71.8548 6.78C72.8082 6.78 73.6575 6.936 74.4028 7.248C75.1482 7.54267 75.7288 7.95 76.1448 8.47C76.5782 8.97267 76.7948 9.55333 76.7948 10.212C76.7948 11.096 76.3702 11.8067 75.5208 12.344C74.6888 12.864 73.3888 13.0893 71.6208 13.02ZM71.8028 19.26C70.1042 19.26 68.7608 18.87 67.7728 18.09C66.8022 17.2927 66.2475 16.2353 66.1088 14.918H69.8268C69.9655 15.4207 70.1995 15.8107 70.5288 16.088C70.8582 16.348 71.2742 16.478 71.7768 16.478C72.1582 16.478 72.4875 16.426 72.7648 16.322C73.0422 16.2007 73.2588 16.0447 73.4148 15.854C73.5708 15.646 73.6488 15.3947 73.6488 15.1C73.6488 14.8053 73.5708 14.5627 73.4148 14.372C73.2762 14.164 73.0508 14.008 72.7388 13.904C72.4442 13.7827 72.0715 13.722 71.6208 13.722V12.24C73.4408 12.1533 74.8448 12.4133 75.8328 13.02C76.8208 13.6093 77.3148 14.4413 77.3148 15.516C77.3148 16.2613 77.0722 16.92 76.5868 17.492C76.1188 18.0467 75.4688 18.48 74.6368 18.792C73.8048 19.104 72.8602 19.26 71.8028 19.26ZM81.2443 14.164V11.226H90.9163V14.164H81.2443ZM89.1483 7.04H92.9183V19H89.1483V7.04ZM80.0223 7.04H83.8183V19H80.0223V7.04ZM108.836 7.04H112.788V19H108.836V7.04ZM96.0184 7.04H99.9704V19H96.0184V7.04ZM99.1124 13.618V11.07H102.83C104.061 11.07 105.092 11.3733 105.924 11.98C106.774 12.5693 107.198 13.5053 107.198 14.788C107.198 15.6373 107.008 16.3827 106.626 17.024C106.245 17.6653 105.725 18.1593 105.066 18.506C104.408 18.8353 103.662 19 102.83 19H99.1124V15.958H102.128C102.423 15.958 102.666 15.9147 102.856 15.828C103.064 15.7413 103.22 15.6113 103.324 15.438C103.446 15.2473 103.506 15.0307 103.506 14.788C103.506 14.4413 103.385 14.164 103.142 13.956C102.917 13.7307 102.579 13.618 102.128 13.618H99.1124ZM117.356 13.852V11.668H124.116C124.047 11.1827 123.917 10.7753 123.726 10.446C123.553 10.1167 123.302 9.86533 122.972 9.692C122.66 9.50133 122.27 9.406 121.802 9.406C121.265 9.406 120.797 9.52733 120.398 9.77C120.017 9.99533 119.714 10.3333 119.488 10.784C119.263 11.2173 119.15 11.7547 119.15 12.396L119.098 13.02C119.098 13.8347 119.22 14.4933 119.462 14.996C119.722 15.4987 120.06 15.8627 120.476 16.088C120.91 16.3133 121.378 16.426 121.88 16.426C122.366 16.426 122.79 16.3653 123.154 16.244C123.536 16.1227 123.865 15.9493 124.142 15.724C124.42 15.4813 124.654 15.1953 124.844 14.866L128.354 15.724C127.956 16.452 127.479 17.0847 126.924 17.622C126.37 18.142 125.685 18.5493 124.87 18.844C124.073 19.1213 123.094 19.26 121.932 19.26C120.494 19.26 119.263 18.9913 118.24 18.454C117.235 17.9167 116.464 17.18 115.926 16.244C115.406 15.2907 115.146 14.216 115.146 13.02C115.146 12.7947 115.155 12.578 115.172 12.37C115.19 12.162 115.216 11.954 115.25 11.746C115.424 10.758 115.779 9.89133 116.316 9.146C116.871 8.40067 117.608 7.82 118.526 7.404C119.462 6.988 120.58 6.78 121.88 6.78C123.284 6.78 124.463 7.02267 125.416 7.508C126.37 7.99333 127.089 8.68667 127.574 9.588C128.077 10.4893 128.328 11.5727 128.328 12.838C128.328 12.942 128.328 13.0893 128.328 13.28C128.328 13.4533 128.311 13.644 128.276 13.852H117.356ZM141.9 13.02C141.9 13.6613 142.039 14.216 142.316 14.684C142.594 15.1347 142.975 15.49 143.46 15.75C143.963 16.01 144.5 16.14 145.072 16.14C145.558 16.14 146.017 16.0707 146.45 15.932C146.901 15.776 147.308 15.568 147.672 15.308C148.054 15.048 148.366 14.7273 148.608 14.346V18.168C148.192 18.4973 147.672 18.766 147.048 18.974C146.424 19.1647 145.662 19.26 144.76 19.26C143.443 19.26 142.256 19 141.198 18.48C140.158 17.96 139.335 17.232 138.728 16.296C138.139 15.36 137.844 14.268 137.844 13.02C137.844 11.7547 138.139 10.6627 138.728 9.744C139.335 8.808 140.158 8.08 141.198 7.56C142.256 7.04 143.443 6.78 144.76 6.78C145.662 6.78 146.424 6.884 147.048 7.092C147.672 7.28267 148.192 7.52533 148.608 7.82V11.668C148.366 11.2867 148.045 10.966 147.646 10.706C147.265 10.446 146.849 10.2467 146.398 10.108C145.948 9.96933 145.506 9.9 145.072 9.9C144.5 9.9 143.963 10.0387 143.46 10.316C142.975 10.5933 142.594 10.966 142.316 11.434C142.039 11.902 141.9 12.4307 141.9 13.02ZM150.042 7.04H158.44V10.29H150.042V7.04ZM152.356 7.56H156.126V19H152.356V7.56ZM163.146 15.438C163.146 15.7153 163.224 15.9493 163.38 16.14C163.536 16.3133 163.744 16.452 164.004 16.556C164.282 16.6427 164.568 16.686 164.862 16.686C165.348 16.686 165.79 16.608 166.188 16.452C166.604 16.296 166.934 16.036 167.176 15.672C167.419 15.308 167.54 14.8053 167.54 14.164L167.956 15.62C167.956 16.3827 167.757 17.0413 167.358 17.596C166.977 18.1333 166.448 18.5493 165.772 18.844C165.114 19.1213 164.368 19.26 163.536 19.26C162.704 19.26 161.959 19.1213 161.3 18.844C160.642 18.5493 160.122 18.1333 159.74 17.596C159.376 17.0413 159.194 16.374 159.194 15.594C159.194 14.7967 159.402 14.112 159.818 13.54C160.252 12.968 160.858 12.526 161.638 12.214C162.418 11.902 163.328 11.746 164.368 11.746C164.975 11.746 165.547 11.8153 166.084 11.954C166.639 12.0753 167.116 12.24 167.514 12.448C167.93 12.6387 168.225 12.8293 168.398 13.02V14.866C167.948 14.5367 167.48 14.294 166.994 14.138C166.526 13.9647 165.954 13.878 165.278 13.878C164.828 13.878 164.438 13.9473 164.108 14.086C163.796 14.2073 163.554 14.3807 163.38 14.606C163.224 14.8313 163.146 15.1087 163.146 15.438ZM161.612 10.732L160.286 8.08C160.962 7.75067 161.768 7.43867 162.704 7.144C163.658 6.84933 164.672 6.702 165.746 6.702C166.821 6.702 167.774 6.858 168.606 7.17C169.456 7.46467 170.114 7.898 170.582 8.47C171.068 9.042 171.31 9.744 171.31 10.576V19H167.54V11.356C167.54 10.8533 167.35 10.4547 166.968 10.16C166.604 9.848 166.093 9.692 165.434 9.692C164.862 9.692 164.316 9.75267 163.796 9.874C163.294 9.99533 162.852 10.1427 162.47 10.316C162.089 10.472 161.803 10.6107 161.612 10.732ZM172.843 7.04H181.241V10.29H172.843V7.04ZM175.157 7.56H178.927V19H175.157V7.56ZM183.087 7.04H187.013V19H183.087V7.04ZM186.155 13.618V11.07H189.873C191.104 11.07 192.135 11.3733 192.967 11.98C193.816 12.5693 194.241 13.5053 194.241 14.788C194.241 15.6373 194.05 16.3827 193.669 17.024C193.288 17.6653 192.768 18.1593 192.109 18.506C191.45 18.8353 190.705 19 189.873 19H186.155V15.958H189.171C189.466 15.958 189.708 15.9147 189.899 15.828C190.107 15.7413 190.263 15.6113 190.367 15.438C190.488 15.2473 190.549 15.0307 190.549 14.788C190.549 14.4413 190.428 14.164 190.185 13.956C189.96 13.7307 189.622 13.618 189.171 13.618H186.155ZM209.189 10.42L197.125 19.91L197.255 15.62L209.319 6.13L209.189 10.42ZM200.921 7.04V16.244L197.125 19.91V7.04H200.921ZM209.319 6.13V19H205.549V9.796L209.319 6.13Z" fill="black"/>
</svg>
