<svg width="429" height="83" viewBox="0 0 429 83" fill="none" xmlns="http://www.w3.org/2000/svg">
<g clip-path="url(#clip0_7788_3069)">
<rect x="1" y="1" width="427" height="81" rx="20" fill="white"/>
<rect x="1" y="1" width="427" height="103" rx="15" fill="#FBFCFC"/>
<path d="M70.1763 23.3449L62.5346 17.2316C61.0413 16.0416 58.708 16.0299 57.2263 17.2199L49.5846 23.3449C48.488 24.2199 47.823 25.9699 48.0563 27.3466L49.5263 36.1433C49.8646 38.1149 51.6963 39.6666 53.6913 39.6666H66.058C68.0296 39.6666 69.8963 38.0799 70.2346 36.1316L71.7046 27.3349C71.9146 25.9699 71.2496 24.2199 70.1763 23.3449ZM60.7496 34.9999C60.7496 35.4783 60.353 35.8749 59.8746 35.8749C59.3963 35.8749 58.9996 35.4783 58.9996 34.9999V31.4999C58.9996 31.0216 59.3963 30.6249 59.8746 30.6249C60.353 30.6249 60.7496 31.0216 60.7496 31.4999V34.9999Z" fill="#979AA0"/>
<path d="M32.5761 55.5H38.4861V57.435H34.7211V66H32.5761V55.5ZM45.7355 59.1V66H43.8605V60.87H41.0105V63.6C41.0105 64.14 40.9155 64.59 40.7255 64.95C40.5355 65.3 40.2205 65.565 39.7805 65.745C39.3505 65.915 38.7705 66 38.0405 66V64.26C38.3405 64.26 38.5955 64.195 38.8055 64.065C39.0255 63.925 39.1355 63.64 39.1355 63.21V59.1H45.7355ZM49.7186 63.945C49.7186 64.135 49.7686 64.295 49.8686 64.425C49.9686 64.545 50.1036 64.64 50.2736 64.71C50.4536 64.77 50.6486 64.8 50.8586 64.8C51.1686 64.8 51.4536 64.75 51.7136 64.65C51.9736 64.55 52.1786 64.385 52.3286 64.155C52.4786 63.925 52.5536 63.62 52.5536 63.24L52.7936 64.05C52.7936 64.49 52.6786 64.87 52.4486 65.19C52.2186 65.5 51.9086 65.74 51.5186 65.91C51.1386 66.07 50.7086 66.15 50.2286 66.15C49.7586 66.15 49.3386 66.07 48.9686 65.91C48.5986 65.75 48.3036 65.515 48.0836 65.205C47.8736 64.885 47.7686 64.495 47.7686 64.035C47.7686 63.565 47.8886 63.165 48.1286 62.835C48.3786 62.495 48.7236 62.235 49.1636 62.055C49.6136 61.875 50.1386 61.785 50.7386 61.785C51.1086 61.785 51.4536 61.83 51.7736 61.92C52.0936 62.01 52.3636 62.115 52.5836 62.235C52.8036 62.355 52.9586 62.47 53.0486 62.58V63.525C52.7686 63.315 52.4786 63.16 52.1786 63.06C51.8786 62.96 51.5236 62.91 51.1136 62.91C50.8136 62.91 50.5586 62.955 50.3486 63.045C50.1386 63.135 49.9786 63.255 49.8686 63.405C49.7686 63.555 49.7186 63.735 49.7186 63.945ZM49.1036 61.065L48.3986 59.73C48.7486 59.54 49.1786 59.36 49.6886 59.19C50.1986 59.01 50.7636 58.92 51.3836 58.92C51.9836 58.92 52.5086 59.005 52.9586 59.175C53.4186 59.345 53.7786 59.595 54.0386 59.925C54.2986 60.245 54.4286 60.64 54.4286 61.11V66H52.5536V61.425C52.5536 61.115 52.4336 60.875 52.1936 60.705C51.9536 60.525 51.6436 60.435 51.2636 60.435C50.9336 60.435 50.6236 60.475 50.3336 60.555C50.0536 60.625 49.8036 60.71 49.5836 60.81C49.3736 60.91 49.2136 60.995 49.1036 61.065ZM57.9741 62.4H60.2841C60.7641 62.4 61.1941 62.45 61.5741 62.55C61.9541 62.65 62.2541 62.825 62.4741 63.075C62.6941 63.325 62.8041 63.675 62.8041 64.125C62.8041 64.645 62.6291 65.09 62.2791 65.46C61.9391 65.82 61.3741 66 60.5841 66H57.9741V64.695H59.9691C60.3191 64.695 60.5691 64.615 60.7191 64.455C60.8791 64.295 60.9591 64.115 60.9591 63.915C60.9591 63.805 60.9391 63.71 60.8991 63.63C60.8591 63.54 60.7991 63.46 60.7191 63.39C60.6491 63.31 60.5491 63.255 60.4191 63.225C60.2991 63.185 60.1491 63.165 59.9691 63.165H57.9741V62.4ZM57.9741 62.7V61.86H59.8191C59.9491 61.86 60.0641 61.845 60.1641 61.815C60.2741 61.775 60.3641 61.72 60.4341 61.65C60.5041 61.58 60.5591 61.5 60.5991 61.41C60.6391 61.32 60.6591 61.225 60.6591 61.125C60.6591 60.925 60.5841 60.755 60.4341 60.615C60.2841 60.475 60.0791 60.405 59.8191 60.405H57.9741V59.1H60.1341C60.5641 59.1 60.9541 59.165 61.3041 59.295C61.6641 59.415 61.9541 59.615 62.1741 59.895C62.3941 60.165 62.5041 60.525 62.5041 60.975C62.5041 61.365 62.3941 61.69 62.1741 61.95C61.9541 62.2 61.6641 62.39 61.3041 62.52C60.9541 62.64 60.5641 62.7 60.1341 62.7H57.9741ZM56.8491 59.1H58.7241V66H56.8491V59.1ZM65.3684 63.12V61.605H70.7984V63.12H65.3684ZM69.8534 59.1H71.7284V66H69.8534V59.1ZM64.6634 59.1H66.5384V66H64.6634V59.1ZM75.4729 63.945C75.4729 64.135 75.5229 64.295 75.6229 64.425C75.7229 64.545 75.8579 64.64 76.0279 64.71C76.2079 64.77 76.4029 64.8 76.6129 64.8C76.9229 64.8 77.2079 64.75 77.4679 64.65C77.7279 64.55 77.9329 64.385 78.0829 64.155C78.2329 63.925 78.3079 63.62 78.3079 63.24L78.5479 64.05C78.5479 64.49 78.4329 64.87 78.2029 65.19C77.9729 65.5 77.6629 65.74 77.2729 65.91C76.8929 66.07 76.4629 66.15 75.9829 66.15C75.5129 66.15 75.0929 66.07 74.7229 65.91C74.3529 65.75 74.0579 65.515 73.8379 65.205C73.6279 64.885 73.5229 64.495 73.5229 64.035C73.5229 63.565 73.6429 63.165 73.8829 62.835C74.1329 62.495 74.4779 62.235 74.9179 62.055C75.3679 61.875 75.8929 61.785 76.4929 61.785C76.8629 61.785 77.2079 61.83 77.5279 61.92C77.8479 62.01 78.1179 62.115 78.3379 62.235C78.5579 62.355 78.7129 62.47 78.8029 62.58V63.525C78.5229 63.315 78.2329 63.16 77.9329 63.06C77.6329 62.96 77.2779 62.91 76.8679 62.91C76.5679 62.91 76.3129 62.955 76.1029 63.045C75.8929 63.135 75.7329 63.255 75.6229 63.405C75.5229 63.555 75.4729 63.735 75.4729 63.945ZM74.8579 61.065L74.1529 59.73C74.5029 59.54 74.9329 59.36 75.4429 59.19C75.9529 59.01 76.5179 58.92 77.1379 58.92C77.7379 58.92 78.2629 59.005 78.7129 59.175C79.1729 59.345 79.5329 59.595 79.7929 59.925C80.0529 60.245 80.1829 60.64 80.1829 61.11V66H78.3079V61.425C78.3079 61.115 78.1879 60.875 77.9479 60.705C77.7079 60.525 77.3979 60.435 77.0179 60.435C76.6879 60.435 76.3779 60.475 76.0879 60.555C75.8079 60.625 75.5579 60.71 75.3379 60.81C75.1279 60.91 74.9679 60.995 74.8579 61.065ZM84.1784 66H82.1384L84.3734 62.715H86.2784L84.1784 66ZM88.7084 66H86.7734V59.1H88.7084V66ZM87.4634 62.055V63.435H85.3184C84.8484 63.435 84.4034 63.36 83.9834 63.21C83.5634 63.05 83.2284 62.81 82.9784 62.49C82.7284 62.16 82.6034 61.74 82.6034 61.23C82.6034 60.71 82.7284 60.295 82.9784 59.985C83.2284 59.675 83.5634 59.45 83.9834 59.31C84.4034 59.17 84.8484 59.1 85.3184 59.1H87.4634V60.66H85.5434C85.3134 60.66 85.1234 60.685 84.9734 60.735C84.8234 60.785 84.7084 60.86 84.6284 60.96C84.5484 61.06 84.5084 61.195 84.5084 61.365C84.5084 61.525 84.5484 61.66 84.6284 61.77C84.7084 61.87 84.8234 61.945 84.9734 61.995C85.1234 62.035 85.3134 62.055 85.5434 62.055H87.4634Z" fill="#979AA0"/>
<path d="M173.125 24.346V19.579C173.125 18.0985 172.453 17.5 170.783 17.5H166.541C164.872 17.5 164.2 18.0985 164.2 19.579V24.3355C164.2 25.8265 164.872 26.4145 166.541 26.4145H170.783C172.453 26.425 173.125 25.8265 173.125 24.346ZM173.125 36.1585V31.9165C173.125 30.247 172.453 29.575 170.783 29.575H166.541C164.872 29.575 164.2 30.247 164.2 31.9165V36.1585C164.2 37.828 164.872 38.5 166.541 38.5H170.783C172.453 38.5 173.125 37.828 173.125 36.1585ZM161.05 24.346V19.579C161.05 18.0985 160.378 17.5 158.709 17.5H154.466C152.797 17.5 152.125 18.0985 152.125 19.579V24.3355C152.125 25.8265 152.797 26.4145 154.466 26.4145H158.709C160.378 26.425 161.05 25.8265 161.05 24.346ZM161.05 36.1585V31.9165C161.05 30.247 160.378 29.575 158.709 29.575H154.466C152.797 29.575 152.125 30.247 152.125 31.9165V36.1585C152.125 37.828 152.797 38.5 154.466 38.5H158.709C160.378 38.5 161.05 37.828 161.05 36.1585Z" fill="#00A80E"/>
<path d="M122.077 60.105L121.402 66H119.167L120.727 54.975L125.122 61.755L129.517 54.975L131.077 66H128.842L128.167 60.105L125.122 65.025L122.077 60.105ZM132.565 62.55C132.565 61.83 132.73 61.2 133.06 60.66C133.4 60.12 133.855 59.7 134.425 59.4C135.005 59.1 135.66 58.95 136.39 58.95C137.12 58.95 137.77 59.1 138.34 59.4C138.92 59.7 139.375 60.12 139.705 60.66C140.045 61.2 140.215 61.83 140.215 62.55C140.215 63.26 140.045 63.89 139.705 64.44C139.375 64.98 138.92 65.4 138.34 65.7C137.77 66 137.12 66.15 136.39 66.15C135.66 66.15 135.005 66 134.425 65.7C133.855 65.4 133.4 64.98 133.06 64.44C132.73 63.89 132.565 63.26 132.565 62.55ZM134.545 62.55C134.545 62.94 134.625 63.285 134.785 63.585C134.955 63.875 135.18 64.105 135.46 64.275C135.74 64.435 136.05 64.515 136.39 64.515C136.73 64.515 137.04 64.435 137.32 64.275C137.6 64.105 137.82 63.875 137.98 63.585C138.15 63.285 138.235 62.94 138.235 62.55C138.235 62.16 138.15 61.815 137.98 61.515C137.82 61.215 137.6 60.985 137.32 60.825C137.04 60.665 136.73 60.585 136.39 60.585C136.05 60.585 135.74 60.665 135.46 60.825C135.18 60.985 134.955 61.215 134.785 61.515C134.625 61.815 134.545 62.16 134.545 62.55ZM148.738 60.81L142.168 66.525L142.243 64.29L148.813 58.575L148.738 60.81ZM144.043 59.1V64.56L142.168 66.525V59.1H144.043ZM148.813 58.575V66H146.938V60.54L148.813 58.575ZM159.147 62.55V61.845C159.507 61.845 159.767 61.775 159.927 61.635C160.087 61.495 160.167 61.325 160.167 61.125C160.167 60.905 160.087 60.735 159.927 60.615C159.767 60.485 159.557 60.42 159.297 60.42C159.077 60.42 158.892 60.46 158.742 60.54C158.592 60.62 158.477 60.73 158.397 60.87C158.317 61 158.277 61.145 158.277 61.305H156.477C156.477 60.845 156.592 60.44 156.822 60.09C157.062 59.73 157.392 59.45 157.812 59.25C158.232 59.05 158.722 58.95 159.282 58.95C159.802 58.95 160.262 59.035 160.662 59.205C161.072 59.375 161.392 59.61 161.622 59.91C161.862 60.2 161.982 60.53 161.982 60.9C161.982 61.4 161.742 61.81 161.262 62.13C160.792 62.44 160.087 62.58 159.147 62.55ZM159.252 66.15C158.322 66.15 157.587 65.925 157.047 65.475C156.507 65.025 156.197 64.43 156.117 63.69H157.977C158.047 64 158.182 64.25 158.382 64.44C158.592 64.62 158.877 64.71 159.237 64.71C159.487 64.71 159.702 64.675 159.882 64.605C160.062 64.535 160.202 64.435 160.302 64.305C160.402 64.165 160.452 64.005 160.452 63.825C160.452 63.635 160.402 63.475 160.302 63.345C160.202 63.205 160.052 63.1 159.852 63.03C159.662 62.96 159.427 62.925 159.147 62.925V62.1C160.127 62.07 160.892 62.22 161.442 62.55C162.002 62.88 162.282 63.355 162.282 63.975C162.282 64.425 162.147 64.815 161.877 65.145C161.617 65.465 161.257 65.715 160.797 65.895C160.337 66.065 159.822 66.15 159.252 66.15ZM165.741 63.945C165.741 64.135 165.791 64.295 165.891 64.425C165.991 64.545 166.126 64.64 166.296 64.71C166.476 64.77 166.671 64.8 166.881 64.8C167.191 64.8 167.476 64.75 167.736 64.65C167.996 64.55 168.201 64.385 168.351 64.155C168.501 63.925 168.576 63.62 168.576 63.24L168.816 64.05C168.816 64.49 168.701 64.87 168.471 65.19C168.241 65.5 167.931 65.74 167.541 65.91C167.161 66.07 166.731 66.15 166.251 66.15C165.781 66.15 165.361 66.07 164.991 65.91C164.621 65.75 164.326 65.515 164.106 65.205C163.896 64.885 163.791 64.495 163.791 64.035C163.791 63.565 163.911 63.165 164.151 62.835C164.401 62.495 164.746 62.235 165.186 62.055C165.636 61.875 166.161 61.785 166.761 61.785C167.131 61.785 167.476 61.83 167.796 61.92C168.116 62.01 168.386 62.115 168.606 62.235C168.826 62.355 168.981 62.47 169.071 62.58V63.525C168.791 63.315 168.501 63.16 168.201 63.06C167.901 62.96 167.546 62.91 167.136 62.91C166.836 62.91 166.581 62.955 166.371 63.045C166.161 63.135 166.001 63.255 165.891 63.405C165.791 63.555 165.741 63.735 165.741 63.945ZM165.126 61.065L164.421 59.73C164.771 59.54 165.201 59.36 165.711 59.19C166.221 59.01 166.786 58.92 167.406 58.92C168.006 58.92 168.531 59.005 168.981 59.175C169.441 59.345 169.801 59.595 170.061 59.925C170.321 60.245 170.451 60.64 170.451 61.11V66H168.576V61.425C168.576 61.115 168.456 60.875 168.216 60.705C167.976 60.525 167.666 60.435 167.286 60.435C166.956 60.435 166.646 60.475 166.356 60.555C166.076 60.625 165.826 60.71 165.606 60.81C165.396 60.91 165.236 60.995 165.126 61.065ZM172.662 59.1H174.537V66H172.662V59.1ZM177.072 59.1H179.397L176.427 61.95L179.697 66H177.387L174.102 61.95L177.072 59.1ZM182.549 63.945C182.549 64.135 182.599 64.295 182.699 64.425C182.799 64.545 182.934 64.64 183.104 64.71C183.284 64.77 183.479 64.8 183.689 64.8C183.999 64.8 184.284 64.75 184.544 64.65C184.804 64.55 185.009 64.385 185.159 64.155C185.309 63.925 185.384 63.62 185.384 63.24L185.624 64.05C185.624 64.49 185.509 64.87 185.279 65.19C185.049 65.5 184.739 65.74 184.349 65.91C183.969 66.07 183.539 66.15 183.059 66.15C182.589 66.15 182.169 66.07 181.799 65.91C181.429 65.75 181.134 65.515 180.914 65.205C180.704 64.885 180.599 64.495 180.599 64.035C180.599 63.565 180.719 63.165 180.959 62.835C181.209 62.495 181.554 62.235 181.994 62.055C182.444 61.875 182.969 61.785 183.569 61.785C183.939 61.785 184.284 61.83 184.604 61.92C184.924 62.01 185.194 62.115 185.414 62.235C185.634 62.355 185.789 62.47 185.879 62.58V63.525C185.599 63.315 185.309 63.16 185.009 63.06C184.709 62.96 184.354 62.91 183.944 62.91C183.644 62.91 183.389 62.955 183.179 63.045C182.969 63.135 182.809 63.255 182.699 63.405C182.599 63.555 182.549 63.735 182.549 63.945ZM181.934 61.065L181.229 59.73C181.579 59.54 182.009 59.36 182.519 59.19C183.029 59.01 183.594 58.92 184.214 58.92C184.814 58.92 185.339 59.005 185.789 59.175C186.249 59.345 186.609 59.595 186.869 59.925C187.129 60.245 187.259 60.64 187.259 61.11V66H185.384V61.425C185.384 61.115 185.264 60.875 185.024 60.705C184.784 60.525 184.474 60.435 184.094 60.435C183.764 60.435 183.454 60.475 183.164 60.555C182.884 60.625 182.634 60.71 182.414 60.81C182.204 60.91 182.044 60.995 181.934 61.065ZM192.485 62.55V61.845C192.845 61.845 193.105 61.775 193.265 61.635C193.425 61.495 193.505 61.325 193.505 61.125C193.505 60.905 193.425 60.735 193.265 60.615C193.105 60.485 192.895 60.42 192.635 60.42C192.415 60.42 192.23 60.46 192.08 60.54C191.93 60.62 191.815 60.73 191.735 60.87C191.655 61 191.615 61.145 191.615 61.305H189.815C189.815 60.845 189.93 60.44 190.16 60.09C190.4 59.73 190.73 59.45 191.15 59.25C191.57 59.05 192.06 58.95 192.62 58.95C193.14 58.95 193.6 59.035 194 59.205C194.41 59.375 194.73 59.61 194.96 59.91C195.2 60.2 195.32 60.53 195.32 60.9C195.32 61.4 195.08 61.81 194.6 62.13C194.13 62.44 193.425 62.58 192.485 62.55ZM192.59 66.15C191.66 66.15 190.925 65.925 190.385 65.475C189.845 65.025 189.535 64.43 189.455 63.69H191.315C191.385 64 191.52 64.25 191.72 64.44C191.93 64.62 192.215 64.71 192.575 64.71C192.825 64.71 193.04 64.675 193.22 64.605C193.4 64.535 193.54 64.435 193.64 64.305C193.74 64.165 193.79 64.005 193.79 63.825C193.79 63.635 193.74 63.475 193.64 63.345C193.54 63.205 193.39 63.1 193.19 63.03C193 62.96 192.765 62.925 192.485 62.925V62.1C193.465 62.07 194.23 62.22 194.78 62.55C195.34 62.88 195.62 63.355 195.62 63.975C195.62 64.425 195.485 64.815 195.215 65.145C194.955 65.465 194.595 65.715 194.135 65.895C193.675 66.065 193.16 66.15 192.59 66.15ZM204.734 59.1H206.669V66H204.734V59.1ZM197.699 59.1H199.649V66H197.699V59.1ZM199.154 62.85V61.515H201.299C202.009 61.515 202.604 61.69 203.084 62.04C203.574 62.38 203.819 62.92 203.819 63.66C203.819 64.15 203.709 64.575 203.489 64.935C203.269 65.285 202.969 65.55 202.589 65.73C202.209 65.91 201.779 66 201.299 66H199.154V64.47H201.014C201.224 64.47 201.399 64.44 201.539 64.38C201.679 64.31 201.784 64.215 201.854 64.095C201.934 63.975 201.974 63.83 201.974 63.66C201.974 63.41 201.889 63.215 201.719 63.075C201.559 62.925 201.324 62.85 201.014 62.85H199.154Z" fill="#00A80E"/>
<path d="M271.209 16.3333H259.542C256.322 16.3333 253.709 18.9349 253.709 22.1433V30.2866C253.709 33.4949 256.322 36.0966 259.542 36.0966H261.292C261.607 36.0966 262.027 36.3066 262.226 36.5633L263.976 38.8849C264.746 39.9116 266.006 39.9116 266.776 38.8849L268.526 36.5633C268.747 36.2716 269.097 36.0966 269.459 36.0966H271.209C274.429 36.0966 277.042 33.4949 277.042 30.2866V22.1433C277.042 18.9349 274.429 16.3333 271.209 16.3333ZM260.709 27.9999C260.056 27.9999 259.542 27.4749 259.542 26.8333C259.542 26.1916 260.067 25.6666 260.709 25.6666C261.351 25.6666 261.876 26.1916 261.876 26.8333C261.876 27.4749 261.362 27.9999 260.709 27.9999ZM265.376 27.9999C264.722 27.9999 264.209 27.4749 264.209 26.8333C264.209 26.1916 264.734 25.6666 265.376 25.6666C266.017 25.6666 266.542 26.1916 266.542 26.8333C266.542 27.4749 266.029 27.9999 265.376 27.9999ZM270.042 27.9999C269.389 27.9999 268.876 27.4749 268.876 26.8333C268.876 26.1916 269.401 25.6666 270.042 25.6666C270.684 25.6666 271.209 26.1916 271.209 26.8333C271.209 27.4749 270.696 27.9999 270.042 27.9999Z" fill="#979AA0"/>
<path d="M258.508 62.415L259.018 60.51H261.763V62.415H258.508ZM260.848 55.5H263.053V66H260.848V55.5ZM257.233 55.5V58.515C257.233 58.925 257.303 59.28 257.443 59.58C257.593 59.88 257.803 60.11 258.073 60.27C258.343 60.43 258.658 60.51 259.018 60.51L258.508 62.415C257.778 62.415 257.158 62.25 256.648 61.92C256.138 61.59 255.753 61.145 255.493 60.585C255.233 60.025 255.103 59.41 255.103 58.74V55.5H257.233ZM267.036 63.945C267.036 64.135 267.086 64.295 267.186 64.425C267.286 64.545 267.421 64.64 267.591 64.71C267.771 64.77 267.966 64.8 268.176 64.8C268.486 64.8 268.771 64.75 269.031 64.65C269.291 64.55 269.496 64.385 269.646 64.155C269.796 63.925 269.871 63.62 269.871 63.24L270.111 64.05C270.111 64.49 269.996 64.87 269.766 65.19C269.536 65.5 269.226 65.74 268.836 65.91C268.456 66.07 268.026 66.15 267.546 66.15C267.076 66.15 266.656 66.07 266.286 65.91C265.916 65.75 265.621 65.515 265.401 65.205C265.191 64.885 265.086 64.495 265.086 64.035C265.086 63.565 265.206 63.165 265.446 62.835C265.696 62.495 266.041 62.235 266.481 62.055C266.931 61.875 267.456 61.785 268.056 61.785C268.426 61.785 268.771 61.83 269.091 61.92C269.411 62.01 269.681 62.115 269.901 62.235C270.121 62.355 270.276 62.47 270.366 62.58V63.525C270.086 63.315 269.796 63.16 269.496 63.06C269.196 62.96 268.841 62.91 268.431 62.91C268.131 62.91 267.876 62.955 267.666 63.045C267.456 63.135 267.296 63.255 267.186 63.405C267.086 63.555 267.036 63.735 267.036 63.945ZM266.421 61.065L265.716 59.73C266.066 59.54 266.496 59.36 267.006 59.19C267.516 59.01 268.081 58.92 268.701 58.92C269.301 58.92 269.826 59.005 270.276 59.175C270.736 59.345 271.096 59.595 271.356 59.925C271.616 60.245 271.746 60.64 271.746 61.11V66H269.871V61.425C269.871 61.115 269.751 60.875 269.511 60.705C269.271 60.525 268.961 60.435 268.581 60.435C268.251 60.435 267.941 60.475 267.651 60.555C267.371 60.625 267.121 60.71 266.901 60.81C266.691 60.91 266.531 60.995 266.421 61.065ZM273.116 59.1H277.706V60.735H273.116V59.1ZM274.481 59.4H276.356V66H274.481V59.4Z" fill="#979AA0"/>
<path d="M369.125 16.3333C366.069 16.3333 363.584 18.8183 363.584 21.8749C363.584 24.8733 365.929 27.2999 368.985 27.4049C369.079 27.3933 369.172 27.3933 369.242 27.4049H369.324C370.758 27.3571 372.117 26.7533 373.115 25.7213C374.112 24.6893 374.669 23.31 374.667 21.8749C374.667 18.8183 372.182 16.3333 369.125 16.3333ZM375.052 30.5071C371.797 28.3371 366.489 28.3371 363.21 30.5071C361.729 31.4988 360.912 32.8404 360.912 34.2754C360.912 35.7104 361.729 37.0404 363.199 38.0204C364.832 39.1171 366.979 39.6654 369.125 39.6654C371.272 39.6654 373.419 39.1171 375.052 38.0204C376.522 37.0288 377.339 35.6987 377.339 34.2521C377.327 32.8171 376.522 31.4871 375.052 30.5071Z" fill="#979AA0"/>
<path d="M343.115 57.435H338.555V66H336.38V55.5H345.29V66H343.115V57.435ZM349.804 69.3H347.854V59.1H349.804V69.3ZM355.474 62.55C355.474 63.33 355.319 63.995 355.009 64.545C354.699 65.095 354.289 65.51 353.779 65.79C353.279 66.07 352.739 66.21 352.159 66.21C351.569 66.21 351.054 66.06 350.614 65.76C350.184 65.46 349.849 65.035 349.609 64.485C349.379 63.935 349.264 63.29 349.264 62.55C349.264 61.8 349.379 61.155 349.609 60.615C349.849 60.065 350.184 59.64 350.614 59.34C351.054 59.04 351.569 58.89 352.159 58.89C352.739 58.89 353.279 59.03 353.779 59.31C354.289 59.59 354.699 60.005 355.009 60.555C355.319 61.095 355.474 61.76 355.474 62.55ZM353.464 62.55C353.464 62.14 353.379 61.79 353.209 61.5C353.039 61.21 352.809 60.99 352.519 60.84C352.239 60.69 351.929 60.615 351.589 60.615C351.299 60.615 351.014 60.69 350.734 60.84C350.464 60.98 350.239 61.195 350.059 61.485C349.889 61.775 349.804 62.13 349.804 62.55C349.804 62.97 349.889 63.325 350.059 63.615C350.239 63.905 350.464 64.125 350.734 64.275C351.014 64.415 351.299 64.485 351.589 64.485C351.929 64.485 352.239 64.41 352.519 64.26C352.809 64.11 353.039 63.89 353.209 63.6C353.379 63.31 353.464 62.96 353.464 62.55ZM356.907 62.55C356.907 61.83 357.072 61.2 357.402 60.66C357.742 60.12 358.197 59.7 358.767 59.4C359.347 59.1 360.002 58.95 360.732 58.95C361.462 58.95 362.112 59.1 362.682 59.4C363.262 59.7 363.717 60.12 364.047 60.66C364.387 61.2 364.557 61.83 364.557 62.55C364.557 63.26 364.387 63.89 364.047 64.44C363.717 64.98 363.262 65.4 362.682 65.7C362.112 66 361.462 66.15 360.732 66.15C360.002 66.15 359.347 66 358.767 65.7C358.197 65.4 357.742 64.98 357.402 64.44C357.072 63.89 356.907 63.26 356.907 62.55ZM358.887 62.55C358.887 62.94 358.967 63.285 359.127 63.585C359.297 63.875 359.522 64.105 359.802 64.275C360.082 64.435 360.392 64.515 360.732 64.515C361.072 64.515 361.382 64.435 361.662 64.275C361.942 64.105 362.162 63.875 362.322 63.585C362.492 63.285 362.577 62.94 362.577 62.55C362.577 62.16 362.492 61.815 362.322 61.515C362.162 61.215 361.942 60.985 361.662 60.825C361.382 60.665 361.072 60.585 360.732 60.585C360.392 60.585 360.082 60.665 359.802 60.825C359.522 60.985 359.297 61.215 359.127 61.515C358.967 61.815 358.887 62.16 358.887 62.55ZM369.39 57.6H371.235V67.5H369.39V57.6ZM366 62.55C366 61.83 366.17 61.2 366.51 60.66C366.86 60.12 367.36 59.7 368.01 59.4C368.66 59.1 369.43 58.95 370.32 58.95C371.21 58.95 371.98 59.1 372.63 59.4C373.28 59.7 373.775 60.12 374.115 60.66C374.465 61.2 374.64 61.83 374.64 62.55C374.64 63.26 374.465 63.89 374.115 64.44C373.775 64.98 373.28 65.4 372.63 65.7C371.98 66 371.21 66.15 370.32 66.15C369.43 66.15 368.66 66 368.01 65.7C367.36 65.4 366.86 64.98 366.51 64.44C366.17 63.89 366 63.26 366 62.55ZM367.785 62.55C367.785 62.94 367.875 63.285 368.055 63.585C368.245 63.875 368.525 64.105 368.895 64.275C369.275 64.435 369.75 64.515 370.32 64.515C370.89 64.515 371.36 64.435 371.73 64.275C372.1 64.105 372.375 63.875 372.555 63.585C372.745 63.285 372.84 62.94 372.84 62.55C372.84 62.16 372.745 61.815 372.555 61.515C372.375 61.215 372.1 60.985 371.73 60.825C371.36 60.665 370.89 60.585 370.32 60.585C369.75 60.585 369.275 60.665 368.895 60.825C368.525 60.985 368.245 61.215 368.055 61.515C367.875 61.815 367.785 62.16 367.785 62.55ZM383.154 60.81L376.584 66.525L376.659 64.29L383.229 58.575L383.154 60.81ZM378.459 59.1V64.56L376.584 66.525V59.1H378.459ZM383.229 58.575V66H381.354V60.54L383.229 58.575ZM392.531 59.1V66H390.656V60.87H387.806V63.6C387.806 64.14 387.711 64.59 387.521 64.95C387.331 65.3 387.016 65.565 386.576 65.745C386.146 65.915 385.566 66 384.836 66V64.26C385.136 64.26 385.391 64.195 385.601 64.065C385.821 63.925 385.931 63.64 385.931 63.21V59.1H392.531ZM395.209 59.1H397.144V66H395.209V59.1ZM396.649 62.85V61.515H398.794C399.504 61.515 400.099 61.69 400.579 62.04C401.069 62.38 401.314 62.92 401.314 63.66C401.314 64.15 401.204 64.575 400.984 64.935C400.764 65.285 400.464 65.55 400.084 65.73C399.704 65.91 399.274 66 398.794 66H396.649V64.47H398.509C398.719 64.47 398.894 64.44 399.034 64.38C399.174 64.31 399.279 64.215 399.349 64.095C399.429 63.975 399.469 63.83 399.469 63.66C399.469 63.41 399.389 63.215 399.229 63.075C399.069 62.925 398.829 62.85 398.509 62.85H396.649Z" fill="#979AA0"/>
</g>
<rect x="0.5" y="0.5" width="428" height="82" rx="20.5" stroke="#F1F1F1"/>
<defs>
<clipPath id="clip0_7788_3069">
<rect x="1" y="1" width="427" height="81" rx="20" fill="white"/>
</clipPath>
</defs>
</svg>
