<svg width="430" height="470" viewBox="0 0 430 470" fill="none" xmlns="http://www.w3.org/2000/svg">
<g clip-path="url(#clip0_7788_3003)">
<rect x="1" y="1" width="428" height="468" rx="20" fill="white"/>
<g clip-path="url(#clip1_7788_3003)">
<rect width="428" height="956" transform="translate(1 -55)" fill="white"/>
<g filter="url(#filter0_d_7788_3003)">
<rect x="17" y="141" width="395" height="178" rx="15" fill="white"/>
</g>
<g opacity="0.22" filter="url(#filter1_f_7788_3003)">
<rect x="1" y="53" width="428" height="195" rx="20" fill="#CFFFD1"/>
</g>
<path d="M23.604 38.718L22.512 48H17.884L20.822 28.89L28.57 39.992L36.344 28.89L39.282 48H34.654L33.562 38.718L28.57 46.31L23.604 38.718ZM40.9883 42.02C40.9883 40.7547 41.2829 39.654 41.8722 38.718C42.4616 37.782 43.2763 37.054 44.3163 36.534C45.3563 36.014 46.5263 35.754 47.8263 35.754C49.1263 35.754 50.2876 36.014 51.3103 36.534C52.3503 37.054 53.1649 37.782 53.7543 38.718C54.3609 39.654 54.6643 40.7547 54.6643 42.02C54.6643 43.268 54.3609 44.36 53.7543 45.296C53.1649 46.232 52.3503 46.96 51.3103 47.48C50.2876 48 49.1263 48.26 47.8263 48.26C46.5263 48.26 45.3563 48 44.3163 47.48C43.2763 46.96 42.4616 46.232 41.8722 45.296C41.2829 44.36 40.9883 43.268 40.9883 42.02ZM45.0183 42.02C45.0183 42.644 45.1483 43.1813 45.4083 43.632C45.6683 44.0653 46.0063 44.4033 46.4223 44.646C46.8383 44.8887 47.3063 45.01 47.8263 45.01C48.3289 45.01 48.7883 44.8887 49.2043 44.646C49.6376 44.4033 49.9756 44.0653 50.2183 43.632C50.4783 43.1813 50.6083 42.644 50.6083 42.02C50.6083 41.396 50.4783 40.8587 50.2183 40.408C49.9756 39.9573 49.6376 39.6107 49.2043 39.368C48.7883 39.1253 48.3289 39.004 47.8263 39.004C47.3063 39.004 46.8383 39.1253 46.4223 39.368C46.0063 39.6107 45.6683 39.9573 45.4083 40.408C45.1483 40.8587 45.0183 41.396 45.0183 42.02ZM69.1422 39.42L57.0782 48.91L57.2082 44.62L69.2722 35.13L69.1422 39.42ZM60.8742 36.04V45.244L57.0782 48.91V36.04H60.8742ZM69.2722 35.13V48H65.5022V38.796L69.2722 35.13ZM85.7458 42.02V40.85C86.3005 40.85 86.6992 40.746 86.9418 40.538C87.2018 40.3127 87.3318 40.0353 87.3318 39.706C87.3318 39.3767 87.2105 39.1167 86.9678 38.926C86.7252 38.718 86.4045 38.614 86.0058 38.614C85.7112 38.614 85.4425 38.6747 85.1998 38.796C84.9745 38.9173 84.8012 39.082 84.6798 39.29C84.5585 39.498 84.4892 39.7407 84.4718 40.018H80.9098C80.9098 39.1687 81.1178 38.432 81.5338 37.808C81.9672 37.1667 82.5565 36.6727 83.3018 36.326C84.0645 35.962 84.9572 35.78 85.9798 35.78C86.9332 35.78 87.7825 35.936 88.5278 36.248C89.2732 36.5427 89.8538 36.95 90.2698 37.47C90.7032 37.9727 90.9198 38.5533 90.9198 39.212C90.9198 40.096 90.4952 40.8067 89.6458 41.344C88.8138 41.864 87.5138 42.0893 85.7458 42.02ZM85.9278 48.26C84.2292 48.26 82.8858 47.87 81.8978 47.09C80.9272 46.2927 80.3725 45.2353 80.2338 43.918H83.9518C84.0905 44.4207 84.3245 44.8107 84.6538 45.088C84.9832 45.348 85.3992 45.478 85.9018 45.478C86.2832 45.478 86.6125 45.426 86.8898 45.322C87.1672 45.2007 87.3838 45.0447 87.5398 44.854C87.6958 44.646 87.7738 44.3947 87.7738 44.1C87.7738 43.8053 87.6958 43.5627 87.5398 43.372C87.4012 43.164 87.1758 43.008 86.8638 42.904C86.5692 42.7827 86.1965 42.722 85.7458 42.722V41.24C87.5658 41.1533 88.9698 41.4133 89.9578 42.02C90.9458 42.6093 91.4398 43.4413 91.4398 44.516C91.4398 45.2613 91.1972 45.92 90.7118 46.492C90.2438 47.0467 89.5938 47.48 88.7618 47.792C87.9298 48.104 86.9852 48.26 85.9278 48.26ZM97.1893 44.438C97.1893 44.7153 97.2673 44.9493 97.4233 45.14C97.5793 45.3133 97.7873 45.452 98.0473 45.556C98.3246 45.6427 98.6106 45.686 98.9053 45.686C99.3906 45.686 99.8326 45.608 100.231 45.452C100.647 45.296 100.977 45.036 101.219 44.672C101.462 44.308 101.583 43.8053 101.583 43.164L101.999 44.62C101.999 45.3827 101.8 46.0413 101.401 46.596C101.02 47.1333 100.491 47.5493 99.8153 47.844C99.1566 48.1213 98.4113 48.26 97.5793 48.26C96.7473 48.26 96.0019 48.1213 95.3433 47.844C94.6846 47.5493 94.1646 47.1333 93.7833 46.596C93.4193 46.0413 93.2373 45.374 93.2373 44.594C93.2373 43.7967 93.4453 43.112 93.8613 42.54C94.2946 41.968 94.9013 41.526 95.6813 41.214C96.4613 40.902 97.3713 40.746 98.4113 40.746C99.0179 40.746 99.5899 40.8153 100.127 40.954C100.682 41.0753 101.159 41.24 101.557 41.448C101.973 41.6387 102.268 41.8293 102.441 42.02V43.866C101.991 43.5367 101.523 43.294 101.037 43.138C100.569 42.9647 99.9973 42.878 99.3213 42.878C98.8706 42.878 98.4806 42.9473 98.1513 43.086C97.8393 43.2073 97.5966 43.3807 97.4233 43.606C97.2673 43.8313 97.1893 44.1087 97.1893 44.438ZM95.6553 39.732L94.3293 37.08C95.0053 36.7507 95.8113 36.4387 96.7473 36.144C97.7006 35.8493 98.7146 35.702 99.7893 35.702C100.864 35.702 101.817 35.858 102.649 36.17C103.499 36.4647 104.157 36.898 104.625 37.47C105.111 38.042 105.353 38.744 105.353 39.576V48H101.583V40.356C101.583 39.8533 101.393 39.4547 101.011 39.16C100.647 38.848 100.136 38.692 99.4773 38.692C98.9053 38.692 98.3593 38.7527 97.8393 38.874C97.3366 38.9953 96.8946 39.1427 96.5133 39.316C96.1319 39.472 95.8459 39.6107 95.6553 39.732ZM108.264 36.04H112.034V48H108.264V36.04ZM116.376 36.04H121.082L115.96 40.98L121.602 48H116.974L111.254 40.98L116.376 36.04ZM126.338 44.438C126.338 44.7153 126.416 44.9493 126.572 45.14C126.728 45.3133 126.936 45.452 127.196 45.556C127.473 45.6427 127.759 45.686 128.054 45.686C128.539 45.686 128.981 45.608 129.38 45.452C129.796 45.296 130.125 45.036 130.368 44.672C130.61 44.308 130.732 43.8053 130.732 43.164L131.148 44.62C131.148 45.3827 130.948 46.0413 130.55 46.596C130.168 47.1333 129.64 47.5493 128.964 47.844C128.305 48.1213 127.56 48.26 126.728 48.26C125.896 48.26 125.15 48.1213 124.492 47.844C123.833 47.5493 123.313 47.1333 122.932 46.596C122.568 46.0413 122.386 45.374 122.386 44.594C122.386 43.7967 122.594 43.112 123.01 42.54C123.443 41.968 124.05 41.526 124.83 41.214C125.61 40.902 126.52 40.746 127.56 40.746C128.166 40.746 128.738 40.8153 129.276 40.954C129.83 41.0753 130.307 41.24 130.706 41.448C131.122 41.6387 131.416 41.8293 131.59 42.02V43.866C131.139 43.5367 130.671 43.294 130.186 43.138C129.718 42.9647 129.146 42.878 128.47 42.878C128.019 42.878 127.629 42.9473 127.3 43.086C126.988 43.2073 126.745 43.3807 126.572 43.606C126.416 43.8313 126.338 44.1087 126.338 44.438ZM124.804 39.732L123.478 37.08C124.154 36.7507 124.96 36.4387 125.896 36.144C126.849 35.8493 127.863 35.702 128.938 35.702C130.012 35.702 130.966 35.858 131.798 36.17C132.647 36.4647 133.306 36.898 133.774 37.47C134.259 38.042 134.502 38.744 134.502 39.576V48H130.732V40.356C130.732 39.8533 130.541 39.4547 130.16 39.16C129.796 38.848 129.284 38.692 128.626 38.692C128.054 38.692 127.508 38.7527 126.988 38.874C126.485 38.9953 126.043 39.1427 125.662 39.316C125.28 39.472 124.994 39.6107 124.804 39.732ZM142.976 42.02V40.85C143.531 40.85 143.93 40.746 144.172 40.538C144.432 40.3127 144.562 40.0353 144.562 39.706C144.562 39.3767 144.441 39.1167 144.198 38.926C143.956 38.718 143.635 38.614 143.236 38.614C142.942 38.614 142.673 38.6747 142.43 38.796C142.205 38.9173 142.032 39.082 141.91 39.29C141.789 39.498 141.72 39.7407 141.702 40.018H138.14C138.14 39.1687 138.348 38.432 138.764 37.808C139.198 37.1667 139.787 36.6727 140.532 36.326C141.295 35.962 142.188 35.78 143.21 35.78C144.164 35.78 145.013 35.936 145.758 36.248C146.504 36.5427 147.084 36.95 147.5 37.47C147.934 37.9727 148.15 38.5533 148.15 39.212C148.15 40.096 147.726 40.8067 146.876 41.344C146.044 41.864 144.744 42.0893 142.976 42.02ZM143.158 48.26C141.46 48.26 140.116 47.87 139.128 47.09C138.158 46.2927 137.603 45.2353 137.464 43.918H141.182C141.321 44.4207 141.555 44.8107 141.884 45.088C142.214 45.348 142.63 45.478 143.132 45.478C143.514 45.478 143.843 45.426 144.12 45.322C144.398 45.2007 144.614 45.0447 144.77 44.854C144.926 44.646 145.004 44.3947 145.004 44.1C145.004 43.8053 144.926 43.5627 144.77 43.372C144.632 43.164 144.406 43.008 144.094 42.904C143.8 42.7827 143.427 42.722 142.976 42.722V41.24C144.796 41.1533 146.2 41.4133 147.188 42.02C148.176 42.6093 148.67 43.4413 148.67 44.516C148.67 45.2613 148.428 45.92 147.942 46.492C147.474 47.0467 146.824 47.48 145.992 47.792C145.16 48.104 144.216 48.26 143.158 48.26ZM164.196 36.04H168.148V48H164.196V36.04ZM151.378 36.04H155.33V48H151.378V36.04ZM154.472 42.618V40.07H158.19C159.42 40.07 160.452 40.3733 161.284 40.98C162.133 41.5693 162.558 42.5053 162.558 43.788C162.558 44.6373 162.367 45.3827 161.986 46.024C161.604 46.6653 161.084 47.1593 160.426 47.506C159.767 47.8353 159.022 48 158.19 48H154.472V44.958H157.488C157.782 44.958 158.025 44.9147 158.216 44.828C158.424 44.7413 158.58 44.6113 158.684 44.438C158.805 44.2473 158.866 44.0307 158.866 43.788C158.866 43.4413 158.744 43.164 158.502 42.956C158.276 42.7307 157.938 42.618 157.488 42.618H154.472Z" fill="black"/>
<g filter="url(#filter2_d_7788_3003)">
<rect x="17" y="81" width="395" height="178" rx="15" fill="white"/>
</g>
<g filter="url(#filter3_d_7788_3003)">
<rect x="42" y="187.209" width="162.329" height="44.7761" rx="13" fill="#00A80E" shape-rendering="crispEdges"/>
<path d="M88.4269 202.997H91.0729V215.597H88.4269V202.997ZM95.5549 202.997H98.6149L93.3949 208.901L98.8849 215.597H95.7529L90.3169 208.973L95.5549 202.997ZM98.4157 211.457C98.4157 210.593 98.6137 209.837 99.0097 209.189C99.4177 208.541 99.9637 208.037 100.648 207.677C101.344 207.317 102.13 207.137 103.006 207.137C103.882 207.137 104.662 207.317 105.346 207.677C106.042 208.037 106.588 208.541 106.984 209.189C107.392 209.837 107.596 210.593 107.596 211.457C107.596 212.309 107.392 213.065 106.984 213.725C106.588 214.373 106.042 214.877 105.346 215.237C104.662 215.597 103.882 215.777 103.006 215.777C102.13 215.777 101.344 215.597 100.648 215.237C99.9637 214.877 99.4177 214.373 99.0097 213.725C98.6137 213.065 98.4157 212.309 98.4157 211.457ZM100.792 211.457C100.792 211.925 100.888 212.339 101.08 212.699C101.284 213.047 101.554 213.323 101.89 213.527C102.226 213.719 102.598 213.815 103.006 213.815C103.414 213.815 103.786 213.719 104.122 213.527C104.458 213.323 104.722 213.047 104.914 212.699C105.118 212.339 105.22 211.925 105.22 211.457C105.22 210.989 105.118 210.575 104.914 210.215C104.722 209.855 104.458 209.579 104.122 209.387C103.786 209.195 103.414 209.099 103.006 209.099C102.598 209.099 102.226 209.195 101.89 209.387C101.554 209.579 101.284 209.855 101.08 210.215C100.888 210.575 100.792 210.989 100.792 211.457ZM109.651 212.141V210.323H116.167V212.141H109.651ZM115.033 207.317H117.283V215.597H115.033V207.317ZM108.805 207.317H111.055V215.597H108.805V207.317ZM117.978 207.317H123.486V209.279H117.978V207.317ZM119.616 207.677H121.866V215.597H119.616V207.677ZM125.851 213.131C125.851 213.359 125.911 213.551 126.031 213.707C126.151 213.851 126.313 213.965 126.517 214.049C126.733 214.121 126.967 214.157 127.219 214.157C127.591 214.157 127.933 214.097 128.245 213.977C128.557 213.857 128.803 213.659 128.983 213.383C129.163 213.107 129.253 212.741 129.253 212.285L129.541 213.257C129.541 213.785 129.403 214.241 129.127 214.625C128.851 214.997 128.479 215.285 128.011 215.489C127.555 215.681 127.039 215.777 126.463 215.777C125.899 215.777 125.395 215.681 124.951 215.489C124.507 215.297 124.153 215.015 123.889 214.643C123.637 214.259 123.511 213.791 123.511 213.239C123.511 212.675 123.655 212.195 123.943 211.799C124.243 211.391 124.657 211.079 125.185 210.863C125.725 210.647 126.355 210.539 127.075 210.539C127.519 210.539 127.933 210.593 128.317 210.701C128.701 210.809 129.025 210.935 129.289 211.079C129.553 211.223 129.739 211.361 129.847 211.493V212.627C129.511 212.375 129.163 212.189 128.803 212.069C128.443 211.949 128.017 211.889 127.525 211.889C127.165 211.889 126.859 211.943 126.607 212.051C126.355 212.159 126.163 212.303 126.031 212.483C125.911 212.663 125.851 212.879 125.851 213.131ZM125.113 209.675L124.267 208.073C124.687 207.845 125.203 207.629 125.815 207.425C126.427 207.209 127.105 207.101 127.849 207.101C128.569 207.101 129.199 207.203 129.739 207.407C130.291 207.611 130.723 207.911 131.035 208.307C131.347 208.691 131.503 209.165 131.503 209.729V215.597H129.253V210.107C129.253 209.735 129.109 209.447 128.821 209.243C128.533 209.027 128.161 208.919 127.705 208.919C127.309 208.919 126.937 208.967 126.589 209.063C126.253 209.147 125.953 209.249 125.689 209.369C125.437 209.489 125.245 209.591 125.113 209.675ZM133.076 207.317H135.326V215.597H133.076V207.317ZM138.368 207.317H141.158L137.594 210.737L141.518 215.597H138.746L134.804 210.737L138.368 207.317ZM141.143 207.317H146.651V209.279H141.143V207.317ZM142.781 207.677H145.031V215.597H142.781V207.677ZM155.803 207.317H158.125V215.597H155.803V207.317ZM147.361 207.317H149.701V215.597H147.361V207.317ZM149.107 211.817V210.215H151.681C152.533 210.215 153.247 210.425 153.823 210.845C154.411 211.253 154.705 211.901 154.705 212.789C154.705 213.377 154.573 213.887 154.309 214.319C154.045 214.739 153.685 215.057 153.229 215.273C152.773 215.489 152.257 215.597 151.681 215.597H149.107V213.761H151.339C151.591 213.761 151.801 213.725 151.969 213.653C152.137 213.569 152.263 213.455 152.347 213.311C152.443 213.167 152.491 212.993 152.491 212.789C152.491 212.489 152.389 212.255 152.185 212.087C151.993 211.907 151.711 211.817 151.339 211.817H149.107Z" fill="white"/>
</g>
<path d="M45.536 160.07H50.736V150.934H53.056V160.07H54.688V164.166H52.528V162.134H43.216V150.934H45.536V160.07ZM56.4976 158.918V157.638H60.8976C60.855 157.318 60.7696 157.041 60.6416 156.806C60.5136 156.572 60.3376 156.39 60.1136 156.262C59.8896 156.134 59.607 156.07 59.2656 156.07C58.9136 156.07 58.599 156.15 58.3216 156.31C58.0443 156.46 57.8256 156.684 57.6656 156.982C57.5056 157.281 57.4256 157.633 57.4256 158.038L57.3936 158.454C57.3936 158.977 57.4736 159.409 57.6336 159.75C57.8043 160.081 58.0336 160.326 58.3216 160.486C58.6096 160.636 58.935 160.71 59.2976 160.71C59.6176 160.71 59.9003 160.668 60.1456 160.582C60.391 160.497 60.6096 160.374 60.8016 160.214C60.9936 160.054 61.1536 159.868 61.2816 159.654L63.0896 160.214C62.8443 160.63 62.5563 160.998 62.2256 161.318C61.895 161.628 61.4896 161.868 61.0096 162.038C60.5403 162.209 59.9643 162.294 59.2816 162.294C58.4603 162.294 57.751 162.129 57.1536 161.798C56.5563 161.468 56.0976 161.014 55.7776 160.438C55.4683 159.852 55.3136 159.19 55.3136 158.454C55.3136 158.316 55.319 158.182 55.3296 158.054C55.3403 157.926 55.3563 157.798 55.3776 157.67C55.4843 157.062 55.703 156.529 56.0336 156.07C56.3643 155.612 56.807 155.254 57.3616 154.998C57.9163 154.742 58.5616 154.614 59.2976 154.614C60.1083 154.614 60.7963 154.769 61.3616 155.078C61.9376 155.377 62.375 155.804 62.6736 156.358C62.9723 156.913 63.1216 157.58 63.1216 158.358C63.1216 158.422 63.1216 158.502 63.1216 158.598C63.1216 158.694 63.111 158.801 63.0896 158.918H56.4976ZM64.9879 159.062V157.446H70.7799V159.062H64.9879ZM69.7719 154.774H71.7719V162.134H69.7719V154.774ZM64.2359 154.774H66.2359V162.134H64.2359V154.774ZM74.806 159.942C74.806 160.145 74.8593 160.316 74.966 160.454C75.0727 160.582 75.2167 160.684 75.398 160.758C75.59 160.822 75.798 160.854 76.022 160.854C76.3527 160.854 76.6567 160.801 76.934 160.694C77.2113 160.588 77.43 160.412 77.59 160.166C77.75 159.921 77.83 159.596 77.83 159.19L78.086 160.054C78.086 160.524 77.9633 160.929 77.718 161.27C77.4727 161.601 77.142 161.857 76.726 162.038C76.3207 162.209 75.862 162.294 75.35 162.294C74.8487 162.294 74.4007 162.209 74.006 162.038C73.6113 161.868 73.2967 161.617 73.062 161.286C72.838 160.945 72.726 160.529 72.726 160.038C72.726 159.537 72.854 159.11 73.11 158.758C73.3767 158.396 73.7447 158.118 74.214 157.926C74.694 157.734 75.254 157.638 75.894 157.638C76.2887 157.638 76.6567 157.686 76.998 157.782C77.3393 157.878 77.6273 157.99 77.862 158.118C78.0967 158.246 78.262 158.369 78.358 158.486V159.494C78.0593 159.27 77.75 159.105 77.43 158.998C77.11 158.892 76.7313 158.838 76.294 158.838C75.974 158.838 75.702 158.886 75.478 158.982C75.254 159.078 75.0833 159.206 74.966 159.366C74.8593 159.526 74.806 159.718 74.806 159.942ZM74.15 156.87L73.398 155.446C73.7713 155.244 74.23 155.052 74.774 154.87C75.318 154.678 75.9207 154.582 76.582 154.582C77.222 154.582 77.782 154.673 78.262 154.854C78.7527 155.036 79.1367 155.302 79.414 155.654C79.6913 155.996 79.83 156.417 79.83 156.918V162.134H77.83V157.254C77.83 156.924 77.702 156.668 77.446 156.486C77.19 156.294 76.8593 156.198 76.454 156.198C76.102 156.198 75.7713 156.241 75.462 156.326C75.1633 156.401 74.8967 156.492 74.662 156.598C74.438 156.705 74.2673 156.796 74.15 156.87ZM81.4679 161.19C81.4679 160.828 81.5905 160.524 81.8359 160.278C82.0919 160.022 82.4065 159.894 82.7799 159.894C83.1639 159.894 83.4785 160.022 83.7239 160.278C83.9692 160.524 84.0919 160.828 84.0919 161.19C84.0919 161.532 83.9692 161.83 83.7239 162.086C83.4785 162.342 83.1639 162.47 82.7799 162.47C82.4065 162.47 82.0919 162.342 81.8359 162.086C81.5905 161.83 81.4679 161.532 81.4679 161.19ZM81.4679 155.174C81.4679 154.822 81.5905 154.518 81.8359 154.262C82.0919 154.006 82.4065 153.878 82.7799 153.878C83.1639 153.878 83.4785 154.006 83.7239 154.262C83.9692 154.518 84.0919 154.822 84.0919 155.174C84.0919 155.526 83.9692 155.83 83.7239 156.086C83.4785 156.342 83.1639 156.47 82.7799 156.47C82.4065 156.47 82.0919 156.342 81.8359 156.086C81.5905 155.83 81.4679 155.526 81.4679 155.174ZM92.1756 158.278C92.1756 158.705 92.2663 159.078 92.4476 159.398C92.629 159.708 92.8743 159.953 93.1836 160.134C93.5036 160.305 93.861 160.39 94.2556 160.39C94.6503 160.39 95.0023 160.305 95.3116 160.134C95.6316 159.953 95.8823 159.708 96.0636 159.398C96.245 159.078 96.3356 158.705 96.3356 158.278C96.3356 157.862 96.245 157.494 96.0636 157.174C95.8823 156.844 95.6316 156.593 95.3116 156.422C95.0023 156.241 94.6503 156.15 94.2556 156.15C93.861 156.15 93.5036 156.241 93.1836 156.422C92.8743 156.593 92.629 156.844 92.4476 157.174C92.2663 157.494 92.1756 157.862 92.1756 158.278ZM94.4476 150.966H97.3436L93.7596 155.19L93.3436 155.334C93.621 155.046 93.893 154.86 94.1596 154.774C94.437 154.689 94.773 154.646 95.1676 154.646C95.5943 154.646 96.0103 154.732 96.4156 154.902C96.8316 155.073 97.1996 155.318 97.5196 155.638C97.8396 155.958 98.0956 156.342 98.2876 156.79C98.4796 157.238 98.5756 157.734 98.5756 158.278C98.5756 159.153 98.3783 159.894 97.9836 160.502C97.5996 161.11 97.0823 161.574 96.4316 161.894C95.781 162.204 95.0556 162.358 94.2556 162.358C93.4556 162.358 92.7303 162.204 92.0796 161.894C91.429 161.574 90.9063 161.11 90.5116 160.502C90.1276 159.894 89.9356 159.153 89.9356 158.278C89.9356 157.724 90.0423 157.212 90.2556 156.742C90.469 156.262 90.7356 155.82 91.0556 155.414L94.4476 150.966ZM101.754 156.534C101.754 157.1 101.807 157.617 101.914 158.086C102.021 158.545 102.175 158.945 102.378 159.286C102.581 159.617 102.821 159.873 103.098 160.054C103.375 160.236 103.685 160.326 104.026 160.326C104.378 160.326 104.693 160.236 104.97 160.054C105.247 159.873 105.487 159.617 105.69 159.286C105.893 158.945 106.047 158.545 106.154 158.086C106.261 157.617 106.314 157.1 106.314 156.534C106.314 155.969 106.261 155.457 106.154 154.998C106.047 154.529 105.893 154.129 105.69 153.798C105.487 153.457 105.247 153.196 104.97 153.014C104.693 152.833 104.378 152.742 104.026 152.742C103.685 152.742 103.375 152.833 103.098 153.014C102.821 153.196 102.581 153.457 102.378 153.798C102.175 154.129 102.021 154.529 101.914 154.998C101.807 155.457 101.754 155.969 101.754 156.534ZM99.53 156.534C99.53 155.35 99.7167 154.326 100.09 153.462C100.474 152.598 101.002 151.932 101.674 151.462C102.357 150.982 103.141 150.742 104.026 150.742C104.943 150.742 105.738 150.982 106.41 151.462C107.082 151.932 107.605 152.598 107.978 153.462C108.351 154.326 108.538 155.35 108.538 156.534C108.538 157.718 108.351 158.742 107.978 159.606C107.605 160.47 107.082 161.142 106.41 161.622C105.738 162.092 104.943 162.326 104.026 162.326C103.141 162.326 102.357 162.092 101.674 161.622C101.002 161.142 100.474 160.47 100.09 159.606C99.7167 158.742 99.53 157.718 99.53 156.534ZM111.555 156.534C111.555 157.1 111.609 157.617 111.715 158.086C111.822 158.545 111.977 158.945 112.179 159.286C112.382 159.617 112.622 159.873 112.899 160.054C113.177 160.236 113.486 160.326 113.827 160.326C114.179 160.326 114.494 160.236 114.771 160.054C115.049 159.873 115.289 159.617 115.491 159.286C115.694 158.945 115.849 158.545 115.955 158.086C116.062 157.617 116.115 157.1 116.115 156.534C116.115 155.969 116.062 155.457 115.955 154.998C115.849 154.529 115.694 154.129 115.491 153.798C115.289 153.457 115.049 153.196 114.771 153.014C114.494 152.833 114.179 152.742 113.827 152.742C113.486 152.742 113.177 152.833 112.899 153.014C112.622 153.196 112.382 153.457 112.179 153.798C111.977 154.129 111.822 154.529 111.715 154.998C111.609 155.457 111.555 155.969 111.555 156.534ZM109.331 156.534C109.331 155.35 109.518 154.326 109.891 153.462C110.275 152.598 110.803 151.932 111.475 151.462C112.158 150.982 112.942 150.742 113.827 150.742C114.745 150.742 115.539 150.982 116.211 151.462C116.883 151.932 117.406 152.598 117.779 153.462C118.153 154.326 118.339 155.35 118.339 156.534C118.339 157.718 118.153 158.742 117.779 159.606C117.406 160.47 116.883 161.142 116.211 161.622C115.539 162.092 114.745 162.326 113.827 162.326C112.942 162.326 112.158 162.092 111.475 161.622C110.803 161.142 110.275 160.47 109.891 159.606C109.518 158.742 109.331 157.718 109.331 156.534ZM121.357 156.534C121.357 157.1 121.41 157.617 121.517 158.086C121.623 158.545 121.778 158.945 121.981 159.286C122.183 159.617 122.423 159.873 122.701 160.054C122.978 160.236 123.287 160.326 123.629 160.326C123.981 160.326 124.295 160.236 124.573 160.054C124.85 159.873 125.09 159.617 125.293 159.286C125.495 158.945 125.65 158.545 125.757 158.086C125.863 157.617 125.917 157.1 125.917 156.534C125.917 155.969 125.863 155.457 125.757 154.998C125.65 154.529 125.495 154.129 125.293 153.798C125.09 153.457 124.85 153.196 124.573 153.014C124.295 152.833 123.981 152.742 123.629 152.742C123.287 152.742 122.978 152.833 122.701 153.014C122.423 153.196 122.183 153.457 121.981 153.798C121.778 154.129 121.623 154.529 121.517 154.998C121.41 155.457 121.357 155.969 121.357 156.534ZM119.133 156.534C119.133 155.35 119.319 154.326 119.693 153.462C120.077 152.598 120.605 151.932 121.277 151.462C121.959 150.982 122.743 150.742 123.629 150.742C124.546 150.742 125.341 150.982 126.013 151.462C126.685 151.932 127.207 152.598 127.581 153.462C127.954 154.326 128.141 155.35 128.141 156.534C128.141 157.718 127.954 158.742 127.581 159.606C127.207 160.47 126.685 161.142 126.013 161.622C125.341 162.092 124.546 162.326 123.629 162.326C122.743 162.326 121.959 162.092 121.277 161.622C120.605 161.142 120.077 160.47 119.693 159.606C119.319 158.742 119.133 157.718 119.133 156.534ZM135.667 165.654H133.587V154.774H135.667V165.654ZM141.715 158.454C141.715 159.286 141.549 159.996 141.219 160.582C140.888 161.169 140.451 161.612 139.907 161.91C139.373 162.209 138.797 162.358 138.179 162.358C137.549 162.358 137 162.198 136.531 161.878C136.072 161.558 135.715 161.105 135.459 160.518C135.213 159.932 135.091 159.244 135.091 158.454C135.091 157.654 135.213 156.966 135.459 156.39C135.715 155.804 136.072 155.35 136.531 155.03C137 154.71 137.549 154.55 138.179 154.55C138.797 154.55 139.373 154.7 139.907 154.998C140.451 155.297 140.888 155.74 141.219 156.326C141.549 156.902 141.715 157.612 141.715 158.454ZM139.571 158.454C139.571 158.017 139.48 157.644 139.299 157.334C139.117 157.025 138.872 156.79 138.563 156.63C138.264 156.47 137.933 156.39 137.571 156.39C137.261 156.39 136.957 156.47 136.659 156.63C136.371 156.78 136.131 157.009 135.939 157.318C135.757 157.628 135.667 158.006 135.667 158.454C135.667 158.902 135.757 159.281 135.939 159.59C136.131 159.9 136.371 160.134 136.659 160.294C136.957 160.444 137.261 160.518 137.571 160.518C137.933 160.518 138.264 160.438 138.563 160.278C138.872 160.118 139.117 159.884 139.299 159.574C139.48 159.265 139.571 158.892 139.571 158.454ZM149.553 154.774L144.753 165.654H142.625L144.481 161.398L141.425 154.774H143.729L146.097 160.63L145.073 160.598L147.393 154.774H149.553ZM153.763 156.358L153.891 154.614C154.669 154.614 155.352 154.78 155.939 155.11C156.525 155.441 156.989 155.894 157.331 156.47C157.672 157.046 157.843 157.708 157.843 158.454C157.843 159.19 157.672 159.852 157.331 160.438C156.989 161.014 156.509 161.468 155.891 161.798C155.283 162.129 154.573 162.294 153.763 162.294C152.952 162.294 152.227 162.118 151.587 161.766C150.957 161.404 150.456 160.865 150.083 160.15C149.72 159.436 149.539 158.55 149.539 157.494L151.779 158.454C151.779 158.87 151.864 159.238 152.035 159.558C152.216 159.868 152.456 160.113 152.755 160.294C153.053 160.465 153.389 160.55 153.763 160.55C154.125 160.55 154.456 160.465 154.755 160.294C155.053 160.113 155.288 159.868 155.459 159.558C155.629 159.238 155.715 158.87 155.715 158.454C155.715 158.038 155.629 157.67 155.459 157.35C155.288 157.03 155.053 156.785 154.755 156.614C154.456 156.444 154.125 156.358 153.763 156.358ZM150.867 158.454C150.867 157.857 150.936 157.324 151.075 156.854C151.213 156.374 151.416 155.969 151.683 155.638C151.96 155.308 152.28 155.057 152.643 154.886C153.016 154.705 153.432 154.614 153.891 154.614L153.763 156.358C153.528 156.358 153.293 156.406 153.059 156.502C152.824 156.588 152.611 156.721 152.419 156.902C152.227 157.084 152.072 157.302 151.955 157.558C151.837 157.814 151.779 158.113 151.779 158.454H150.867ZM149.539 157.494C149.539 156.492 149.629 155.606 149.811 154.838C149.992 154.07 150.312 153.414 150.771 152.87C151.24 152.326 151.896 151.894 152.739 151.574C153.464 151.286 154.013 150.993 154.387 150.694C154.771 150.385 155 150.038 155.075 149.654H157.075C157.021 150.124 156.851 150.566 156.563 150.982C156.275 151.398 155.896 151.766 155.427 152.086C154.968 152.406 154.445 152.673 153.859 152.886C153.208 153.121 152.696 153.436 152.323 153.83C151.96 154.225 151.704 154.668 151.555 155.158C151.416 155.649 151.347 156.161 151.347 156.694L151.619 158.406L149.539 157.494Z" fill="#596574"/>
<path d="M49.65 119.63L46.752 127.46H43.818L49.65 114.77L55.482 127.46H52.548L49.65 119.63ZM54.078 128H45.222V129.98H42.72V125.75H56.58V129.98H54.078V128ZM66.3084 121.772L58.4244 128.63L58.5144 125.948L66.3984 119.09L66.3084 121.772ZM60.6744 119.72V126.272L58.4244 128.63V119.72H60.6744ZM66.3984 119.09V128H64.1484V121.448L66.3984 119.09ZM72.1431 123.86V123.014C72.5751 123.014 72.8871 122.93 73.0791 122.762C73.2711 122.594 73.3671 122.39 73.3671 122.15C73.3671 121.886 73.2711 121.682 73.0791 121.538C72.8871 121.382 72.6351 121.304 72.3231 121.304C72.0591 121.304 71.8371 121.352 71.6571 121.448C71.4771 121.544 71.3391 121.676 71.2431 121.844C71.1471 122 71.0991 122.174 71.0991 122.366H68.9391C68.9391 121.814 69.0771 121.328 69.3531 120.908C69.6411 120.476 70.0371 120.14 70.5411 119.9C71.0451 119.66 71.6331 119.54 72.3051 119.54C72.9291 119.54 73.4811 119.642 73.9611 119.846C74.4531 120.05 74.8371 120.332 75.1131 120.692C75.4011 121.04 75.5451 121.436 75.5451 121.88C75.5451 122.48 75.2571 122.972 74.6811 123.356C74.1171 123.728 73.2711 123.896 72.1431 123.86ZM72.2691 128.18C71.1531 128.18 70.2711 127.91 69.6231 127.37C68.9751 126.83 68.6031 126.116 68.5071 125.228H70.7391C70.8231 125.6 70.9851 125.9 71.2251 126.128C71.4771 126.344 71.8191 126.452 72.2511 126.452C72.5511 126.452 72.8091 126.41 73.0251 126.326C73.2411 126.242 73.4091 126.122 73.5291 125.966C73.6491 125.798 73.7091 125.606 73.7091 125.39C73.7091 125.162 73.6491 124.97 73.5291 124.814C73.4091 124.646 73.2291 124.52 72.9891 124.436C72.7611 124.352 72.4791 124.31 72.1431 124.31V123.32C73.3191 123.284 74.2371 123.464 74.8971 123.86C75.5691 124.256 75.9051 124.826 75.9051 125.57C75.9051 126.11 75.7431 126.578 75.4191 126.974C75.1071 127.358 74.6751 127.658 74.1231 127.874C73.5711 128.078 72.9531 128.18 72.2691 128.18ZM79.3364 125.534C79.3364 125.762 79.3964 125.954 79.5164 126.11C79.6364 126.254 79.7984 126.368 80.0024 126.452C80.2184 126.524 80.4524 126.56 80.7044 126.56C81.0764 126.56 81.4184 126.5 81.7304 126.38C82.0424 126.26 82.2884 126.062 82.4684 125.786C82.6484 125.51 82.7384 125.144 82.7384 124.688L83.0264 125.66C83.0264 126.188 82.8884 126.644 82.6124 127.028C82.3364 127.4 81.9644 127.688 81.4964 127.892C81.0404 128.084 80.5244 128.18 79.9484 128.18C79.3844 128.18 78.8804 128.084 78.4364 127.892C77.9924 127.7 77.6384 127.418 77.3744 127.046C77.1224 126.662 76.9964 126.194 76.9964 125.642C76.9964 125.078 77.1404 124.598 77.4284 124.202C77.7284 123.794 78.1424 123.482 78.6704 123.266C79.2104 123.05 79.8404 122.942 80.5604 122.942C81.0044 122.942 81.4184 122.996 81.8024 123.104C82.1864 123.212 82.5104 123.338 82.7744 123.482C83.0384 123.626 83.2244 123.764 83.3324 123.896V125.03C82.9964 124.778 82.6484 124.592 82.2884 124.472C81.9284 124.352 81.5024 124.292 81.0104 124.292C80.6504 124.292 80.3444 124.346 80.0924 124.454C79.8404 124.562 79.6484 124.706 79.5164 124.886C79.3964 125.066 79.3364 125.282 79.3364 125.534ZM78.5984 122.078L77.7524 120.476C78.1724 120.248 78.6884 120.032 79.3004 119.828C79.9124 119.612 80.5904 119.504 81.3344 119.504C82.0544 119.504 82.6844 119.606 83.2244 119.81C83.7764 120.014 84.2084 120.314 84.5204 120.71C84.8324 121.094 84.9884 121.568 84.9884 122.132V128H82.7384V122.51C82.7384 122.138 82.5944 121.85 82.3064 121.646C82.0184 121.43 81.6464 121.322 81.1904 121.322C80.7944 121.322 80.4224 121.37 80.0744 121.466C79.7384 121.55 79.4384 121.652 79.1744 121.772C78.9224 121.892 78.7304 121.994 78.5984 122.078ZM94.913 121.772L87.029 128.63L87.119 125.948L95.003 119.09L94.913 121.772ZM89.279 119.72V126.272L87.029 128.63V119.72H89.279ZM95.003 119.09V128H92.753V121.448L95.003 119.09ZM88.199 115.49H89.819C89.819 115.682 89.867 115.868 89.963 116.048C90.059 116.216 90.203 116.36 90.395 116.48C90.587 116.588 90.827 116.642 91.115 116.642C91.415 116.642 91.661 116.588 91.853 116.48C92.045 116.36 92.183 116.216 92.267 116.048C92.363 115.868 92.411 115.682 92.411 115.49H94.049C94.049 115.946 93.935 116.378 93.707 116.786C93.479 117.182 93.149 117.5 92.717 117.74C92.285 117.968 91.751 118.082 91.115 118.082C90.491 118.082 89.957 117.968 89.513 117.74C89.081 117.5 88.751 117.182 88.523 116.786C88.307 116.378 88.199 115.946 88.199 115.49ZM98.0296 124.544V122.726H104.546V124.544H98.0296ZM103.412 119.72H105.662V128H103.412V119.72ZM97.1836 119.72H99.4336V128H97.1836V119.72ZM108.553 124.382V122.942H113.503C113.455 122.582 113.359 122.27 113.215 122.006C113.071 121.742 112.873 121.538 112.621 121.394C112.369 121.25 112.051 121.178 111.667 121.178C111.271 121.178 110.917 121.268 110.605 121.448C110.293 121.616 110.047 121.868 109.867 122.204C109.687 122.54 109.597 122.936 109.597 123.392L109.561 123.86C109.561 124.448 109.651 124.934 109.831 125.318C110.023 125.69 110.281 125.966 110.605 126.146C110.929 126.314 111.295 126.398 111.703 126.398C112.063 126.398 112.381 126.35 112.657 126.254C112.933 126.158 113.179 126.02 113.395 125.84C113.611 125.66 113.791 125.45 113.935 125.21L115.969 125.84C115.693 126.308 115.369 126.722 114.997 127.082C114.625 127.43 114.169 127.7 113.629 127.892C113.101 128.084 112.453 128.18 111.685 128.18C110.761 128.18 109.963 127.994 109.291 127.622C108.619 127.25 108.103 126.74 107.743 126.092C107.395 125.432 107.221 124.688 107.221 123.86C107.221 123.704 107.227 123.554 107.239 123.41C107.251 123.266 107.269 123.122 107.293 122.978C107.413 122.294 107.659 121.694 108.031 121.178C108.403 120.662 108.901 120.26 109.525 119.972C110.149 119.684 110.875 119.54 111.703 119.54C112.615 119.54 113.389 119.714 114.025 120.062C114.673 120.398 115.165 120.878 115.501 121.502C115.837 122.126 116.005 122.876 116.005 123.752C116.005 123.824 116.005 123.914 116.005 124.022C116.005 124.13 115.993 124.25 115.969 124.382H108.553ZM119.905 131.96H117.565V119.72H119.905V131.96ZM126.709 123.86C126.709 124.796 126.523 125.594 126.151 126.254C125.779 126.914 125.287 127.412 124.675 127.748C124.075 128.084 123.427 128.252 122.731 128.252C122.023 128.252 121.405 128.072 120.877 127.712C120.361 127.352 119.959 126.842 119.671 126.182C119.395 125.522 119.257 124.748 119.257 123.86C119.257 122.96 119.395 122.186 119.671 121.538C119.959 120.878 120.361 120.368 120.877 120.008C121.405 119.648 122.023 119.468 122.731 119.468C123.427 119.468 124.075 119.636 124.675 119.972C125.287 120.308 125.779 120.806 126.151 121.466C126.523 122.114 126.709 122.912 126.709 123.86ZM124.297 123.86C124.297 123.368 124.195 122.948 123.991 122.6C123.787 122.252 123.511 121.988 123.163 121.808C122.827 121.628 122.455 121.538 122.047 121.538C121.699 121.538 121.357 121.628 121.021 121.808C120.697 121.976 120.427 122.234 120.211 122.582C120.007 122.93 119.905 123.356 119.905 123.86C119.905 124.364 120.007 124.79 120.211 125.138C120.427 125.486 120.697 125.75 121.021 125.93C121.357 126.098 121.699 126.182 122.047 126.182C122.455 126.182 122.827 126.092 123.163 125.912C123.511 125.732 123.787 125.468 123.991 125.12C124.195 124.772 124.297 124.352 124.297 123.86ZM141.421 121.772L133.537 128.63L133.627 125.948L141.511 119.09L141.421 121.772ZM135.787 119.72V126.272L133.537 128.63V119.72H135.787ZM141.511 119.09V128H139.261V121.448L141.511 119.09ZM144.538 124.544V122.726H151.054V124.544H144.538ZM149.92 119.72H152.17V128H149.92V119.72ZM143.692 119.72H145.942V128H143.692V119.72ZM157.797 117.92H160.011V129.8H157.797V117.92ZM153.729 123.86C153.729 122.996 153.933 122.24 154.341 121.592C154.761 120.944 155.361 120.44 156.141 120.08C156.921 119.72 157.845 119.54 158.913 119.54C159.981 119.54 160.905 119.72 161.685 120.08C162.465 120.44 163.059 120.944 163.467 121.592C163.887 122.24 164.097 122.996 164.097 123.86C164.097 124.712 163.887 125.468 163.467 126.128C163.059 126.776 162.465 127.28 161.685 127.64C160.905 128 159.981 128.18 158.913 128.18C157.845 128.18 156.921 128 156.141 127.64C155.361 127.28 154.761 126.776 154.341 126.128C153.933 125.468 153.729 124.712 153.729 123.86ZM155.871 123.86C155.871 124.328 155.979 124.742 156.195 125.102C156.423 125.45 156.759 125.726 157.203 125.93C157.659 126.122 158.229 126.218 158.913 126.218C159.597 126.218 160.161 126.122 160.605 125.93C161.049 125.726 161.379 125.45 161.595 125.102C161.823 124.742 161.937 124.328 161.937 123.86C161.937 123.392 161.823 122.978 161.595 122.618C161.379 122.258 161.049 121.982 160.605 121.79C160.161 121.598 159.597 121.502 158.913 121.502C158.229 121.502 157.659 121.598 157.203 121.79C156.759 121.982 156.423 122.258 156.195 122.618C155.979 122.978 155.871 123.392 155.871 123.86ZM165.098 123.86C165.098 122.996 165.296 122.24 165.692 121.592C166.1 120.944 166.646 120.44 167.33 120.08C168.026 119.72 168.812 119.54 169.688 119.54C170.564 119.54 171.344 119.72 172.028 120.08C172.724 120.44 173.27 120.944 173.666 121.592C174.074 122.24 174.278 122.996 174.278 123.86C174.278 124.712 174.074 125.468 173.666 126.128C173.27 126.776 172.724 127.28 172.028 127.64C171.344 128 170.564 128.18 169.688 128.18C168.812 128.18 168.026 128 167.33 127.64C166.646 127.28 166.1 126.776 165.692 126.128C165.296 125.468 165.098 124.712 165.098 123.86ZM167.474 123.86C167.474 124.328 167.57 124.742 167.762 125.102C167.966 125.45 168.236 125.726 168.572 125.93C168.908 126.122 169.28 126.218 169.688 126.218C170.096 126.218 170.468 126.122 170.804 125.93C171.14 125.726 171.404 125.45 171.596 125.102C171.8 124.742 171.902 124.328 171.902 123.86C171.902 123.392 171.8 122.978 171.596 122.618C171.404 122.258 171.14 121.982 170.804 121.79C170.468 121.598 170.096 121.502 169.688 121.502C169.28 121.502 168.908 121.598 168.572 121.79C168.236 121.982 167.966 122.258 167.762 122.618C167.57 122.978 167.474 123.392 167.474 123.86ZM178.133 131.96H175.793V119.72H178.133V131.96ZM184.937 123.86C184.937 124.796 184.751 125.594 184.379 126.254C184.007 126.914 183.515 127.412 182.903 127.748C182.303 128.084 181.655 128.252 180.959 128.252C180.251 128.252 179.633 128.072 179.105 127.712C178.589 127.352 178.187 126.842 177.899 126.182C177.623 125.522 177.485 124.748 177.485 123.86C177.485 122.96 177.623 122.186 177.899 121.538C178.187 120.878 178.589 120.368 179.105 120.008C179.633 119.648 180.251 119.468 180.959 119.468C181.655 119.468 182.303 119.636 182.903 119.972C183.515 120.308 184.007 120.806 184.379 121.466C184.751 122.114 184.937 122.912 184.937 123.86ZM182.525 123.86C182.525 123.368 182.423 122.948 182.219 122.6C182.015 122.252 181.739 121.988 181.391 121.808C181.055 121.628 180.683 121.538 180.275 121.538C179.927 121.538 179.585 121.628 179.249 121.808C178.925 121.976 178.655 122.234 178.439 122.582C178.235 122.93 178.133 123.356 178.133 123.86C178.133 124.364 178.235 124.79 178.439 125.138C178.655 125.486 178.925 125.75 179.249 125.93C179.585 126.098 179.927 126.182 180.275 126.182C180.683 126.182 181.055 126.092 181.391 125.912C181.739 125.732 182.015 125.468 182.219 125.12C182.423 124.772 182.525 124.352 182.525 123.86ZM186.549 119.72H191.571V121.682H188.835V128H186.549V119.72ZM194.877 131.96H192.537V119.72H194.877V131.96ZM201.681 123.86C201.681 124.796 201.495 125.594 201.123 126.254C200.751 126.914 200.259 127.412 199.647 127.748C199.047 128.084 198.399 128.252 197.703 128.252C196.995 128.252 196.377 128.072 195.849 127.712C195.333 127.352 194.931 126.842 194.643 126.182C194.367 125.522 194.229 124.748 194.229 123.86C194.229 122.96 194.367 122.186 194.643 121.538C194.931 120.878 195.333 120.368 195.849 120.008C196.377 119.648 196.995 119.468 197.703 119.468C198.399 119.468 199.047 119.636 199.647 119.972C200.259 120.308 200.751 120.806 201.123 121.466C201.495 122.114 201.681 122.912 201.681 123.86ZM199.269 123.86C199.269 123.368 199.167 122.948 198.963 122.6C198.759 122.252 198.483 121.988 198.135 121.808C197.799 121.628 197.427 121.538 197.019 121.538C196.671 121.538 196.329 121.628 195.993 121.808C195.669 121.976 195.399 122.234 195.183 122.582C194.979 122.93 194.877 123.356 194.877 123.86C194.877 124.364 194.979 124.79 195.183 125.138C195.399 125.486 195.669 125.75 195.993 125.93C196.329 126.098 196.671 126.182 197.019 126.182C197.427 126.182 197.799 126.092 198.135 125.912C198.483 125.732 198.759 125.468 198.963 125.12C199.167 124.772 199.269 124.352 199.269 123.86ZM204.895 125.534C204.895 125.762 204.955 125.954 205.075 126.11C205.195 126.254 205.357 126.368 205.561 126.452C205.777 126.524 206.011 126.56 206.263 126.56C206.635 126.56 206.977 126.5 207.289 126.38C207.601 126.26 207.847 126.062 208.027 125.786C208.207 125.51 208.297 125.144 208.297 124.688L208.585 125.66C208.585 126.188 208.447 126.644 208.171 127.028C207.895 127.4 207.523 127.688 207.055 127.892C206.599 128.084 206.083 128.18 205.507 128.18C204.943 128.18 204.439 128.084 203.995 127.892C203.551 127.7 203.197 127.418 202.933 127.046C202.681 126.662 202.555 126.194 202.555 125.642C202.555 125.078 202.699 124.598 202.987 124.202C203.287 123.794 203.701 123.482 204.229 123.266C204.769 123.05 205.399 122.942 206.119 122.942C206.563 122.942 206.977 122.996 207.361 123.104C207.745 123.212 208.069 123.338 208.333 123.482C208.597 123.626 208.783 123.764 208.891 123.896V125.03C208.555 124.778 208.207 124.592 207.847 124.472C207.487 124.352 207.061 124.292 206.569 124.292C206.209 124.292 205.903 124.346 205.651 124.454C205.399 124.562 205.207 124.706 205.075 124.886C204.955 125.066 204.895 125.282 204.895 125.534ZM204.157 122.078L203.311 120.476C203.731 120.248 204.247 120.032 204.859 119.828C205.471 119.612 206.149 119.504 206.893 119.504C207.613 119.504 208.243 119.606 208.783 119.81C209.335 120.014 209.767 120.314 210.079 120.71C210.391 121.094 210.547 121.568 210.547 122.132V128H208.297V122.51C208.297 122.138 208.153 121.85 207.865 121.646C207.577 121.43 207.205 121.322 206.749 121.322C206.353 121.322 205.981 121.37 205.633 121.466C205.297 121.55 204.997 121.652 204.733 121.772C204.481 121.892 204.289 121.994 204.157 122.078ZM216.043 117.92H218.257V129.8H216.043V117.92ZM211.975 123.86C211.975 122.996 212.179 122.24 212.587 121.592C213.007 120.944 213.607 120.44 214.387 120.08C215.167 119.72 216.091 119.54 217.159 119.54C218.227 119.54 219.151 119.72 219.931 120.08C220.711 120.44 221.305 120.944 221.713 121.592C222.133 122.24 222.343 122.996 222.343 123.86C222.343 124.712 222.133 125.468 221.713 126.128C221.305 126.776 220.711 127.28 219.931 127.64C219.151 128 218.227 128.18 217.159 128.18C216.091 128.18 215.167 128 214.387 127.64C213.607 127.28 213.007 126.776 212.587 126.128C212.179 125.468 211.975 124.712 211.975 123.86ZM214.117 123.86C214.117 124.328 214.225 124.742 214.441 125.102C214.669 125.45 215.005 125.726 215.449 125.93C215.905 126.122 216.475 126.218 217.159 126.218C217.843 126.218 218.407 126.122 218.851 125.93C219.295 125.726 219.625 125.45 219.841 125.102C220.069 124.742 220.183 124.328 220.183 123.86C220.183 123.392 220.069 122.978 219.841 122.618C219.625 122.258 219.295 121.982 218.851 121.79C218.407 121.598 217.843 121.502 217.159 121.502C216.475 121.502 215.905 121.598 215.449 121.79C215.005 121.982 214.669 122.258 214.441 122.618C214.225 122.978 214.117 123.392 214.117 123.86ZM231.84 121.772L223.956 128.63L224.046 125.948L231.93 119.09L231.84 121.772ZM226.206 119.72V126.272L223.956 128.63V119.72H226.206ZM231.93 119.09V128H229.68V121.448L231.93 119.09ZM234.057 119.72H236.307V128H234.057V119.72ZM239.349 119.72H242.139L238.575 123.14L242.499 128H239.727L235.785 123.14L239.349 119.72ZM251.484 121.772L243.6 128.63L243.69 125.948L251.574 119.09L251.484 121.772ZM245.85 119.72V126.272L243.6 128.63V119.72H245.85ZM251.574 119.09V128H249.324V121.448L251.574 119.09Z" fill="black"/>
<g filter="url(#filter4_d_7788_3003)">
<rect x="17" y="279" width="395" height="178" rx="15" fill="white"/>
</g>
<g filter="url(#filter5_d_7788_3003)">
<rect x="42" y="385.209" width="162.329" height="44.7761" rx="13" fill="#00A80E" shape-rendering="crispEdges"/>
<path d="M88.4269 400.997H91.0729V413.597H88.4269V400.997ZM95.5549 400.997H98.6149L93.3949 406.901L98.8849 413.597H95.7529L90.3169 406.973L95.5549 400.997ZM98.4157 409.457C98.4157 408.593 98.6137 407.837 99.0097 407.189C99.4177 406.541 99.9637 406.037 100.648 405.677C101.344 405.317 102.13 405.137 103.006 405.137C103.882 405.137 104.662 405.317 105.346 405.677C106.042 406.037 106.588 406.541 106.984 407.189C107.392 407.837 107.596 408.593 107.596 409.457C107.596 410.309 107.392 411.065 106.984 411.725C106.588 412.373 106.042 412.877 105.346 413.237C104.662 413.597 103.882 413.777 103.006 413.777C102.13 413.777 101.344 413.597 100.648 413.237C99.9637 412.877 99.4177 412.373 99.0097 411.725C98.6137 411.065 98.4157 410.309 98.4157 409.457ZM100.792 409.457C100.792 409.925 100.888 410.339 101.08 410.699C101.284 411.047 101.554 411.323 101.89 411.527C102.226 411.719 102.598 411.815 103.006 411.815C103.414 411.815 103.786 411.719 104.122 411.527C104.458 411.323 104.722 411.047 104.914 410.699C105.118 410.339 105.22 409.925 105.22 409.457C105.22 408.989 105.118 408.575 104.914 408.215C104.722 407.855 104.458 407.579 104.122 407.387C103.786 407.195 103.414 407.099 103.006 407.099C102.598 407.099 102.226 407.195 101.89 407.387C101.554 407.579 101.284 407.855 101.08 408.215C100.888 408.575 100.792 408.989 100.792 409.457ZM109.651 410.141V408.323H116.167V410.141H109.651ZM115.033 405.317H117.283V413.597H115.033V405.317ZM108.805 405.317H111.055V413.597H108.805V405.317ZM117.978 405.317H123.486V407.279H117.978V405.317ZM119.616 405.677H121.866V413.597H119.616V405.677ZM125.851 411.131C125.851 411.359 125.911 411.551 126.031 411.707C126.151 411.851 126.313 411.965 126.517 412.049C126.733 412.121 126.967 412.157 127.219 412.157C127.591 412.157 127.933 412.097 128.245 411.977C128.557 411.857 128.803 411.659 128.983 411.383C129.163 411.107 129.253 410.741 129.253 410.285L129.541 411.257C129.541 411.785 129.403 412.241 129.127 412.625C128.851 412.997 128.479 413.285 128.011 413.489C127.555 413.681 127.039 413.777 126.463 413.777C125.899 413.777 125.395 413.681 124.951 413.489C124.507 413.297 124.153 413.015 123.889 412.643C123.637 412.259 123.511 411.791 123.511 411.239C123.511 410.675 123.655 410.195 123.943 409.799C124.243 409.391 124.657 409.079 125.185 408.863C125.725 408.647 126.355 408.539 127.075 408.539C127.519 408.539 127.933 408.593 128.317 408.701C128.701 408.809 129.025 408.935 129.289 409.079C129.553 409.223 129.739 409.361 129.847 409.493V410.627C129.511 410.375 129.163 410.189 128.803 410.069C128.443 409.949 128.017 409.889 127.525 409.889C127.165 409.889 126.859 409.943 126.607 410.051C126.355 410.159 126.163 410.303 126.031 410.483C125.911 410.663 125.851 410.879 125.851 411.131ZM125.113 407.675L124.267 406.073C124.687 405.845 125.203 405.629 125.815 405.425C126.427 405.209 127.105 405.101 127.849 405.101C128.569 405.101 129.199 405.203 129.739 405.407C130.291 405.611 130.723 405.911 131.035 406.307C131.347 406.691 131.503 407.165 131.503 407.729V413.597H129.253V408.107C129.253 407.735 129.109 407.447 128.821 407.243C128.533 407.027 128.161 406.919 127.705 406.919C127.309 406.919 126.937 406.967 126.589 407.063C126.253 407.147 125.953 407.249 125.689 407.369C125.437 407.489 125.245 407.591 125.113 407.675ZM133.076 405.317H135.326V413.597H133.076V405.317ZM138.368 405.317H141.158L137.594 408.737L141.518 413.597H138.746L134.804 408.737L138.368 405.317ZM141.143 405.317H146.651V407.279H141.143V405.317ZM142.781 405.677H145.031V413.597H142.781V405.677ZM155.803 405.317H158.125V413.597H155.803V405.317ZM147.361 405.317H149.701V413.597H147.361V405.317ZM149.107 409.817V408.215H151.681C152.533 408.215 153.247 408.425 153.823 408.845C154.411 409.253 154.705 409.901 154.705 410.789C154.705 411.377 154.573 411.887 154.309 412.319C154.045 412.739 153.685 413.057 153.229 413.273C152.773 413.489 152.257 413.597 151.681 413.597H149.107V411.761H151.339C151.591 411.761 151.801 411.725 151.969 411.653C152.137 411.569 152.263 411.455 152.347 411.311C152.443 411.167 152.491 410.993 152.491 410.789C152.491 410.489 152.389 410.255 152.185 410.087C151.993 409.907 151.711 409.817 151.339 409.817H149.107Z" fill="white"/>
</g>
<path d="M45.536 358.07H50.736V348.934H53.056V358.07H54.688V362.166H52.528V360.134H43.216V348.934H45.536V358.07ZM56.4976 356.918V355.638H60.8976C60.855 355.318 60.7696 355.041 60.6416 354.806C60.5136 354.572 60.3376 354.39 60.1136 354.262C59.8896 354.134 59.607 354.07 59.2656 354.07C58.9136 354.07 58.599 354.15 58.3216 354.31C58.0443 354.46 57.8256 354.684 57.6656 354.982C57.5056 355.281 57.4256 355.633 57.4256 356.038L57.3936 356.454C57.3936 356.977 57.4736 357.409 57.6336 357.75C57.8043 358.081 58.0336 358.326 58.3216 358.486C58.6096 358.636 58.935 358.71 59.2976 358.71C59.6176 358.71 59.9003 358.668 60.1456 358.582C60.391 358.497 60.6096 358.374 60.8016 358.214C60.9936 358.054 61.1536 357.868 61.2816 357.654L63.0896 358.214C62.8443 358.63 62.5563 358.998 62.2256 359.318C61.895 359.628 61.4896 359.868 61.0096 360.038C60.5403 360.209 59.9643 360.294 59.2816 360.294C58.4603 360.294 57.751 360.129 57.1536 359.798C56.5563 359.468 56.0976 359.014 55.7776 358.438C55.4683 357.852 55.3136 357.19 55.3136 356.454C55.3136 356.316 55.319 356.182 55.3296 356.054C55.3403 355.926 55.3563 355.798 55.3776 355.67C55.4843 355.062 55.703 354.529 56.0336 354.07C56.3643 353.612 56.807 353.254 57.3616 352.998C57.9163 352.742 58.5616 352.614 59.2976 352.614C60.1083 352.614 60.7963 352.769 61.3616 353.078C61.9376 353.377 62.375 353.804 62.6736 354.358C62.9723 354.913 63.1216 355.58 63.1216 356.358C63.1216 356.422 63.1216 356.502 63.1216 356.598C63.1216 356.694 63.111 356.801 63.0896 356.918H56.4976ZM64.9879 357.062V355.446H70.7799V357.062H64.9879ZM69.7719 352.774H71.7719V360.134H69.7719V352.774ZM64.2359 352.774H66.2359V360.134H64.2359V352.774ZM74.806 357.942C74.806 358.145 74.8593 358.316 74.966 358.454C75.0727 358.582 75.2167 358.684 75.398 358.758C75.59 358.822 75.798 358.854 76.022 358.854C76.3527 358.854 76.6567 358.801 76.934 358.694C77.2113 358.588 77.43 358.412 77.59 358.166C77.75 357.921 77.83 357.596 77.83 357.19L78.086 358.054C78.086 358.524 77.9633 358.929 77.718 359.27C77.4727 359.601 77.142 359.857 76.726 360.038C76.3207 360.209 75.862 360.294 75.35 360.294C74.8487 360.294 74.4007 360.209 74.006 360.038C73.6113 359.868 73.2967 359.617 73.062 359.286C72.838 358.945 72.726 358.529 72.726 358.038C72.726 357.537 72.854 357.11 73.11 356.758C73.3767 356.396 73.7447 356.118 74.214 355.926C74.694 355.734 75.254 355.638 75.894 355.638C76.2887 355.638 76.6567 355.686 76.998 355.782C77.3393 355.878 77.6273 355.99 77.862 356.118C78.0967 356.246 78.262 356.369 78.358 356.486V357.494C78.0593 357.27 77.75 357.105 77.43 356.998C77.11 356.892 76.7313 356.838 76.294 356.838C75.974 356.838 75.702 356.886 75.478 356.982C75.254 357.078 75.0833 357.206 74.966 357.366C74.8593 357.526 74.806 357.718 74.806 357.942ZM74.15 354.87L73.398 353.446C73.7713 353.244 74.23 353.052 74.774 352.87C75.318 352.678 75.9207 352.582 76.582 352.582C77.222 352.582 77.782 352.673 78.262 352.854C78.7527 353.036 79.1367 353.302 79.414 353.654C79.6913 353.996 79.83 354.417 79.83 354.918V360.134H77.83V355.254C77.83 354.924 77.702 354.668 77.446 354.486C77.19 354.294 76.8593 354.198 76.454 354.198C76.102 354.198 75.7713 354.241 75.462 354.326C75.1633 354.401 74.8967 354.492 74.662 354.598C74.438 354.705 74.2673 354.796 74.15 354.87ZM81.4679 359.19C81.4679 358.828 81.5905 358.524 81.8359 358.278C82.0919 358.022 82.4065 357.894 82.7799 357.894C83.1639 357.894 83.4785 358.022 83.7239 358.278C83.9692 358.524 84.0919 358.828 84.0919 359.19C84.0919 359.532 83.9692 359.83 83.7239 360.086C83.4785 360.342 83.1639 360.47 82.7799 360.47C82.4065 360.47 82.0919 360.342 81.8359 360.086C81.5905 359.83 81.4679 359.532 81.4679 359.19ZM81.4679 353.174C81.4679 352.822 81.5905 352.518 81.8359 352.262C82.0919 352.006 82.4065 351.878 82.7799 351.878C83.1639 351.878 83.4785 352.006 83.7239 352.262C83.9692 352.518 84.0919 352.822 84.0919 353.174C84.0919 353.526 83.9692 353.83 83.7239 354.086C83.4785 354.342 83.1639 354.47 82.7799 354.47C82.4065 354.47 82.0919 354.342 81.8359 354.086C81.5905 353.83 81.4679 353.526 81.4679 353.174ZM92.1756 356.278C92.1756 356.705 92.2663 357.078 92.4476 357.398C92.629 357.708 92.8743 357.953 93.1836 358.134C93.5036 358.305 93.861 358.39 94.2556 358.39C94.6503 358.39 95.0023 358.305 95.3116 358.134C95.6316 357.953 95.8823 357.708 96.0636 357.398C96.245 357.078 96.3356 356.705 96.3356 356.278C96.3356 355.862 96.245 355.494 96.0636 355.174C95.8823 354.844 95.6316 354.593 95.3116 354.422C95.0023 354.241 94.6503 354.15 94.2556 354.15C93.861 354.15 93.5036 354.241 93.1836 354.422C92.8743 354.593 92.629 354.844 92.4476 355.174C92.2663 355.494 92.1756 355.862 92.1756 356.278ZM94.4476 348.966H97.3436L93.7596 353.19L93.3436 353.334C93.621 353.046 93.893 352.86 94.1596 352.774C94.437 352.689 94.773 352.646 95.1676 352.646C95.5943 352.646 96.0103 352.732 96.4156 352.902C96.8316 353.073 97.1996 353.318 97.5196 353.638C97.8396 353.958 98.0956 354.342 98.2876 354.79C98.4796 355.238 98.5756 355.734 98.5756 356.278C98.5756 357.153 98.3783 357.894 97.9836 358.502C97.5996 359.11 97.0823 359.574 96.4316 359.894C95.781 360.204 95.0556 360.358 94.2556 360.358C93.4556 360.358 92.7303 360.204 92.0796 359.894C91.429 359.574 90.9063 359.11 90.5116 358.502C90.1276 357.894 89.9356 357.153 89.9356 356.278C89.9356 355.724 90.0423 355.212 90.2556 354.742C90.469 354.262 90.7356 353.82 91.0556 353.414L94.4476 348.966ZM101.754 354.534C101.754 355.1 101.807 355.617 101.914 356.086C102.021 356.545 102.175 356.945 102.378 357.286C102.581 357.617 102.821 357.873 103.098 358.054C103.375 358.236 103.685 358.326 104.026 358.326C104.378 358.326 104.693 358.236 104.97 358.054C105.247 357.873 105.487 357.617 105.69 357.286C105.893 356.945 106.047 356.545 106.154 356.086C106.261 355.617 106.314 355.1 106.314 354.534C106.314 353.969 106.261 353.457 106.154 352.998C106.047 352.529 105.893 352.129 105.69 351.798C105.487 351.457 105.247 351.196 104.97 351.014C104.693 350.833 104.378 350.742 104.026 350.742C103.685 350.742 103.375 350.833 103.098 351.014C102.821 351.196 102.581 351.457 102.378 351.798C102.175 352.129 102.021 352.529 101.914 352.998C101.807 353.457 101.754 353.969 101.754 354.534ZM99.53 354.534C99.53 353.35 99.7167 352.326 100.09 351.462C100.474 350.598 101.002 349.932 101.674 349.462C102.357 348.982 103.141 348.742 104.026 348.742C104.943 348.742 105.738 348.982 106.41 349.462C107.082 349.932 107.605 350.598 107.978 351.462C108.351 352.326 108.538 353.35 108.538 354.534C108.538 355.718 108.351 356.742 107.978 357.606C107.605 358.47 107.082 359.142 106.41 359.622C105.738 360.092 104.943 360.326 104.026 360.326C103.141 360.326 102.357 360.092 101.674 359.622C101.002 359.142 100.474 358.47 100.09 357.606C99.7167 356.742 99.53 355.718 99.53 354.534ZM111.555 354.534C111.555 355.1 111.609 355.617 111.715 356.086C111.822 356.545 111.977 356.945 112.179 357.286C112.382 357.617 112.622 357.873 112.899 358.054C113.177 358.236 113.486 358.326 113.827 358.326C114.179 358.326 114.494 358.236 114.771 358.054C115.049 357.873 115.289 357.617 115.491 357.286C115.694 356.945 115.849 356.545 115.955 356.086C116.062 355.617 116.115 355.1 116.115 354.534C116.115 353.969 116.062 353.457 115.955 352.998C115.849 352.529 115.694 352.129 115.491 351.798C115.289 351.457 115.049 351.196 114.771 351.014C114.494 350.833 114.179 350.742 113.827 350.742C113.486 350.742 113.177 350.833 112.899 351.014C112.622 351.196 112.382 351.457 112.179 351.798C111.977 352.129 111.822 352.529 111.715 352.998C111.609 353.457 111.555 353.969 111.555 354.534ZM109.331 354.534C109.331 353.35 109.518 352.326 109.891 351.462C110.275 350.598 110.803 349.932 111.475 349.462C112.158 348.982 112.942 348.742 113.827 348.742C114.745 348.742 115.539 348.982 116.211 349.462C116.883 349.932 117.406 350.598 117.779 351.462C118.153 352.326 118.339 353.35 118.339 354.534C118.339 355.718 118.153 356.742 117.779 357.606C117.406 358.47 116.883 359.142 116.211 359.622C115.539 360.092 114.745 360.326 113.827 360.326C112.942 360.326 112.158 360.092 111.475 359.622C110.803 359.142 110.275 358.47 109.891 357.606C109.518 356.742 109.331 355.718 109.331 354.534ZM121.357 354.534C121.357 355.1 121.41 355.617 121.517 356.086C121.623 356.545 121.778 356.945 121.981 357.286C122.183 357.617 122.423 357.873 122.701 358.054C122.978 358.236 123.287 358.326 123.629 358.326C123.981 358.326 124.295 358.236 124.573 358.054C124.85 357.873 125.09 357.617 125.293 357.286C125.495 356.945 125.65 356.545 125.757 356.086C125.863 355.617 125.917 355.1 125.917 354.534C125.917 353.969 125.863 353.457 125.757 352.998C125.65 352.529 125.495 352.129 125.293 351.798C125.09 351.457 124.85 351.196 124.573 351.014C124.295 350.833 123.981 350.742 123.629 350.742C123.287 350.742 122.978 350.833 122.701 351.014C122.423 351.196 122.183 351.457 121.981 351.798C121.778 352.129 121.623 352.529 121.517 352.998C121.41 353.457 121.357 353.969 121.357 354.534ZM119.133 354.534C119.133 353.35 119.319 352.326 119.693 351.462C120.077 350.598 120.605 349.932 121.277 349.462C121.959 348.982 122.743 348.742 123.629 348.742C124.546 348.742 125.341 348.982 126.013 349.462C126.685 349.932 127.207 350.598 127.581 351.462C127.954 352.326 128.141 353.35 128.141 354.534C128.141 355.718 127.954 356.742 127.581 357.606C127.207 358.47 126.685 359.142 126.013 359.622C125.341 360.092 124.546 360.326 123.629 360.326C122.743 360.326 121.959 360.092 121.277 359.622C120.605 359.142 120.077 358.47 119.693 357.606C119.319 356.742 119.133 355.718 119.133 354.534ZM131.158 354.534C131.158 355.1 131.211 355.617 131.318 356.086C131.424 356.545 131.579 356.945 131.782 357.286C131.984 357.617 132.224 357.873 132.502 358.054C132.779 358.236 133.088 358.326 133.43 358.326C133.782 358.326 134.096 358.236 134.374 358.054C134.651 357.873 134.891 357.617 135.094 357.286C135.296 356.945 135.451 356.545 135.558 356.086C135.664 355.617 135.718 355.1 135.718 354.534C135.718 353.969 135.664 353.457 135.558 352.998C135.451 352.529 135.296 352.129 135.094 351.798C134.891 351.457 134.651 351.196 134.374 351.014C134.096 350.833 133.782 350.742 133.43 350.742C133.088 350.742 132.779 350.833 132.502 351.014C132.224 351.196 131.984 351.457 131.782 351.798C131.579 352.129 131.424 352.529 131.318 352.998C131.211 353.457 131.158 353.969 131.158 354.534ZM128.934 354.534C128.934 353.35 129.12 352.326 129.494 351.462C129.878 350.598 130.406 349.932 131.078 349.462C131.76 348.982 132.544 348.742 133.43 348.742C134.347 348.742 135.142 348.982 135.814 349.462C136.486 349.932 137.008 350.598 137.382 351.462C137.755 352.326 137.942 353.35 137.942 354.534C137.942 355.718 137.755 356.742 137.382 357.606C137.008 358.47 136.486 359.142 135.814 359.622C135.142 360.092 134.347 360.326 133.43 360.326C132.544 360.326 131.76 360.092 131.078 359.622C130.406 359.142 129.878 358.47 129.494 357.606C129.12 356.742 128.934 355.718 128.934 354.534ZM145.468 363.654H143.388V352.774H145.468V363.654ZM151.516 356.454C151.516 357.286 151.351 357.996 151.02 358.582C150.689 359.169 150.252 359.612 149.708 359.91C149.175 360.209 148.599 360.358 147.98 360.358C147.351 360.358 146.801 360.198 146.332 359.878C145.873 359.558 145.516 359.105 145.26 358.518C145.015 357.932 144.892 357.244 144.892 356.454C144.892 355.654 145.015 354.966 145.26 354.39C145.516 353.804 145.873 353.35 146.332 353.03C146.801 352.71 147.351 352.55 147.98 352.55C148.599 352.55 149.175 352.7 149.708 352.998C150.252 353.297 150.689 353.74 151.02 354.326C151.351 354.902 151.516 355.612 151.516 356.454ZM149.372 356.454C149.372 356.017 149.281 355.644 149.1 355.334C148.919 355.025 148.673 354.79 148.364 354.63C148.065 354.47 147.735 354.39 147.372 354.39C147.063 354.39 146.759 354.47 146.46 354.63C146.172 354.78 145.932 355.009 145.74 355.318C145.559 355.628 145.468 356.006 145.468 356.454C145.468 356.902 145.559 357.281 145.74 357.59C145.932 357.9 146.172 358.134 146.46 358.294C146.759 358.444 147.063 358.518 147.372 358.518C147.735 358.518 148.065 358.438 148.364 358.278C148.673 358.118 148.919 357.884 149.1 357.574C149.281 357.265 149.372 356.892 149.372 356.454ZM159.355 352.774L154.555 363.654H152.427L154.283 359.398L151.227 352.774H153.531L155.899 358.63L154.875 358.598L157.195 352.774H159.355ZM163.564 354.358L163.692 352.614C164.471 352.614 165.153 352.78 165.74 353.11C166.327 353.441 166.791 353.894 167.132 354.47C167.473 355.046 167.644 355.708 167.644 356.454C167.644 357.19 167.473 357.852 167.132 358.438C166.791 359.014 166.311 359.468 165.692 359.798C165.084 360.129 164.375 360.294 163.564 360.294C162.753 360.294 162.028 360.118 161.388 359.766C160.759 359.404 160.257 358.865 159.884 358.15C159.521 357.436 159.34 356.55 159.34 355.494L161.58 356.454C161.58 356.87 161.665 357.238 161.836 357.558C162.017 357.868 162.257 358.113 162.556 358.294C162.855 358.465 163.191 358.55 163.564 358.55C163.927 358.55 164.257 358.465 164.556 358.294C164.855 358.113 165.089 357.868 165.26 357.558C165.431 357.238 165.516 356.87 165.516 356.454C165.516 356.038 165.431 355.67 165.26 355.35C165.089 355.03 164.855 354.785 164.556 354.614C164.257 354.444 163.927 354.358 163.564 354.358ZM160.668 356.454C160.668 355.857 160.737 355.324 160.876 354.854C161.015 354.374 161.217 353.969 161.484 353.638C161.761 353.308 162.081 353.057 162.444 352.886C162.817 352.705 163.233 352.614 163.692 352.614L163.564 354.358C163.329 354.358 163.095 354.406 162.86 354.502C162.625 354.588 162.412 354.721 162.22 354.902C162.028 355.084 161.873 355.302 161.756 355.558C161.639 355.814 161.58 356.113 161.58 356.454H160.668ZM159.34 355.494C159.34 354.492 159.431 353.606 159.612 352.838C159.793 352.07 160.113 351.414 160.572 350.87C161.041 350.326 161.697 349.894 162.54 349.574C163.265 349.286 163.815 348.993 164.188 348.694C164.572 348.385 164.801 348.038 164.876 347.654H166.876C166.823 348.124 166.652 348.566 166.364 348.982C166.076 349.398 165.697 349.766 165.228 350.086C164.769 350.406 164.247 350.673 163.66 350.886C163.009 351.121 162.497 351.436 162.124 351.83C161.761 352.225 161.505 352.668 161.356 353.158C161.217 353.649 161.148 354.161 161.148 354.694L161.42 356.406L159.34 355.494Z" fill="#596574"/>
<path d="M45.294 319.61V318.44H47.328C47.7 318.44 48.024 318.38 48.3 318.26C48.576 318.14 48.786 317.966 48.93 317.738C49.086 317.51 49.164 317.24 49.164 316.928C49.164 316.448 48.996 316.082 48.66 315.83C48.336 315.578 47.892 315.452 47.328 315.452H45.942V323.948H47.598C48.03 323.948 48.42 323.888 48.768 323.768C49.116 323.636 49.386 323.432 49.578 323.156C49.782 322.88 49.884 322.526 49.884 322.094C49.884 321.782 49.824 321.518 49.704 321.302C49.596 321.074 49.434 320.888 49.218 320.744C49.014 320.588 48.774 320.48 48.498 320.42C48.222 320.348 47.922 320.312 47.598 320.312H45.294V318.908H47.832C48.444 318.908 49.026 318.974 49.578 319.106C50.142 319.238 50.646 319.448 51.09 319.736C51.534 320.012 51.882 320.372 52.134 320.816C52.398 321.26 52.53 321.794 52.53 322.418C52.53 323.246 52.332 323.924 51.936 324.452C51.552 324.98 51.006 325.37 50.298 325.622C49.59 325.874 48.768 326 47.832 326H43.368V313.4H47.562C48.402 313.4 49.14 313.52 49.776 313.76C50.412 313.988 50.91 314.336 51.27 314.804C51.63 315.272 51.81 315.866 51.81 316.586C51.81 317.222 51.63 317.768 51.27 318.224C50.91 318.68 50.412 319.028 49.776 319.268C49.14 319.496 48.402 319.61 47.562 319.61H45.294ZM55.1015 322.382V320.942H60.0515C60.0035 320.582 59.9075 320.27 59.7635 320.006C59.6195 319.742 59.4215 319.538 59.1695 319.394C58.9175 319.25 58.5995 319.178 58.2155 319.178C57.8195 319.178 57.4655 319.268 57.1535 319.448C56.8415 319.616 56.5955 319.868 56.4155 320.204C56.2355 320.54 56.1455 320.936 56.1455 321.392L56.1095 321.86C56.1095 322.448 56.1995 322.934 56.3795 323.318C56.5715 323.69 56.8295 323.966 57.1535 324.146C57.4775 324.314 57.8435 324.398 58.2515 324.398C58.6115 324.398 58.9295 324.35 59.2055 324.254C59.4815 324.158 59.7275 324.02 59.9435 323.84C60.1595 323.66 60.3395 323.45 60.4835 323.21L62.5175 323.84C62.2415 324.308 61.9175 324.722 61.5455 325.082C61.1735 325.43 60.7175 325.7 60.1775 325.892C59.6495 326.084 59.0015 326.18 58.2335 326.18C57.3095 326.18 56.5115 325.994 55.8395 325.622C55.1675 325.25 54.6515 324.74 54.2915 324.092C53.9435 323.432 53.7695 322.688 53.7695 321.86C53.7695 321.704 53.7755 321.554 53.7875 321.41C53.7995 321.266 53.8175 321.122 53.8415 320.978C53.9615 320.294 54.2075 319.694 54.5795 319.178C54.9515 318.662 55.4495 318.26 56.0735 317.972C56.6975 317.684 57.4235 317.54 58.2515 317.54C59.1635 317.54 59.9375 317.714 60.5735 318.062C61.2215 318.398 61.7135 318.878 62.0495 319.502C62.3855 320.126 62.5535 320.876 62.5535 321.752C62.5535 321.824 62.5535 321.914 62.5535 322.022C62.5535 322.13 62.5415 322.25 62.5175 322.382H55.1015ZM68.397 319.502L68.541 317.54C69.417 317.54 70.185 317.726 70.845 318.098C71.505 318.47 72.027 318.98 72.411 319.628C72.795 320.276 72.987 321.02 72.987 321.86C72.987 322.688 72.795 323.432 72.411 324.092C72.027 324.74 71.487 325.25 70.791 325.622C70.107 325.994 69.309 326.18 68.397 326.18C67.485 326.18 66.669 325.982 65.949 325.586C65.241 325.178 64.677 324.572 64.257 323.768C63.849 322.964 63.645 321.968 63.645 320.78L66.165 321.86C66.165 322.328 66.261 322.742 66.453 323.102C66.657 323.45 66.927 323.726 67.263 323.93C67.599 324.122 67.977 324.218 68.397 324.218C68.805 324.218 69.177 324.122 69.513 323.93C69.849 323.726 70.113 323.45 70.305 323.102C70.497 322.742 70.593 322.328 70.593 321.86C70.593 321.392 70.497 320.978 70.305 320.618C70.113 320.258 69.849 319.982 69.513 319.79C69.177 319.598 68.805 319.502 68.397 319.502ZM65.139 321.86C65.139 321.188 65.217 320.588 65.373 320.06C65.529 319.52 65.757 319.064 66.057 318.692C66.369 318.32 66.729 318.038 67.137 317.846C67.557 317.642 68.025 317.54 68.541 317.54L68.397 319.502C68.133 319.502 67.869 319.556 67.605 319.664C67.341 319.76 67.101 319.91 66.885 320.114C66.669 320.318 66.495 320.564 66.363 320.852C66.231 321.14 66.165 321.476 66.165 321.86H65.139ZM63.645 320.78C63.645 319.652 63.747 318.656 63.951 317.792C64.155 316.928 64.515 316.19 65.031 315.578C65.559 314.966 66.297 314.48 67.245 314.12C68.061 313.796 68.679 313.466 69.099 313.13C69.531 312.782 69.789 312.392 69.873 311.96H72.123C72.063 312.488 71.871 312.986 71.547 313.454C71.223 313.922 70.797 314.336 70.269 314.696C69.753 315.056 69.165 315.356 68.505 315.596C67.773 315.86 67.197 316.214 66.777 316.658C66.369 317.102 66.081 317.6 65.913 318.152C65.757 318.704 65.679 319.28 65.679 319.88L65.985 321.806L63.645 320.78ZM84.8071 320.744L82.6831 325.46L80.3791 325.082L84.8071 317.09L89.2531 325.082L86.9311 325.46L84.8071 320.744ZM88.0291 326H81.6751V327.62H79.3711V324.11H90.2431V327.62H88.0291V326ZM99.9712 319.772L92.0872 326.63L92.1772 323.948L100.061 317.09L99.9712 319.772ZM94.3372 317.72V324.272L92.0872 326.63V317.72H94.3372ZM100.061 317.09V326H97.8112V319.448L100.061 317.09ZM105.806 321.86V321.014C106.238 321.014 106.55 320.93 106.742 320.762C106.934 320.594 107.03 320.39 107.03 320.15C107.03 319.886 106.934 319.682 106.742 319.538C106.55 319.382 106.298 319.304 105.986 319.304C105.722 319.304 105.5 319.352 105.32 319.448C105.14 319.544 105.002 319.676 104.906 319.844C104.81 320 104.762 320.174 104.762 320.366H102.602C102.602 319.814 102.74 319.328 103.016 318.908C103.304 318.476 103.7 318.14 104.204 317.9C104.708 317.66 105.296 317.54 105.968 317.54C106.592 317.54 107.144 317.642 107.624 317.846C108.116 318.05 108.5 318.332 108.776 318.692C109.064 319.04 109.208 319.436 109.208 319.88C109.208 320.48 108.92 320.972 108.344 321.356C107.78 321.728 106.934 321.896 105.806 321.86ZM105.932 326.18C104.816 326.18 103.934 325.91 103.286 325.37C102.638 324.83 102.266 324.116 102.17 323.228H104.402C104.486 323.6 104.648 323.9 104.888 324.128C105.14 324.344 105.482 324.452 105.914 324.452C106.214 324.452 106.472 324.41 106.688 324.326C106.904 324.242 107.072 324.122 107.192 323.966C107.312 323.798 107.372 323.606 107.372 323.39C107.372 323.162 107.312 322.97 107.192 322.814C107.072 322.646 106.892 322.52 106.652 322.436C106.424 322.352 106.142 322.31 105.806 322.31V321.32C106.982 321.284 107.9 321.464 108.56 321.86C109.232 322.256 109.568 322.826 109.568 323.57C109.568 324.11 109.406 324.578 109.082 324.974C108.77 325.358 108.338 325.658 107.786 325.874C107.234 326.078 106.616 326.18 105.932 326.18ZM112.999 323.534C112.999 323.762 113.059 323.954 113.179 324.11C113.299 324.254 113.461 324.368 113.665 324.452C113.881 324.524 114.115 324.56 114.367 324.56C114.739 324.56 115.081 324.5 115.393 324.38C115.705 324.26 115.951 324.062 116.131 323.786C116.311 323.51 116.401 323.144 116.401 322.688L116.689 323.66C116.689 324.188 116.551 324.644 116.275 325.028C115.999 325.4 115.627 325.688 115.159 325.892C114.703 326.084 114.187 326.18 113.611 326.18C113.047 326.18 112.543 326.084 112.099 325.892C111.655 325.7 111.301 325.418 111.037 325.046C110.785 324.662 110.659 324.194 110.659 323.642C110.659 323.078 110.803 322.598 111.091 322.202C111.391 321.794 111.805 321.482 112.333 321.266C112.873 321.05 113.503 320.942 114.223 320.942C114.667 320.942 115.081 320.996 115.465 321.104C115.849 321.212 116.173 321.338 116.437 321.482C116.701 321.626 116.887 321.764 116.995 321.896V323.03C116.659 322.778 116.311 322.592 115.951 322.472C115.591 322.352 115.165 322.292 114.673 322.292C114.313 322.292 114.007 322.346 113.755 322.454C113.503 322.562 113.311 322.706 113.179 322.886C113.059 323.066 112.999 323.282 112.999 323.534ZM112.261 320.078L111.415 318.476C111.835 318.248 112.351 318.032 112.963 317.828C113.575 317.612 114.253 317.504 114.997 317.504C115.717 317.504 116.347 317.606 116.887 317.81C117.439 318.014 117.871 318.314 118.183 318.71C118.495 319.094 118.651 319.568 118.651 320.132V326H116.401V320.51C116.401 320.138 116.257 319.85 115.969 319.646C115.681 319.43 115.309 319.322 114.853 319.322C114.457 319.322 114.085 319.37 113.737 319.466C113.401 319.55 113.101 319.652 112.837 319.772C112.585 319.892 112.393 319.994 112.261 320.078ZM128.576 319.772L120.692 326.63L120.782 323.948L128.666 317.09L128.576 319.772ZM122.942 317.72V324.272L120.692 326.63V317.72H122.942ZM128.666 317.09V326H126.416V319.448L128.666 317.09ZM121.862 313.49H123.482C123.482 313.682 123.53 313.868 123.626 314.048C123.722 314.216 123.866 314.36 124.058 314.48C124.25 314.588 124.49 314.642 124.778 314.642C125.078 314.642 125.324 314.588 125.516 314.48C125.708 314.36 125.846 314.216 125.93 314.048C126.026 313.868 126.074 313.682 126.074 313.49H127.712C127.712 313.946 127.598 314.378 127.37 314.786C127.142 315.182 126.812 315.5 126.38 315.74C125.948 315.968 125.414 316.082 124.778 316.082C124.154 316.082 123.62 315.968 123.176 315.74C122.744 315.5 122.414 315.182 122.186 314.786C121.97 314.378 121.862 313.946 121.862 313.49ZM131.692 322.544V320.726H138.208V322.544H131.692ZM137.074 317.72H139.324V326H137.074V317.72ZM130.846 317.72H133.096V326H130.846V317.72ZM142.216 322.382V320.942H147.166C147.118 320.582 147.022 320.27 146.878 320.006C146.734 319.742 146.536 319.538 146.284 319.394C146.032 319.25 145.714 319.178 145.33 319.178C144.934 319.178 144.58 319.268 144.268 319.448C143.956 319.616 143.71 319.868 143.53 320.204C143.35 320.54 143.26 320.936 143.26 321.392L143.224 321.86C143.224 322.448 143.314 322.934 143.494 323.318C143.686 323.69 143.944 323.966 144.268 324.146C144.592 324.314 144.958 324.398 145.366 324.398C145.726 324.398 146.044 324.35 146.32 324.254C146.596 324.158 146.842 324.02 147.058 323.84C147.274 323.66 147.454 323.45 147.598 323.21L149.632 323.84C149.356 324.308 149.032 324.722 148.66 325.082C148.288 325.43 147.832 325.7 147.292 325.892C146.764 326.084 146.116 326.18 145.348 326.18C144.424 326.18 143.626 325.994 142.954 325.622C142.282 325.25 141.766 324.74 141.406 324.092C141.058 323.432 140.884 322.688 140.884 321.86C140.884 321.704 140.89 321.554 140.902 321.41C140.914 321.266 140.932 321.122 140.956 320.978C141.076 320.294 141.322 319.694 141.694 319.178C142.066 318.662 142.564 318.26 143.188 317.972C143.812 317.684 144.538 317.54 145.366 317.54C146.278 317.54 147.052 317.714 147.688 318.062C148.336 318.398 148.828 318.878 149.164 319.502C149.5 320.126 149.668 320.876 149.668 321.752C149.668 321.824 149.668 321.914 149.668 322.022C149.668 322.13 149.656 322.25 149.632 322.382H142.216ZM153.567 329.96H151.227V317.72H153.567V329.96ZM160.371 321.86C160.371 322.796 160.185 323.594 159.813 324.254C159.441 324.914 158.949 325.412 158.337 325.748C157.737 326.084 157.089 326.252 156.393 326.252C155.685 326.252 155.067 326.072 154.539 325.712C154.023 325.352 153.621 324.842 153.333 324.182C153.057 323.522 152.919 322.748 152.919 321.86C152.919 320.96 153.057 320.186 153.333 319.538C153.621 318.878 154.023 318.368 154.539 318.008C155.067 317.648 155.685 317.468 156.393 317.468C157.089 317.468 157.737 317.636 158.337 317.972C158.949 318.308 159.441 318.806 159.813 319.466C160.185 320.114 160.371 320.912 160.371 321.86ZM157.959 321.86C157.959 321.368 157.857 320.948 157.653 320.6C157.449 320.252 157.173 319.988 156.825 319.808C156.489 319.628 156.117 319.538 155.709 319.538C155.361 319.538 155.019 319.628 154.683 319.808C154.359 319.976 154.089 320.234 153.873 320.582C153.669 320.93 153.567 321.356 153.567 321.86C153.567 322.364 153.669 322.79 153.873 323.138C154.089 323.486 154.359 323.75 154.683 323.93C155.019 324.098 155.361 324.182 155.709 324.182C156.117 324.182 156.489 324.092 156.825 323.912C157.173 323.732 157.449 323.468 157.653 323.12C157.857 322.772 157.959 322.352 157.959 321.86Z" fill="black"/>
<g filter="url(#filter6_d_7788_3003)">
<rect x="17" y="477" width="395" height="178" rx="15" fill="white"/>
</g>
</g>
</g>
<rect x="0.5" y="0.5" width="429" height="469" rx="20.5" stroke="#F1F1F1"/>
<defs>
<filter id="filter0_d_7788_3003" x="-2" y="126" width="433" height="216" filterUnits="userSpaceOnUse" color-interpolation-filters="sRGB">
<feFlood flood-opacity="0" result="BackgroundImageFix"/>
<feColorMatrix in="SourceAlpha" type="matrix" values="0 0 0 0 0 0 0 0 0 0 0 0 0 0 0 0 0 0 127 0" result="hardAlpha"/>
<feOffset dy="4"/>
<feGaussianBlur stdDeviation="9.5"/>
<feComposite in2="hardAlpha" operator="out"/>
<feColorMatrix type="matrix" values="0 0 0 0 0.904167 0 0 0 0 0.904167 0 0 0 0 0.904167 0 0 0 0.47 0"/>
<feBlend mode="normal" in2="BackgroundImageFix" result="effect1_dropShadow_7788_3003"/>
<feBlend mode="normal" in="SourceGraphic" in2="effect1_dropShadow_7788_3003" result="shape"/>
</filter>
<filter id="filter1_f_7788_3003" x="-82" y="-30" width="594" height="361" filterUnits="userSpaceOnUse" color-interpolation-filters="sRGB">
<feFlood flood-opacity="0" result="BackgroundImageFix"/>
<feBlend mode="normal" in="SourceGraphic" in2="BackgroundImageFix" result="shape"/>
<feGaussianBlur stdDeviation="41.5" result="effect1_foregroundBlur_7788_3003"/>
</filter>
<filter id="filter2_d_7788_3003" x="-2" y="66" width="433" height="216" filterUnits="userSpaceOnUse" color-interpolation-filters="sRGB">
<feFlood flood-opacity="0" result="BackgroundImageFix"/>
<feColorMatrix in="SourceAlpha" type="matrix" values="0 0 0 0 0 0 0 0 0 0 0 0 0 0 0 0 0 0 127 0" result="hardAlpha"/>
<feOffset dy="4"/>
<feGaussianBlur stdDeviation="9.5"/>
<feComposite in2="hardAlpha" operator="out"/>
<feColorMatrix type="matrix" values="0 0 0 0 0.904167 0 0 0 0 0.904167 0 0 0 0 0.904167 0 0 0 0.47 0"/>
<feBlend mode="normal" in2="BackgroundImageFix" result="effect1_dropShadow_7788_3003"/>
<feBlend mode="normal" in="SourceGraphic" in2="effect1_dropShadow_7788_3003" result="shape"/>
</filter>
<filter id="filter3_d_7788_3003" x="23" y="172.209" width="200.328" height="82.7761" filterUnits="userSpaceOnUse" color-interpolation-filters="sRGB">
<feFlood flood-opacity="0" result="BackgroundImageFix"/>
<feColorMatrix in="SourceAlpha" type="matrix" values="0 0 0 0 0 0 0 0 0 0 0 0 0 0 0 0 0 0 127 0" result="hardAlpha"/>
<feOffset dy="4"/>
<feGaussianBlur stdDeviation="9.5"/>
<feComposite in2="hardAlpha" operator="out"/>
<feColorMatrix type="matrix" values="0 0 0 0 0.8125 0 0 0 0 1 0 0 0 0 0.81875 0 0 0 1 0"/>
<feBlend mode="normal" in2="BackgroundImageFix" result="effect1_dropShadow_7788_3003"/>
<feBlend mode="normal" in="SourceGraphic" in2="effect1_dropShadow_7788_3003" result="shape"/>
</filter>
<filter id="filter4_d_7788_3003" x="-2" y="264" width="433" height="216" filterUnits="userSpaceOnUse" color-interpolation-filters="sRGB">
<feFlood flood-opacity="0" result="BackgroundImageFix"/>
<feColorMatrix in="SourceAlpha" type="matrix" values="0 0 0 0 0 0 0 0 0 0 0 0 0 0 0 0 0 0 127 0" result="hardAlpha"/>
<feOffset dy="4"/>
<feGaussianBlur stdDeviation="9.5"/>
<feComposite in2="hardAlpha" operator="out"/>
<feColorMatrix type="matrix" values="0 0 0 0 0.904167 0 0 0 0 0.904167 0 0 0 0 0.904167 0 0 0 0.47 0"/>
<feBlend mode="normal" in2="BackgroundImageFix" result="effect1_dropShadow_7788_3003"/>
<feBlend mode="normal" in="SourceGraphic" in2="effect1_dropShadow_7788_3003" result="shape"/>
</filter>
<filter id="filter5_d_7788_3003" x="23" y="370.209" width="200.328" height="82.7761" filterUnits="userSpaceOnUse" color-interpolation-filters="sRGB">
<feFlood flood-opacity="0" result="BackgroundImageFix"/>
<feColorMatrix in="SourceAlpha" type="matrix" values="0 0 0 0 0 0 0 0 0 0 0 0 0 0 0 0 0 0 127 0" result="hardAlpha"/>
<feOffset dy="4"/>
<feGaussianBlur stdDeviation="9.5"/>
<feComposite in2="hardAlpha" operator="out"/>
<feColorMatrix type="matrix" values="0 0 0 0 0.8125 0 0 0 0 1 0 0 0 0 0.81875 0 0 0 1 0"/>
<feBlend mode="normal" in2="BackgroundImageFix" result="effect1_dropShadow_7788_3003"/>
<feBlend mode="normal" in="SourceGraphic" in2="effect1_dropShadow_7788_3003" result="shape"/>
</filter>
<filter id="filter6_d_7788_3003" x="-2" y="462" width="433" height="216" filterUnits="userSpaceOnUse" color-interpolation-filters="sRGB">
<feFlood flood-opacity="0" result="BackgroundImageFix"/>
<feColorMatrix in="SourceAlpha" type="matrix" values="0 0 0 0 0 0 0 0 0 0 0 0 0 0 0 0 0 0 127 0" result="hardAlpha"/>
<feOffset dy="4"/>
<feGaussianBlur stdDeviation="9.5"/>
<feComposite in2="hardAlpha" operator="out"/>
<feColorMatrix type="matrix" values="0 0 0 0 0.904167 0 0 0 0 0.904167 0 0 0 0 0.904167 0 0 0 0.47 0"/>
<feBlend mode="normal" in2="BackgroundImageFix" result="effect1_dropShadow_7788_3003"/>
<feBlend mode="normal" in="SourceGraphic" in2="effect1_dropShadow_7788_3003" result="shape"/>
</filter>
<clipPath id="clip0_7788_3003">
<rect x="1" y="1" width="428" height="468" rx="20" fill="white"/>
</clipPath>
<clipPath id="clip1_7788_3003">
<rect width="428" height="956" fill="white" transform="translate(1 -55)"/>
</clipPath>
</defs>
</svg>
